<?xml version="1.0" encoding="UTF-8"?>
<svg width="375px" height="106px" viewBox="0 0 375 106" version="1.1" xmlns="http://www.w3.org/2000/svg">
    <!-- Generator: Sketch 55.1 (78136) - https://sketchapp.com -->
    <title>bottom_bg</title>
    <desc>Created with Sketch.</desc>
    <g id="Deck_Mine/Create" stroke="none" stroke-width="1" fill="none" fill-rule="evenodd">
        <g id="Artboard" transform="translate(0.000000, -117.000000)" fill="#FFFFFF" fill-rule="nonzero">
            <g id="bottom_bg" transform="translate(-49.000000, 117.000000)">
                <path d="M268.719017,24.532498 C269.578978,24.1889504 270.517423,24 271.5,24 C274.318639,24 276.77412,25.5548679 278.055507,27.8536699 C280.490091,25.4697119 283.823411,24 287.5,24 C290.866057,24 293.944382,25.2319269 296.308703,27.2695092 C297.326666,26.4740452 298.607973,26 300,26 C302.056089,26 303.870626,27.0342094 304.951783,28.6108007 C306.828758,25.8596279 309.885762,24.0525521 313.34813,24.0011272 C313.120471,23.0377451 313,22.0329413 313,21 C313,13.8202983 318.820298,8 326,8 C328.185884,8 330.245763,8.53949421 332.053748,9.49259464 C335.666321,3.79551165 342.128835,0 349.5,0 C360.230622,0 369.035604,8.04355094 369.92592,18.2876981 L378.000073,18.4535914 C378.025096,10.4668051 384.507346,4 392.5,4 C398.387783,4 403.455943,7.50922646 405.727013,12.550214 C411.053458,8.96157238 417.422308,7 424,7 L424,19.3987161 L424,71 L49,71 L49,20.8635877 L49,7 C57.4886049,7 65.6293971,10.2668549 71.6308393,16.0816316 C74.9004368,19.2495333 77.3890827,23.032249 78.9768434,27.1491432 L79.000596,27.1541236 C79.0001989,27.1027973 79,27.0514225 79,27 C79,16.5065898 87.2827321,8 97.5,8 C105.236401,8 111.863666,12.8771255 114.625896,19.8009955 C118.601551,12.2013042 126.680437,7 136,7 C144.3415,7 151.68907,11.1668655 155.990132,17.4907815 C157.271582,17.1704165 158.615248,17 160,17 C166.066385,17 171.344238,20.2706 174.057167,25.0909179 C175.707917,23.203135 178.20519,22 181,22 C185.019207,22 188.423071,24.4882292 189.57882,27.9226253 C191.596644,25.5241657 194.620328,24 198,24 C198.717998,24 199.419929,24.0687907 200.099562,24.2001408 C203.190102,18.1371533 209.374623,14 216.5,14 C222.036456,14 227.004882,16.4977536 230.395232,20.4559154 C232.22856,19.5248141 234.302991,19 236.5,19 C239.362727,19 242.017337,19.8910493 244.201615,21.4109306 C246.859453,18.111236 250.933174,16 255.5,16 C261.380883,16 266.444063,19.5010065 268.719017,24.532498 Z"
                      id="Combined-Shape-Copy-2" fill-opacity="0.8"
                      transform="translate(236.500000, 35.500000) scale(-1, 1) translate(-236.500000, -35.500000) "></path>
                <path d="M250.513157,43.4761197 C251.442386,43.1683357 252.448913,43 253.5,43 C256.850127,43 259.747583,44.7101009 261.132296,47.194945 C263.864769,44.6107523 267.723378,43 272,43 C275.719496,43 279.122796,44.218415 281.744037,46.2359673 C282.923399,45.4607374 284.398927,45 286,45 C288.228562,45 290.213886,45.8926482 291.495857,47.2835594 C293.69031,44.6781121 297.131367,43 301,43 C301.130329,43 301.260174,43.0019045 301.389501,43.0056849 C301.134796,42.0409143 301,41.0345704 301,40 C301,32.8202983 307.491871,27 315.5,27 C317.990598,27 320.334534,27.5629768 322.382128,28.5547343 C326.426642,22.8231275 333.699881,19 342,19 C354.035617,19 363.912059,27.0387185 364.915983,37.2784656 L375.00006,37.4604237 C375.024351,29.4704935 382.402318,23 391.5,23 C398.177913,23 403.929259,26.4862407 406.525893,31.5006537 C412.50125,27.9435163 419.634232,26 427,26 L427,38.3987161 L427,90 L0,90 L0,39.8635877 L0,26 C9.54968047,26 18.7080718,29.2668549 25.4596943,35.0816316 C29.11355,38.2284834 31.9004723,41.9820056 33.6882074,46.0671201 L34.0004422,46.1246168 C34.0001476,46.0831093 34,46.0415702 34,46 C34,35.5065898 43.4020203,27 55,27 C63.9964989,27 71.6716818,32.1184429 74.6622033,39.3123018 C79.0225985,31.4355652 88.2819866,26 99,26 C108.384188,26 116.650203,30.1668655 121.488898,36.4907815 C122.93053,36.1704165 124.442154,36 126,36 C132.967841,36 139.010978,39.4092509 142.002549,44.3962887 C143.827162,42.3338403 146.730325,41 150,41 C154.600666,41 158.475693,43.6408034 159.641494,47.2363602 C161.929139,44.6578631 165.494561,43 169.5,43 C170.154411,43 170.797077,43.0442537 171.424344,43.129546 C174.946044,37.1050619 181.943165,33 190,33 C196.540934,33 202.383412,35.7056422 206.234816,39.9474149 C208.499972,38.7115053 211.157663,38 214,38 C217.204664,38 220.174607,38.9044658 222.611871,40.4452354 C225.635571,37.1258759 230.28528,35 235.5,35 C242.167016,35 247.910488,38.4748729 250.513157,43.4761197 Z"
                      id="Combined-Shape-Copy" fill-opacity="0.6"></path>
                <path d="M268.747989,59.4952976 C269.722353,59.015628 270.819444,58.7461005 271.979688,58.7461005 C274.533111,58.7461005 276.780665,60.0515215 278.087334,62.029369 C280.507912,59.7725316 283.760071,58.3909837 287.335938,58.3909837 C291.035589,58.3909837 294.388733,59.8698362 296.832907,62.2668671 C297.824756,61.5426947 299.048222,61.1151035 300.371875,61.1151035 C301.987581,61.1151035 303.45401,61.7521994 304.532132,62.7881215 C306.534008,60.282225 309.621018,58.6760117 313.084375,58.6760117 C313.118776,58.6760117 313.15314,58.6761702 313.187466,58.6764864 C313.0581,57.9450188 312.990625,57.1922758 312.990625,56.4238235 C312.990625,49.3065287 318.778744,43.5368213 325.91875,43.5368213 C328.152679,43.5368213 330.254271,44.1016222 332.087655,45.0957853 C335.581677,39.0613003 342.122072,35 349.614062,35 C360.349798,35 369.131548,43.3393904 369.795608,53.8740699 L378.58214,54.0525827 C378.567031,53.7826774 378.559375,53.5107886 378.559375,53.2371173 C378.559375,45.2811275 385.02956,38.8315235 393.010938,38.8315235 C398.826889,38.8315235 403.840413,42.2561945 406.132743,47.1928733 C411.325443,43.5402437 417.55934,41.5416255 424,41.5416255 L424,54.9753207 L424,106 L49,106 L49,56.4238235 L49,41.5416255 C57.220435,41.5416255 65.1040453,44.7974323 70.9158915,50.5925444 C74.3087707,53.9756545 76.8332618,58.0623287 78.3464602,62.5084406 L78.9044469,62.6241321 C78.8807651,62.2394086 78.86875,61.8515405 78.86875,61.4608751 C78.86875,51.1307333 87.2697069,42.7564988 97.6328125,42.7564988 C105.513229,42.7564988 112.259025,47.5989316 115.038919,54.4615204 C118.91795,46.7897963 126.891708,41.5276077 136.098437,41.5276077 C144.659847,41.5276077 152.155071,46.077972 156.28292,52.8848317 C157.458652,52.5959949 158.687938,52.4427771 159.953125,52.4427771 C165.836862,52.4427771 170.944185,55.7564264 173.499412,60.6136918 C175.005662,58.6303451 177.393341,57.3489962 180.08125,57.3489962 C184.384925,57.3489962 187.918931,60.633858 188.297655,64.8255572 C190.172486,61.464306 193.771361,59.1899965 197.903125,59.1899965 C198.757114,59.1899965 199.588338,59.2871555 200.386279,59.4709893 C203.428247,53.2331705 209.846357,48.9336623 217.271875,48.9336623 C222.573395,48.9336623 227.3614,51.1252865 230.773832,54.6492179 C232.391559,53.9685523 234.169661,53.5922342 236.035937,53.5922342 C239.101411,53.5922342 241.928989,54.6075436 244.198706,56.3192139 C246.816231,52.9329783 250.92518,50.7512997 255.545313,50.7512997 C261.48602,50.7512997 266.581556,54.3583999 268.747989,59.4952976 Z"
                      id="Combined-Shape"></path>
            </g>
        </g>
    </g>
</svg>