<?xml version="1.0" encoding="UTF-8"?>
<svg width="107px" height="136px" viewBox="0 0 107 136" version="1.1" xmlns="http://www.w3.org/2000/svg">
    <!-- Generator: Sketch 58 (84663) - https://sketch.com -->
    <title>_Group_15</title>
    <desc>Created with Sketch.</desc>
    <g id="Register" stroke="none" stroke-width="1" fill="none" fill-rule="evenodd" opacity="0.2">
        <g id="Splash_screen3-Copy-2" transform="translate(-251.000000, -68.000000)" fill="#121212" fill-rule="nonzero">
            <g id="_Group_15" transform="translate(251.000000, 67.000000)">
                <g id="_Group_16" transform="translate(0.000000, 36.314713)">
                    <circle id="_Path_73" cx="1.5" cy="2.09051383" r="1.5"></circle>
                    <circle id="_Path_74" cx="26.9413043" cy="2.09051383" r="1.5"></circle>
                    <circle id="_Path_75" cx="52.3826087" cy="2.09051383" r="1.5"></circle>
                    <circle id="_Path_76" cx="77.823913" cy="2.09051383" r="1.5"></circle>
                    <circle id="_Path_77" cx="103.257016" cy="2.09051383" r="1.5"></circle>
                </g>
                <g id="_Group_17" transform="translate(0.000000, 0.784585)">
                    <circle id="_Path_79" cx="1" cy="1.25424901" r="1"></circle>
                    <circle id="_Path_80" cx="26.4413043" cy="1.25424901" r="1"></circle>
                    <circle id="_Path_81" cx="51.8826087" cy="1.25424901" r="1"></circle>
                    <circle id="_Path_82" cx="77.323913" cy="1.25424901" r="1"></circle>
                    <circle id="_Path_83" cx="102.757016" cy="1.25424901" r="1"></circle>
                </g>
                <g id="_Group_18" transform="translate(0.000000, 18.049649)">
                    <circle id="_Path_85" cx="1" cy="1.74634387" r="1"></circle>
                    <circle id="_Path_86" cx="26.4413043" cy="1.74634387" r="1"></circle>
                    <circle id="_Path_87" cx="51.8826087" cy="1.74634387" r="1"></circle>
                    <circle id="_Path_88" cx="77.323913" cy="1.74634387" r="1"></circle>
                    <circle id="_Path_89" cx="102.757016" cy="1.74634387" r="1"></circle>
                </g>
                <g id="_Group_19" transform="translate(0.000000, 53.579777)">
                    <circle id="_Path_91" cx="1.5" cy="1.91828063" r="1.5"></circle>
                    <circle id="_Path_92" cx="26.9413043" cy="1.91828063" r="1.5"></circle>
                    <circle id="_Path_93" cx="52.3826087" cy="1.91828063" r="1.5"></circle>
                    <circle id="_Path_94" cx="77.823913" cy="1.91828063" r="1.5"></circle>
                    <circle id="_Path_95" cx="103.257016" cy="1.91828063" r="1.5"></circle>
                </g>
                <g id="_Group_20" transform="translate(0.000000, 71.844841)">
                    <circle id="_Path_97" cx="2" cy="2.08201581" r="2"></circle>
                    <circle id="_Path_98" cx="27.4413043" cy="2.08201581" r="2"></circle>
                    <circle id="_Path_99" cx="52.8826087" cy="2.08201581" r="2"></circle>
                    <circle id="_Path_100" cx="78.323913" cy="2.08201581" r="2"></circle>
                    <circle id="_Path_101" cx="103.757016" cy="2.08201581" r="2"></circle>
                </g>
                <g id="_Group_21" transform="translate(0.000000, 91.109906)">
                    <circle id="_Path_103" cx="2" cy="2.57411067" r="2"></circle>
                    <circle id="_Path_104" cx="27.4413043" cy="2.57411067" r="2"></circle>
                    <circle id="_Path_105" cx="52.8826087" cy="2.57411067" r="2"></circle>
                    <circle id="_Path_106" cx="78.323913" cy="2.57411067" r="2"></circle>
                    <circle id="_Path_107" cx="103.757016" cy="2.57411067" r="2"></circle>
                </g>
                <g id="_Group_21-Copy" transform="translate(0.000000, 130.640034)">
                    <circle id="_Path_103" cx="2.5" cy="3.07411067" r="2.5"></circle>
                    <circle id="_Path_104" cx="27.9413043" cy="3.07411067" r="2.5"></circle>
                    <circle id="_Path_105" cx="53.3826087" cy="3.07411067" r="2.5"></circle>
                    <circle id="_Path_106" cx="78.823913" cy="3.07411067" r="2.5"></circle>
                    <circle id="_Path_107" cx="104.257016" cy="3.07411067" r="2.5"></circle>
                </g>
                <g id="_Group_21-Copy-2" transform="translate(0.000000, 110.374970)">
                    <circle id="_Path_103" cx="2.5" cy="3.07411067" r="2.5"></circle>
                    <circle id="_Path_104" cx="27.9413043" cy="3.07411067" r="2.5"></circle>
                    <circle id="_Path_105" cx="53.3826087" cy="3.07411067" r="2.5"></circle>
                    <circle id="_Path_106" cx="78.823913" cy="3.07411067" r="2.5"></circle>
                    <circle id="_Path_107" cx="104.257016" cy="3.07411067" r="2.5"></circle>
                </g>
            </g>
        </g>
    </g>
</svg>