<?xml version="1.0" encoding="UTF-8"?>
<svg width="250px" height="265px" viewBox="0 0 250 265" version="1.1" xmlns="http://www.w3.org/2000/svg">
    <!-- Generator: Sketch 55.1 (78136) - https://sketchapp.com -->
    <title>voiceAsset 1</title>
    <desc>Created with Sketch.</desc>
    <defs>
        <linearGradient x1="38.819405%" y1="67.8623332%" x2="62.5101542%" y2="32.1376668%" id="linearGradient-1">
            <stop stop-color="#FD4468" offset="0%"></stop>
            <stop stop-color="#FF7B96" offset="100%"></stop>
        </linearGradient>
    </defs>
    <g id="Deck_Mine/Create" stroke="none" stroke-width="1" fill="none" fill-rule="evenodd">
        <g id="Deck_Create28" transform="translate(-63.000000, -152.000000)">
            <g id="voiceAsset-1" transform="translate(63.000000, 152.000000)">
                <path d="M131.962974,97.8109237 L132.056452,10.8945882 C132.061356,7.06520473 130.060516,3.51515633 126.78807,1.54702762 C123.515623,-0.421101083 119.453422,-0.517513846 116.091969,1.29316513 L115.119893,1.81545752 L115.119893,1.62155256 L40.2139846,41.9381471 C36.0007759,44.2003625 33.3673305,48.6041602 33.3596048,53.4004324 L33.266129,140.316768 C33.261812,144.14522 35.2622305,147.694236 38.533711,149.662168 C41.8051915,151.630101 45.866271,151.727328 49.2274941,149.918191 L50.1995697,149.395899 L50.1995697,149.589803 L125.117941,109.273209 C129.327534,107.008488 131.957095,102.605181 131.962974,97.8109237 Z"
                      id="Path" fill="#CCE6FF" fill-rule="nonzero" opacity="0.46"></path>
                <path d="M104.956928,262.491088 L36.0493937,222.571024 C31.9205718,220.178448 32.4460583,216.003167 37.2223544,213.26656 L162.191157,141.376668 C166.964325,138.630678 174.183507,138.342943 178.309201,140.732392 L247.216735,180.652456 C251.345557,183.045032 250.820071,187.220313 246.043775,189.95692 L121.0781,261.846812 C116.301804,264.59593 109.08575,264.883664 104.956928,262.491088 Z"
                      id="Path" fill="#DCDDDD" fill-rule="nonzero" opacity="0.4"
                      style="mix-blend-mode: multiply;"></path>
                <path d="M113.91129,98.7903226 L127.821469,96.9888623 C128.352774,96.9189854 128.796958,96.5482392 128.963402,96.0357287 C129.129845,95.5232182 128.988952,94.9600713 128.601188,94.5879615 L117.204821,83.6693548 L113.91129,98.7903226 Z"
                      id="Path" fill="#97CBFF" fill-rule="nonzero"></path>
                <polygon id="Path" fill="#CCE6FF" fill-rule="nonzero"
                         points="114.919355 76.7742577 109.113411 74.5967742 80.6451613 109.277183 87.7683938 111.895161"></polygon>
                <path d="M107.52832,97.5911436 L88.8051948,108.463438 C81.4392779,112.740856 73.0011662,106.791984 73.620932,97.7573483 L73.6829086,96.8604703 C73.9710997,92.6677222 76.2549368,88.8606943 79.6729453,86.8756461 L100.193392,74.9590845 C107.320699,70.8196474 115.489212,76.5740922 114.88804,85.3076774 L114.88804,85.3076774 C114.534773,90.478838 111.730333,95.1545204 107.52832,97.5911436 Z"
                      id="Path" fill="#97CBFF" fill-rule="nonzero"></path>
                <path d="M113.576708,99.6072727 L94.8535819,110.479567 C87.487665,114.756985 79.0495533,108.808113 79.6693191,99.7734773 L79.7312957,98.8765993 C80.0194868,94.6838512 82.3033239,90.8768234 85.7213324,88.8917751 L106.241779,76.9752136 C113.369086,72.8357764 121.5376,78.5902213 120.936427,87.3238065 L120.936427,87.3238065 C120.58316,92.4918311 117.77872,97.1706494 113.576708,99.6072727 Z"
                      id="Path" fill="#ADD6FF" fill-rule="nonzero"></path>
                <polygon id="Path" fill="#CCE6FF" fill-rule="nonzero"
                         points="100.806452 84.8387738 94.9974231 82.6612903 66.5322581 117.341699 73.6524056 119.959677"></polygon>
                <path d="M93.4154172,105.65566 L74.6922916,116.527954 C67.3263747,120.805373 58.888263,114.8565 59.5080288,105.821864 L59.5700054,104.924986 C59.8581965,100.732238 62.1420336,96.9252105 65.5600421,94.9401622 L86.0804886,83.0236007 C93.2077956,78.8841635 101.376309,84.6386084 100.775136,93.3721936 L100.775136,93.3721936 C100.428068,98.5402182 97.6205283,103.203357 93.4154172,105.65566 Z"
                      id="Path" fill="#97CBFF" fill-rule="nonzero"></path>
                <path d="M99.4429074,107.685126 L80.7313097,118.54562 C73.3699281,122.818395 64.9370118,116.875979 65.5563961,107.85115 L65.6183345,106.955246 C65.9063481,102.767048 68.188779,98.9641527 71.6046831,96.981259 L96.1106202,82.7689544 C103.233539,78.6340102 107.395801,86.6940189 106.798095,95.4306549 L106.798095,95.4306549 C106.445046,100.583673 103.639236,105.248015 99.4429074,107.685126 Z"
                      id="Path" fill="#ADD6FF" fill-rule="nonzero"></path>
                <path d="M23.3861765,211.701403 L23.1854839,204.637097 L32.2580645,210.546938 C32.2580645,210.546938 29.7095868,216.942869 29.4165119,216.728605 C29.1234369,216.514342 23.3861765,211.701403 23.3861765,211.701403 Z"
                      id="Path" fill="#BCBEC0" fill-rule="nonzero"></path>
                <path d="M93.8682181,257.450434 L24.960684,217.529466 C20.8318622,215.136835 21.3573486,210.961459 26.1336447,208.22479 L151.102447,136.336397 C155.878743,133.590344 163.094798,133.302603 167.220492,135.692106 L236.128026,175.613075 C240.256848,178.005706 239.731361,182.181081 234.955065,184.91775 L109.986263,256.809272 C105.213095,259.555324 97.99704,259.843065 93.8682181,257.450434 Z"
                      id="Path" fill="#BCBEC0" fill-rule="nonzero"></path>
                <path d="M101.814516,219.206397 L151.345108,136.33666 C156.108205,133.590288 163.304318,133.302513 167.41861,135.692295 L236.135717,175.61791 C240.253129,178.01082 239.729095,182.186681 234.965998,184.923669 L110.342549,256.823559 C107.962561,258.196745 104.971198,258.956845 102.064056,259.072581 L101.814516,219.206397 Z"
                      id="Path" fill="#BCBEC0" fill-rule="nonzero"></path>
                <polygon id="Path" fill="#BCBEC0" fill-rule="nonzero"
                         points="156.25 191.259866 168.86805 174.202913 238.91129 171.370968 238.883292 179.369426 162.300815 203.629032"></polygon>
                <path d="M90.7258065,250.629924 C90.7258065,251.872571 89.8151882,252.372226 88.7096774,251.746035 C87.5181972,250.992097 86.7695669,249.735539 86.6935484,248.362012 C86.6935484,247.119364 87.6041667,246.61971 88.7096774,247.2459 C89.9011577,247.999839 90.6497879,249.256396 90.7258065,250.629924 Z"
                      id="Path" fill="#DCDDDD" fill-rule="nonzero"></path>
                <path d="M94.8762827,249.386249 L25.9687485,209.466186 C21.8399267,207.073609 22.3654131,202.898328 27.1417093,200.161721 L152.110511,128.271829 C156.886808,125.525839 164.102862,125.238104 168.228556,127.627554 L237.13609,167.547617 C241.264912,169.940194 240.739426,174.115474 235.963129,176.852082 L110.994327,248.741974 C106.221159,251.491091 99.0051045,251.778826 94.8762827,249.386249 Z"
                      id="Path" fill="#F1F2F2" fill-rule="nonzero"></path>
                <path d="M66.3974317,237.764237 L51.5461033,229.03573 C50.9169128,228.665748 50.4032258,227.666794 50.4032258,226.815834 L50.4032258,226.815834 C50.4032258,225.964874 50.9199523,225.582559 51.5491429,225.940209 L66.4004712,234.668716 C67.0296618,235.038698 67.5433487,236.037651 67.5403226,236.888612 L67.5403226,236.888612 C67.5403226,237.739572 67.0266222,238.13422 66.3974317,237.764237 Z"
                      id="Path" fill="#DCDDDD" fill-rule="nonzero"></path>
                <path d="M217.536142,192.439641 L225.001103,187.879828 C225.500664,187.499099 225.79969,186.888767 225.806452,186.23606 L225.806452,186.23606 C225.806452,185.611428 225.447142,185.318837 225.004201,185.578552 L217.539239,190.138365 C217.039679,190.519095 216.740652,191.129427 216.733871,191.782134 L216.733871,191.782134 C216.730793,192.410053 217.0932,192.712506 217.536142,192.439641 Z"
                      id="Path" fill="#DCDDDD" fill-rule="nonzero"></path>
                <path d="M155.888821,132.548639 L51.2203122,193.085444 C50.0908014,193.741978 49.3951613,194.954182 49.3951613,196.265904 C49.3951613,197.577626 50.0908014,198.789831 51.2203122,199.446365 L114.650675,236.402974 C115.781242,237.059224 117.174159,237.059224 118.304727,236.402974 L222.973236,175.866169 C224.102747,175.209635 224.798387,173.997431 224.798387,172.685709 C224.798387,171.373987 224.102747,170.161782 222.973236,169.505248 L159.542874,132.548639 C158.412306,131.892389 157.019389,131.892389 155.888821,132.548639 Z"
                      id="Path" fill="url(#linearGradient-1)" fill-rule="nonzero"></path>
                <path d="M156.97077,191.738218 C145.795372,198.213495 127.598098,198.179251 116.341989,191.663503 C105.085879,185.147756 105.030002,174.616091 116.214713,168.140814 C127.399425,161.665537 145.587385,161.699781 156.843495,168.215529 C168.099605,174.731276 168.155482,185.262941 156.97077,191.738218 Z"
                      id="Path" fill="#FFFFFF" fill-rule="nonzero"></path>
                <path d="M110.724413,197.853184 C109.155603,198.835584 106.598442,198.832184 105.020219,197.853184 C103.441996,196.874184 103.432583,195.266312 105.001393,194.283913 C106.570204,193.301513 109.127364,193.304912 110.705587,194.283913 C112.28381,195.262913 112.293223,196.870785 110.724413,197.853184 Z"
                      id="Path" fill="#FFFFFF" fill-rule="nonzero"></path>
                <path d="M119.801326,203.902688 C118.23153,204.883596 115.672762,204.880202 114.093547,203.902688 C112.514333,202.925173 112.504914,201.319742 114.07471,200.338833 C115.644506,199.357925 118.209553,199.340954 119.779349,200.338833 C121.349145,201.336712 121.371122,202.921779 119.801326,203.902688 Z"
                      id="Path" fill-opacity="0.5" fill="#FFFFFF" fill-rule="nonzero"></path>
                <path d="M45.0911063,106.573717 C43.241623,109.006123 41.7864853,111.725238 40.7810968,114.627534 C40.0330023,116.74068 39.429601,118.263526 37.3300107,119.243172 C34.9841341,120.335853 37.0221528,123.865089 39.3557151,122.778687 C41.6369416,121.717405 43.050009,119.952787 43.9735824,117.619849 C45.1157349,114.73743 46.0269941,111.968047 47.9295554,109.456136 C49.4934731,107.399508 46.6734955,104.482551 45.0911063,106.561158 L45.0911063,106.573717 Z"
                      id="Path" fill="#FFC2B0" fill-rule="nonzero"></path>
                <path d="M52.1193931,104.002438 L52.1193931,104.002438 C51.49997,102.868629 50.1467959,102.485903 49.0899414,103.145601 L45.4504736,105.436847 C44.3976001,106.103885 44.0421944,107.561079 44.6548004,108.699175 L44.6548004,108.699175 C45.2742235,109.832984 46.6273977,110.21571 47.6842522,109.556012 L51.32372,107.264766 C52.3765935,106.597727 52.7319991,105.140534 52.1193931,104.002438 L52.1193931,104.002438 Z"
                      id="Path" fill="#FFC2B0" fill-rule="nonzero"></path>
                <path d="M4.98288065,193.641887 C11.653278,197.568057 22.5028706,197.545677 29.2171934,193.597126 C35.9315162,189.648575 35.9628915,183.263753 29.2924942,179.34078 C22.6220969,175.417807 11.7725043,175.43699 5.05818147,179.385541 C-1.65614132,183.334092 -1.6906542,189.731703 4.98288065,193.641887 Z"
                      id="Path" fill="#D4D4D4" fill-rule="nonzero" opacity="0.4"
                      style="mix-blend-mode: multiply;"></path>
                <path d="M21.6260226,183.444711 L21.9426883,183.311195 C22.1232994,183.233303 22.220108,182.985335 22.1592119,182.756588 L22.1592119,182.756588 C22.0976319,182.528134 21.9015945,182.405681 21.7207516,182.482708 L21.4040859,182.616224 C21.2234748,182.694117 21.1266662,182.942084 21.1875623,183.170831 L21.1875623,183.170831 C21.2491423,183.399286 21.4451797,183.521739 21.6260226,183.444711 L21.6260226,183.444711 Z"
                      id="Path" fill="#BC4073" fill-rule="nonzero"></path>
                <path d="M22.9174881,184.081646 L23.181038,181.990881 C23.2123209,181.736739 23.0752022,181.49838 22.8740458,181.457224 L22.8740458,181.457224 C22.6726788,181.417742 22.4838171,181.590797 22.4512075,181.844674 L22.1818652,183.935439 C22.1505823,184.189581 22.287701,184.42794 22.4888574,184.469096 L22.4888574,184.469096 C22.5864844,184.490189 22.6867395,184.461097 22.7672639,184.388309 C22.8477883,184.315522 22.9018846,184.205091 22.9174881,184.081646 Z"
                      id="Path" fill="#C9457B" fill-rule="nonzero"></path>
                <path d="M21.1717577,178.55798 C21.2495903,180.636553 21.2122306,183.704627 21.2122306,183.704627 C21.2931765,184.040684 21.4799747,184.143368 21.7414922,184.081135 L22.139995,181.84698 C22.2769804,181.535816 22.7626557,181.974557 22.9338874,182.338619 C23.9675041,184.516764 22.9120943,185.602725 24.088923,186.71358 C24.088923,186.71358 26.9313689,188.580562 30.1038251,188.505882 C30.1038251,188.505882 31.6386836,188.194719 31.1561216,187.214553 C30.2034508,185.279115 26.4332404,179.718621 25.7265205,178.439738 L25.4961361,178.324607 L24.2850611,175.461902 C23.69976,175.188078 22.417079,175.919312 21.8442312,176.687887 C21.4145954,177.023943 21.1406247,177.696057 21.1717577,178.55798 Z"
                      id="Path" fill="#06062D" fill-rule="nonzero"></path>
                <path d="M24.7217329,174.461406 L25.9719178,175.88239 C25.9719178,175.88239 28.6855738,182.117653 29.1876165,183.341733 C29.7716924,184.779125 24.6692317,186.295278 22.6249661,178.051605 C20.8989891,173.604878 24.7217329,174.461406 24.7217329,174.461406 Z"
                      id="Path" fill="#FFC2B0" fill-rule="nonzero"></path>
                <path d="M24.9722859,135.698924 C25.0962434,144.623102 24.5006427,153.349523 23.7055007,162.24231 C23.255021,167.264711 23.1854839,171.750342 23.1854839,176.107274 C23.1854839,179.591565 27.3184084,182.319356 27.263988,178.809954 C27.1853808,173.822082 28.1347139,166.881753 28.6275205,161.514062 C29.4559194,152.498854 30.3568788,144.745523 30.229898,135.698924 C30.1815243,132.192661 24.9269356,132.180105 24.9753093,135.698924 L24.9722859,135.698924 Z"
                      id="Path" fill="#FFC2B0" fill-rule="nonzero"></path>
                <path d="M24.2029298,135.125617 C24.83506,144.126605 25.2111775,153.146436 24.2408576,162.134862 C24.0543792,163.849635 25.8496291,165.322581 27.4489186,165.322581 C29.3453094,165.322581 30.4705012,163.852775 30.6569796,162.134862 C31.6304602,153.143296 31.2511821,144.120323 30.6190518,135.125617 C30.3345932,131.042824 23.9153105,131.02398 24.2029298,135.125617 L24.2029298,135.125617 Z"
                      id="Path" fill="#43529E" fill-rule="nonzero"></path>
                <path d="M29.1395817,93.4818537 C30.1062626,95.1269504 30.6824926,97.225867 29.819722,98.9276912 C29.6622821,99.2428438 29.4607591,99.5296327 29.2718312,99.8258762 C28.7796707,100.601241 28.3821838,101.432878 28.0878832,102.302976 C28.0489595,102.456771 27.9781535,102.600653 27.8800626,102.72528 C27.5884252,102.962666 27.1703823,102.962666 26.8787449,102.72528 C26.6013432,102.489562 26.3481806,102.226678 26.1230334,101.94055 C25.3704708,101.162123 14.5858385,110.597793 13.8175319,109.835124 C12.7784286,108.801423 13.1688795,94.7739795 13.2129627,93.3085197 C13.2727898,91.4428161 22.5995288,92.1014851 23.8590479,90.6896013 C24.1189525,90.431384 24.361916,90.1566289 24.5864201,89.867053 L24.5864201,89.867053 C24.8855559,89.4258393 25.071335,88.5812302 25.7325825,88.7262004 C26.2647293,88.8428069 26.6016507,89.7000221 26.8535545,90.0971144 C27.577778,91.2568761 28.449995,92.3063343 29.1395817,93.4818537 Z"
                      id="Path" fill="#06062D" fill-rule="nonzero"></path>
                <path d="M14.0477977,106.684661 C16.0411761,104.65307 19.8965736,103.871936 22.6485524,103.91051 C23.364461,103.91051 23.364461,102.833639 22.6485524,102.823995 C19.5780272,102.782206 15.4763309,103.662991 13.2629255,105.916385 C12.7670439,106.421068 13.5519161,107.202202 14.0477977,106.684661 Z"
                      id="Path" fill="#5C5C9E" fill-rule="nonzero"></path>
                <path d="M24.3295762,106.061831 C26.32531,112.055123 30.7190185,127.270747 40.0386312,121.827859 C43.015214,120.091028 40.3140115,115.495151 37.3250521,117.241156 C36.7062199,117.598919 36.5855476,117.751809 36.0873877,117.592803 C36.7062199,117.785445 35.8491373,117.470491 35.8491373,117.470491 C36.3008848,117.757924 35.4438022,117.18 35.3726365,117.124959 C35.6665818,117.351237 34.9456423,116.675462 34.8744766,116.602075 C34.8033109,116.528688 34.4072583,116.051671 34.515554,116.19233 C34.0120889,115.515784 33.56506,114.799943 33.1788764,114.051868 C31.5791952,111.0858 30.5859696,107.838414 29.5277665,104.6583 C28.4509985,101.423145 23.2559023,102.823618 24.3419528,106.071004 L24.3295762,106.061831 Z"
                      id="Path" fill="#FD4468" fill-rule="nonzero"></path>
                <path d="M13.7701786,136.717825 C13.4623054,142.446034 13.4869353,148.189989 13.5854547,153.921347 C13.6223995,156.092126 13.6757642,158.261854 13.7455488,160.430533 C13.7640212,161.038309 13.7455488,161.655532 13.8071234,162.263308 C13.8871705,163.239528 13.6470294,162.282202 13.9087216,162.127897 C13.490014,162.370377 13.1051725,164.552702 12.9543146,164.999874 C12.2975184,166.956514 11.6284073,168.910004 10.9469812,170.860345 C9.57694543,174.774674 9.27830841,178.172551 7.48340755,181.907381 C5.96559259,185.056479 8.8657583,188.375628 10.3897307,185.213934 C13.4029473,178.994014 16.0312024,172.586629 18.2589701,166.029629 C18.708465,164.688113 19.1825898,163.510351 19.1518025,162.099555 C19.1056215,158.950457 18.9609211,155.801359 18.9178188,152.652261 C18.8408505,147.339733 18.8377718,142.014608 19.1210151,136.708378 C19.3088178,133.187686 13.9579813,133.200283 13.7701786,136.708378 L13.7701786,136.717825 Z"
                      id="Path" fill="#FFC2B0" fill-rule="nonzero"></path>
                <path d="M11.1356114,139.257634 C11.6952912,146.71594 16.6280632,147.46055 21.6209137,144.683521 C24.6975721,142.968477 28.7481367,140.673613 30.0066259,137.27099 C30.7876482,135.162279 29.3742193,132.153322 29.3742193,130.026301 C29.3742193,130.026301 26.6011161,121.786764 21.6145896,124.563793 C16.6280632,127.340822 10.4905566,130.603068 11.1356114,139.257634 Z"
                      id="Path" fill="#43529E" fill-rule="nonzero"></path>
                <path d="M28.3286562,107.862903 C28.3286562,107.862903 31.5924773,112.935228 31.2204517,115.992223 C30.9828556,117.939551 29.5635311,120.127976 29.3446925,120.752357 C27.6471304,125.852501 28.58501,127.397999 28.4068129,128.810585 C28.4068129,128.810585 27.2751048,133.663449 15.1608264,129.07641 L10.0806452,114.298357 L28.3286562,107.862903 Z"
                      id="Path" fill="#FD4468" fill-rule="nonzero"></path>
                <path d="M11.2940831,118.083901 C10.8423696,117.814626 10.7318104,117.09037 10.7318104,117.09037 C10.4159269,114.453333 8.94075073,113.255525 11.8689911,108.733564 C12.3396576,108.009308 18.7457758,104.753249 23.5566821,103.902093 C25.9011018,103.511761 28.212191,104.750302 29.1415031,106.895067 C29.6911405,108.133113 30.2249836,110.609203 30.2249836,110.609203 C30.4555786,115.453055 28.2633469,109.092598 27.915875,111.766775 C27.915875,111.701778 27.9443045,111.636781 27.953781,111.571783 C27.953781,111.571783 27.3567611,116.090648 26.9050476,119.588126 C26.6239113,121.770181 26.4249047,123.348688 26.4091105,123.571536 C26.4091105,123.571536 26.4091105,123.596297 26.4091105,123.599392 L18.0603085,130.040323 L13.6663685,122.265399 L13.6663685,122.265399 L11.2940831,118.083901 Z"
                      id="Path" fill="#FD4468" fill-rule="nonzero"></path>
                <path d="M23.1994741,102.822581 C23.1994741,102.822581 27.3139131,107.087705 23.7464086,110.109226 C20.178904,113.130746 14.1129032,106.375289 14.1129032,106.375289 C17.3012827,104.372399 20.3622514,103.013183 23.1994741,102.822581 Z"
                      id="Path" fill="#FFC2B0" fill-rule="nonzero"></path>
                <path d="M22.0103328,105.753209 L24.1935484,97.7822581 L18.9298188,99.3704324 L17.1636575,105.879541 C16.7908363,106.935316 20.4400606,109.825913 22.0103328,105.753209 Z"
                      id="Path" fill="#FFC2B0" fill-rule="nonzero"></path>
                <path d="M22.1774194,103.862818 C22.1774194,103.862818 20.1694459,102.841474 20.1613601,102.822758 C20.1532743,102.804042 20.848653,104.27189 21.8459016,104.83871 L22.1774194,103.862818 Z"
                      id="Path" fill="#EA8A6C" fill-rule="nonzero"></path>
                <path d="M3.2999095,186.403509 L3.62684764,186.484423 C3.81134254,186.529603 3.9886946,186.366487 4.02673893,186.116631 L4.02673893,186.116631 C4.05993018,185.865496 3.9400977,185.624084 3.75654211,185.572298 L3.42960397,185.491384 C3.24510907,185.446204 3.06775701,185.60932 3.02971269,185.859176 L3.02971269,185.859176 C2.99652143,186.110311 3.11635391,186.351723 3.2999095,186.403509 L3.2999095,186.403509 Z"
                      id="Path" fill="#06062D" fill-rule="nonzero"></path>
                <path d="M4.78569353,186.353577 L5.95963268,185.058933 C6.10209996,184.90148 6.06961513,184.675053 5.88688152,184.55184 L5.88688152,184.55184 C5.70308635,184.429792 5.43877798,184.457621 5.29495164,184.614165 L4.12101249,185.908809 C3.9785452,186.066262 4.01103003,186.292689 4.19376364,186.415902 L4.19376364,186.415902 C4.37755881,186.53795 4.64186718,186.510121 4.78569353,186.353577 L4.78569353,186.353577 Z"
                      id="Path" fill="#C9457B" fill-rule="nonzero"></path>
                <path d="M5.48093719,181.081349 C4.54444025,182.998468 3.02419355,185.730363 3.02419355,185.730363 L3.52365858,186.311889 L4.73798295,184.516188 C5.00332375,184.31489 5.22183971,184.937954 5.19686645,185.35333 C5.05327026,187.820023 3.59857834,188.280132 4.09180006,189.861755 C4.09180006,189.861755 5.68072321,192.957903 8.50894397,194.453256 C8.50894397,194.453256 10.0073391,194.935731 10.0697722,193.814216 C10.1696652,191.599943 9.54845558,184.733461 9.54533392,183.234913 L9.39861607,183.017639 L9.71078172,179.844807 C9.32993963,179.308014 7.83778783,179.327185 6.97308899,179.739366 C6.43616407,179.80327 5.87738757,180.279354 5.48093719,181.081349 Z"
                      id="Path" fill="#06062D" fill-rule="nonzero"></path>
                <path d="M10.7336644,180.134692 L11.0887097,181.967619 C11.0887097,181.967619 10.5312006,188.638694 10.3903562,189.947003 C10.2289719,191.465806 5.58110648,190.342086 7.53532264,182.255835 C8.1104373,177.573128 10.7336644,180.134692 10.7336644,180.134692 Z"
                      id="Path" fill="#FFC2B0" fill-rule="nonzero"></path>
                <path d="M12.7350023,115.927419 C13.1995772,116.940333 13.7719493,117.900532 14.4422625,118.791484 C16.2707299,121.25689 19.4049931,122.386162 22.3913937,121.65555 C26.7887855,120.605392 31.25,118.380968 31.25,118.380968 C31.25,118.380968 29.3353156,124.478245 30.0086463,128.032868 C30.3277604,129.681297 30.0948071,129.375796 30.0948071,129.375796 C30.002264,130.951032 27.3982933,130.51824 27.3982933,130.51824 C21.829753,132.243044 15.6804251,129.207135 15.6804251,129.207135 L12.0967742,118.692833 L12.7350023,115.927419 Z"
                      id="Path" fill="#C4003E" fill-rule="nonzero"></path>
                <path d="M30.2252749,128.907352 L30.2252749,128.907352 C30.2925186,129.272809 30.1530554,129.645801 29.8639734,129.873647 C28.8149314,130.688555 26.0386146,132.450431 21.6649649,131.976947 C17.9188389,131.564661 15.7288447,130.730427 14.6702947,130.21185 C14.2146767,129.990667 13.999213,129.453687 14.1727128,128.971772 L14.2804694,128.675442 C14.3715198,128.420684 14.5614735,128.215077 14.8059181,128.106693 C15.0503627,127.99831 15.327867,127.996652 15.5735484,128.102107 C17.554368,128.949225 22.2671341,130.678892 25.5790644,129.680388 C26.6895522,129.379936 27.7478461,128.907347 28.7166827,128.279261 C28.9873238,128.089311 29.3340707,128.051179 29.638428,128.177895 C29.9427852,128.304612 30.1635483,128.579023 30.2252749,128.907352 L30.2252749,128.907352 Z"
                      id="Path" fill="#2C4482" fill-rule="nonzero"></path>
                <path d="M23.5490402,132.027893 L25.8459274,131.61213 C26.6248751,131.444136 27.1859596,130.819083 27.2172033,130.084518 L27.2172033,130.084518 C27.2279838,129.766226 27.076429,129.461556 26.8074276,129.260746 C26.5384262,129.059936 26.182817,128.986009 25.8459274,129.06086 L23.5490402,129.482922 C22.7700925,129.650916 22.2090079,130.275969 22.1777642,131.010534 L22.1777642,131.010534 C22.1691689,131.327735 22.3216506,131.630562 22.5903391,131.829903 C22.8590277,132.029245 23.2133497,132.102419 23.5490402,132.027893 L23.5490402,132.027893 Z"
                      id="Path" fill="#FFFFFF" fill-rule="nonzero"></path>
                <path d="M24.0124035,132.034634 L25.3827578,131.756462 C25.8513229,131.648764 26.1904767,131.232174 26.2092085,130.741314 L26.2092085,130.741314 C26.2170694,130.5278 26.1257186,130.323068 25.962877,130.189246 C25.8000355,130.055423 25.5849011,130.008287 25.3827578,130.06214 L24.0124035,130.340312 C23.5438384,130.44801 23.2046846,130.8646 23.1859527,131.35546 L23.1859527,131.35546 C23.1780919,131.568974 23.2694427,131.773706 23.4322842,131.907529 C23.5951258,132.041351 23.8102602,132.088488 24.0124035,132.034634 L24.0124035,132.034634 Z"
                      id="Path" fill="#46466B" fill-rule="nonzero"></path>
                <path d="M23.2064339,104.351186 C23.308075,105.169738 23.4734916,105.979835 23.7012949,106.774675 C23.8403734,107.395286 23.9923895,108.015898 24.0797179,108.63651 C24.2123277,109.604664 23.795092,110.001855 22.8021358,110.451799 C19.5677507,111.910236 16.2266309,108.844415 14.0498897,106.905003 C13.5356224,106.44575 12.7561356,107.187381 13.2768716,107.646634 C15.8320359,109.924279 19.4642504,113.092502 23.2355434,111.432365 C24.5875164,110.836578 25.3540657,110.032886 25.1761745,108.620994 C24.9982833,107.209103 24.3869845,105.769284 24.3028905,104.335671 C24.2640779,103.66541 23.1676213,103.659204 23.2096683,104.335671 L23.2064339,104.351186 Z"
                      id="Path" fill="#FD4468" fill-rule="nonzero"></path>
                <path d="M21.688246,86.5304503 C24.6263985,86.5305578 27.0082149,88.9123741 27.0083224,91.8505266 L27.0085632,98.432141 C27.0086708,101.370015 24.6271401,103.751721 21.6892655,103.751828 C21.6891358,103.751828 21.689006,103.751828 21.6888762,103.751828 C18.7507238,103.751721 16.3689074,101.369904 16.3687999,98.4317517 L16.368559,91.8501374 C16.3684515,88.9122628 18.7499822,86.5305578 21.6878567,86.5304503 C21.6879865,86.5304503 21.6881163,86.5304503 21.688246,86.5304503 Z"
                      id="Rectangle" fill="#FFC2B0" fill-rule="nonzero"
                      transform="translate(21.688561, 95.141139) rotate(170.970000) translate(-21.688561, -95.141139) "></path>
                <path d="M19.3039857,93.8196912 C20.6892978,91.1233129 24.5762115,93.2265521 26.2614685,92.1364586 C28.0858751,90.9533866 27.0252455,88.9848061 25.3709107,87.5548599 C24.4834451,86.7885884 23.4259077,86.2018616 21.4716281,85.8523904 C15.9922238,84.8905433 11.2889655,88.1415867 12.2135376,94.1659561 C12.2135376,94.1659561 12.9742224,102.546851 17.8073538,102.822581 L18.184604,101.475995 C18.184604,101.475995 14.9687008,98.9783981 17.464118,96.6443157 C18.0454543,96.0992689 18.0825609,96.080032 17.8289993,95.0989479 C17.5754377,94.1178638 18.8370613,94.7238275 19.3039857,93.8196912 Z"
                      id="Path" fill="#06062D" fill-rule="nonzero"></path>
                <path d="M25.7567207,97.84662 L23.305018,99.6335582 C23.2057321,99.7056994 23.1621899,99.8387992 23.197756,99.9614368 C23.3417935,100.407352 23.8106817,101.309018 25.1866998,100.446697 C26.1428639,99.8401217 26.2378674,98.7122194 26.2041565,98.0630198 C26.1991283,97.9523877 26.1366171,97.8540849 26.0422801,97.8084593 C25.9479431,97.7628338 25.8376696,97.7775701 25.7567207,97.84662 L25.7567207,97.84662 Z"
                      id="Path" fill="#FFFFFF" fill-rule="nonzero"></path>
                <ellipse id="Oval" fill="#24386B" fill-rule="nonzero"
                         transform="translate(22.069993, 97.550958) rotate(-10.940000) translate(-22.069993, -97.550958) "
                         cx="22.0699926" cy="97.5509583" rx="1" ry="1"></ellipse>
                <ellipse id="Oval" fill="#24386B" fill-rule="nonzero"
                         transform="translate(25.763951, 94.977389) rotate(-10.972240) translate(-25.763951, -94.977389) "
                         cx="25.7639513" cy="94.9773895" rx="1" ry="1"></ellipse>
                <path d="M21.9840881,95.4387368 C21.4472039,95.6228465 20.9785917,96.0405589 20.6604028,96.6186458 C20.4691479,96.9949411 20.0161758,96.6186458 20.2074307,96.2295947 C20.607147,95.5013277 21.2002327,94.9795349 21.8783946,94.7594919 C22.0187061,94.7434236 22.1458083,94.864664 22.1724379,95.0399742 C22.1990674,95.2152844 22.1165641,95.3876522 21.9815716,95.4387368 L21.9840881,95.4387368 Z"
                      id="Path" fill="#2C4482" fill-rule="nonzero"></path>
                <path d="M26.9103414,93.4893832 C26.1313972,93.6256757 25.4267143,94.0208299 24.9189406,94.6060705 C24.6175394,94.9898237 23.9680916,94.5714981 24.2730809,94.1842877 C24.8966452,93.4319769 25.7807004,92.9213819 26.7632289,92.7460775 C27.258388,92.68039 27.4090886,93.4167813 26.9103414,93.4824687 L26.9103414,93.4893832 Z"
                      id="Path" fill="#2C4482" fill-rule="nonzero"></path>
                <path d="M13.112309,139.907404 C12.9753439,147.912205 14.7870194,155.972832 13.2119201,163.918706 C12.4274832,167.876136 30.0461834,166.620055 30.8337331,162.640915 C32.5364591,154.046842 28.4555199,145.682274 28.6049364,137.041679 C28.673419,132.988104 13.1807916,135.850728 13.112309,139.907404 Z"
                      id="Path" fill="#43529E" fill-rule="nonzero"></path>
                <path d="M27.972862,96.7741935 C27.972862,96.7741935 27.3806995,93.9846428 20.346058,91.6136881 C13.3114165,89.2427334 20.0360253,91.5024985 20.0360253,91.5024985 L26.0723616,88.7096774 C26.0723616,88.7096774 29.1044812,91.1754703 27.972862,96.7741935 Z"
                      id="Path" fill="#06062D" fill-rule="nonzero"></path>
                <path d="M12.0282657,107.175782 C9.47334977,108.479441 8.27563522,111.426025 7.50947317,114.02706 C6.21794285,118.424946 5.70821055,123.080423 5.07964495,127.607104 C4.87950466,129.064689 5.43301765,130.537981 6.97785052,130.965204 C8.24749049,131.317035 10.1050426,130.528557 10.3208188,129.058406 C10.9024765,124.855284 11.415336,120.576769 12.4754541,116.47417 C12.7354646,115.344636 13.109538,114.244703 13.5918617,113.191462 C13.7200766,112.949578 13.8639274,112.717118 14.0109054,112.4878 C14.3236246,112.004033 13.7169494,112.817641 14.1047212,112.37157 C14.2364033,112.225228 14.3785473,112.08874 14.5300193,111.963195 C13.9765063,112.44068 14.5831816,111.963195 14.7520499,111.890944 C17.879242,110.298281 15.1241858,105.58626 12.0095025,107.178923 L12.0282657,107.175782 Z"
                      id="Path" fill="#FD4468" fill-rule="nonzero"></path>
                <path d="M19.4732805,93.4826798 C19.4732805,93.4826798 15.6788574,101.341353 16.9713616,105.730169 C18.0422937,109.358467 22.3906473,110.93654 24.1386054,116.393248 C24.2955419,116.898521 24.1082233,117.449706 23.6795675,117.743967 C23.2509118,118.038228 22.6847597,118.00428 22.2921707,117.660776 C21.0811936,116.541616 19.7113547,115.619424 18.2300146,114.926084 C14.3894305,113.211752 13.3061889,110.806618 13.2661828,108.870469 C13.2261767,106.93432 12.0967742,93.073902 12.0967742,93.073902 L19.7379362,90.7258065 L19.4732805,93.4826798 Z"
                      id="Path" fill="#06062D" fill-rule="nonzero"></path>
                <path d="M15.2727336,115.870046 L15.2727336,115.870046 C16.7480988,116.172477 18.1955027,115.249429 18.5122634,113.804111 L19.0948666,111.097673 C19.4030469,109.649608 18.4602129,108.229506 16.9853309,107.920277 L16.9853309,107.920277 C15.5099657,107.617846 14.0625619,108.540894 13.7458011,109.986212 L13.1631979,112.69265 C12.8550176,114.140714 13.7978516,115.560817 15.2727336,115.870046 L15.2727336,115.870046 Z"
                      id="Path" fill="#FFC2B0" fill-rule="nonzero"></path>
                <path d="M16.3918755,100.589941 C17.224214,101.090794 18.0061076,100.693565 18.1353723,99.698767 C18.2216597,98.6062671 17.7322655,97.5553669 16.8742535,96.9907045 C16.0419151,96.4898511 15.2600214,96.8870797 15.1307567,97.8818781 C15.0444694,98.9743781 15.5338635,100.025278 16.3918755,100.589941 L16.3918755,100.589941 Z"
                      id="Path" fill="#FFC2B0" fill-rule="nonzero"></path>
                <path d="M6.58690195,130.965499 C9.12557713,133.680689 12.2600638,130.733485 13.7334021,128.570112 C16.2753154,124.835942 17.5867484,120.248963 18.1275121,115.859511 C18.4513227,113.250922 14.2158799,113.272869 13.9179742,115.859511 C13.5590463,118.839673 12.683253,121.739813 11.3274893,124.437755 C10.863552,125.432999 10.2798918,126.371732 9.58862631,127.234464 C9.54005472,127.2909 8.82767137,127.96813 8.82443327,127.964994 C8.80824274,127.905423 10.1650092,128.686119 9.60157873,128.081001 C7.77528689,126.127695 4.79622927,129.021598 6.6160449,130.971769 L6.58690195,130.965499 Z"
                      id="Path" fill="#FFC2B0" fill-rule="nonzero"></path>
                <path d="M87.6717649,144.761603 C79.9434299,140.110093 67.2945026,139.896375 59.4159206,144.290166 C51.5373386,148.683957 51.418393,156.016371 59.1435978,160.667881 C66.8688025,165.31939 79.3831335,165.536251 87.4057023,161.230462 C96.2358492,156.503522 95.4000998,149.416256 87.6717649,144.761603 Z"
                      id="Path" fill="#A8C4E5" fill-rule="nonzero" opacity="0.4"
                      style="mix-blend-mode: multiply;"></path>
                <path d="M81.9292745,143.595373 C74.5863303,139.145166 62.5683261,138.942596 55.0844725,143.145921 C47.6006189,147.349246 47.4847601,154.360062 54.8277043,158.810269 C62.1706485,163.260476 74.0571373,163.466211 81.6787689,159.348345 C90.0581799,154.82534 89.2722187,148.048745 81.9292745,143.595373 Z"
                      id="Path" fill="#C4003E" fill-rule="nonzero"></path>
                <path d="M81.9292745,138.553922 C74.5863303,134.10516 62.5683261,133.902656 55.0844725,138.104616 C47.6006189,142.306577 47.4847601,149.315118 54.8277043,153.76388 C62.1706485,158.212643 74.0571373,158.430968 81.6787689,154.317603 C90.0581799,149.780245 89.2722187,143.002685 81.9292745,138.553922 Z"
                      id="Path" fill="#FD4468" fill-rule="nonzero"></path>
                <path d="M155.974759,173.520179 C149.211442,169.477838 138.143913,169.291269 131.249693,173.109726 C124.355473,176.928183 124.249504,183.311971 131.006587,187.354311 C137.763671,191.396651 148.718998,191.586331 155.737887,187.845611 C163.461159,183.728643 162.738076,177.565628 155.974759,173.520179 Z"
                      id="Path" fill-opacity="0.3" fill="#FF7B96" fill-rule="nonzero" opacity="0.4"
                      style="mix-blend-mode: multiply;"></path>
                <path d="M149.222061,173.363691 C142.84748,169.519808 132.406783,169.345651 125.908424,172.974949 C119.410065,176.604247 119.307948,182.659296 125.685623,186.50318 C132.063298,190.347063 142.395689,190.524329 149.005449,186.96967 C156.280516,183.063588 155.596641,177.207575 149.222061,173.363691 Z"
                      id="Path" fill="#C4003E" fill-rule="nonzero"></path>
                <path d="M148.213028,169.331433 C141.838665,165.48755 131.398326,165.313393 124.90019,168.942691 C118.402054,172.571989 118.29994,178.627038 124.677397,182.470921 C131.054853,186.314805 141.38689,186.492071 147.996423,182.937412 C155.271241,179.02822 154.590484,173.175317 148.213028,169.331433 Z"
                      id="Path" fill="#FD4468" fill-rule="nonzero"></path>
                <rect id="Rectangle" fill="#2B2B2B" fill-rule="nonzero" x="135.080645" y="155.241935" width="5.04032258"
                      height="21.1693548" rx="2.52016129"></rect>
                <path d="M133.064516,137.100662 C133.064516,138.675488 132.163417,140.402613 131.048387,140.956718 C129.933358,141.510824 129.032258,140.684526 129.032258,139.1097 C129.032258,137.534873 129.933358,135.807749 131.048387,135.253643 C132.163417,134.699538 133.064516,135.519355 133.064516,137.100662 Z"
                      id="Path" fill="#C6D1DE" fill-rule="nonzero"></path>
                <path d="M137.695189,164.308642 L132.475866,161.31715 C127.905061,158.699981 125.781789,151.832234 127.752286,146.059613 L133.676248,128.735564 C135.649863,122.962944 141.003254,120.382898 145.570941,122.996973 L150.790263,125.988465 C155.361068,128.605634 157.48434,135.473382 155.513844,141.246002 L149.589881,158.570051 C147.62562,164.330297 142.265993,166.910343 137.695189,164.308642 Z"
                      id="Path" fill="#FD4468" fill-rule="nonzero"></path>
                <path d="M137.782478,164.299921 L132.520493,161.282529 C127.912327,158.642701 125.771699,151.715493 127.758303,145.892894 L131.105981,136.08871 C129.735476,142.017401 145.565438,154.124414 153.225806,148.401666 L149.76811,158.508526 C147.79408,164.321764 142.390644,166.924148 137.782478,164.299921 Z"
                      id="Path" fill="#FD4468" fill-rule="nonzero"></path>
                <path d="M146.14583,148.633764 L144.238423,154.19378 C142.226109,160.088661 136.716882,163.156147 132.056452,160.483548 L136.592901,163.269875 C141.253332,165.942473 146.711694,163.307784 148.720829,157.409744 L152.217742,147.177419 C150.507434,148.444218 148.390212,148.842265 146.14583,148.633764 Z"
                      id="Path" fill-opacity="0.19" fill="#000000" fill-rule="nonzero"></path>
                <path d="M156.25,149.19698 C156.25,150.771985 155.348901,152.499305 154.233871,153.053473 C153.118841,153.607641 152.217742,152.78125 152.217742,151.206245 C152.217742,149.631241 153.118841,147.903921 154.233871,147.349753 C155.348901,146.795584 156.25,147.621976 156.25,149.19698 Z"
                      id="Path" fill="#DCDDDD" fill-rule="nonzero"></path>
                <path d="M153.225806,151.779506 C153.225806,151.779506 150.356307,176.383173 134.137795,165.624614 C121.092938,156.970233 129.959508,140.120968 129.959508,140.120968"
                      id="Path" stroke="#DCDDDD" stroke-width="3.6"></path>
                <ellipse id="Oval" fill="#FFFFFF" fill-rule="nonzero" cx="133.568548" cy="137.096774" rx="1"
                         ry="1.00806452"></ellipse>
                <ellipse id="Oval" fill="#FFFFFF" fill-rule="nonzero" cx="135.584677" cy="133.064516" rx="1"
                         ry="1.00806452"></ellipse>
                <ellipse id="Oval" fill="#FFFFFF" fill-rule="nonzero" cx="136.592742" cy="130.040323" rx="1"
                         ry="1.00806452"></ellipse>
                <ellipse id="Oval" fill="#FFFFFF" fill-rule="nonzero" cx="137.600806" cy="126.008065" rx="1"
                         ry="1.00806452"></ellipse>
                <ellipse id="Oval" fill="#FFFFFF" fill-rule="nonzero" cx="140.625" cy="123.991935" rx="1"
                         ry="1.00806452"></ellipse>
                <ellipse id="Oval" fill="#FFFFFF" fill-rule="nonzero" cx="143.649194" cy="122.983871" rx="1"
                         ry="1.00806452"></ellipse>
                <ellipse id="Oval" fill="#FFFFFF" fill-rule="nonzero" cx="136.592742" cy="139.112903" rx="1"
                         ry="1.00806452"></ellipse>
                <ellipse id="Oval" fill="#FFFFFF" fill-rule="nonzero" cx="137.600806" cy="136.08871" rx="1"
                         ry="1.00806452"></ellipse>
                <ellipse id="Oval" fill="#FFFFFF" fill-rule="nonzero" cx="138.608871" cy="132.056452" rx="1"
                         ry="1.00806452"></ellipse>
                <ellipse id="Oval" fill="#FFFFFF" fill-rule="nonzero" cx="140.625" cy="129.032258" rx="1"
                         ry="1.00806452"></ellipse>
                <ellipse id="Oval" fill="#FFFFFF" fill-rule="nonzero" cx="142.641129" cy="127.016129" rx="1"
                         ry="1.00806452"></ellipse>
                <ellipse id="Oval" fill="#FFFFFF" fill-rule="nonzero" cx="145.665323" cy="126.008065" rx="1"
                         ry="1.00806452"></ellipse>
                <polygon id="Path" fill="#2C4482" fill-rule="nonzero"
                         points="89.7177419 43.9815818 82.5411049 41.3306452 47.3790323 83.5111739 56.1766048 86.6935484"></polygon>
                <path d="M104.682301,36.8125413 L106.27064,34.7719753 L99.1417993,32.1139107 L99.1417993,32.1139107 C96.0274083,30.8162235 92.3368549,30.9008553 88.8643089,32.9132108 L72.0870845,42.6019815 C71.9967672,42.6521337 71.9064498,42.6928823 71.8192469,42.746169 L46.7546279,57.2213367 C42.5782296,59.6349095 39.7877352,64.2583119 39.435809,69.3518908 L39.3610637,70.4427003 C39.1464751,73.1468882 39.6766527,75.8582833 40.893344,78.2789756 L40.837285,94.0643685 C40.836198,94.7189756 41.2088879,95.3159799 41.7953375,95.5990533 C42.3817871,95.8821267 43.07766,95.8009069 43.5841779,95.3902663 L58.4429374,83.3161334 L58.2591884,83.2503087 L69.9288115,76.5111119 L72.9466564,77.6144595 L76.9486489,72.4707284 L97.8150687,60.424806 C102.947585,57.462694 106.373415,51.7798271 106.806316,45.5202104 L106.806316,45.5202104 C107.059996,42.4622554 106.31416,39.4046055 104.682301,36.8125413 Z"
                      id="Path" fill="#2C4482" fill-rule="nonzero"></path>
                <path d="M104.884382,62.6127886 L82.0630695,75.8901417 C73.0775663,81.1190851 62.7862116,73.8496554 63.5479584,62.8020145 L63.6225785,61.7045041 C63.9739148,56.579635 66.7566225,51.9278307 70.9291294,49.4994312 L95.9517346,34.9353417 C104.657412,29.8893168 114.606758,36.909599 113.872994,47.6040181 L113.872994,47.6040181 C113.443929,53.902088 110.020732,59.619865 104.884382,62.6127886 Z"
                      id="Path" fill="#4A70D6" fill-rule="nonzero"></path>
                <path d="M87.7340027,72.8422451 L64.9144426,85.9893878 C55.9345231,91.1621364 45.6495634,83.9708303 46.4108368,73.0419169 L46.4854105,71.9562013 C46.8365285,66.8864085 49.617507,62.2845965 53.7874212,59.8822947 L83.6728419,42.6761978 C92.3731099,37.6844018 97.4348016,47.4277636 96.7046005,58.0041314 L96.7046005,58.0041314 C96.2726944,64.2376367 92.8547319,69.8939656 87.7340027,72.8422451 Z"
                      id="Path" fill="#4A70D6" fill-rule="nonzero"></path>
                <path d="M54.0914472,75.8321629 L51.755327,77.5673905 C51.5666617,77.7066371 51.4112903,77.5673905 51.4112903,77.2317703 L51.4112903,77.2317703 C51.4165045,76.8958841 51.5438748,76.5826046 51.755327,76.3855791 L54.0914472,74.6503515 C54.2801125,74.5111048 54.4354839,74.6503515 54.4354839,74.9859716 L54.4354839,74.9859716 C54.4302697,75.3218578 54.3028994,75.6351373 54.0914472,75.8321629 Z"
                      id="Path" fill="#FFFFFF" fill-rule="nonzero"></path>
                <path d="M58.1237052,72.8079693 L55.7875851,74.5431969 C55.5989198,74.6824436 55.4435484,74.5431969 55.4435484,74.2075768 L55.4435484,74.2075768 C55.4487626,73.8716906 55.5761329,73.558411 55.7875851,73.3613855 L58.1237052,71.6261579 C58.3123705,71.4869113 58.4677419,71.6261579 58.4677419,71.9617781 L58.4677419,71.9617781 C58.4625278,72.2976643 58.3351574,72.6109438 58.1237052,72.8079693 Z"
                      id="Path" fill="#FFFFFF" fill-rule="nonzero"></path>
                <path d="M62.1559633,70.7918403 L59.8198431,72.5270679 C59.6311779,72.6663145 59.4758065,72.5270679 59.4758065,72.1914477 L59.4758065,72.1914477 C59.4810206,71.8555616 59.6083909,71.542282 59.8198431,71.3452565 L62.1559633,69.6100289 C62.3446286,69.4707822 62.5,69.6100289 62.5,69.9456491 L62.5,69.9456491 C62.4947858,70.2815352 62.3674155,70.5948148 62.1559633,70.7918403 Z"
                      id="Path" fill="#FFFFFF" fill-rule="nonzero"></path>
                <path d="M96.4301569,50.63055 L94.0940367,52.3657776 C93.9053714,52.5050242 93.75,52.3657776 93.75,52.0301574 L93.75,52.0301574 C93.7552142,51.6942712 93.8825845,51.3809917 94.0940367,51.1839662 L96.4301569,49.4487386 C96.6188221,49.3094919 96.7741935,49.4487386 96.7741935,49.7843587 L96.7741935,49.7843587 C96.7689794,50.1202449 96.6416091,50.4335244 96.4301569,50.63055 L96.4301569,50.63055 Z"
                      id="Path" fill="#FFFFFF" fill-rule="nonzero"></path>
                <path d="M101.470479,48.6144209 L99.1343593,50.3496485 C98.945694,50.4888952 98.7903226,50.3496485 98.7903226,50.0140284 L98.7903226,50.0140284 C98.7955367,49.6781422 98.9229071,49.3648627 99.1343593,49.1678371 L101.470479,47.4326095 C101.659145,47.2933629 101.814516,47.4326095 101.814516,47.7682297 L101.814516,47.7682297 C101.809302,48.1041159 101.681932,48.4173954 101.470479,48.6144209 L101.470479,48.6144209 Z"
                      id="Path" fill="#FFFFFF" fill-rule="nonzero"></path>
                <path d="M106.510802,45.5902274 L104.174682,47.325455 C103.986017,47.4647016 103.830645,47.325455 103.830645,46.9898348 L103.830645,46.9898348 C103.835859,46.6539486 103.96323,46.3406691 104.174682,46.1436436 L106.510802,44.408416 C106.699467,44.2691693 106.854839,44.408416 106.854839,44.7440361 L106.854839,44.7440361 C106.849625,45.0799223 106.722254,45.3932019 106.510802,45.5902274 L106.510802,45.5902274 Z"
                      id="Path" fill="#FFFFFF" fill-rule="nonzero"></path>
                <path d="M69.2124149,66.7595822 L66.8762948,68.4948098 C66.6876295,68.6340565 66.5322581,68.4948098 66.5322581,68.1591897 L66.5322581,68.1591897 C66.5374722,67.8233035 66.6648426,67.5100239 66.8762948,67.3129984 L69.2124149,65.5777708 C69.4010802,65.4385242 69.5564516,65.5777708 69.5564516,65.913391 L69.5564516,65.913391 C69.5512374,66.2492772 69.4238671,66.5625567 69.2124149,66.7595822 Z"
                      id="Path" fill="#FFFFFF" fill-rule="nonzero"></path>
                <path d="M73.244673,64.7434532 L70.9085528,66.4786808 C70.7198875,66.6179274 70.5645161,66.4786808 70.5645161,66.1430606 L70.5645161,66.1430606 C70.5697303,65.8071745 70.6971006,65.4938949 70.9085528,65.2968694 L73.244673,63.5616418 C73.4333383,63.4223951 73.5887097,63.5616418 73.5887097,63.897262 L73.5887097,63.897262 C73.5834955,64.2331481 73.4561252,64.5464277 73.244673,64.7434532 Z"
                      id="Path" fill="#FFFFFF" fill-rule="nonzero"></path>
                <path d="M81.3091891,59.7031306 L78.973069,61.4383582 C78.7844037,61.5776049 78.6290323,61.4383582 78.6290323,61.102738 L78.6290323,61.102738 C78.6342464,60.7668519 78.7616168,60.4535723 78.973069,60.2565468 L81.3091891,58.5213192 C81.4978544,58.3820726 81.6532258,58.5213192 81.6532258,58.8569394 L81.6532258,58.8569394 C81.6480116,59.1928255 81.5206413,59.5061051 81.3091891,59.7031306 Z"
                      id="Path" fill="#FFFFFF" fill-rule="nonzero"></path>
                <path d="M64.0491161,77.511723 L63.9750775,77.5585003 C63.7187899,77.7206619 63.5080645,77.5585003 63.5080645,77.1718074 L63.5080645,62.577268 C63.5138569,62.1892885 63.6870837,61.8272332 63.9750775,61.6011802 L64.0491161,61.5544029 C64.3054037,61.3922413 64.516129,61.5544029 64.516129,61.9410958 L64.516129,76.5356352 C64.5103366,76.9236147 64.3371099,77.28567 64.0491161,77.511723 Z"
                      id="Path" fill="#FFFFFF" fill-rule="nonzero"></path>
                <path d="M66.0652451,72.4733831 L65.9912065,72.5193115 C65.7349189,72.6785299 65.5241935,72.5193115 65.5241935,72.1396368 L65.5241935,64.5736991 C65.5299859,64.1927611 65.7032127,63.8372768 65.9912065,63.6153266 L66.0652451,63.5693982 C66.3215327,63.4101797 66.5322581,63.5693982 66.5322581,63.9490729 L66.5322581,71.5150106 C66.5264657,71.8959486 66.3532389,72.2514329 66.0652451,72.4733831 L66.0652451,72.4733831 Z"
                      id="Path" fill="#FFFFFF" fill-rule="nonzero"></path>
                <path d="M74.1297613,67.4331329 L74.0557226,67.4790303 C73.799435,67.6381413 73.5887097,67.4790303 73.5887097,67.0996117 L73.5887097,59.5326577 C73.5945021,59.1519767 73.7677288,58.7967322 74.0557226,58.5749316 L74.1297613,58.5290342 C74.3860488,58.3699232 74.5967742,58.5290342 74.5967742,58.9084529 L74.5967742,66.4784666 C74.5900875,66.858063 74.416959,67.2119715 74.1297613,67.4331329 L74.1297613,67.4331329 Z"
                      id="Path" fill="#FFFFFF" fill-rule="nonzero"></path>
                <path d="M79.1700838,65.4169315 L79.0960452,65.4628599 C78.8397576,65.6220783 78.6290323,65.4628599 78.6290323,65.0831852 L78.6290323,57.5172475 C78.6348247,57.1363095 78.8080514,56.7808252 79.0960452,56.558875 L79.1700838,56.5129466 C79.4263714,56.3537281 79.6370968,56.5129466 79.6370968,56.8926213 L79.6370968,64.458559 C79.6313044,64.839497 79.4580776,65.1949812 79.1700838,65.4169315 L79.1700838,65.4169315 Z"
                      id="Path" fill="#FFFFFF" fill-rule="nonzero"></path>
                <path d="M82.1942774,61.373439 L82.1202387,61.4241779 C81.8639512,61.6000725 81.6532258,61.4241779 81.6532258,61.0047368 L81.6532258,58.6369243 C81.6590182,58.2160877 81.8322449,57.8233707 82.1202387,57.5781739 L82.1942774,57.527435 C82.450565,57.3515404 82.6612903,57.527435 82.6612903,57.9468761 L82.6612903,60.3146886 C82.6554979,60.7355252 82.4822712,61.1282422 82.1942774,61.373439 L82.1942774,61.373439 Z"
                      id="Path" fill="#FFFFFF" fill-rule="nonzero"></path>
                <path d="M94.2910516,54.3169874 L94.2170129,54.3677263 C93.9607254,54.5436209 93.75,54.3677263 93.75,53.9482852 L93.75,51.5804727 C93.7557924,51.1596361 93.9290191,50.7669191 94.2170129,50.5217223 L94.2910516,50.4709834 C94.5473392,50.2950888 94.7580645,50.4709834 94.7580645,50.8904245 L94.7580645,53.258237 C94.7522721,53.6790736 94.5790454,54.0717906 94.2910516,54.3169874 Z"
                      id="Path" fill="#FFFFFF" fill-rule="nonzero"></path>
                <path d="M86.2265354,59.35731 L86.1524968,59.4080488 C85.8962092,59.5839435 85.6854839,59.4080488 85.6854839,58.9886078 L85.6854839,56.6207953 C85.6912763,56.1999586 85.864503,55.8072417 86.1524968,55.5620448 L86.2265354,55.511306 C86.482823,55.3354114 86.6935484,55.511306 86.6935484,55.9307471 L86.6935484,58.2985596 C86.687756,58.7193962 86.5145292,59.1121131 86.2265354,59.35731 Z"
                      id="Path" fill="#FFFFFF" fill-rule="nonzero"></path>
                <path d="M88.2426645,58.3492455 L88.1686258,58.3999843 C87.9123383,58.575879 87.7016129,58.3999843 87.7016129,57.9805433 L87.7016129,55.6127308 C87.7074053,55.1918941 87.880632,54.7991772 88.1686258,54.5539803 L88.2426645,54.5032415 C88.4989521,54.3273468 88.7096774,54.5032415 88.7096774,54.9226826 L88.7096774,57.290495 C88.703885,57.7113317 88.5306583,58.1040486 88.2426645,58.3492455 Z"
                      id="Path" fill="#FFFFFF" fill-rule="nonzero"></path>
                <path d="M84.2104064,60.3818117 L84.1363678,60.4255123 C83.8800802,60.5770078 83.6693548,60.4255123 83.6693548,60.0642537 L83.6693548,56.4574943 C83.6751472,56.0950337 83.848374,55.7567923 84.1363678,55.5456077 L84.2104064,55.5019071 C84.466694,55.3504115 84.6774194,55.5019071 84.6774194,55.8631657 L84.6774194,59.469925 C84.671627,59.8323856 84.4984002,60.1706271 84.2104064,60.3818117 Z"
                      id="Path" fill="#FFFFFF" fill-rule="nonzero"></path>
                <path d="M92.2749225,56.3496126 L92.2008839,56.3932879 C91.9445963,56.544696 91.733871,56.3932879 91.733871,56.032238 L91.733871,52.4246505 C91.7396634,52.0623993 91.9128901,51.7243532 92.2008839,51.5132907 L92.2749225,51.4696153 C92.5312101,51.3182072 92.7419355,51.4696153 92.7419355,51.8306652 L92.7419355,55.435341 C92.7370408,55.7986237 92.5637153,56.1379431 92.2749225,56.3496126 Z"
                      id="Path" fill="#FFFFFF" fill-rule="nonzero"></path>
                <path d="M103.363632,48.2686003 L103.289594,48.3193392 C103.033306,48.4952338 102.822581,48.3193392 102.822581,47.8998981 L102.822581,45.5320856 C102.828373,45.111249 103.0016,44.718532 103.289594,44.4733352 L103.363632,44.4225963 C103.61992,44.2467017 103.830645,44.4225963 103.830645,44.8420374 L103.830645,47.2098499 C103.824853,47.6306865 103.651626,48.0234035 103.363632,48.2686003 L103.363632,48.2686003 Z"
                      id="Path" fill="#FFFFFF" fill-rule="nonzero"></path>
                <path d="M107.39589,46.2524713 L107.321852,46.3032101 C107.065564,46.4791048 106.854839,46.3032101 106.854839,45.8837691 L106.854839,43.5159566 C106.860631,43.0951199 107.033858,42.702403 107.321852,42.4572061 L107.39589,42.4064673 C107.652178,42.2305726 107.862903,42.4064673 107.862903,42.8259084 L107.862903,45.1937208 C107.857111,45.6145575 107.683884,46.0072744 107.39589,46.2524713 L107.39589,46.2524713 Z"
                      id="Path" fill="#FFFFFF" fill-rule="nonzero"></path>
                <path d="M102.355568,50.3012255 L102.281529,50.3449009 C102.025241,50.4963089 101.814516,50.3449009 101.814516,49.9838509 L101.814516,46.3762634 C101.820309,46.0140122 101.993535,45.6759661 102.281529,45.4649036 L102.355568,45.4212282 C102.611855,45.2698201 102.822581,45.4212282 102.822581,45.7822781 L102.822581,49.3869539 C102.817686,49.7502366 102.64436,50.089556 102.355568,50.3012255 L102.355568,50.3012255 Z"
                      id="Path" fill="#FFFFFF" fill-rule="nonzero"></path>
                <path d="M90.2587928,58.3594678 L90.1847542,58.4058296 C89.928467,58.5665503 89.7177419,58.4058296 89.7177419,58.0225724 L89.7177419,52.4869796 C89.7235343,52.1024473 89.8967608,51.7436089 90.1847542,51.5195644 L90.2587928,51.4732027 C90.51508,51.312482 90.7258065,51.4732027 90.7258065,51.8564598 L90.7258065,57.3704172 C90.7263685,57.7625982 90.5524414,58.1309453 90.2587928,58.3594678 Z"
                      id="Path" fill="#FFFFFF" fill-rule="nonzero"></path>
                <path d="M76.1458903,68.4350919 L76.0718516,68.4836036 C75.8155641,68.6517776 75.6048387,68.4836036 75.6048387,68.0825733 L75.6048387,56.5691218 C75.6106311,56.1667571 75.7838578,55.7912779 76.0718516,55.5568436 L76.1458903,55.5083319 C76.4021779,55.3401579 76.6129032,55.5083319 76.6129032,55.9093622 L76.6129032,67.4163455 C76.6089097,67.8210007 76.435485,68.199311 76.1458903,68.4350919 L76.1458903,68.4350919 Z"
                      id="Path" fill="#FFFFFF" fill-rule="nonzero"></path>
                <path d="M101.470479,93.9773242 L99.1343593,95.7125517 C98.945694,95.8517984 98.7903226,95.7125517 98.7903226,95.3769316 L98.7903226,95.3769316 C98.7955367,95.0410454 98.9229071,94.7277659 99.1343593,94.5307404 L101.470479,92.7955128 C101.659145,92.6562661 101.814516,92.7955128 101.814516,93.1311329 L101.814516,93.1311329 C101.809302,93.4670191 101.681932,93.7802986 101.470479,93.9773242 L101.470479,93.9773242 Z"
                      id="Path" fill="#1D3570" fill-rule="nonzero"></path>
                <path d="M105.502737,90.9531306 L103.166617,92.6883582 C102.977952,92.8276049 102.822581,92.6883582 102.822581,92.352738 L102.822581,92.352738 C102.827795,92.0168519 102.955165,91.7035723 103.166617,91.5065468 L105.502737,89.7713192 C105.691403,89.6320726 105.846774,89.7713192 105.846774,90.1069394 L105.846774,90.1069394 C105.84156,90.4428255 105.71419,90.7561051 105.502737,90.9531306 Z"
                      id="Path" fill="#1D3570" fill-rule="nonzero"></path>
                <path d="M111.551125,87.9289371 L109.215004,89.6641646 C109.026339,89.8034113 108.870968,89.6641646 108.870968,89.3285445 L108.870968,89.3285445 C108.876182,88.9926583 109.003552,88.6793788 109.215004,88.4823533 L111.551125,86.7471257 C111.73979,86.607879 111.895161,86.7471257 111.895161,87.0827458 L111.895161,87.0827458 C111.889947,87.418632 111.762577,87.7319115 111.551125,87.9289371 Z"
                      id="Path" fill="#1D3570" fill-rule="nonzero"></path>
                <path d="M74.2527375,110.106356 L71.9166173,111.841584 C71.7279521,111.980831 71.5725806,111.841584 71.5725806,111.505964 L71.5725806,111.505964 C71.5777948,111.170078 71.7051651,110.856798 71.9166173,110.659773 L74.2527375,108.924545 C74.4414028,108.785298 74.5967742,108.924545 74.5967742,109.260165 L74.5967742,109.260165 C74.59156,109.596051 74.4641897,109.909331 74.2527375,110.106356 L74.2527375,110.106356 Z"
                      id="Path" fill="#1D3570" fill-rule="nonzero"></path>
                <path d="M78.2849956,107.082163 L75.9488754,108.81739 C75.7602101,108.956637 75.6048387,108.81739 75.6048387,108.48177 L75.6048387,108.48177 C75.6100529,108.145884 75.7374232,107.832605 75.9488754,107.635579 L78.2849956,105.900351 C78.4736608,105.761105 78.6290323,105.900351 78.6290323,106.235972 L78.6290323,106.235972 C78.6238181,106.571858 78.4964478,106.885137 78.2849956,107.082163 Z"
                      id="Path" fill="#1D3570" fill-rule="nonzero"></path>
                <path d="M86.3495117,103.049905 L84.0133915,104.785132 C83.8247263,104.924379 83.6693548,104.785132 83.6693548,104.449512 L83.6693548,104.449512 C83.674569,104.113626 83.8019393,103.800347 84.0133915,103.603321 L86.3495117,101.868093 C86.538177,101.728847 86.6935484,101.868093 86.6935484,102.203714 L86.6935484,102.203714 C86.6883342,102.5396 86.5609639,102.852879 86.3495117,103.049905 Z"
                      id="Path" fill="#1D3570" fill-rule="nonzero"></path>
                <path d="M79.1700838,110.779726 L79.0960452,110.825701 C78.8397576,110.985081 78.6290323,110.825701 78.6290323,110.445641 L78.6290323,102.881231 C78.6348247,102.499907 78.8080514,102.144062 79.0960452,101.921887 L79.1700838,101.875912 C79.4263714,101.716532 79.6370968,101.875912 79.6370968,102.255971 L79.6370968,109.829577 C79.6286315,110.207639 79.4556984,110.559476 79.1700838,110.779726 L79.1700838,110.779726 Z"
                      id="Path" fill="#1D3570" fill-rule="nonzero"></path>
                <path d="M83.2023419,107.755641 L83.1283033,107.80157 C82.8720157,107.960788 82.6612903,107.80157 82.6612903,107.421895 L82.6612903,99.8559572 C82.6670827,99.4750192 82.8403095,99.1195349 83.1283033,98.8975846 L83.2023419,98.8516562 C83.4586295,98.6924378 83.6693548,98.8516562 83.6693548,99.231331 L83.6693548,106.797269 C83.6635624,107.178207 83.4903357,107.533691 83.2023419,107.755641 L83.2023419,107.755641 Z"
                      id="Path" fill="#1D3570" fill-rule="nonzero"></path>
                <path d="M86.2265354,103.712149 L86.1524968,103.762888 C85.8962092,103.938782 85.6854839,103.762888 85.6854839,103.343446 L85.6854839,100.975634 C85.6912763,100.554797 85.864503,100.16208 86.1524968,99.9168835 L86.2265354,99.8661447 C86.482823,99.6902501 86.6935484,99.8661447 86.6935484,100.285586 L86.6935484,102.653398 C86.687756,103.074235 86.5145292,103.466952 86.2265354,103.712149 L86.2265354,103.712149 Z"
                      id="Path" fill="#1D3570" fill-rule="nonzero"></path>
                <path d="M98.3233096,97.6637616 L98.249271,97.7145005 C97.9929834,97.8903951 97.7822581,97.7145005 97.7822581,97.2950594 L97.7822581,94.9272469 C97.7880505,94.5064103 97.9612772,94.1136933 98.249271,93.8684965 L98.3233096,93.8177576 C98.5795972,93.641863 98.7903226,93.8177576 98.7903226,94.2371987 L98.7903226,96.6050112 C98.7845302,97.0258478 98.6113034,97.4185647 98.3233096,97.6637616 L98.3233096,97.6637616 Z"
                      id="Path" fill="#1D3570" fill-rule="nonzero"></path>
                <path d="M90.2587935,101.69602 L90.1847549,101.746759 C89.9284673,101.922653 89.7177419,101.746759 89.7177419,101.327317 L89.7177419,98.959505 C89.7235343,98.5386683 89.8967611,98.1459514 90.1847549,97.9007545 L90.2587935,97.8500157 C90.5150811,97.674121 90.7258065,97.8500157 90.7258065,98.2694567 L90.7258065,100.637269 C90.7200141,101.058106 90.5467873,101.450823 90.2587935,101.69602 Z"
                      id="Path" fill="#1D3570" fill-rule="nonzero"></path>
                <path d="M92.2749225,100.687955 L92.2008839,100.738694 C91.9445963,100.914589 91.733871,100.738694 91.733871,100.319253 L91.733871,97.9514404 C91.7396634,97.5306038 91.9128901,97.1378869 92.2008839,96.89269 L92.2749225,96.8419512 C92.5312101,96.6660565 92.7419355,96.8419512 92.7419355,97.2613922 L92.7419355,99.6292047 C92.7361431,100.050041 92.5629163,100.442758 92.2749225,100.687955 Z"
                      id="Path" fill="#1D3570" fill-rule="nonzero"></path>
                <path d="M88.2411404,103.728409 L88.1673103,103.772185 C87.9117447,103.923944 87.7016129,103.772185 87.7016129,103.410299 L87.7016129,99.7972745 C87.7107161,99.436769 87.8842653,99.1016564 88.1701499,98.8925592 L88.24398,98.8487826 C88.4995457,98.6970239 88.7096774,98.8487826 88.7096774,99.2106688 L88.7096774,102.823693 C88.7005742,103.184199 88.527025,103.519311 88.2411404,103.728409 Z"
                      id="Path" fill="#1D3570" fill-rule="nonzero"></path>
                <path d="M96.3071806,98.6882633 L96.233142,98.7319639 C95.9768544,98.8834595 95.766129,98.7319639 95.766129,98.3707053 L95.766129,94.763946 C95.7719214,94.4014854 95.9451482,94.0632439 96.233142,93.8520593 L96.3071806,93.8083587 C96.5634682,93.6568631 96.7741935,93.8083587 96.7741935,94.1696173 L96.7741935,97.7763766 C96.7684012,98.1388372 96.5951744,98.4770787 96.3071806,98.6882633 Z"
                      id="Path" fill="#1D3570" fill-rule="nonzero"></path>
                <path d="M108.403955,91.6153745 L108.329916,91.6661134 C108.073629,91.842008 107.862903,91.6661134 107.862903,91.2466723 L107.862903,88.8788598 C107.868696,88.4580232 108.041922,88.0653062 108.329916,87.8201094 L108.403955,87.7693705 C108.660242,87.5934759 108.870968,87.7693705 108.870968,88.1888116 L108.870968,90.5566241 C108.865175,90.9774607 108.691949,91.3701777 108.403955,91.6153745 L108.403955,91.6153745 Z"
                      id="Path" fill="#1D3570" fill-rule="nonzero"></path>
                <path d="M111.428148,89.5992455 L111.35411,89.6499843 C111.097822,89.825879 110.887097,89.6499843 110.887097,89.2305433 L110.887097,86.8627308 C110.892889,86.4418941 111.066116,86.0491772 111.35411,85.8039803 L111.428148,85.7532415 C111.684436,85.5773468 111.895161,85.7532415 111.895161,86.1726826 L111.895161,88.540495 C111.889369,88.9613317 111.716142,89.3540486 111.428148,89.5992455 L111.428148,89.5992455 Z"
                      id="Path" fill="#1D3570" fill-rule="nonzero"></path>
                <path d="M106.387826,92.6398762 L106.313787,92.6835768 C106.0575,92.8350724 105.846774,92.6835768 105.846774,92.3223182 L105.846774,88.7155589 C105.852567,88.3530983 106.025793,88.0148568 106.313787,87.8036722 L106.387826,87.7599716 C106.644113,87.608476 106.854839,87.7599716 106.854839,88.1212302 L106.854839,91.7279895 C106.849046,92.0904501 106.67582,92.4286916 106.387826,92.6398762 Z"
                      id="Path" fill="#1D3570" fill-rule="nonzero"></path>
                <path d="M94.2910516,100.697845 L94.2170129,100.744349 C93.9607254,100.905564 93.75,100.744349 93.75,100.359913 L93.75,94.8289975 C93.7557924,94.4432826 93.9290191,94.0833406 94.2170129,93.8586071 L94.2910516,93.8121028 C94.5473392,93.6508878 94.7580645,93.8121028 94.7580645,94.1965386 L94.7580645,99.7150529 C94.7558835,100.105157 94.5822591,100.470535 94.2910516,100.697845 Z"
                      id="Path" fill="#1D3570" fill-rule="nonzero"></path>
                <path d="M81.1862129,110.773802 L81.1121742,110.822313 C80.8558866,110.990487 80.6451613,110.822313 80.6451613,110.421283 L80.6451613,98.9078315 C80.6509537,98.5054668 80.8241804,98.1299876 81.1121742,97.8955533 L81.1862129,97.8470416 C81.4425005,97.6788675 81.6532258,97.8470416 81.6532258,98.2480719 L81.6532258,109.761523 C81.6474334,110.163888 81.4742067,110.539367 81.1862129,110.773802 L81.1862129,110.773802 Z"
                      id="Path" fill="#1D3570" fill-rule="nonzero"></path>
                <path d="M68.8471262,150.82359 L60.1302932,145.698011 C59.1075773,145.098415 59.3165533,144.160337 60.5260811,143.915341 L73.8752158,141.191369 C75.3760435,140.869005 77.041519,141.858661 76.5127464,142.741937 L71.8677795,150.591489 C71.4593264,151.303912 69.8698421,151.42641 68.8471262,150.82359 Z"
                      id="Path" fill="#FFFFFF" fill-rule="nonzero"></path>
                <path d="M165.322581,87.7016129 C165.322581,87.7016129 157.513298,82.1144413 161.335685,70.5645161"
                      id="Path" stroke="#FD4468" stroke-width="4.03" stroke-linecap="round"
                      stroke-linejoin="round"></path>
                <path d="M160.282258,92.7419355 C160.282258,92.7419355 149.301056,85.1017058 154.736196,68.5483871"
                      id="Path" stroke="#FD4468" stroke-width="4.03" stroke-linecap="round"
                      stroke-linejoin="round"></path>
                <polygon id="Path" fill="#E0465C" fill-rule="nonzero"
                         points="177.725349 88.7096774 179.435484 87.7183132 168.424941 66.5322581 166.330645 67.8086791"></polygon>
                <path d="M188.495888,64.6553815 C188.619836,64.5688482 192.517667,62.7814888 192.670971,62.7397141 C193.117835,62.4413235 193.783239,62.3995489 194.559544,62.7397141 C196.184237,63.5268469 197.301311,64.9754734 197.566908,66.6396787 C197.6615,67.5915445 197.2603,68.2271164 196.588373,68.4091347 C196.464425,68.4956679 192.566594,70.2830274 192.41329,70.324802 C191.966426,70.6231926 191.301022,70.6649673 190.524718,70.324802 C188.900024,69.5376693 187.782951,68.0890427 187.517353,66.4248375 C187.409715,65.4729716 187.810914,64.8373997 188.495888,64.6553815 Z"
                      id="Path" fill="#EF487C" fill-rule="nonzero"></path>
                <path d="M188.500015,64.6601771 C188.623995,64.5734513 192.522856,62.7821151 192.6762,62.7402474 C193.123182,62.441193 193.788762,62.3993254 194.565271,62.7402474 C196.182837,63.5269335 197.296813,64.970863 197.566904,66.630946 C197.661521,67.5849298 197.260216,68.2219158 196.588111,68.404339 C196.46413,68.4910648 192.56527,70.2824011 192.411926,70.3242687 C191.964943,70.6233232 191.299364,70.6651908 190.522854,70.3242687 C188.897732,69.5353846 187.780363,68.0835349 187.514696,66.4156268 C187.416817,65.4795863 187.814859,64.8366192 188.500015,64.6601771 Z"
                      id="Path" fill="#C9457B" fill-rule="nonzero"></path>
                <path d="M183.863875,65.7398033 C184.036604,65.6096641 189.489911,62.9281929 189.705823,62.8676631 C190.322713,62.4015835 191.248047,62.3592126 192.349196,62.8525307 C194.462044,63.8119284 196.343558,66.4298433 196.553301,68.7057646 C196.685932,70.1342685 196.124562,71.0845867 195.168383,71.3569709 C194.995654,71.4871101 189.542347,74.1685813 189.326435,74.2291111 C188.709545,74.6951907 187.784211,74.7375616 186.683062,74.2442435 C184.570214,73.2848458 182.6887,70.6669309 182.478957,68.3910096 C182.346326,66.9655322 182.907696,66.015214 183.863875,65.7398033 Z"
                      id="Path" fill="#FD4468" fill-rule="nonzero"></path>
                <path d="M194.400635,65.5241935 C195.019544,66.4602254 195.411684,67.5293855 195.545534,68.6457309 C195.676119,70.0887923 195.123409,71.048795 194.181981,71.323955 C194.011916,71.4554203 188.642737,74.1642177 188.430156,74.2253643 C187.822783,74.6961937 186.911723,74.7389963 185.827562,74.240651 C184.303058,73.5791436 183.094853,72.345247 182.459677,70.8011509 L194.400635,65.5241935 Z"
                      id="Path" fill="#C4003E" fill-rule="nonzero"></path>
                <path d="M183.621146,65.65569 L168.346774,66.7918146 L179.121291,87.7016129 L190.524194,73.5255867 C189.947918,69.013002 186.992972,64.7110471 183.621146,65.65569 Z"
                      id="Path" fill="#DCF1FF" fill-rule="nonzero"></path>
                <path d="M172.379032,75.7570813 L178.578448,86.6935484 C178.578448,86.6935484 190.593162,73.4229267 190.523895,73.1010821 C190.181139,71.4568287 189.487615,69.9044683 188.489958,68.5483871 L172.379032,75.7570813 Z"
                      id="Path" fill="#D0E7F4" fill-rule="nonzero"></path>
                <path d="M166.342384,71.3500992 C166.104406,76.7392611 169.513369,83.464657 173.960784,86.3708873 C178.408199,89.2771176 182.206582,87.264869 182.447651,81.8757072 C182.68872,76.4865454 179.276666,69.7611494 174.829251,66.8549191 C170.381836,63.9486888 166.583453,65.9609374 166.342384,71.3500992 Z"
                      id="Path" fill="#FD4468" fill-rule="nonzero"></path>
                <path d="M164.326255,72.3581638 C164.088277,77.7473256 167.49724,84.4727215 171.944655,87.3789518 C176.39207,90.2851821 180.190453,88.2729335 180.431522,82.8837717 C180.672591,77.4946099 177.260536,70.7692139 172.813122,67.8629836 C168.365707,64.9567534 164.564234,66.9690019 164.326255,72.3581638 Z"
                      id="Path" fill="#C4003E" fill-rule="nonzero"></path>
                <path d="M165.333754,72.8368524 C165.108775,77.7355388 168.308482,83.8511555 172.476852,86.4924826 C176.645221,89.1338097 180.207396,87.3037695 180.432375,82.4050831 C180.657354,77.5063967 177.457647,71.39078 173.289277,68.7494529 C169.120908,66.1081257 165.571232,67.938166 165.333754,72.8368524 Z"
                      id="Path" fill="#FFFFFF" fill-rule="nonzero"></path>
                <path d="M178.427419,72.8100959 C177.308913,70.8145076 175.801482,69.1046433 174.009422,67.7988045 C169.994703,65.0320527 166.563833,66.9489933 166.347146,72.0802961 C166.283946,73.5496262 166.347146,75.2038389 167.55096,78.6290323 C169.278433,72.8425314 173.95826,71.7656714 178.427419,72.8100959 Z"
                      id="Path" fill="#DCF1FF" fill-rule="nonzero"></path>
                <path d="M180.439035,78.1073971 C180.538659,75.960311 178.976819,73.2741163 176.948998,72.1086443 C175.984899,71.5508382 175.072219,71.44177 174.378067,71.7191149 L174.378067,71.7191149 L174.349144,71.7191149 L174.259162,71.759626 L171.730009,72.925098 C171.629856,72.960482 171.533079,73.0042755 171.44078,73.0559798 L171.44078,73.0559798 C170.817329,73.4081144 170.415621,74.1154998 170.367416,75.1189275 C170.267793,77.2660136 171.829633,79.9522083 173.857454,81.1176803 C174.821553,81.6661377 175.702096,81.7783221 176.383393,81.5227909 L176.383393,81.5227909 C176.458423,81.4942571 176.531425,81.4609446 176.601922,81.4230713 L178.931828,80.3542027 C179.130637,80.2999175 179.318591,80.2135306 179.487791,80.0986714 L179.487791,80.0986714 C180.046969,79.7153744 180.397258,79.0391514 180.439035,78.1073971 Z"
                      id="Path" fill="#D0E7F4" fill-rule="nonzero"></path>
                <path d="M175.839207,69.5564516 L171.715728,71.8406386 C171.624584,71.8789211 171.536583,72.0990452 171.454868,72.0990452 L171.238008,72.0990452 L171.238008,71.8980623 C170.718309,72.4725943 170.410681,73.2120951 170.367426,73.990837 C170.269996,76.1888884 171.759728,78.9197042 173.585751,80.1064606 C174.446904,80.6647465 175.638061,80.7732135 175.952351,80.5052362 L175.920922,80.5052362 C175.983133,80.4747152 176.043014,80.4395253 176.100067,80.3999594 C176.100067,80.3999594 180.292689,78.1349137 180.443548,78.0168761 C179.678761,74.8307129 178.08916,71.9098397 175.839207,69.5564516 L175.839207,69.5564516 Z"
                      id="Path" fill="#5681F7" fill-rule="nonzero"></path>
                <ellipse id="Oval" fill="#97CBFF" fill-rule="nonzero"
                         transform="translate(173.505196, 76.496195) rotate(-29.370000) translate(-173.505196, -76.496195) "
                         cx="173.505196" cy="76.4961955" rx="1.87879473" ry="3.64791026"></ellipse>
                <path d="M180.443548,78.0702255 C180.443548,78.0702255 180.186359,75.8992292 178.669828,73.1533685 C177.975421,71.8337297 177.118052,70.6235307 176.121583,69.5564516 L175.403226,69.9578932 C177.478732,72.3830701 178.89761,75.3836885 179.503476,78.6290323 L180.443548,78.0702255 Z"
                      id="Path" fill="#4A70D6" fill-rule="nonzero"></path>
                <polygon id="Path" fill="#FFFFFF" fill-rule="nonzero"
                         points="184.424317 66.5322581 175.403226 67.2613613 178.016396 69.5564516 185.483871 67.7495435"></polygon>
                <polygon id="Path" fill="#FFFFFF" fill-rule="nonzero" opacity="0.43"
                         points="192.540323 64.1807356 187.715651 66.5322581 186.491935 65.8143654 191.405106 63.5080645"></polygon>
                <path d="M150.810987,128.850328 C151.1472,132.926457 151.014566,140.489282 147.177419,149.193548 L151.131778,148.97524 C151.131778,148.97524 157.276147,137.794733 152.269967,128.454254 C152.105799,128.123496 151.734284,127.95499 151.380788,128.050955 C151.027291,128.146919 150.789218,128.480912 150.810987,128.850328 L150.810987,128.850328 Z"
                      id="Path" fill-opacity="0.47" fill="#FFFFFF" fill-rule="nonzero"></path>
                <path d="M129.841588,138.731614 L129.074856,141.189992 C129.018059,141.366867 129.018059,141.557032 129.074856,141.733907 C129.444365,142.858615 131.251882,146.97947 138.472712,150.067807 C145.422569,153.03937 150.355519,152.19123 151.876667,151.79789 C152.184886,151.71843 152.430393,151.486196 152.526387,151.183295 L153.173029,149.281126 C153.2847,148.965688 153.21637,148.614631 152.994491,148.363851 C152.772612,148.11307 152.432009,148.001928 152.104531,148.073448 C147.839371,148.890908 143.422194,148.213562 139.599716,146.155914 C134.934659,143.697536 132.582116,140.584616 131.461271,138.553382 C131.286472,138.2457 130.944893,138.071425 130.592614,138.110191 C130.240335,138.148956 129.945011,138.393316 129.841588,138.731614 L129.841588,138.731614 Z"
                      id="Path" fill="#2B2B2B" fill-rule="nonzero"></path>
            </g>
        </g>
    </g>
</svg>