<?xml version="1.0" encoding="UTF-8"?>
<svg width="139px" height="158px" viewBox="0 0 139 158" version="1.1" xmlns="http://www.w3.org/2000/svg">
    <!-- Generator: Sketch 59.1 (86144) - https://sketch.com -->
    <title>Asset 6</title>
    <desc>Created with Sketch.</desc>
    <g id="Home" stroke="none" stroke-width="1" fill="none" fill-rule="evenodd">
        <g id="Home1" transform="translate(-176.000000, -714.000000)" fill-rule="nonzero">
            <g id="section3" transform="translate(16.000000, 647.000000)">
                <g id="section" transform="translate(0.000000, 35.000000)">
                    <g id="Asset-6" transform="translate(160.000000, 32.000000)">
                        <path d="M64.1812534,48.8560158 C63.8064512,51.2900685 64.0147045,53.7765645 64.7894299,56.1174993 C65.6256725,58.472575 67.1461135,60.5472846 67.9823561,62.9023603 C69.3412503,66.7527222 67.6212514,71.1170888 67.6592624,75.0982882 C67.7162789,81.2850348 71.5173816,80.9579409 76.26876,79.4813458 C80.3074316,78.2290437 86.465218,79.8177852 90.6084199,80.3130988 C100.624326,81.5186732 110.820783,82.1822065 119.933927,86.5933007 C122.860776,88.004477 126.680884,88.8268844 129.142098,86.7241382 C131.413257,84.7802662 131.346738,81.2383071 130.301435,78.4626821 C129.256132,75.6870572 127.450608,73.1917983 126.747404,70.3133725 C125.616576,65.6406031 127.507624,60.9678338 128.647955,56.2950645 C129.987747,50.577854 130.149305,44.6546069 129.123093,38.8749806 C128.172817,33.6882066 125.702101,29.0808561 124.637792,24.0155742 C122.794257,15.2120768 118.432492,5.97868467 109.490398,2.38065231 C105.89324,0.964906692 102.073381,0.174363387 98.2011226,0.044267653 C95.3219203,-0.11927434 92.4346481,0.170986046 89.6486415,0.904057205 L88.5653272,1.23115106 C79.8608021,4.10957695 73.8360543,11.258914 70.5576032,19.4736424 C68.9155591,23.7142619 67.8793932,28.158335 67.47871,32.6788885 C67.2886549,34.6788337 67.7732955,36.8096165 67.47871,38.744143 C67.0225777,41.398276 65.293076,43.9589536 64.627883,46.6224321 C64.4406608,47.3590455 64.2915923,48.1045332 64.1812534,48.8560158 Z" id="Path" fill="#964429"></path>
                        <path d="M71,38 C71,38 71.2276764,44.3183978 71.2087034,45.199819 C71.0436589,46.469804 71.153551,47.7595404 71.5312449,48.9852908 C72.1194089,50.3213397 73.295737,50.8965829 73.4949538,52.5573659 C73.5889716,54.1723017 73.4581249,55.7922427 73.1060067,57.3727088 C72.7365792,58.9603267 72.8386104,60.6181253 73.4000887,62.1509391 C74.1164017,63.4502256 75.1252381,64.5733212 76.3503953,65.4353926 C77.5737881,66.2970975 78.5876588,67.4122493 79.319675,68.7012899 C80.4865165,71.1785472 77.5172368,76.7454175 76.2080975,79 C76.7013964,78.1464132 86.4345623,78.7958814 87.677296,78.7773252 C90.6750352,78.7309346 93.6632879,78.7123784 96.6610271,78.6474315 C100.379742,78.5639285 104.126916,78.3598099 107.855117,78.4247567 C110.539801,78.4247567 112.494023,77.496945 112.930403,74.4537226 C113.233971,72.3197556 112.494023,70.1765105 111.687669,68.1724372 C110.733819,66.2217115 110.145814,64.1193406 109.951637,61.9653768 C109.951637,59.0149355 111.478966,56.3057253 112.418131,53.4944558 C115.349465,44.6709663 106.356247,42.43494 99.3172517,41.321566 C89.919276,39.8123256 80.4801921,38.7051369 71,38 Z" id="Path" fill="#7A321B"></path>
                        <path d="M84.6293177,89.513739 C88.6877655,90.5022244 92.9636472,89.9729083 96.6650861,88.0238182 C100.320461,86.0812603 103.639011,83.5524931 106.491163,80.5362543 C108.005037,79.0463335 110.064282,76.8351771 109.998461,74.5006515 C109.93264,72.4887839 107.102354,71.7295885 105.52266,71.1886619 C104.3755,70.7900843 102.062376,70.8944737 101.347752,69.8031304 C101.099315,69.3185402 101.004139,68.7686994 101.075067,68.2278001 C101.106711,65.9041853 100.958951,63.5816133 100.633129,61.2811629 C100.529696,60.3796184 100.416861,59.478074 100.313428,58.5765295 C100.044795,56.395227 99.9849668,54.192881 100.134773,52 L88.8512396,54.4009552 C90.0924282,54.1352369 89.791534,58.4531603 89.6316839,60.8730954 C89.5658633,61.6322907 89.5094457,62.2111771 89.5094457,62.391486 C89.5094457,63.1032316 89.5094457,63.7580376 89.5094457,64.346414 C89.453028,67.3072758 89.1427308,68.8256664 85.3439414,70.4009967 L80.0782927,72.5647034 C79.6739661,75.7723036 80.7835135,88.4413756 84.6293177,89.513739 Z" id="Path" fill="#FFC58A"></path>
                        <path d="M89,65.1465751 C89.3044661,65.2788794 89.6156645,65.3962019 89.9324009,65.4980925 C92.1268005,66.1969156 94.5000934,66.1651839 96.6736597,65.4079599 C98.3470645,64.8421583 99.8384526,63.8634287 101,62.5687809 C100.897436,61.7125206 100.785548,60.8562603 100.682984,60 C97.6124526,60.6906708 94.4974594,61.181493 91.3589744,61.4691624 C91.0687113,61.4778241 90.7845524,61.5518974 90.5291375,61.6854808 C90.3456326,61.8149698 90.200867,61.9891185 90.1095571,62.1902237 C90.0629371,62.2803564 90.016317,62.3795023 89.969697,62.469635 C89.5776613,63.3372488 89.2535191,64.2320738 89,65.1465751 L89,65.1465751 Z" id="Path" fill="#EB8E4B"></path>
                        <path d="M91.4154784,63.2343719 C77.7598004,67.2536207 72.0365333,54.7669058 69.97653,41.6926904 C68.9153763,34.7059062 68.7181455,27.6149875 69.3892892,20.5799775 C69.3892892,20.2629138 69.4638595,19.9645009 69.5197872,19.6474372 C69.9906513,16.434707 71.8615532,13.5963733 74.6278497,11.8980271 C76.608008,10.6908986 78.7523833,9.77685884 80.9942852,9.18433474 C90.2223543,6.53592022 101.407893,8.25179442 107.000662,15.1152912 C107.91466,16.2478485 108.664624,17.5035738 109.228448,18.8454525 C116.275337,35.5006227 109.722476,57.8442888 91.4154784,63.2343719 Z" id="Path" fill="#FFC58A"></path>
                        <path d="M133,237.490467 C95.3532522,249.729698 71.613432,248.006654 58.0396616,244.129805 C47.3786356,241.086385 43,236.70386 43,236.70386 L68.0343733,142.526392 L104.967213,141.159194 L109.241142,141 L109.564781,141.505676 C111.27816,144.314987 119.283448,157.696671 118.845584,166.536636 C118.369646,176.44414 133,237.490467 133,237.490467 Z" id="Path" fill="#6F39CC"></path>
                        <path d="M69,146.148714 C69,146.148714 75.993865,151.51911 80.5214724,150.225156 L82.3619632,154 L108.542945,152.706046 L108.542945,150.040306 L114,148.892286 L110.907975,142.782488 L69.892638,140 L69,146.148714 Z" id="Path" fill="#5A23B8"></path>
                        <path d="M82.2458431,77.9146767 C79.9852941,85.2964453 78.8262838,93.0444848 77.5810661,100.632868 C76.9776145,104.286186 75.799447,108.390299 76.0293333,112.099966 C76.2687983,116.100772 76.8722499,119.81044 76.7668853,123.905161 C76.7668853,125.34207 76.7668853,126.910461 77.6481163,128.037449 C78.701762,129.342876 80.5887457,129.60584 82.2841575,129.765496 L94.0658323,130.883092 C97.8206425,131.239972 102.811092,131.005183 104.458611,126.891678 C105.790036,123.567065 104.247881,118.392314 104.238303,114.879869 C104.238303,104.117138 103.788109,93.3356233 103.864738,82.572892 C103.864738,80.5818806 105.129112,74.8718103 103.175079,73.481859 C100.406864,71.5096307 94.9279061,76.2429785 91.8723335,76.0269726 C89.956614,75.8860991 89.4489484,74.1486599 87.8589012,73.7542143 C86.9237605,73.3836365 85.9343085,73.1617109 84.9278504,73.0968049 C84.0370408,73.1437627 83.1462312,75.0032922 82.2458431,77.9146767 Z" id="Path" fill="#9DE0E0"></path>
                        <path d="M99,118.995507 C94.0679537,120.151804 88.984432,120.311337 84,119.466242 L84.6728972,117 C86.7973238,117.419998 88.9404796,117.717177 91.0934579,117.890303 C93.3084112,118.197304 96.8317757,119.486708 99,118.995507 Z" id="Path" fill="#93D1D1"></path>
                        <path d="M113.808177,138 C109.716394,139.245099 104.767979,141.184189 100.585065,139.551271 C97.2861218,138.255143 95.527293,136.356877 96.1105315,142.000647 C101.086286,143.419244 108.394994,147.593389 112.805736,142.653814 C113.741381,141.760698 114.173488,140.371394 113.935761,139.020573 L112.751057,138.418435" id="Path" fill="#D44271"></path>
                        <path d="M24.812288,92.5091176 C26.4192136,94.7361701 26.7689563,96.9267136 23.4700325,98.3779487 C20.6342815,99.6466384 17.7985305,98.6974029 15.0289469,97.976349 C11.5407189,97.0744593 7.92157883,96.7382608 4.31926051,96.9814772 C3.85608784,96.9814772 3.2038651,96.8628228 3.27948513,96.4247141 C3.32674765,96.1417689 3.66703777,96.0231144 3.96006538,95.9500963 L7.41968165,95.146897 C5.33350011,95.2347626 3.24457537,95.0505571 1.20938687,94.5992612 C0.708404187,94.489734 0.131801476,94.2798069 0.018371434,93.8051892 C-0.132868622,93.1571534 0.680046677,92.7190447 1.34172192,92.5273721 C7.52914371,90.7877585 14.0531182,90.4751283 20.3885164,91.6146457 L18.1577256,87.0510135 C17.9875805,86.6950502 20.7666166,88.310576 20.9934766,88.5387576 C22.4099867,89.7263453 23.6902695,91.0574358 24.812288,92.5091176 L24.812288,92.5091176 Z" id="Path" fill="#FFC58A"></path>
                        <path d="M39,99.4174049 C38.4714757,98.9435007 31.2244224,107.037041 30.1404998,107 C29.7648773,106.94722 29.4110482,106.786242 29.1192834,106.53526 L20,100.030693 C22.0880282,97.6450316 24.3588454,95.4386595 26.7901933,93.4332027 C27.8651579,92.5876089 29.1640736,91.7048462 30.4540311,92.0951202 C31.0393448,92.3224607 31.5708588,92.6773484 32.0127298,93.1358511 L39,99.4174049 Z" id="Path" fill="#FFFFFF"></path>
                        <path d="M76.559568,104.093744 C77.2795422,100.701648 78.1491214,97.3375094 78.5511849,93.8429053 C79.2431082,87.7576347 78.7942931,81.2064169 79,75 C76.1014025,76.4817121 72.2303724,77.1899519 69.6216347,79.0537407 C67.012897,80.9175296 65.0025794,85.0458219 63.3288731,87.6364884 C62.3283895,89.1741142 52.6975657,107.047849 53.211833,107.206271 C48.7272584,105.822728 44.5099433,103.692788 40.7385136,100.906665 C40.0185394,100.347528 32.1362244,93.9826894 32.9403514,93.386277 C28.3427847,96.8138988 24.3136194,100.939607 21,105.612732 C24.2165081,106.16255 27.068354,109.675792 29.6677414,111.604813 C32.6910097,113.853785 35.7205116,116.093438 38.756247,118.323772 C43.1134935,121.52017 47.4146381,125.107963 52.0804449,127.866371 C55.2689021,129.73016 58.8407222,129.152385 61.8702241,127.176769 C65.9002096,124.548827 68.9577624,120.783973 71.6787039,116.92593 C72.931646,115.127374 74.9700145,112.937422 75.6899887,110.868616 C76.4099629,108.799811 76.1107529,106.218463 76.559568,104.093744 Z" id="Path" fill="#D44271"></path>
                        <path d="M113.688738,78.9080851 C117.810895,84.9610918 118.91267,91.5919286 117.269506,100.193071 C115.398672,109.84642 114.485618,119.660056 114.543563,129.491897 C114.543563,131.594819 113.992676,133.3662 113.812213,135.308088 C113.63175,137.249976 114.220629,138.699287 114.325108,140.641175 C114.499168,142.516893 113.798669,144.368246 112.425496,145.661666 C110.64936,147.15834 108.075386,147.073087 105.776856,146.921525 L76.8172774,144.941746 C74.6137279,144.790185 72.2392135,144.581787 70.5580572,143.151421 C65.5620788,138.898212 70.69103,128.222565 70.1591388,122.595827 C69.6462437,117.224849 69.7317262,111.541275 68.4019981,106.103988 C67.2242389,101.291895 68.9718815,95.9777534 69.3518039,91.1561879 C69.6652398,86.2114782 72.2487115,81.4751662 74.5567396,77.1177592 C76.3993628,73.6697241 80.7969636,72.9498047 84.2637548,72.0025423 C84.9286188,71.8130898 92.2516215,82.2708666 93.1159447,83.7107055 C96.5331966,80.8260806 98.9662601,76.9528727 100.078021,72.6277355 C107.391526,72.514064 109.500095,72.7698248 113.688738,78.9080851 Z" id="Path" fill="#E66969"></path>
                        <polygon id="Path" fill="#29286B" points="77 115.181818 79.806765 109.254811 103 105 103 119"></polygon>
                        <polygon id="Path" fill="#FFFFFF" points="79 117.240486 79.7956318 112.693117 102.063963 108 103 120"></polygon>
                        <polygon id="Path" fill="#5351BD" points="85.1868812 149 77 114.45088 104.233911 110 107 147.741935"></polygon>
                        <path d="M106.934781,13.0164033 C108.547115,15.9015588 109.521563,19.0812202 109.795895,22.3523329 C110.13245,26.8994477 110.052662,31.4665621 109.557469,36 L99.8296789,20.7516234 C94.5080054,24.8227919 88.9097574,27.857663 82.2242859,29.282572 C78.8004852,30.0135318 74.6518687,31.4106828 71.1517716,30.383638 C66.8696365,29.1252768 68.0426935,24.8320446 68.4909348,21.3160354 C68.4909348,21.0014451 68.5672312,20.7053601 68.6244535,20.3907698 C69.8884984,17.550367 71.6575388,14.9477479 73.8507566,12.701813 C74.3431206,12.201015 74.8620013,11.7254028 75.4052956,11.276904 C81.0512288,6.65057614 89.5678138,3.64346304 96.9304159,5.61427871 C101.172974,6.64099785 104.79189,9.31859577 106.934781,13.0164033 Z" id="Path" fill="#EB8E4B"></path>
                        <path d="M65.6787858,23.8161268 C67.0031284,17.4261734 70.0491164,11.2827168 74.6559368,7.37669189 C83.0844315,0.218806449 96.0346103,-2.22719944 103.980666,7.00694681 C105.066693,8.13127043 105.768847,9.57189895 105.986099,11.1215459 C106.4307,16.9900639 96.0913678,20.8392049 92.0521229,22.4983174 C88.6133189,23.9073288 85.0589283,25.0144019 81.4290033,25.8070618 C80.4830443,26.015636 71.0234542,27.0679873 71.0234542,27.1912357 C69.8410054,32.0737668 69.159915,37.3165624 67.4855675,42 C67.636921,41.5733711 66.1612249,38.8619072 66.0098715,38.2077428 C65.697705,36.9183754 65.4422961,35.4962789 65.2531043,34.1974308 C64.8072639,30.7378108 64.9512063,27.2274167 65.6787858,23.8161268 L65.6787858,23.8161268 Z" id="Path" fill="#964429"></path>
                        <path d="M105.972562,11.1178363 C102.885541,10.08374 102.593394,16.1191018 103.352976,18.9299634 C104.920832,24.8149112 109.789951,29.6187583 108.903771,36.0019524 C108.52398,38.822215 107.296962,40.777597 108.494765,43.6448638 C109.098536,45.0925986 109.965239,46.4651263 110.627439,47.847055 C112.090519,51.0367252 112.455723,54.5951958 111.669431,58 C112.05896,56.3360451 113.27624,54.7566981 113.753414,53.0833424 C114.402423,50.7855326 114.912914,48.4533377 115.282317,46.0984922 C115.554988,43.0808113 115.81792,40.0537296 115.973732,37.0266478 C116.197711,32.9090646 114.941479,27.7573851 114.026084,23.7526123 C113.052261,19.5786238 110.95854,14.9157898 107.520942,12.039122 C107.07034,11.6395885 106.544784,11.3268825 105.972562,11.1178363 L105.972562,11.1178363 Z" id="Path" fill="#964429"></path>
                        <path d="M81.8368334,35.9023856 C81.6865059,35.3956403 81.305727,34.9786285 80.7979795,34.76468 C80.2902319,34.5507314 79.7082655,34.5620732 79.2102389,34.7956229 L79.1603037,34.7956229 C78.9118444,34.7953171 78.6664476,34.743665 78.441236,34.6442707 C78.3617561,34.582147 78.2970832,34.5047701 78.251482,34.4172425 C78.1475304,34.2771904 78.0151122,34.1581988 77.861987,34.0672406 C77.607745,33.9298085 77.284176,34.0095766 77.1329323,34.2469713 C76.683515,34.9658941 77.4525179,35.741574 78.2614691,35.9118452 L78.2614691,35.9118452 C78.0346991,37.0272808 78.0346991,38.1734548 78.2614691,39.2888905 C78.4911712,40.1591655 79.2601742,41.1807927 80.3088146,40.9726834 C82.3661471,40.594303 82.0665356,37.2929337 81.8368334,35.9023856 Z" id="Path" fill="#664411"></path>
                        <path d="M98.8430617,36.1686061 C98.6385008,34.9760818 96.8948626,34.6824005 95.920763,35.2786626 C95.8202476,35.2425764 95.7252899,35.1947121 95.6382741,35.1362716 C95.2681163,34.878188 95.3265623,34.5311101 95.0927784,34.2463282 C94.9876946,34.0930676 94.8036776,34 94.6057286,34 C94.4077796,34 94.2237626,34.0930676 94.1186788,34.2463282 C93.7582619,34.8603892 94.2842757,35.6435394 94.8200305,36.0262151 C94.9664091,36.1305228 95.1268193,36.2172575 95.2973393,36.2842987 C95.0830409,37.3103435 95.0830409,38.3641566 95.2973393,39.3902014 C95.5213822,40.2089494 96.2714389,41.1700883 97.2942434,40.9743008 C99.3593345,40.5827256 99.0671046,37.4768229 98.8430617,36.1686061 Z" id="Path" fill="#664411"></path>
                        <path d="M80.5,36 C80.2238576,36 80,36.2238576 80,36.5 C80,36.7761424 80.2238576,37 80.5,37 C80.7761424,37 81,36.7761424 81,36.5 C81,36.2238576 80.7761424,36 80.5,36 Z" id="Path" fill="#FFFFFF"></path>
                        <path d="M97.5,36 C97.2143034,36.0316889 97,36.2459923 97,36.5 C97,36.7540077 97.2143034,36.9683111 97.5,37 C97.7856966,36.9683111 98,36.7540077 98,36.5 C98,36.2459923 97.7856966,36.0316889 97.5,36 Z" id="Path" fill="#FFFFFF"></path>
                        <path d="M89.2001676,46.4030157 C88.7749256,46.6029739 88.3118843,46.9429027 88.1890366,46.9728965 C87.2440543,47.1728546 86.8566116,47.1428609 86.4030201,46.0930806 C86.1006257,45.3832291 86.4030201,42.2138922 85.6848335,42.0239319 C84.4752562,41.694001 84.116163,44.8733358 84.0405644,45.5331977 C83.794869,47.5327793 84.6642527,48.8525032 86.6770649,48.9924739 C87.9055419,49.0824551 89.6537591,48.3626057 89.9561534,46.9928923 C90.1451499,46.1130764 89.6915584,46.1730638 89.2001676,46.4030157 Z" id="Path" fill="#EB8E4B"></path>
                        <path d="M94.9458356,52.7436843 C94.6352049,53.7104553 94.1691015,54.6246285 93.5644141,55.45308 C91.168662,58.7192009 86.9664356,59.9996687 83.7398985,58.1439182 C81.8768015,56.9640443 80.5533018,55.1451601 80.0400072,53.0591619 C79.866122,52.5024367 80.2815145,52.4931579 80.8514716,52.4653217 L80.8514716,52.4653217 C87.3528472,52.0013841 88.3188763,52.4653217 93.6030552,52.0292203 L93.8928639,52.0292203 C94.6850078,51.927154 95.1680223,52.0756141 94.9458356,52.7436843 Z" id="Path" fill="#B86428"></path>
                        <path d="M77.9912116,43.0667823 C76.9517802,42.9355976 75.8982631,42.998013 74.8797721,43.251119 C74.3562811,43.4222076 74,43.9279666 74,44.5 C74,45.0720334 74.3562811,45.5777924 74.8797721,45.748881 C75.8982631,46.001987 76.9517802,46.0644024 77.9912116,45.9332177 C78.591568,45.7364621 79,45.1561898 79,44.5 C79,43.8438102 78.591568,43.2635379 77.9912116,43.0667823 L77.9912116,43.0667823 Z" id="Path" fill="#EB8E4B"></path>
                        <path d="M103.478906,42.0826486 C102.86363,41.9724505 102.23512,41.9724505 101.619844,42.0826486 C100.952405,42.094623 100.298965,42.2863038 99.7216435,42.6394683 C99.2731757,42.9303676 99,43.4456129 99,44.000583 C99,44.5555531 99.2731757,45.0707984 99.7216435,45.3616978 C100.298965,45.7148622 100.952405,45.906543 101.619844,45.9185174 C102.235243,46.0271609 102.863506,46.0271609 103.478906,45.9185174 C104.35944,45.7511811 105,44.9435049 105,44.000583 C105,43.0576611 104.35944,42.2499849 103.478906,42.0826486 L103.478906,42.0826486 Z" id="Path" fill="#EB8E4B"></path>
                        <path d="M82.3346022,78.4828125 C82.7426637,82.0534375 82.6552219,85.43375 83.3061771,89.040625 C83.3061771,89.1040625 83.3061771,89.1675 83.3061771,89.24 C83.8211118,91.578125 86.8815727,100.631563 85.7836931,102 C87.4819217,99.6904194 88.8687571,97.1945515 89.9128863,94.56875 C90.2529375,93.7984375 90.6027045,93.028125 90.9524714,92.266875 C91.5903032,90.9476805 92.3340545,89.6753109 93.1773779,88.460625 C94.690699,86.4191205 96.082164,84.3013214 97.3454342,82.116875 C98.4238823,80.06875 100.046412,73.47125 103,73 C100.030692,73.4002909 97.1363127,74.1873432 94.4015623,75.338125 C93.2117844,75.9482225 91.8728668,76.2604461 90.5152627,76.244375 C88.572113,76.1084375 88.0571783,74.431875 86.444364,74.05125 C85.4931231,73.6916665 84.4859597,73.4774606 83.4616291,73.416875 C81.2464384,73.54375 82.1597187,77.186875 82.3346022,78.4828125 Z" id="Path" fill="#FFFFFF"></path>
                        <path d="M105.719468,74.283128 C104.858651,73.1232122 104.113551,71.8839923 103.494559,70.5827491 C103.101462,69.3321674 102.388558,68.2023566 101.424426,67.3020008 C101.192261,67.1017225 100.873035,66.9109814 100.592503,67.0445002 C100.311971,67.178019 100.28295,67.5976496 100.292624,67.9219096 C100.292624,70.5350638 99.2091898,71.2408062 97.1777509,72.3089568 C96.5973398,72.6141427 90.1160822,75.9044281 90,75.6278533 L93.2309553,83 C98.2382113,81.7632837 102.71272,78.9794301 106,75.0556298" id="Path" fill="#D1D3D4"></path>
                        <path d="M84.3669053,70.047619 C86.1527467,68.6639813 88.1984328,67.6290137 90.390738,67 C89.2901356,68.4095238 88.4253766,70.4380952 89.0935995,72.1238095 C89.2115211,72.4285714 90.5971009,75.4 91,75.1428571 C89.98223,75.6960503 89.0156169,76.3333352 88.1109188,77.047619 C86.6254453,78.5348542 85.3409521,80.1989712 84.2882909,82 C83.2564761,80.847619 82.2344882,79.9714286 81.8708963,78.4952381 C81.7431479,77.9619048 79.905535,73.6 80.003803,73.4666667 C81.4188632,72.352381 82.8928843,71.1333333 84.3669053,70.047619 Z" id="Path" fill="#D1D3D4"></path>
                        <path d="M90.5881699,131.00163 C92.5661286,131.00163 94.3557104,131.561044 95.2975955,133.663669 C96.0134282,135.312975 96.5032085,137.647082 95.1186374,139.113132 C94.6048923,139.58628 94.0023894,139.947275 93.3478933,140.17409 C90.2902783,141.602614 87.07335,142.642373 83.7689215,143.270156 C82.3749315,143.482348 80.2462711,144.408274 78.9464696,143.79099 C77.8853815,143.256518 77.26152,142.101978 77.3829403,140.89747 C76.8196191,140.895266 76.350274,140.454846 76.299053,139.880381 C76.247832,139.305915 76.6315275,138.785738 77.1851444,138.679104 C74.7739185,139.277098 74.4348398,136.248547 75.7911544,135.370846 C76.827228,134.705336 82.0358528,134.290598 83.2791412,134.309888 C81.9327698,134.365372 80.5848957,134.248731 79.2667105,133.962666 C78.7486737,133.81799 77.6466681,133.528638 77.4300345,132.920998 C77.0438616,131.802171 78.5037836,131.956492 79.3703179,131.869686 C81.3482767,131.78288 83.1849527,131.242757 85.1723303,131.290982 C86.8206293,131.339207 88.7891693,130.972695 90.5881699,131.00163 Z" id="Path" fill="#FFC58A"></path>
                        <path d="M95.5814493,141.910865 C95.3605268,142.006435 95.1137673,142.025791 94.8804881,141.965849 C94.6788096,141.86216 94.514465,141.698871 94.4101062,141.498487 C91.9890355,137.834693 89.8463893,133.996572 88,130.016067 C91.2375035,129.583055 94.4377167,128.909138 97.573655,128 C98.4959724,131.408987 100.137697,134.249809 101.622629,137.411369 C102.425045,139.125026 101.936216,139.152518 100.266822,139.968109 C98.7566227,140.732267 97.1903544,141.381709 95.5814493,141.910865 L95.5814493,141.910865 Z" id="Path" fill="#FFFFFF"></path>
                        <path d="M129.13024,85.1284819 C136.594556,96.2059527 138.364938,114.287064 138.939116,126.759682 C139.1234,127.908603 138.886289,129.083925 138.269242,130.080133 C137.737874,130.637 137.083486,131.069491 136.355315,131.345067 C128.85272,134.963149 121.216151,138.627736 113.043682,140.590244 C109.145004,141.632674 105.101787,142.072098 101.062499,141.892381 C98.9189004,141.743566 99.2825465,142.478343 97.5313032,141.399429 C95.7800599,140.320515 94.3254753,136.562918 93.3780814,134.888741 C92.1340287,132.721612 90.1626838,129.903414 90,127.364246 C94.7848178,127.522363 99.3782429,125.922593 104.096073,125.392437 C105.646354,125.215719 119.828554,122.685851 119.598883,121.011674 C118.412248,112.212944 117.024651,103.730448 112.278112,95.8990202 C110.909654,94.5689797 109.828285,92.9878126 108.3737,91.6763739 C106.856508,90.4832456 105.561693,89.0454486 104.545846,87.4258247 C102.239564,83.1380715 104.115212,77.4179669 104.96691,73 C108.545954,73.9859042 112.115428,75.1392261 115.74232,75.9670136 C118.517514,76.5994804 120.814227,77.0087237 123.244914,78.7015026 C124.929018,79.9676146 126.417859,81.4616407 127.666086,83.1380715 C128.176466,83.758137 128.664518,84.4216072 129.13024,85.1284819 Z" id="Path" fill="#E66969"></path>
                        <path d="M138.69585,129.804297 C138.967057,128.952684 139.058275,128.055859 138.963936,127.168562 C138.379892,114.59958 136.618186,96.3557957 129.150085,85.1844091 C128.677744,84.4777947 128.186253,83.8118262 127.675614,83.1865037 C126.426846,81.5097879 124.940638,80.0158942 123.261774,78.7498405 C120.829854,77.0520899 118.531977,76.6299972 115.755375,75.9921682 C112.136218,75.1667425 108.555359,73.9942628 104.974501,73 C104.131946,77.446043 102.245771,83.224023 104.553223,87.5481282 C105.569585,89.1814834 106.865057,90.6314702 108.383019,91.834714 C109.838341,93.1478912 110.920258,94.7518435 112.28941,96.0931603 C117.076655,103.953464 118.426657,112.507876 119.613894,121.418722 C119.843682,123.107093 105.644715,125.658408 104.103222,125.836625 C99.3829991,126.380656 94.758521,127.993988 90,127.825151 C90.1627663,130.385847 92.135111,133.227937 93.3797946,135.41344 C93.6383058,135.863672 93.9351149,136.482741 94.270222,137.14871 C109.500047,139.508885 125.099971,136.929917 138.69585,129.804297 Z" id="Path" fill="#E66969"></path>
                        <path d="M94,136.463727 C94.870933,138.320089 95.9827623,140.616621 97.1594484,141.382131 C98.8549881,142.492121 98.5029089,141.73618 100.578324,141.889282 C104.48913,142.074175 108.40374,141.622094 112.17841,140.549638 C120.090929,138.530605 127.475329,134.760466 134.748546,131.038171 C135.453555,130.754659 136.087128,130.30971 136.601594,129.736804 C136.768817,129.512814 136.903069,129.26453 137,129 C123.837386,136.261475 108.7379,138.882369 94,136.463727 L94,136.463727 Z" id="Path" fill="#D44271"></path>
                        <path d="M93.7764836,28.8625962 C95.5124547,28.0511241 97.4018356,27.8061147 99.2459229,28.1533353 C100.51301,28.400502 102.582281,28.9378209 102.992489,30.5820166 C103.00646,30.6376086 103.000786,30.6974969 102.976756,30.7480854 C102.952725,30.7986738 102.912376,30.8356704 102.864869,30.850676 C101.780097,31.0978427 100.713556,30.2703716 99.6378994,30.0446977 C97.8921291,29.661107 96.0886026,29.9160946 94.4692792,30.7754514 C94.1673735,31.0506924 93.7519832,31.0750806 93.4283735,30.8365646 C93.1047638,30.5980486 92.9414495,30.147127 93.0191326,29.7066231 C93.0968156,29.2661191 93.3990488,28.9292965 93.7764836,28.8625962 Z" id="Path" fill="#964429"></path>
                        <path d="M82.2235164,28.8625962 C80.4875453,28.0511241 78.5981644,27.8061147 76.7540771,28.1533353 C75.4869903,28.400502 73.4177191,28.9378209 73.0075111,30.5820166 C72.9935398,30.6376086 72.9992136,30.6974969 73.0232444,30.7480854 C73.0472752,30.7986738 73.0876243,30.8356704 73.1351314,30.850676 C74.2199035,31.0978427 75.2864442,30.2703716 76.3621006,30.0446977 C78.1078709,29.661107 79.9113974,29.9160946 81.5307208,30.7754514 C81.8326265,31.0506924 82.2480168,31.0750806 82.5716265,30.8365646 C82.8952362,30.5980486 83.0585505,30.147127 82.9808674,29.7066231 C82.9031844,29.2661191 82.6009512,28.9292965 82.2235164,28.8625962 Z" id="Path" fill="#964429"></path>
                        <path d="M112,96 L113.588715,108.30081 C114.057182,111.932389 113.690555,115.536032 115.146877,119 C116.399518,115.377733 118.436331,110.144534 117.916944,106.298785 C117.397556,102.453036 112.468467,99.6129555 112,96 Z" id="Path" fill="#D44271"></path>
                        <path d="M80.8189002,9.02194908 C80.2650642,9.27304653 79.730326,9.54345917 79.2051366,9.83318701 C74.0200856,12.7884109 72.6545933,18.1290606 70,23.2958736 C71.9037568,21.6965423 73.9908672,20.3346917 76.2163319,19.2396839 L71.7760948,26 C74.0869279,24.4161545 76.4264076,22.928885 78.8136319,21.4609306 L76.9038525,24.0105356 C82.7477774,22.6101844 86.9779388,22.2528534 91.8956207,18.5539947 C93.9401746,17.1546451 96.0814521,15.9056028 98.3029305,14.8165057 L90.7974975,15.7243196 L98.4366151,10.0359965 L88.9641093,11.214223 C91.8360071,8.19836696 95.2396852,5.75165905 99,4 C96.0207442,5.381036 91.7523872,5.42932397 88.5535068,6.404741 C85.9231721,7.11082848 83.3397808,7.98498703 80.8189002,9.02194908 L80.8189002,9.02194908 Z" id="Path" fill="#BA5433"></path>
                        <path d="M117.31143,26.1740794 C118.419105,27.4493863 119.482974,28.7246931 120.503037,30 L119.414136,22.721186 C120.461742,24.1321588 121.664913,25.4158758 123,26.5471066 C122.333517,23.1707317 121.591938,18.8283118 119.611264,16.025825 C118.529281,14.5497022 117.223823,13.2582716 115.743788,12.1999044 C114.889564,11.5781923 112.289343,10.7747489 111.791828,10 L115.80011,16.1979914 L107.558255,11.205165 L109.989509,18.3309421 C109.057387,16.9882051 107.604676,16.1174903 106,15.9397418 C106.821699,17.84163 107.878476,19.6287712 109.144671,21.2577714 C110.083379,22.4151124 113.228051,24.6054519 113.594147,25.9062649 C113.087245,24.1176471 112.401988,22.3577236 111.782441,20.5882353 C113.724757,22.3452641 115.570553,24.2100404 117.31143,26.1740794 L117.31143,26.1740794 Z" id="Path" fill="#BA5433"></path>
                        <path d="M53.313773,106.532208 C54.543162,103.056096 59.4323472,105.885707 62.0235209,105.595251 C62.6949564,107.656557 63.5460718,109.755341 64,111.854126 C62.1086324,111.638625 61.1629486,110.66419 59.7633366,109.586689 C57.6824986,108.114888 55.4355051,106.888559 53.0678952,105.932555 L59.5080019,114.365171 C59.5080019,114.365171 61.8722114,118.581479 58.5623181,118.99374 C55.2524248,119.406001 25,99.3176366 25,99.3176366 L33.0950533,92" id="Path" fill="#E66969"></path>
                        <path d="M84.7822814,82.4462025 C84.1862624,78.278481 82.7671693,73.9018987 84.7160571,70 C82.414467,70.9679055 80.1687748,72.0645637 77.989556,73.2848101 C76.769136,73.9493671 75.1513699,74.3386076 76.0312076,76.1329114 C76.4190931,76.9113924 77.2043245,77.0822785 77.8192649,77.5664557 C78.4978361,78.1905002 79.0982626,78.895039 79.6073221,79.664557 C80.1749593,80.4335443 81.5751311,82.1898734 80.8182815,83.2151899 C79.3140429,85.2753165 76.6745298,86.1297468 75,87.9620253 C76.3812506,90.3449367 77.516525,92.9936709 78.9450787,95.3196203 C80.8372028,98.3386076 83.9497468,100.674051 86.513575,103 C88.008353,96.8481013 85.6621191,88.5791139 84.7822814,82.4462025 Z" id="Path" fill="#D44271"></path>
                        <path d="M108.916176,78.1786168 L102.819908,80.6961541 C102.639489,80.7721552 105.288802,87.3462528 104.776031,88.5527707 C104.063851,90.2247955 101.357564,91.8778201 100.02816,93.0368373 C95.6601179,96.8368937 91.1116568,99.9434398 87,104 C90.1541748,94.7951448 94.8415204,86.1902034 100.863785,78.5491223 C101.81336,77.3426043 103.028815,76.3545897 103.99738,75.1860723 C104.842502,74.1600571 104.747544,73.1055415 104.833006,71.7755217 C104.821753,71.5581588 104.885444,71.3435213 105.013425,71.1675127 C105.279306,70.8825085 105.754093,71.0155104 106.114931,71.1675127 L116,75.4900768 C113.562765,76.1714559 111.191894,77.0712779 108.916176,78.1786168 L108.916176,78.1786168 Z" id="Path" fill="#D44271"></path>
                        <path d="M119.033591,47.0426257 L119.827838,52.4066496 L123.291904,40 L124.009597,50.1184996 L126,44.7919864 C124.196421,52.9846789 123.648148,61.3949468 124.373229,69.7459506 L121.95221,62.5063939 C121.95221,65.9948849 122.047902,69.5208866 121.866087,73 C117.991004,64.9001559 116.993873,55.7623144 119.033591,47.0426257 L119.033591,47.0426257 Z" id="Path" fill="#BA5433"></path>
                        <path d="M94,51 C93.6594196,51.6126075 93.0904708,52.1081066 92.3848485,52.40664 C91.5075841,52.705366 90.5695968,52.8474563 89.6272727,52.8243694 L85.0378788,52.969296 C84.1549712,53.0508487 83.2621211,52.9694937 82.4181818,52.7305934 C81.7296863,52.5056061 81.2040912,52.0127241 81,51.4006793 C87.6181818,50.9744247 88.6030303,51.4177295 94,51 Z" id="Path" fill="#FFFFFF"></path>
                        <path d="M94,54.5038938 C91.5614553,57.7232237 87.2841691,58.9853473 84,57.1561826 C84.1930603,56.940467 84.4034308,56.7386803 84.6293019,56.5525583 C86.7062595,54.7687855 89.4776052,53.8533671 92.2989184,54.0191651 C92.8652926,54.0386494 93.4197358,54.1761706 93.9213373,54.4215814 L94,54.5038938 Z" id="Path" fill="#D9762F"></path>
                        <path d="M119,121 C119,121 123.683469,118.439207 124.830245,118.03383 C125.97702,117.628454 132,121 132,121 L119,121 Z" id="Path" fill="#D44271"></path>
                        <path d="M55,102.248394 C55.1596244,101.920771 63.657277,103 63.657277,103 L65.3661972,102.190578 C65.3661972,102.190578 66.5305164,78.8426124 73,76 C73,76 67.3661972,78.6884368 63.1220657,86.6670236 C58.8779343,94.6456103 55,102.248394 55,102.248394 Z" id="Path" fill="#E66969"></path>
                    </g>
                </g>
            </g>
        </g>
    </g>
</svg>