<?xml version="1.0" encoding="UTF-8"?>
<svg width="215px" height="200px" viewBox="0 0 215 200" version="1.1" xmlns="http://www.w3.org/2000/svg">
    <!-- Generator: Sketch 55.1 (78136) - https://sketchapp.com -->
    <title>Img_default</title>
    <desc>Created with Sketch.</desc>
    <g id="Deck_Mine/Create" stroke="none" stroke-width="1" fill="none" fill-rule="evenodd">
        <g id="Deck_Create" transform="translate(-85.000000, -212.000000)">
            <g id="description" transform="translate(41.000000, 212.000000)">
                <g id="Img_default" transform="translate(44.000000, 0.000000)">
                    <rect id="Rectangle" fill="#FFFFFF" fill-rule="nonzero" x="26.5787781" y="0.643086817"
                          width="129.903537" height="163.344051"></rect>
                    <rect id="Rectangle" fill="#DCDDDD" fill-rule="nonzero" x="26.5787781" y="0" width="129.903537"
                          height="8.36012862"></rect>
                    <rect id="Rectangle" fill="#DCDDDD" fill-rule="nonzero" x="34.9389068" y="16.7202572"
                          width="111.254019" height="51.4469453"></rect>
                    <circle id="Oval" fill="#BE9BFF" fill-rule="nonzero" opacity="0.2" cx="86.7073955" cy="62.7009646"
                            r="1"></circle>
                    <circle id="Oval" fill="#BE9BFF" fill-rule="nonzero" opacity="0.2" cx="90.5659164" cy="62.7009646"
                            r="1"></circle>
                    <circle id="Oval" fill="#BE9BFF" fill-rule="nonzero" opacity="0.2" cx="94.4244373" cy="62.7009646"
                            r="1"></circle>
                    <circle id="Oval" fill="#BE9BFF" fill-rule="nonzero" opacity="0.2" cx="98.2829582" cy="62.7009646"
                            r="1"></circle>
                    <rect id="Rectangle" fill="#DCDDDD" fill-rule="nonzero" x="61.3054662" y="75.8842444"
                          width="15.4340836" height="1.28617363"></rect>
                    <rect id="Rectangle" fill="#DCDDDD" fill-rule="nonzero" x="61.3054662" y="78.4565916"
                          width="24.437299" height="1.28617363"></rect>
                    <rect id="Rectangle" fill="#DCDDDD" fill-rule="nonzero" x="61.3054662" y="81.0289389"
                          width="24.437299" height="1.28617363"></rect>
                    <rect id="Rectangle" fill="#DCDDDD" fill-rule="nonzero" x="61.3054662" y="82.9581994"
                          width="24.437299" height="1.28617363"></rect>
                    <rect id="Rectangle" fill="#DCDDDD" fill-rule="nonzero" x="61.3054662" y="86.1736334"
                          width="24.437299" height="1.28617363"></rect>
                    <rect id="Rectangle" fill="#DCDDDD" fill-rule="nonzero" x="61.3054662" y="88.1028939"
                          width="24.437299" height="1.28617363"></rect>
                    <rect id="Rectangle" fill="#DCDDDD" fill-rule="nonzero" x="61.3054662" y="90.6752412"
                          width="24.437299" height="1.28617363"></rect>
                    <rect id="Rectangle" fill="#DCDDDD" fill-rule="nonzero" x="61.3054662" y="92.6045016"
                          width="24.437299" height="1.28617363"></rect>
                    <rect id="Rectangle" fill="#DCDDDD" fill-rule="nonzero" x="61.3054662" y="95.1768489"
                          width="20.5787781" height="1.28617363"></rect>
                    <rect id="Rectangle" fill="#CCCCCC" fill-rule="nonzero" x="95.3890675" y="75.8842444"
                          width="21.8649518" height="21.8649518"></rect>
                    <rect id="Rectangle" fill="#DCDDDD" fill-rule="nonzero" x="121.755627" y="75.8842444"
                          width="15.4340836" height="1.28617363"></rect>
                    <rect id="Rectangle" fill="#DCDDDD" fill-rule="nonzero" x="121.755627" y="78.4565916"
                          width="24.437299" height="1.28617363"></rect>
                    <rect id="Rectangle" fill="#DCDDDD" fill-rule="nonzero" x="121.755627" y="81.0289389"
                          width="24.437299" height="1.28617363"></rect>
                    <rect id="Rectangle" fill="#DCDDDD" fill-rule="nonzero" x="121.755627" y="82.9581994"
                          width="24.437299" height="1.28617363"></rect>
                    <rect id="Rectangle" fill="#DCDDDD" fill-rule="nonzero" x="121.755627" y="86.1736334"
                          width="24.437299" height="1.28617363"></rect>
                    <rect id="Rectangle" fill="#DCDDDD" fill-rule="nonzero" x="121.755627" y="88.1028939"
                          width="24.437299" height="1.28617363"></rect>
                    <rect id="Rectangle" fill="#DCDDDD" fill-rule="nonzero" x="121.755627" y="90.6752412"
                          width="24.437299" height="1.28617363"></rect>
                    <rect id="Rectangle" fill="#DCDDDD" fill-rule="nonzero" x="121.755627" y="92.6045016"
                          width="24.437299" height="1.28617363"></rect>
                    <rect id="Rectangle" fill="#DCDDDD" fill-rule="nonzero" x="121.755627" y="95.1768489"
                          width="20.5787781" height="1.28617363"></rect>
                    <rect id="Rectangle" fill="#DCDDDD" fill-rule="nonzero" x="34.9389068" y="102.893891"
                          width="21.8649518" height="21.8649518"></rect>
                    <rect id="Rectangle-Copy" fill="#DCDDDD" fill-rule="nonzero" x="34.9389068" y="75.8842444"
                          width="21.8649518" height="21.8649518"></rect>
                    <rect id="Rectangle" fill="#DCDDDD" fill-rule="nonzero" x="61.3054662" y="103.536977"
                          width="15.4340836" height="1.28617363"></rect>
                    <rect id="Rectangle" fill="#DCDDDD" fill-rule="nonzero" x="61.3054662" y="106.109325"
                          width="24.437299" height="1.28617363"></rect>
                    <rect id="Rectangle" fill="#DCDDDD" fill-rule="nonzero" x="61.3054662" y="108.681672"
                          width="24.437299" height="1.28617363"></rect>
                    <rect id="Rectangle" fill="#DCDDDD" fill-rule="nonzero" x="61.3054662" y="111.254019"
                          width="24.437299" height="1.28617363"></rect>
                    <rect id="Rectangle" fill="#DCDDDD" fill-rule="nonzero" x="61.3054662" y="113.18328"
                          width="24.437299" height="1.28617363"></rect>
                    <rect id="Rectangle" fill="#DCDDDD" fill-rule="nonzero" x="61.3054662" y="115.755627"
                          width="24.437299" height="1.28617363"></rect>
                    <rect id="Rectangle" fill="#DCDDDD" fill-rule="nonzero" x="61.3054662" y="118.327974"
                          width="24.437299" height="1.28617363"></rect>
                    <rect id="Rectangle" fill="#DCDDDD" fill-rule="nonzero" x="61.3054662" y="120.900322"
                          width="24.437299" height="1.28617363"></rect>
                    <rect id="Rectangle" fill="#DCDDDD" fill-rule="nonzero" x="61.3054662" y="122.829582"
                          width="20.5787781" height="1.28617363"></rect>
                    <rect id="Rectangle" fill="#CCCCCC" fill-rule="nonzero" x="95.3890675" y="102.893891"
                          width="21.8649518" height="21.8649518"></rect>
                    <rect id="Rectangle" fill="#999999" fill-rule="nonzero" x="121.755627" y="103.536977"
                          width="15.4340836" height="1.28617363"></rect>
                    <rect id="Rectangle" fill="#999999" fill-rule="nonzero" x="121.755627" y="106.109325"
                          width="24.437299" height="1.28617363"></rect>
                    <rect id="Rectangle" fill="#999999" fill-rule="nonzero" x="121.755627" y="108.681672"
                          width="24.437299" height="1.28617363"></rect>
                    <rect id="Rectangle" fill="#999999" fill-rule="nonzero" x="121.755627" y="111.254019"
                          width="24.437299" height="1.28617363"></rect>
                    <rect id="Rectangle" fill="#999999" fill-rule="nonzero" x="121.755627" y="113.18328"
                          width="24.437299" height="1.28617363"></rect>
                    <rect id="Rectangle" fill="#999999" fill-rule="nonzero" x="121.755627" y="115.755627"
                          width="24.437299" height="1.28617363"></rect>
                    <rect id="Rectangle" fill="#999999" fill-rule="nonzero" x="121.755627" y="118.327974"
                          width="24.437299" height="1.28617363"></rect>
                    <rect id="Rectangle" fill="#999999" fill-rule="nonzero" x="121.755627" y="120.900322"
                          width="24.437299" height="1.28617363"></rect>
                    <rect id="Rectangle" fill="#999999" fill-rule="nonzero" x="121.755627" y="122.829582"
                          width="20.5787781" height="1.28617363"></rect>
                    <rect id="Rectangle" fill="#DCDDDD" fill-rule="nonzero" x="34.9389068" y="131.189711"
                          width="111.254019" height="26.3665595"></rect>
                    <rect id="Rectangle" fill="#7046A4" fill-rule="nonzero" x="141.048232" y="142.765273"
                          width="5.14469453" height="5.14469453"></rect>
                    <polygon id="Path" fill="#FFFFFF" fill-rule="nonzero"
                             points="143.405944 143.40836 142.977492 143.867333 144.049847 145.016077 142.977492 146.164821 143.405944 146.623794 144.906752 145.016077"></polygon>
                    <g id="Group-4" transform="translate(0.000000, 59.000000)">
                        <rect id="Rectangle" fill="#FD4468" fill-rule="nonzero" x="0" y="0" width="30" height="30"
                              rx="15"></rect>
                        <g id="Component/Text_White" transform="translate(6.000000, 6.000000)">
                            <path d="M4.27638192,2.38235294 L4.25319321,2.1725846 C4.14844454,1.22501354 3.3439891,0.5 2.38235294,0.5 C1.34275812,0.5 0.5,1.34275812 0.5,2.38235294 C0.5,3.42194776 1.34275812,4.26470588 2.38235294,4.26470588 C3.3439891,4.26470588 4.14844454,3.53969235 4.25319321,2.59212128 L4.27638192,2.38235294 Z M12.7352941,2.14705882 L12.7647059,2.14705882 L13,2.38235294 L12.7647059,2.61764706 L12.7352941,2.61764706 L12.7352941,2.14705882 Z M2.38235294,13.7236181 L2.61764706,13.6976076 L2.61764706,5.26470588 L2.64705882,5.26470588 L2.61764706,5.23529412 L2.61764706,4.76470588 L2.38235294,5 L2.14705882,4.76470588 L2.14705882,5.23529412 L2.11764706,5.26470588 L2.14705882,5.26470588 L2.14705882,13.6976076 L2.38235294,13.7236181 Z M4.27638192,15.6176471 L4.30239237,15.8529412 L12.7352941,15.8529412 L12.7352941,15.8823529 L12.7647059,15.8529412 L13.2352941,15.8529412 L13,15.6176471 L13.2352941,15.3823529 L12.7647059,15.3823529 L12.7352941,15.3529412 L12.7352941,15.3823529 L4.30239237,15.3823529 L4.27638192,15.6176471 Z M15.6176471,13.7236181 L15.4078787,13.7468068 C14.4603077,13.8515555 13.7352941,14.6560109 13.7352941,15.6176471 C13.7352941,16.6572419 14.5780522,17.5 15.6176471,17.5 C16.6572419,17.5 17.5,16.6572419 17.5,15.6176471 C17.5,14.6560109 16.7749865,13.8515555 15.8274154,13.7468068 L15.6176471,13.7236181 Z M15.3823529,5.26470588 L15.3823529,5.23529412 L15.6176471,5 L15.8529412,5.23529412 L15.8529412,5.26470588 L15.3823529,5.26470588 Z M15.6176471,4.26470588 C16.6572419,4.26470588 17.5,3.42194776 17.5,2.38235294 C17.5,1.34275812 16.6572419,0.5 15.6176471,0.5 C14.5780522,0.5 13.7352941,1.34275812 13.7352941,2.38235294 C13.7352941,3.42194776 14.5780522,4.26470588 15.6176471,4.26470588 Z"
                                  id="Combined-Shape" stroke="#FFFFFF" stroke-width="1"></path>
                            <path d="M9.52941176,6.35294118 L9.52941176,12.1764706 L9,12.1764706 L9,6.35294118 L6.35294118,6.35294118 L6.35294118,5.82352941 L12.1764706,5.82352941 L12.1764706,6.35294118 L9.52941176,6.35294118 Z"
                                  id="Combined-Shape" fill="#FFFFFF" fill-rule="evenodd"></path>
                        </g>
                    </g>
                    <rect id="Rectangle" fill="#FD4468" fill-rule="nonzero" x="154" y="17" width="24"
                          height="24.7272727" rx="12"></rect>
                    <g id="Group-2" transform="translate(39.000000, 13.000000)">
                        <circle id="Oval" fill="#FD4468" fill-rule="nonzero" cx="13" cy="13" r="13"></circle>
                        <g id="Component/Voice_White" transform="translate(4.000000, 4.000000)" stroke="#FFFFFF">
                            <rect id="Rectangle" x="6.85294118" y="2.61764706" width="4.82352941" height="9.58823529"
                                  rx="2.41176471"></rect>
                            <rect id="Rectangle" fill="#2B2B2B" fill-rule="evenodd" x="7.38235294" y="17.9705882"
                                  width="3.76470588" height="1" rx="0.5"></rect>
                            <path d="M7.64705882,16.1176471 L10.8823529,16.1176471 L10.8823529,16.1470588 L10.9117647,16.1176471 L11.3823529,16.1176471 L11.1470588,15.8823529 L11.3823529,15.6470588 L10.9117647,15.6470588 L10.8823529,15.6176471 L10.8823529,15.6470588 L7.64705882,15.6470588 L7.64705882,15.6176471 L7.61764706,15.6470588 L7.14705882,15.6470588 L7.38235294,15.8823529 L7.14705882,16.1176471 L7.61764706,16.1176471 L7.64705882,16.1470588 L7.64705882,16.1176471 Z"
                                  id="Rectangle-Copy" fill="#2B2B2B" fill-rule="evenodd"
                                  transform="translate(9.264706, 15.882353) rotate(90.000000) translate(-9.264706, -15.882353) "></path>
                            <path d="M4.76470588,8.20588235 C4.92296996,11.7696251 6.42296996,13.5514965 9.26470588,13.5514965 C12.1064418,13.5514965 13.6064418,11.7696251 13.7647059,8.20588235"
                                  id="Path-7" stroke-linecap="round" stroke-linejoin="round"></path>
                        </g>
                    </g>
                    <circle id="Oval-Copy" fill="#FD4468" fill-rule="nonzero" cx="18" cy="144" r="18"></circle>
                    <g id="Component/SingleChoice_White" transform="translate(7.000000, 133.000000)">
                        <g id="Group-3" transform="translate(0.000000, 1.294118)">
                            <circle id="Oval" stroke="#FFFFFF" cx="2.91176471" cy="2.91176471" r="2.41176471"></circle>
                            <rect id="Rectangle" fill="#FFFFFF" x="7.76470588" y="1.94117647" width="14.2352941"
                                  height="1.94117647"></rect>
                        </g>
                        <g id="Group-4" transform="translate(0.000000, 8.088235)">
                            <circle id="Oval-Copy" stroke="#FFFFFF" cx="2.91176471" cy="2.91176471"
                                    r="2.41176471"></circle>
                            <rect id="Rectangle-Copy" fill="#FFFFFF" x="7.76470588" y="1.94117647" width="14.2352941"
                                  height="1.94117647"></rect>
                        </g>
                        <g id="Group-5" transform="translate(0.000000, 14.882353)">
                            <circle id="Oval-Copy-2" stroke="#FFFFFF" cx="2.91176471" cy="2.91176471"
                                    r="2.41176471"></circle>
                            <rect id="Rectangle-Copy-2" fill="#FFFFFF" x="7.76470588" y="1.94117647" width="14.2352941"
                                  height="1.94117647"></rect>
                        </g>
                    </g>
                    <g id="Component/Video_White" transform="translate(159.000000, 22.000000)">
                        <rect id="Rectangle" stroke="#FFFFFF" stroke-width="1" x="0.5" y="2.26470588" width="13"
                              height="10.4705882" rx="3"></rect>
                        <path d="M7,10.5882353 C5.40812043,10.5882353 4.11764706,9.20558526 4.11764706,7.5 C4.11764706,5.79441474 5.40812043,4.41176471 7,4.41176471 C8.59187957,4.41176471 9.88235294,5.79441474 9.88235294,7.5 C9.88235294,9.20558526 8.59187957,10.5882353 7,10.5882353 Z M6.17647059,6.17647059 L6.17647059,8.82352941 L8.23529412,7.5 L6.17647059,6.17647059 Z"
                              id="Combined-Shape" fill="#FFFFFF" fill-rule="evenodd"></path>
                    </g>
                    <path d="M121.43348,166.270941 C84.145989,163.22504 59.3646123,180.79314 51.8117625,181.261357 C44.2589128,181.729574 29.080445,187.818886 33.9559224,192.03533 C33.9559224,192.03533 41.4284761,194.613014 57.7110149,190.864787 C57.7110149,190.864787 75.7299565,200 109.436744,200 C143.143532,200 166.507181,184.040773 169.575997,177.147024 C172.644812,170.253276 158.72348,169.326804 121.43348,166.270941 Z"
                          id="Path" fill="#000000" fill-rule="nonzero" opacity="0.15"
                          style="mix-blend-mode: multiply;"></path>
                    <path d="M62.5916399,187.510878 L62.6067497,187.535901 C76.3629428,192.810858 90.9828343,195.510471 105.727805,195.498392 C106.872798,195.498392 108.013593,195.481669 109.150191,195.448305 C109.205594,195.378239 148.675098,145.549115 149.808338,142.608864 C150.941578,139.668613 159.697749,89.3890675 159.697749,89.3890675 L99.7619245,89.3890675 L62.5916399,187.510878 Z"
                          id="Path" fill="#507FBF" fill-rule="nonzero"></path>
                    <path d="M111.466238,101.758328 L111.466238,131.923101 C111.491145,153.728271 100.46373,174.029473 82.2408479,185.726251 C68.0976225,194.815419 49.5986124,184.260012 49.7306059,167.329109 L49.7978479,158.803298 C49.9522553,144.06798 57.4186032,130.273268 69.8608561,122.569858 C75.0755134,119.335953 80.9200668,117.277061 86.9951035,116.533886 L86.9951035,116.533886 L86.9951035,101.745753 C86.994852,95.3957781 91.7607714,90.0794136 98.0178039,89.4499738 L98.0178039,89.4499738 C101.459111,89.103786 104.884768,90.2444343 107.447294,92.5897314 C110.00982,94.9350285 111.469854,98.2659046 111.466238,101.758328 L111.466238,101.758328 Z"
                          id="Path" fill="#6EAFFF" fill-rule="nonzero"></path>
                    <polygon id="Path" fill="#507FBF" fill-rule="nonzero"
                             points="133.974277 156.270096 74.1672026 156.270096 76.3765012 124.758842 133.974277 128.044862"></polygon>
                    <path d="M133.145316,106.752412 C133.145316,106.752412 138.405324,119.032981 134.397699,124.913677 C130.390074,130.794372 93.4598071,126.391339 93.4598071,126.391339 L100.615923,106.752412 L133.145316,106.752412 Z"
                          id="Path" fill="#1E35A7" fill-rule="nonzero"></path>
                    <path d="M125.178633,122.921713 L93.1885912,126.134235 L61.4279222,177.491961 L49.7299035,171.781646 C49.7299035,171.781646 77.9278129,106.653459 83.9264132,105.018358 C89.9250135,103.383256 132.688103,101.607717 132.688103,101.607717 L125.178633,122.921713 Z"
                          id="Path" fill="#1E35A7" fill-rule="nonzero"></path>
                    <path d="M50.1338468,171.70418 C50.1338468,171.70418 34.6092573,175.781056 34.2994707,180.606799 C33.9896841,185.432543 53.4760159,183.285441 61.9485531,177.666317 L50.1338468,171.70418 Z"
                          id="Path" fill="#06062D" fill-rule="nonzero"></path>
                    <path d="M124.566567,42.2732318 C124.566567,42.2732318 143.964024,48.889186 147.146439,50.6926238 C150.328854,52.4960615 147.837506,57.7908343 147.837506,57.7908343 L133.177365,106.752412 L100.659645,106.752412 C100.659645,106.752412 98.7241563,79.1382126 97.7551598,76.7796777 C96.7861633,74.4211428 91.5305466,54.1739117 91.5305466,54.1739117 C91.5305466,54.1739117 97.7251134,47.3921819 115.384887,43.1523449 C125.337758,40.7586455 124.566567,42.2732318 124.566567,42.2732318 Z"
                          id="Path" fill="#FD4468" fill-rule="nonzero"></path>
                    <path d="M132.918303,106.752412 L142.977492,73.2019023 C140.590169,70.6313084 139.405403,67.1641338 139.718846,63.6655949 C139.718846,63.6655949 134.745651,93.3980622 112.561794,96.9521842 L99.8906752,100.187089 C100.183953,104.012671 100.376965,106.749898 100.376965,106.749898 L132.918303,106.752412 Z"
                          id="Path" fill="#C4003E" fill-rule="nonzero"></path>
                    <polygon id="Path" fill="#E13521" fill-rule="nonzero"
                             points="107.607717 106.752412 133.048972 106.752412 137.832797 90.6752412 109.729696 98.8816913"></polygon>
                    <path d="M120.723708,91.318328 L121.755627,100.167341 C121.755627,100.167341 116.793381,102.312025 115.145639,102.249461 C113.497898,102.186897 112.109325,92.4469775 112.109325,92.4469775 L120.723708,91.318328 Z"
                          id="Path" fill="#FFCFBA" fill-rule="nonzero"></path>
                    <path d="M81.8842444,99.476966 L123.608692,104.180064 L123.608692,104.180064 C123.754095,103.733286 123.689307,103.245433 123.432206,102.851122 C123.175104,102.456811 122.752866,102.197725 122.282004,102.145355 L82.4214154,97.7491961 L81.8842444,99.476966 Z"
                          id="Path" fill="#A7A9AC" fill-rule="nonzero"></path>
                    <path d="M125.614148,104.953459 L122.024751,117.038099 L73.060341,118.961735 C69.6773432,119.106978 66.4487237,117.548136 64.4742716,114.816208 C62.4998195,112.08428 62.0458324,108.547726 63.2669551,105.41123 L63.2669551,105.41123 C64.9124844,101.17993 69.2276101,98.5859113 73.7656259,99.100001 L125.614148,104.953459 Z"
                          id="Path" fill="#2644D7" fill-rule="nonzero"></path>
                    <path d="M121.755627,116.933857 C121.755627,116.933857 127.359732,118.75134 129.662788,121.859863 C131.965845,124.968386 137.000377,126.908706 138.870062,123.897951 C140.739748,120.887196 139.58822,109.721582 136.183163,107.538095 C132.778106,105.354608 125.286981,104.823151 125.286981,104.823151 C125.286981,104.823151 122.144423,110.561384 121.755627,116.933857 Z"
                          id="Path" fill="#06062D" fill-rule="nonzero"></path>
                    <path d="M91.5392115,54.0192926 C89.5693097,55.637486 69.3232362,81.6191789 67.6996356,85.1625945 C65.5390172,89.8611436 69.5014057,94.0613998 74.0760948,94.4741272 C78.6507839,94.8868546 86.4149574,93.0220315 86.4149574,93.0220315 C86.4149574,93.0220315 83.2254731,89.0507886 85.5843364,85.4369073 L80.3145354,85.0191466 C80.3145354,85.0191466 93.0699632,73.6188106 97.5041243,73.0626353 C101.938285,72.50646 91.5392115,54.0192926 91.5392115,54.0192926 Z"
                          id="Path" fill="#FD4468" fill-rule="nonzero"></path>
                    <path d="M120.57145,32.7974277 C120.57145,32.7974277 121.586077,40.3145912 125.614148,43.5399129 C123.15875,47.512314 119.584725,48.2516649 115.348656,47.0872516 L113.395498,42.895879 L120.57145,32.7974277 Z"
                          id="Path" fill="#FFCFBA" fill-rule="nonzero"></path>
                    <path d="M120.938628,33.8564741 C120.870057,33.6863645 120.753649,33.5414547 120.604479,33.4405145 L114.038585,42.8437234 L115.916646,46.9453376 C115.916646,46.9453376 122.22888,37.0581029 120.938628,33.8564741 Z"
                          id="Path" fill="#FF8B54" fill-rule="nonzero"></path>
                    <path d="M100.180159,29.3184759 C100.180159,29.3184759 102.442496,37.7764944 103.009312,39.2103109 C103.576128,40.6441274 105.978936,44.3710511 110.082193,44.9555686 C114.18545,45.5400861 118.515434,41.8856026 120.16413,34.1719697 C120.16413,34.1719697 121.889223,34.4967017 123.333372,31.4117481 C124.777521,28.3267945 124.536008,25.5640749 123.333372,25.4841409 C122.130736,25.4042069 121.169613,27.1902326 121.169613,27.1902326 C121.169613,27.1902326 122.45111,17.3633441 113.958724,17.3633441 C105.466337,17.3633441 96.2543406,18.5498647 100.180159,29.3184759 Z"
                          id="Path" fill="#FFCFBA" fill-rule="nonzero"></path>
                    <path d="M99.0395333,30.3739498 C99.0395333,30.3739498 110.046922,29.8897672 114.670732,22.0199188 C114.670732,22.0199188 114.063132,25.532124 117.348205,27.1050902 C120.633278,28.6780564 120.436627,30.8681672 120.436627,30.8681672 L121.465261,26.8542184 C121.465261,26.8542184 122.13589,25.0981158 123.67884,25.140764 C123.67884,25.140764 123.893139,17.5393484 121.770321,16.0868007 C119.647504,14.634253 120.045847,14.1726489 117.92303,13.2469319 C115.800212,12.321215 114.105992,14.1049135 111.872243,13.2469319 C109.638494,12.3889504 107.394661,11.5761257 105.793724,12.9734817 C104.192786,14.3708376 102.334691,14.2278407 101.003518,14.4360643 C99.6723447,14.6442878 97.0226044,16.1520274 97.0226044,18.0009525 C97.0226044,19.8498777 95.9611956,19.1900849 95.6284024,20.5096705 C95.2956091,21.8292562 95.1645087,23.414766 96.2259175,24.536163 C97.2873263,25.6575599 96.7578825,27.4412584 96.5587108,28.432202 C96.3595391,29.4231456 97.7411353,30.5018944 99.0395333,30.3739498 Z"
                          id="Path" fill="#06062D" fill-rule="nonzero"></path>
                    <path d="M107.685888,41.8006431 C107.62465,41.7967912 107.567352,41.7667418 107.526652,41.7171345 C107.485953,41.6675271 107.465203,41.602445 107.468987,41.5362679 C107.468987,41.5188091 107.644354,39.8627229 107.895868,37.8923793 C108.138151,35.9893765 107.035184,33.2408719 107.023646,33.2134368 C106.956674,33.1327725 106.945565,33.0145904 106.996158,32.9210143 C107.04675,32.8274382 107.147464,32.7798904 107.245356,32.8033648 C107.343249,32.8268392 107.41591,32.915962 107.425145,33.0238847 C107.473602,33.1411077 108.578877,35.9245298 108.329671,37.957226 C108.145074,39.4087956 108.002011,40.6882719 107.939709,41.2644103 L111.903931,40.3715205 C112.003064,40.3833722 112.083931,40.4627263 112.104399,40.5682365 C112.124867,40.6737466 112.080301,40.7815286 111.993922,40.8354241 L107.732038,41.7956549 L107.685888,41.8006431 Z"
                          id="Path" fill="#FF8B54" fill-rule="nonzero"></path>
                    <path d="M110.015821,42.4437299 C109.863,42.4437299 109.76112,42.4437299 109.76112,42.4437299 C109.632506,42.4298068 109.536049,42.3316178 109.536977,42.2155697 C109.552527,42.1003567 109.662137,42.0139504 109.791684,42.0147887 C111.166806,42.0388782 112.525636,41.7449805 113.73699,41.1614694 C113.844824,41.1433763 113.953474,41.189171 114.006655,41.2751295 C114.059837,41.361088 114.045597,41.4678935 113.971314,41.5402154 C112.754816,42.1258816 111.396848,42.436069 110.015821,42.4437299 L110.015821,42.4437299 Z"
                          id="Path" fill="#FF8B54" fill-rule="nonzero"></path>
                    <circle id="Oval" fill="#06062D" fill-rule="nonzero" cx="112.752412" cy="34.7266881" r="1"></circle>
                    <circle id="Oval" fill="#06062D" fill-rule="nonzero" cx="105.03537" cy="36.0128617" r="1"></circle>
                    <path d="M121.11254,91.4295743 L122.199238,100.321543 C122.199238,100.321543 158.157913,97.9728163 167.287175,91.7212792 C176.416437,85.4697421 152.541639,51.7375948 146.705021,50.2614676 C140.868403,48.7853403 138.740078,63.9363906 141.196415,69.6246355 C143.652753,75.3128804 153.838665,82.5451494 153.838665,82.5451494 C153.838665,82.5451494 136.972317,88.0246744 121.11254,91.4295743 Z"
                          id="Path" fill="#FD4468" fill-rule="nonzero"></path>
                    <path d="M171.273312,102.385595 L171.273312,132.517916 C171.273312,167.257763 143.507119,195.576215 108.893891,196.141479 L108.893891,196.141479 L109.281931,159.371707 C109.437148,144.652242 116.942605,130.87237 129.450033,123.177248 C134.692005,119.946822 140.567173,117.890145 146.674032,117.147769 L146.674032,117.147769 L146.674032,102.375546 C146.673779,96.0324024 151.464663,90.7217575 157.754471,90.0929949 L157.754471,90.0929949 C161.21337,89.7472236 164.656562,90.886315 167.232425,93.2285321 C169.808287,95.5707491 171.276277,98.8973663 171.273312,102.385595 L171.273312,102.385595 Z"
                          id="Path" fill="#6EAFFF" fill-rule="nonzero"></path>
                    <path d="M115.221949,103.523661 L82.1549739,100.055366 C81.0763948,99.9422219 80.2042667,99.1238281 80.0200903,98.0520182 L76.1323549,75.5143594 C76.0021429,74.7639791 76.230418,73.9957928 76.7489752,73.4393218 C77.2675325,72.8828509 78.0163229,72.6025346 78.7716203,72.6821269 L111.838595,76.1504222 C112.917174,76.2635659 113.789302,77.0819597 113.973479,78.1537696 L117.861214,100.691428 C117.991426,101.441809 117.763151,102.209995 117.244594,102.766466 C116.726037,103.322937 115.977246,103.603253 115.221949,103.523661 Z"
                          id="Path" fill="#F1F2F2" fill-rule="nonzero"></path>
                    <path d="M117.861465,100.671089 L113.995856,77.9702035 C113.812728,76.8906311 112.945564,76.0663102 111.873123,75.952347 L111.225131,75.8842444 C112.083632,76.1592315 112.719513,76.8976807 112.873663,77.7986857 L116.739271,100.499571 C116.868742,101.255386 116.641766,102.029135 116.12616,102.589637 C115.610555,103.150138 114.866026,103.432484 114.115027,103.352315 L81.8842444,99.9270041 C82.0392786,99.9777994 82.1989945,100.012449 82.3609283,100.030419 L115.239703,103.523833 C115.990293,103.603145 116.734076,103.320423 117.249084,102.760042 C117.764092,102.19966 117.990768,101.426423 117.861465,100.671089 Z"
                          id="Path" fill="#BCBEC0" fill-rule="nonzero"></path>
                    <g id="Group-6" transform="translate(185.000000, 89.000000)">
                        <circle id="Oval" fill="#FD4468" fill-rule="nonzero" cx="15" cy="15" r="15"></circle>
                        <g id="Component/Img_White" transform="translate(6.000000, 6.000000)" stroke="#FFFFFF">
                            <g id="Group-3" transform="translate(0.000000, 2.117647)">
                                <path d="M5.33897312,14.6470588 C4.46181499,14.6470588 3.75073783,13.9359817 3.75073783,13.0588235 L3.75073783,5.32907052e-15 C3.75073783,-0.877158132 4.46181499,-1.58823529 5.33897312,-1.58823529 L14.3389731,-1.58823529 C15.2161313,-1.58823529 15.9272084,-0.877158132 15.9272084,5.32907052e-15"
                                      id="Path"
                                      transform="translate(9.838973, 6.529412) rotate(90.000000) translate(-9.838973, -6.529412) "></path>
                                <path d="M5.16250253,0.5 C3.78179066,0.5 2.66250253,1.61928813 2.66250253,3 L2.66250253,13.2352941 C2.66250253,14.616006 3.78179066,15.7352941 5.16250253,15.7352941 L11.3389731,15.7352941 C12.719685,15.7352941 13.8389731,14.616006 13.8389731,13.2352941 L13.8389731,3 C13.8389731,1.61928813 12.719685,0.5 11.3389731,0.5 L5.16250253,0.5 Z"
                                      id="Rectangle"
                                      transform="translate(8.250738, 8.117647) rotate(90.000000) translate(-8.250738, -8.117647) "></path>
                                <polyline id="Line" stroke-linecap="square"
                                          points="0.529411765 12.7058824 4.25970263 9 8.1500334 11.2380405 11.5796555 5.28313861 16.0100303 11.2380405"></polyline>
                                <circle id="Oval" cx="2.95662018" cy="6.08823529" r="1.32352941"></circle>
                            </g>
                        </g>
                    </g>
                    <g id="Group-5" transform="translate(157.000000, 153.000000)">
                        <circle id="Oval" fill="#FD4468" fill-rule="nonzero" cx="18" cy="18" r="18"></circle>
                        <g id="Component/FIB_White" transform="translate(5.000000, 3.000000)">
                            <g id="Group-3" transform="translate(1.647059, 4.117647)">
                                <polygon id="Path" fill="#FFFFFF" fill-rule="nonzero"
                                         points="0 18.1176471 24.7058824 18.1176471 24.7058824 19.7647059 0 19.7647059"></polygon>
                                <path d="M8.41176471,1 L8.41176471,15.3697924 L11.120304,18.2927436 L13.8235294,15.3703064 L13.8235294,1 L8.41176471,1 Z"
                                      id="Rectangle" stroke="#FFFFFF" stroke-width="2"
                                      transform="translate(11.117647, 9.882353) rotate(45.000000) translate(-11.117647, -9.882353) "></path>
                            </g>
                        </g>
                    </g>
                </g>
            </g>
        </g>
    </g>
</svg>