<?xml version="1.0" encoding="UTF-8"?>
<svg width="200px" height="200px" viewBox="0 0 200 200" version="1.1" xmlns="http://www.w3.org/2000/svg"
     xmlns:xlink="http://www.w3.org/1999/xlink">
    <!-- Generator: Sketch 56.2 (81672) - https://sketch.com -->
    <title>Rectangle</title>
    <desc>Created with Sketch.</desc>
    <defs>
        <circle id="path-1" cx="100" cy="100" r="100"></circle>
        <rect id="path-3" x="-8" y="39" width="168" height="165" rx="10"></rect>
        <filter x="-20.8%" y="-15.2%" width="141.7%" height="142.4%" filterUnits="objectBoundingBox" id="filter-4">
            <feOffset dx="0" dy="10" in="SourceAlpha" result="shadowOffsetOuter1"></feOffset>
            <feGaussianBlur stdDeviation="10" in="shadowOffsetOuter1" result="shadowBlurOuter1"></feGaussianBlur>
            <feColorMatrix values="0 0 0 0 0.768627451   0 0 0 0 0   0 0 0 0 0.243137255  0 0 0 0.3 0" type="matrix"
                           in="shadowBlurOuter1"></feColorMatrix>
        </filter>
    </defs>
    <g id="Deck_Global/Favorites" stroke="none" stroke-width="1" fill="none" fill-rule="evenodd">
        <g id="Deck_Favorites" transform="translate(-87.000000, -212.000000)">
            <g id="Rectangle" transform="translate(87.000000, 212.000000)">
                <mask id="mask-2" fill="white">
                    <use xlink:href="#path-1"></use>
                </mask>
                <use id="Mask" fill-opacity="0.5" fill="#FF7B96" xlink:href="#path-1"></use>
                <g mask="url(#mask-2)">
                    <use fill="black" fill-opacity="1" filter="url(#filter-4)" xlink:href="#path-3"></use>
                    <use fill="#FFFFFF" fill-rule="evenodd" xlink:href="#path-3"></use>
                </g>
                <g id="Group" mask="url(#mask-2)">
                    <g transform="translate(39.000000, 60.000000)">
                        <rect id="Rectangle" fill-opacity="0.5" fill="#FF7B96" fill-rule="evenodd"
                              transform="translate(72.500000, 9.000000) rotate(20.000000) translate(-72.500000, -9.000000) "
                              x="71" y="0" width="3" height="18" rx="1.5"></rect>
                        <rect id="Rectangle-Copy-2" fill-opacity="0.5" fill="#FF7B96" fill-rule="evenodd"
                              transform="translate(87.500000, 31.000000) rotate(91.000000) translate(-87.500000, -31.000000) "
                              x="86" y="22" width="3" height="18" rx="1.5"></rect>
                        <rect id="Rectangle-Copy" fill-opacity="0.5" fill="#FF7B96" fill-rule="evenodd"
                              transform="translate(83.500000, 18.000000) rotate(58.000000) translate(-83.500000, -18.000000) "
                              x="82" y="9" width="3" height="18" rx="1.5"></rect>
                        <path d="M47.28,64.61 C53.0666956,59.4299741 57.126655,55.673345 59.46,53.34 C63.1000182,49.6999818 65.7833247,46.5266802 67.51,43.82 C69.4233429,40.7866515 70.38,37.9166802 70.38,35.21 C70.38,33.2966571 69.9366711,31.5700077 69.05,30.03 C68.1633289,28.4899923 66.9500077,27.2883377 65.41,26.425 C63.8699923,25.5616623 62.12,25.13 60.16,25.13 C57.8733219,25.13 55.7616763,25.7716602 53.825,27.055 C51.8883237,28.3383397 50.5233373,29.9833233 49.73,31.99 L44.27,31.99 C43.5233296,29.9833233 42.1700098,28.3383397 40.21,27.055 C38.2499902,25.7716602 36.1500112,25.13 33.91,25.13 C31.9499902,25.13 30.1883412,25.5616623 28.625,26.425 C27.0616589,27.2883377 25.8366711,28.4899923 24.95,30.03 C24.0633289,31.5700077 23.62,33.2966571 23.62,35.21 C23.62,37.9166802 24.5766571,40.7866515 26.49,43.82 C28.2166753,46.5266802 30.8999818,49.6999818 34.54,53.34 C36.873345,55.673345 40.9333044,59.4299741 46.72,64.61 L47,64.89 L47.28,64.61 Z M60.16,19.25 C63.1000147,19.25 65.7949878,19.949993 68.245,21.35 C70.6950123,22.75 72.619993,24.6749877 74.02,27.125 C75.420007,29.5750122 76.12,32.2699853 76.12,35.21 C76.12,38.7100175 75.0933436,42.2566487 73.04,45.85 C71.2199909,48.9766823 68.3266865,52.5466466 64.36,56.56 C61.9799881,58.9866788 57.6166984,63.0933044 51.27,68.88 L47,72.73 L42.8,69.02 C36.5466354,63.3266382 32.1600126,59.1966795 29.64,56.63 C25.6733135,52.6166466 22.8033422,49.0466823 21.03,45.92 C18.9299895,42.3266487 17.88,38.7566844 17.88,35.21 C17.88,32.2699853 18.5916596,29.5750122 20.015,27.125 C21.4383404,24.6749877 23.3633212,22.75 25.79,21.35 C28.2166788,19.949993 30.9233184,19.25 33.91,19.25 C36.3833457,19.25 38.786655,19.8099944 41.12,20.93 C43.453345,22.0500056 45.4133254,23.543324 47,25.41 C48.5866746,23.543324 50.546655,22.0500056 52.88,20.93 C55.213345,19.8099944 57.6399874,19.25 60.16,19.25 Z"
                              id="î¤" fill="#FD4468" fill-rule="nonzero"></path>
                        <polygon id="Rectangle" fill="#FFFFFF" fill-rule="evenodd"
                                 transform="translate(35.959459, 54.977037) rotate(-45.000000) translate(-35.959459, -54.977037) "
                                 points="29.2217143 48.9770367 42.633479 49.0627893 42.6972044 60.9770367 29.2854397 60.8912842"></polygon>
                        <g id="shutterstock_534258289" stroke-width="1" fill="none" fill-rule="evenodd"
                           transform="translate(0.000000, 49.000000)">
                            <path d="M39.6690934,34.968253 L33.8733693,40.0810843 L21.9910115,49.5456487 C20.3931108,50.9553015 18.4091701,51.6916852 16.4048632,51.6194022 C14.3699411,51.5457904 12.498475,50.634944 11.1351153,49.0545491 L3.1988271,39.8545354 C1.52747635,37.9172428 0.96181872,35.3911887 1.64349857,32.9348931 L1.64586369,32.9273193 L10.9494534,9.0374991 C11.2444363,8.20438357 11.8428114,7.53722679 12.6344693,7.15893653 C13.4246819,6.7810449 14.3138352,6.73732958 15.138342,7.03589587 C15.6607705,7.22431019 16.1306408,7.54865389 16.4972342,7.97371554 C17.2781177,8.87884839 17.5139726,10.1419419 17.1125594,11.2704347 L14.5816192,18.4110453 C14.4715098,18.7215702 14.536025,19.0686352 14.7499369,19.3165768 C14.7726683,19.3428857 14.7972393,19.3682645 14.8224672,19.3913844 C15.1608106,19.7037695 15.6765379,19.7097488 16.0218453,19.4050704 L35.6268422,2.11028302 C36.2191731,1.58769238 37.0133275,1.32314166 37.8056424,1.38439624 C38.5576189,1.44246187 39.2382475,1.78328186 39.721783,2.34387427 L39.7472737,2.37377076 C40.7446969,3.57069335 40.6069945,5.38175628 39.4402024,6.41112566 L23.4102143,20.5522984 C23.1119465,20.8152546 23.0592569,21.2719401 23.2894618,21.5659887 C23.4107398,21.7254366 23.5904889,21.8240286 23.7890275,21.8427638 C23.9858579,21.8608345 24.1763814,21.7985169 24.3255153,21.6669724 L30.1296487,16.5468331 C31.3143105,15.5016518 33.069623,15.5516121 34.1256487,16.6604397 C34.6726481,17.2363126 34.9575136,17.9987395 34.9234821,18.7918602 C34.8891879,19.5902957 34.5433549,20.3181756 33.9499729,20.8416964 L27.2890094,26.7178847 C26.9904788,26.9811067 26.9377892,27.4377922 27.1668116,27.7297148 C27.2869071,27.8906244 27.4677073,27.9898807 27.6672971,28.0082173 C27.8643903,28.0266866 28.0549138,27.9642362 28.2041791,27.8326916 L33.3877315,23.2599903 C34.5737073,22.213746 36.3305965,22.264105 37.3870164,23.3743942 C37.9333588,23.9518615 38.2163847,24.7101693 38.1822219,25.5014298 C38.1477963,26.3001311 37.8013064,27.0289411 37.2067417,27.553392 L31.1664906,32.8820095 C30.86796,33.1452315 30.815139,33.6017841 31.0488916,33.9000847 C31.1724034,34.0571409 31.348999,34.1544041 31.5447782,34.172342 C31.7418715,34.1908114 31.932395,34.1284938 32.0816603,33.9968164 L35.8558646,30.6674104 C36.4483269,30.1448198 37.2424813,29.8801362 38.0346648,29.9415236 C38.7867726,29.9997221 39.4660873,30.3390805 39.9475205,30.8970154 L39.9762961,30.9308981 C40.9737193,32.1278207 40.8360168,33.9388837 39.6690934,34.968253 Z M40.9726681,29.9926798 C40.2552487,29.1610259 39.2487592,28.6557088 38.1384672,28.5697398 C38.1339998,28.5693412 38.1295323,28.5690754 38.1250649,28.5688097 C38.9884647,27.7958857 39.4910525,26.729179 39.5415084,25.5613556 C39.5888107,24.4635565 39.2220859,23.4036263 38.5088711,22.5768887 C38.4632769,22.5240051 38.4159745,22.4717859 38.3678838,22.4212941 C37.6151189,21.6301665 36.5878689,21.1762713 35.511477,21.1348149 C35.977931,20.4720429 36.2467662,19.6849015 36.2825058,18.8516531 C36.3328303,17.6822353 35.9145984,16.5562671 35.1057277,15.7062766 C34.3923815,14.9575356 33.4322746,14.5112143 32.4175072,14.4318889 L40.3344802,7.44780306 C42.0570752,5.92826412 42.2602126,3.25432205 40.7867435,1.48631006 L40.7470621,1.43953866 C40.0272775,0.605227275 39.019474,0.0984485488 37.9094449,0.0126124038 C36.7557924,-0.0765455734 35.5979352,0.310115699 34.7324331,1.07347275 L16.457947,17.1947232 L18.3930085,11.7349597 C18.9610312,10.1379557 18.6274181,8.35027844 17.5225133,7.06937993 C17.0032383,6.46746393 16.3369317,6.00772235 15.5959925,5.74024842 C14.4302516,5.31824285 13.1720083,5.38029468 12.0530442,5.91510967 C10.9328976,6.45045615 10.0860536,7.39478662 9.66939848,8.57151247 L0.365808734,32.4618642 L0.336901724,32.5523509 C-0.474202696,35.4743674 0.19512598,38.465478 2.17354802,40.7590039 L10.1099676,49.9588847 C11.7232415,51.8290762 13.9415918,52.9069443 16.3562469,52.9942421 C18.7071751,53.0791481 21.0260429,52.2226469 22.8845009,50.5831234 L34.7648878,41.1201535 L40.5635026,36.0049304 C42.2859662,34.4852586 42.4893664,31.8114494 41.0112984,30.0379896 L40.9726681,29.9926798 L40.9726681,29.9926798 Z"
                                  id="Fill-5" fill="#DCDDDD"></path>
                        </g>
                    </g>
                </g>
            </g>
        </g>
    </g>
</svg>