<?xml version="1.0" encoding="UTF-8"?>
<svg width="103px" height="160px" viewBox="0 0 103 160" version="1.1" xmlns="http://www.w3.org/2000/svg">
    <!-- Generator: Sketch 59.1 (86144) - https://sketch.com -->
    <title>fbAsset 1</title>
    <desc>Created with Sketch.</desc>
    <g id="Home" stroke="none" stroke-width="1" fill="none" fill-rule="evenodd">
        <g id="Home1" transform="translate(-215.000000, -972.000000)">
            <g id="section3-copy" transform="translate(16.000000, 907.000000)">
                <g id="section" transform="translate(0.000000, 35.000000)">
                    <g id="fbAsset-1" transform="translate(199.000000, 30.000000)">
                        <ellipse id="Oval" fill="#385CAD" fill-rule="nonzero" cx="51.5" cy="37.5" rx="51.5" ry="37.5"></ellipse>
                        <path d="M45,41 L36,41 L36.5078597,37.1028055 C36.6735546,35.8978198 37.7381748,34.9982116 38.9963724,35 L42.0072551,35 C43.2654527,34.9982116 44.330073,35.8978198 44.4957678,37.1028055 L45,41 Z" id="Path" fill="#6788CF" fill-rule="nonzero"></path>
                        <path d="M41,35 L41,35 C39.8954305,35 39,34.1209779 39,33.0366492 L39,30.9633508 C39,29.8790221 39.8954305,29 41,29 L41,29 C42.1045695,29 43,29.8790221 43,30.9633508 L43,33.0405759 C42.997794,34.1233708 42.1030093,35 41,35 L41,35 Z" id="Path" fill="#6788CF" fill-rule="nonzero"></path>
                        <path d="M93.4099124,29.20301 L90.1231094,30.0846273 L90.0222158,30.1126788 L88.0043439,30.6536713 C88.6856269,29.0389512 89.0623054,27.3048189 89.1141735,25.544298 C89.1065996,24.7077891 88.4610036,24.0265832 87.65132,24.0007562 C86.8416365,23.9749293 86.1565596,24.61369 86.0990071,25.4481216 C85.9903525,29.0747747 84.3799355,31.2106931 83.6581582,31.8158032 L83.4874152,31.8638914 C83.0280663,32.0154426 82.6952156,32.4279178 82.6337002,32.9218322 L81,33.3586336 L83.1420487,41.8942924 L84.7214215,41.4695131 C85.0054647,41.9048183 85.5301539,42.0994906 86.0175162,41.9503953 L90.972944,40.6239619 L92.6532104,40.1751385 L94.275269,39.7423446 C94.7719759,39.610102 94.8495864,39.029036 94.7215291,38.5201023 L94.5585472,37.8789261 C94.4304899,37.3659851 94.0851234,36.897125 93.592297,37.0293676 L94.2403443,36.8570515 C94.460341,36.8169403 94.6529311,36.6808764 94.768851,36.4836642 C94.884771,36.2864519 94.9127772,36.0472198 94.8457059,35.8271621 L94.6827239,35.1859859 C94.6436273,34.9505772 94.5086187,34.7437988 94.3119479,34.6181076 C94.1152772,34.4924164 93.8758425,34.4598901 93.6543853,34.5287802 L94.3024327,34.3564641 C94.8047523,34.197806 95.0983242,33.6602137 94.9698826,33.1342219 L94.8069006,32.4930456 C94.6756025,31.9381494 94.1651561,31.570704 93.6155801,31.6354724 L93.9842298,31.5352886 C94.4576536,31.4070533 94.8457059,31.0624211 94.7254097,30.5775316 L94.5430251,29.8481936 C94.388723,29.3585917 93.8931982,29.0764446 93.4099124,29.20301 L93.4099124,29.20301 Z" id="Path" fill="#FFFFFF" fill-rule="nonzero"></path>
                        <polygon id="Rectangle" fill="#8FB0ED" fill-rule="nonzero" transform="translate(80.536887, 37.810718) rotate(-14.452428) translate(-80.536887, -37.810718) " points="77.7545914 33.1711766 83.3268177 33.1665799 83.3191821 42.4502603 77.7469558 42.454857"></polygon>
                        <polygon id="Rectangle" fill="#213666" fill-rule="nonzero" transform="translate(77.648592, 38.560019) rotate(-14.452428) translate(-77.648592, -38.560019) " points="73.8548445 33.16485 81.4512198 33.1585835 81.4423399 43.9551888 73.8459646 43.9614553"></polygon>
                        <ellipse id="Oval" fill="#FFFFFF" fill-rule="nonzero" transform="translate(80.037543, 40.855961) rotate(-14.452428) translate(-80.037543, -40.855961) " cx="80.037543" cy="40.8559612" rx="1" ry="1"></ellipse>
                        <path d="M57.183449,29.5287801 L57.002971,29.716301 L56.8264163,29.5246129 C56.1882778,28.8341801 55.1439897,28.8239188 54.4939335,29.5016937 C53.8438773,30.1794686 53.8342161,31.2886201 54.4723546,31.979053 L55.4179027,33 L59,29.1954096 C58.3871248,28.9027515 57.6683304,29.0346635 57.183449,29.5287801 L57.183449,29.5287801 Z" id="Path" fill="#294480" fill-rule="nonzero"></path>
                        <path d="M58.149549,29 L55,32.4825493 L56.3798681,34 L58.5773081,31.5834598 C59.1408973,30.9616515 59.1408973,29.9556475 58.5773081,29.3338392 C58.4546864,29.1944717 58.3096544,29.0812833 58.149549,29 Z" id="Path" fill="#213666" fill-rule="nonzero"></path>
                        <path d="M64.1960014,24.5310279 L64.0148138,24.7193315 L63.837565,24.5268433 C63.4231388,24.0783472 62.8149704,23.8988028 62.2421508,24.055843 C61.6693313,24.2128831 61.2188856,24.6826496 61.0604924,25.2881859 C60.9020991,25.8937223 61.0598218,26.5430331 61.4742481,26.9915292 L62.4038194,28 L66,24.1795277 C65.3869735,23.8994296 64.6755641,24.0380442 64.1960014,24.5310279 L64.1960014,24.5310279 Z" id="Path" fill="#294480" fill-rule="nonzero"></path>
                        <path d="M66.1532005,24 L63,27.4767708 L64.3739436,29 L66.579123,26.5856816 C67.1402923,25.9615054 67.1402923,24.9516705 66.579123,24.3274943 C66.4564448,24.1903227 66.3120728,24.0793143 66.1532005,24 Z" id="Path" fill="#213666" fill-rule="nonzero"></path>
                        <path d="M34.1777426,7.52684333 L33.9966976,7.715147 L33.8353314,7.52684333 C33.4212314,7.07834715 32.8135417,6.89880283 32.2411731,7.05584298 C31.6688045,7.21288313 31.2187134,7.68264962 31.0604447,8.28818594 C30.9021761,8.89372227 31.0597748,9.54303305 31.4738748,9.99152921 L32.4066501,11 L36,7.17952766 C35.3828551,6.88888433 34.6614989,7.02637221 34.1777426,7.52684333 Z" id="Path" fill="#294480" fill-rule="nonzero"></path>
                        <path d="M36.1441259,8 L33,11.4767708 L34.3774922,13 L36.5780359,10.5894897 C37.1406547,9.96531352 37.1406547,8.95547856 36.5780359,8.33130236 C36.4532861,8.19199492 36.3061332,8.07963954 36.1441259,8 L36.1441259,8 Z" id="Path" fill="#213666" fill-rule="nonzero"></path>
                        <path d="M10.1934857,35.5268433 L10.0124406,35.715147 L9.83533139,35.5268433 C9.4212314,35.0783471 8.81354169,34.8988028 8.24117307,35.055843 C7.66880446,35.2128831 7.21871337,35.6826496 7.06044474,36.2881859 C6.90217612,36.8937223 7.05977474,37.543033 7.47387473,37.9915292 L8.40665011,39 L12,35.1795276 C11.3871503,34.8964696 10.6742904,35.0335221 10.1934857,35.5268433 L10.1934857,35.5268433 Z" id="Path" fill="#294480" fill-rule="nonzero"></path>
                        <path d="M12.1441259,35 L9,38.4767708 L10.3774922,40 L12.5780359,37.5894897 C13.1406547,36.9653135 13.1406547,35.9554786 12.5780359,35.3313024 C12.4532861,35.1919949 12.3061332,35.0796395 12.1441259,35 L12.1441259,35 Z" id="Path" fill="#213666" fill-rule="nonzero"></path>
                        <path d="M85.1859622,51.5310279 L85.0053437,51.7193315 L84.8286517,51.5268433 C84.4155273,51.0783472 83.8092692,50.8988028 83.238249,51.055843 C82.6672288,51.2128831 82.2181981,51.6826496 82.0603023,52.2881859 C81.9024066,52.8937223 82.0596339,53.5430331 82.4727584,53.9915292 L83.4151157,55 L87,51.1795277 C86.3845984,50.8918644 85.6669646,51.0309179 85.1859622,51.5310279 L85.1859622,51.5310279 Z" id="Path" fill="#294480" fill-rule="nonzero"></path>
                        <path d="M87.1257216,52 L84,55.4767708 L85.3739436,57 L87.579123,54.5856816 C88.1402923,53.9615054 88.1402923,52.9516705 87.579123,52.3274943 C87.4482902,52.1871612 87.29437,52.0759838 87.1257216,52 Z" id="Path" fill="#213666" fill-rule="nonzero"></path>
                        <polygon id="Rectangle" fill="#FBB18C" fill-rule="nonzero" transform="translate(59.903783, 127.433413) rotate(-89.930000) translate(-59.903783, -127.433413) " points="50.3310224 114.166127 69.4766534 114.166047 69.4765427 140.700699 50.3309117 140.700779"></polygon>
                        <path d="M48.2888475,84 L71.6835179,84 C75.1496875,84 78,87.0454311 78,90.762021 L78,112.192545 C78,117.588972 73.8784954,122.003877 68.8450488,122 L48.3164821,122 C44.8503125,122 42,118.958446 42,115.237976 L42,90.7542619 C42,87.0376721 44.8384691,84 48.3164821,84" id="Path" fill="#FBB18C" fill-rule="nonzero"></path>
                        <path d="M29.9260856,77.7307265 L29.9260856,77.7307265 C27.262738,79.1867003 26.2369391,82.4800165 27.6059711,85.1794291 L42.0409503,118.067606 C43.5567585,121.076328 47.5589561,123.069317 51.1590005,121.384125 C55.9345696,119.129508 55.4550792,113.889253 53.9818065,111.053667 L37.922747,80.1007683 C37.1902233,78.7193035 35.9298143,77.6892382 34.4255258,77.242675 C32.9212372,76.7961118 31.2996256,76.9706204 29.9260856,77.726879" id="Path" fill="#FBB18C" fill-rule="nonzero"></path>
                        <path d="M54.1218086,95.8706397 L54.1218086,95.8706397 C54.8405255,96.5935235 55.8179083,97 56.8373832,97 C57.8568581,97 58.8342409,96.5935235 59.5529578,95.8706397 L89.8704084,65.5593973 C90.5934402,64.8408276 91,63.863645 91,62.8443788 C91,61.8251127 90.5934402,60.8479301 89.8704084,60.1293603 L89.8704084,60.1293603 C89.1516915,59.4064765 88.1743087,59 87.1548338,59 C86.1353589,59 85.1579761,59.4064765 84.4392592,60.1293603 L54.1218086,90.4561171 C53.4035361,91.1740663 53,92.1479202 53,93.1633784 C53,94.1788365 53.4035361,95.1526904 54.1218086,95.8706397 L54.1218086,95.8706397 Z" id="Path" fill="#FBB18C" fill-rule="nonzero"></path>
                        <polygon id="Path" fill="#FFFFFF" fill-rule="nonzero" points="44 143 44 130 62 130 49.0627417 143"></polygon>
                        <polygon id="Path" fill="#F1F1F1" fill-rule="nonzero" points="62.9470506 130 75 130 75 143 50 143"></polygon>
                        <polygon id="Path" fill="#4D4D4D" fill-rule="nonzero" points="41 160 41 136 67 136 42.9832811 160"></polygon>
                        <polygon id="Path" fill="#333333" fill-rule="nonzero" points="67.1299827 136 79 136 79 160 43 160"></polygon>
                        <path d="M44.465,36 C42.0542527,35.9633314 40.0626396,37.8485759 40,40.2270735 L40,106.632844 C40.0508901,109.034255 42.0194074,110.964769 44.453125,111 L59,111 L59,36 L44.465,36 Z" id="Path" fill="#FFFFFF" fill-rule="nonzero"></path>
                        <path d="M74.3667347,36.0368648 C74.1184436,36.0070212 73.8683379,35.9952722 73.6183673,36.0017094 L59,36.0017094 L59,111 L73.6183673,111 C76.0049481,110.963113 77.9379065,109.036571 78,106.632912 L78,40.2281755 C77.9621966,38.1267689 76.4286446,36.3576735 74.3667347,36.0368648 Z" id="Path" fill="#F1F1F1" fill-rule="nonzero"></path>
                        <ellipse id="Oval" fill="#6E8ED4" fill-rule="nonzero" transform="translate(59.266837, 39.854584) rotate(-17.210000) translate(-59.266837, -39.854584) " cx="59.2668372" cy="39.8545836" rx="1" ry="1"></ellipse>
                        <path d="M60.4856463,106.485646 C61.1714512,105.799011 61.1714512,104.686635 60.4856463,104 L58,106.485646 C58.6866355,107.171451 59.7990109,107.171451 60.4856463,106.485646 Z" id="Path" fill="#6E8ED4" fill-rule="nonzero"></path>
                        <path d="M57.5143537,103.514354 C56.8285488,104.200989 56.8285488,105.313365 57.5143537,106 L60,103.514354 C59.3133645,102.828549 58.2009891,102.828549 57.5143537,103.514354 Z" id="Path" fill="#94A8D4" fill-rule="nonzero"></path>
                        <rect id="Rectangle" fill="#5F7EC3" fill-rule="nonzero" x="43" y="44" width="33" height="55"></rect>
                        <rect id="Rectangle" fill="#6A8CD9" fill-rule="nonzero" x="47" y="52" width="25" height="7"></rect>
                        <rect id="Rectangle" fill="#6A8CD9" fill-rule="nonzero" x="47" y="77" width="25" height="19"></rect>
                        <rect id="Rectangle" fill="#6A8CD9" fill-rule="nonzero" x="47" y="61" width="25" height="15"></rect>
                        <rect id="Rectangle" fill="#4F6FB8" fill-rule="nonzero" x="43" y="44" width="33" height="5"></rect>
                        <rect id="Rectangle" fill="#8FB0ED" fill-rule="nonzero" x="44" y="45" width="14" height="3"></rect>
                        <rect id="Rectangle" fill="#8FB0ED" fill-rule="nonzero" x="63" y="47" width="4" height="1"></rect>
                        <rect id="Rectangle" fill="#8FB0ED" fill-rule="nonzero" x="68" y="47" width="6" height="1"></rect>
                        <circle id="Oval" fill="#8FB0ED" fill-rule="nonzero" cx="60.5" cy="46.5" r="1.5"></circle>
                        <circle id="Oval" fill="#5F7EC3" fill-rule="nonzero" cx="50.5" cy="55.5" r="1.5"></circle>
                        <rect id="Rectangle" fill="#5F7EC3" fill-rule="nonzero" x="54" y="54" width="16" height="1"></rect>
                        <rect id="Rectangle" fill="#5F7EC3" fill-rule="nonzero" x="54" y="56" width="11" height="1"></rect>
                        <circle id="Oval" fill="#5F7EC3" fill-rule="nonzero" cx="50.5" cy="64.5" r="1.5"></circle>
                        <rect id="Rectangle" fill="#5F7EC3" fill-rule="nonzero" x="54" y="63" width="16" height="1"></rect>
                        <rect id="Rectangle" fill="#5F7EC3" fill-rule="nonzero" x="49" y="68" width="21" height="1"></rect>
                        <rect id="Rectangle" fill="#5F7EC3" fill-rule="nonzero" x="49" y="73" width="21" height="1"></rect>
                        <rect id="Rectangle" fill="#5F7EC3" fill-rule="nonzero" x="49" y="71" width="21" height="1"></rect>
                        <rect id="Rectangle" fill="#5F7EC3" fill-rule="nonzero" x="54" y="64" width="11" height="1"></rect>
                        <rect id="Rectangle" fill="#5F7EC3" fill-rule="nonzero" x="49" y="79" width="21" height="1"></rect>
                        <rect id="Rectangle" fill="#5F7EC3" fill-rule="nonzero" x="49" y="83" width="21" height="1"></rect>
                        <rect id="Rectangle" fill="#5F7EC3" fill-rule="nonzero" x="49" y="90" width="21" height="1"></rect>
                        <rect id="Rectangle" fill="#5F7EC3" fill-rule="nonzero" x="49" y="92" width="21" height="1"></rect>
                        <rect id="Rectangle" fill="#5F7EC3" fill-rule="nonzero" x="49" y="87" width="21" height="1"></rect>
                        <rect id="Rectangle" fill="#5F7EC3" fill-rule="nonzero" x="49" y="81" width="15" height="1"></rect>
                        <path d="M75.1462686,89.8463522 L75.1462686,89.8463522 C75.8806564,90.584782 76.87935,91 77.9210536,91 C78.9627572,91 79.9614508,90.584782 80.6958387,89.8463522 L88.8457787,81.7004609 C89.5845756,80.9664379 90,79.9682404 90,78.9270544 C90,77.8858683 89.5845756,76.8876709 88.8457787,76.1536478 L88.8457787,76.1536478 C88.1113909,75.415218 87.1126973,75 86.0709937,75 C85.0292901,75 84.0305965,75.415218 83.2962086,76.1536478 L75.1462686,84.3153871 C74.4123348,85.0487763 74,86.0435735 74,87.0808696 C74,88.1181658 74.4123348,89.112963 75.1462686,89.8463522 Z" id="Path" fill="#FBB18C" fill-rule="nonzero"></path>
                        <path d="M75.1462686,98.8463522 L75.1462686,98.8463522 C75.8806564,99.584782 76.87935,100 77.9210536,100 C78.9627572,100 79.9614508,99.584782 80.6958387,98.8463522 L88.8457787,90.7004609 C89.5845756,89.9664379 90,88.9682404 90,87.9270544 C90,86.8858683 89.5845756,85.8876709 88.8457787,85.1536478 L88.8457787,85.1536478 C88.1113909,84.415218 87.1126973,84 86.0709937,84 C85.0292901,84 84.0305965,84.415218 83.2962086,85.1536478 L75.1462686,93.3153871 C74.4123348,94.0487763 74,95.0435735 74,96.0808696 C74,97.1181658 74.4123348,98.112963 75.1462686,98.8463522 Z" id="Path" fill="#FBB18C" fill-rule="nonzero"></path>
                        <path d="M75.1462686,109.846352 L75.1462686,109.846352 C75.8806564,110.584782 76.87935,111 77.9210536,111 C78.9627572,111 79.9614508,110.584782 80.6958387,109.846352 L88.8457787,101.700461 C89.5845756,100.966438 90,99.9682404 90,98.9270544 C90,97.8858683 89.5845756,96.8876709 88.8457787,96.1536478 L88.8457787,96.1536478 C88.1113909,95.415218 87.1126973,95 86.0709937,95 C85.0292901,95 84.0305965,95.415218 83.2962086,96.1536478 L75.1462686,104.315387 C74.4123348,105.048776 74,106.043573 74,107.08087 C74,108.118166 74.4123348,109.112963 75.1462686,109.846352 Z" id="Path" fill="#FBB18C" fill-rule="nonzero"></path>
                        <path d="M32.4165481,40.2053277 L29.1279877,41.0873378 L29.0270401,41.1154017 L27.0080892,41.6566352 C27.6897365,40.0411959 28.0666164,38.3062911 28.1185122,36.544986 C28.1109343,35.7081044 27.464993,35.026595 26.6548766,35.0007566 C25.8447601,34.9749181 25.1593169,35.6139634 25.1017336,36.4487667 C24.9930209,40.0770354 23.3817428,42.2139052 22.6595796,42.8192848 L22.4887453,42.8673945 C22.0291508,43.0190131 21.6961221,43.4316721 21.6345737,43.9258065 L20,44.3628024 L22.1393114,52.8942453 L23.7195288,52.4692768 C24.0037239,52.9047759 24.5286936,53.0995349 25.0163165,52.9503732 L29.974394,51.6233489 L31.6555589,51.1743256 L33.2784848,50.7413389 C33.7754574,50.6090374 33.8531093,50.0277126 33.7249836,49.5185522 L33.5619145,48.8770903 C33.4337888,48.3639208 33.0882375,47.8948518 32.5951476,48.0271534 L33.2435415,47.8547605 C33.4636558,47.8146315 33.6563489,47.6785069 33.7723308,47.4812069 C33.8883127,47.2839068 33.9163339,47.0445681 33.8492267,46.8244124 L33.6861576,46.1829505 C33.6470401,45.9474369 33.5119593,45.7405665 33.3151834,45.6148193 C33.1184074,45.489072 32.8788448,45.4565313 32.6572692,45.5254521 L33.305663,45.3530592 C33.8066911,45.1926584 34.0984395,44.6553289 33.9695873,44.1302725 L33.8065182,43.4888107 C33.6722589,42.9402246 33.1670809,42.5776404 32.6223258,42.6388737 L32.9911726,42.5386453 C33.4609669,42.4103529 33.8531093,42.0655671 33.7327488,41.5804616 L33.5502667,40.8507987 C33.3958821,40.3609787 32.9000924,40.078706 32.4165481,40.2053277 Z" id="Path" fill="#FFFFFF" fill-rule="nonzero"></path>
                        <polygon id="Rectangle" fill="#8FB0ED" fill-rule="nonzero" transform="translate(18.863947, 49.034019) rotate(-14.452428) translate(-18.863947, -49.034019) " points="16.0816515 44.3944775 21.6538778 44.3898808 21.6462422 53.6735613 16.0740159 53.678158"></polygon>
                        <polygon id="Rectangle" fill="#213666" fill-rule="nonzero" transform="translate(15.975652, 49.783320) rotate(-14.452428) translate(-15.975652, -49.783320) " points="12.1819046 44.388151 19.7782799 44.3818845 19.7694 55.1784898 12.1730247 55.1847563"></polygon>
                        <ellipse id="Oval" fill="#FFFFFF" fill-rule="nonzero" transform="translate(18.382007, 51.954460) rotate(-14.540000) translate(-18.382007, -51.954460) " cx="18.3820074" cy="51.9544596" rx="1" ry="1"></ellipse>
                        <path d="M60.4165481,11.2053277 L57.1279877,12.0873378 L57.0270401,12.1154017 L55.0080892,12.6566352 C55.6897365,11.0411959 56.0666164,9.30629109 56.1185122,7.54498595 C56.1109343,6.70810437 55.464993,6.026595 54.6548766,6.00075657 C53.8447601,5.97491814 53.1593169,6.61396339 53.1017336,7.44876667 C52.9930209,11.0770354 51.3817428,13.2139052 50.6595796,13.8192848 L50.4887453,13.8673945 C50.0291508,14.0190131 49.6961221,14.4316721 49.6345737,14.9258065 L48,15.3628024 L50.1393114,23.8942453 L51.7195288,23.4692768 C52.0037239,23.9047759 52.5286936,24.0995349 53.0163165,23.9503732 L57.974394,22.6233489 L59.6555589,22.1743256 L61.2784848,21.7413389 C61.7754574,21.6090374 61.8531093,21.0277126 61.7249836,20.5185522 L61.5619145,19.8770903 C61.4337888,19.3639208 61.0882375,18.8948518 60.5951476,19.0271534 L61.2435415,18.8547605 C61.4636558,18.8146315 61.6563489,18.6785069 61.7723308,18.4812069 C61.8883127,18.2839068 61.9163339,18.0445681 61.8492267,17.8244124 L61.6861576,17.1829505 C61.6470401,16.9474369 61.5119593,16.7405665 61.3151834,16.6148193 C61.1184074,16.489072 60.8788448,16.4565313 60.6572692,16.5254521 L61.305663,16.3530592 C61.8066911,16.1926584 62.0984395,15.6553289 61.9695873,15.1302725 L61.8065182,14.4888107 C61.6722589,13.9402246 61.1670809,13.5776404 60.6223258,13.6388737 L60.9911726,13.5386453 C61.4648495,13.4103529 61.8531093,13.0655671 61.7327488,12.5804616 L61.5502667,11.8507987 C61.3958821,11.3609787 60.9000924,11.078706 60.4165481,11.2053277 Z" id="Path" fill="#FFFFFF" fill-rule="nonzero"></path>
                        <polygon id="Rectangle" fill="#8FB0ED" fill-rule="nonzero" transform="translate(47.206020, 19.876738) rotate(-14.452428) translate(-47.206020, -19.876738) " points="44.4237248 15.237196 49.9959511 15.2325993 49.9883156 24.5162797 44.4160893 24.5208764"></polygon>
                        <polygon id="Rectangle" fill="#213666" fill-rule="nonzero" transform="translate(44.313855, 20.626039) rotate(-14.452428) translate(-44.313855, -20.626039) " points="40.5201077 15.2308694 48.116483 15.2246029 48.1076031 26.0212083 40.5112278 26.0274747"></polygon>
                        <ellipse id="Oval" fill="#FFFFFF" fill-rule="nonzero" transform="translate(46.632282, 22.826296) rotate(-14.540000) translate(-46.632282, -22.826296) " cx="46.6322825" cy="22.8262959" rx="1" ry="1"></ellipse>
                        <polygon id="Path" fill="#385CAD" fill-rule="nonzero" points="34 72.6445714 51 83 40.4278607 66"></polygon>
                        <path d="M62.2357264,69.2589118 C62.2210591,69.1865152 62.2144271,69.1128359 62.2159412,69.0391032 C62.2159412,68.1219707 62.2159412,67.2237872 62.2159412,66.3104445 C62.2159412,65.3971017 62.7026569,64.9423253 63.6642171,64.9385355 C64.7247032,64.9385355 65.6704353,64.9385355 66.8575466,64.9385355 L66.8575466,60.0117905 C66.8207112,60.0081664 66.783585,60.0081664 66.7467496,60.0117905 L66.7071792,60.0117905 C65.0847937,60.0117905 63.4624081,59.9852619 61.8400226,60.0117905 C60.7510235,60.0087611 59.6806181,60.2820519 58.7377049,60.8038595 C56.9530808,61.8271065 56.1616733,63.4339834 56.0033917,65.3516241 C55.9044658,66.5454123 55.9638214,67.7126719 55.9479932,68.9140397 C55.9479932,69.0391032 55.9479932,69.2930201 55.9479932,69.2930201 L53,69.2930201 L53,74.5987454 L55.7699265,74.5987454 L55.7699265,89 L62.1011871,89 L62.1011871,74.5987454 L66.4539288,74.5987454 C66.6359525,72.7038435 66.8179763,71.187922 67,69.2930201 L62.2357264,69.2589118 Z" id="Path" fill="#FFFFFF" fill-rule="nonzero"></path>
                        <path d="M25.5,28 C27.4329966,28 29,26.4329966 29,24.5 C29,22.5670034 27.4329966,21 25.5,21 C23.5670034,21 22,22.5670034 22,24.5 C22,26.4329966 23.5670034,28 25.5,28 Z" id="Oval" stroke="#FFFFFF" stroke-dasharray="2"></path>
                        <path d="M32.5,62 C34.4329966,62 36,60.4329966 36,58.5 C36,56.5670034 34.4329966,55 32.5,55 C30.5670034,55 29,56.5670034 29,58.5 C29,60.4329966 30.5670034,62 32.5,62 Z" id="Oval" stroke="#FFFFFF" stroke-dasharray="2"></path>
                        <path d="M69.5,14 C71.4329966,14 73,12.4329966 73,10.5 C73,8.56700338 71.4329966,7 69.5,7 C67.5670034,7 66,8.56700338 66,10.5 C66,12.4329966 67.5670034,14 69.5,14 Z" id="Oval" stroke="#FFFFFF" stroke-dasharray="2"></path>
                        <path d="M82,24 L73,24 L73.5078597,20.1028055 C73.6735546,18.8978198 74.7381748,17.9982116 75.9963724,18 L79.0072551,18 C80.2654527,17.9982116 81.330073,18.8978198 81.4957678,20.1028055 L82,24 Z" id="Path" fill="#6788CF" fill-rule="nonzero"></path>
                        <path d="M77,18 L77,18 C75.8954305,18 75,17.1209779 75,16.0366492 L75,13.9633508 C75,12.8790221 75.8954305,12 77,12 L77,12 C77.530433,12 78.0391408,12.2068524 78.4142136,12.5750521 C78.7892863,12.9432518 79,13.4426378 79,13.9633508 L79,16.0405759 C78.997794,17.1233708 78.1030093,18 77,18 Z" id="Path" fill="#6788CF" fill-rule="nonzero"></path>
                        <path d="M20,30 L11,30 L11.5078597,26.1028055 C11.6735546,24.8978198 12.7381748,23.9982116 13.9963724,24 L17.0072551,24 C18.2654527,23.9982116 19.330073,24.8978198 19.4957678,26.1028055 L20,30 Z" id="Path" fill="#6788CF" fill-rule="nonzero"></path>
                        <path d="M15,24 L15,24 C13.8954305,24 13,23.1209779 13,22.0366492 L13,19.9633508 C13,18.8790221 13.8954305,18 15,18 L15,18 C16.1045695,18 17,18.8790221 17,19.9633508 L17,22.0405759 C16.997794,23.1233708 16.1030093,24 15,24 L15,24 Z" id="Path" fill="#6788CF" fill-rule="nonzero"></path>
                    </g>
                </g>
            </g>
        </g>
    </g>
</svg>