<?xml version="1.0" encoding="UTF-8"?>
<svg width="109px" height="81px" viewBox="0 0 109 81" version="1.1" xmlns="http://www.w3.org/2000/svg" xmlns:xlink="http://www.w3.org/1999/xlink">
    <!-- Generator: Sketch 59.1 (86144) - https://sketch.com -->
    <title>#1Asset 1</title>
    <desc>Created with Sketch.</desc>
    <defs>
        <linearGradient x1="50%" y1="-2.48949813e-15%" x2="50%" y2="100%" id="linearGradient-1">
            <stop stop-color="#FFFFFF" stop-opacity="0.3" offset="0%"></stop>
            <stop stop-color="#FFFFFF" offset="100%"></stop>
        </linearGradient>
        <linearGradient x1="9.95662251%" y1="77.0732321%" x2="91.9739083%" y2="22.9267679%" id="linearGradient-2">
            <stop stop-color="#FFFFFF" stop-opacity="0.5" offset="0%"></stop>
            <stop stop-color="#FFFFFF" offset="100%"></stop>
        </linearGradient>
        <path d="M48.93,2.1 C30,5 9.8,13.27 2.71,32.59 C-3.39,49.23 7.42,70.14 25.61,68.8 C23.49,71.8 20.37,74.34 17.37,76.57 C16.3343192,77.2182529 15.9220028,78.52219 16.3966977,79.648037 C16.8713925,80.7738839 18.092835,81.3889735 19.28,81.1 C26.61,79.99 35.28,77.65 40.41,72.3 C59.67,75.22 80.84,76.63 96.94,63.87 C111.72,52.15 114.35,32.57 102.56,17.64 C89.78,1.45 68.05,-0.86 48.93,2.1 Z" id="path-3"></path>
    </defs>
    <g id="Signin/-Signup" stroke="none" stroke-width="1" fill="none" fill-rule="evenodd">
        <g id="Register1" transform="translate(-134.000000, -163.000000)" fill-rule="nonzero">
            <g id="#1Asset-1" transform="translate(133.000000, 162.000000)">
                <g id="Path">
                    <use fill="url(#linearGradient-1)" xlink:href="#path-3"></use>
                    <use fill="url(#linearGradient-2)" xlink:href="#path-3"></use>
                </g>
                <path d="M73.9,35 C71.74,42.69 66.43,48.62 58.39,50.32 C51.06,51.87 38.8,48.69 34.71,41.78 C34.3349091,41.1543844 33.5599171,40.8953572 32.8840305,41.1697024 C32.2081438,41.4440475 31.8329368,42.1699451 32,42.88 C33.88,52.78 49.13,56.75 57.6,55.76 C67.73,54.57 77.34,46.71 78.91,36.36 C79.42,33.11 74.83,31.64 73.9,35 Z" id="Path" fill-opacity="0.7" fill="#FF3366"></path>
                <path d="M48.4,25.08 C48.1656557,23.4822838 47.0655411,22.1458576 45.5426352,21.608855 C44.0197292,21.0718523 42.3246698,21.4226525 41.14,22.52 C39.819533,24.0137656 39.636555,26.1973032 40.69,27.89 L40.41,27.95 C38.92,28.16 38.04,27.4 36.67,27.13 C35.99,27 34.73,27.26 34.61,28.13 C33.77,34.07 49.25,33 48.4,25.08 Z" id="Path" fill-opacity="0.7" fill="#FF3366"></path>
                <path d="M67.47,19.51 C67.0493855,18.8062583 66.2898591,18.3753661 65.47,18.3753661 C64.6501409,18.3753661 63.8906145,18.8062583 63.47,19.51 C62.79,20.51 63.06,21.43 63.2,22.46 C63.2717933,23.3343951 63.4190075,24.2009515 63.64,25.05 C63.8863307,25.845621 64.6221185,26.3880614 65.455,26.3880614 C66.2878815,26.3880614 67.0236693,25.845621 67.27,25.05 C67.4910413,24.200962 67.6382563,23.3344013 67.71,22.46 C67.87,21.43 68.14,20.54 67.47,19.51 Z" id="Path" fill-opacity="0.7" fill="#FF3366"></path>
                <path d="M14.36,60.92 C11.09,58.02 8.16,55.62 6.57,51.36 C5.32786638,47.6802152 5.01188006,43.750994 5.65,39.92 C5.75,39.1 4.58,39.1 4.32,39.74 C1.15,47.65 5.25,59.27 13.32,62.64 C14.32,63 15.1,61.57 14.36,60.92 Z" id="Path" fill="#FFFFFF"></path>
                <path d="M20.22,61.84 C19.3087302,61.84 18.57,62.5787302 18.57,63.49 C18.57,64.4012698 19.3087302,65.14 20.22,65.14 C21.1312698,65.14 21.87,64.4012698 21.87,63.49 C21.87,62.5787302 21.1312698,61.84 20.22,61.84 Z" id="Path" fill="#FFFFFF"></path>
            </g>
        </g>
    </g>
</svg>