<?xml version="1.0" encoding="UTF-8"?>
<svg width="295px" height="150px" viewBox="0 0 295 150" version="1.1" xmlns="http://www.w3.org/2000/svg">
    <!-- Generator: Sketch 56.2 (81672) - https://sketch.com -->
    <title>Group 4</title>
    <desc>Created with Sketch.</desc>
    <defs>
        <linearGradient x1="50%" y1="0%" x2="50%" y2="100%" id="linearGradient-1">
            <stop stop-color="#E40072" offset="0%"></stop>
            <stop stop-color="#C4003E" offset="100%"></stop>
        </linearGradient>
    </defs>
    <g id="Course" stroke="none" stroke-width="1" fill="none" fill-rule="evenodd">
        <g id="System_ForceUpdate" transform="translate(-7.000000, -142.000000)" fill-rule="nonzero">
            <g id="Group-4" transform="translate(-5.000000, 112.199822)">
                <g id="bg" transform="translate(12.000000, 67.800178)" fill="#FFFFFF">
                    <g id="cloud100"
                       transform="translate(120.000000, 60.000000) scale(-1, 1) translate(-120.000000, -60.000000) translate(0.000000, 8.000000)">
                        <ellipse id="Oval" cx="106.89" cy="38.82" rx="19.16" ry="19.55"></ellipse>
                        <ellipse id="Oval" cx="165.49" cy="38.82" rx="17.16" ry="17.52"></ellipse>
                        <ellipse id="Oval" cx="137.18" cy="23.64" rx="13.42" ry="13.7"></ellipse>
                        <ellipse id="Oval" cx="112.73" cy="15.33" rx="9.35" ry="9.54"></ellipse>
                        <ellipse id="Oval" cx="136.56" cy="7.45" rx="6.39" ry="6.52"></ellipse>
                        <ellipse id="Oval" cx="125.2" cy="23.49" rx="11.32" ry="11.55"></ellipse>
                        <path d="M69.11,72.95 C66.45,92.27 48.92,105.73 30.02,103.05 C11.12,100.37 -2.09,82.47 0.57,63.15 C3.23,43.83 20.73,30.37 39.66,33.09 C58.59,35.81 71.77,53.63 69.11,72.95 Z"
                              id="Path"></path>
                        <path d="M102.32,46.69 C102.92,61.31 91.79,73.69 77.47,74.26 C63.15,74.83 51.06,63.51 50.47,48.9 C49.88,34.29 61,21.9 75.32,21.33 C89.64,20.76 101.72,32.05 102.32,46.69 Z"
                              id="Path"></path>
                        <ellipse id="Oval" cx="203.29" cy="65.82" rx="36.68" ry="37.44"></ellipse>
                        <ellipse id="Oval" cx="112.33" cy="57.04" rx="25.95" ry="26.49"></ellipse>
                        <path d="M172.05,47.6 C175.38,63.69 165.3,79.49 149.54,82.89 C133.78,86.29 118.3,76 114.97,59.89 C111.64,43.78 121.72,28 137.48,24.6 C153.24,21.2 168.72,31.51 172.05,47.6 Z"
                              id="Path"></path>
                    </g>
                    <g id="cloud60" opacity="0.6"
                       transform="translate(155.000000, 54.500000) scale(-1, 1) translate(-155.000000, -54.500000) translate(35.000000, 4.000000)">
                        <ellipse id="Oval" cx="106.89" cy="35.82" rx="19.16" ry="19.55"></ellipse>
                        <ellipse id="Oval" cx="165.49" cy="35.82" rx="17.16" ry="17.52"></ellipse>
                        <ellipse id="Oval" cx="137.18" cy="20.64" rx="13.42" ry="13.7"></ellipse>
                        <ellipse id="Oval" cx="112.73" cy="12.33" rx="9.35" ry="9.54"></ellipse>
                        <ellipse id="Oval" cx="140.56" cy="7.45" rx="6.39" ry="6.52"></ellipse>
                        <ellipse id="Oval" cx="125.2" cy="20.49" rx="11.32" ry="11.55"></ellipse>
                        <path d="M69.11,69.95 C66.45,89.27 48.92,102.73 30.02,100.05 C11.12,97.37 -2.09,79.47 0.57,60.15 C3.23,40.83 20.73,27.37 39.66,30.09 C58.59,32.81 71.77,50.63 69.11,69.95 Z"
                              id="Path"></path>
                        <path d="M102.32,43.69 C102.92,58.31 91.79,70.69 77.47,71.26 C63.15,71.83 51.06,60.51 50.47,45.9 C49.88,31.29 61,18.9 75.32,18.33 C89.64,17.76 101.72,29.05 102.32,43.69 Z"
                              id="Path"></path>
                        <ellipse id="Oval" cx="203.29" cy="62.82" rx="36.68" ry="37.44"></ellipse>
                        <ellipse id="Oval" cx="112.33" cy="54.04" rx="25.95" ry="26.49"></ellipse>
                        <path d="M172.05,44.6 C175.38,60.69 165.3,76.49 149.54,79.89 C133.78,83.29 118.3,73 114.97,56.89 C111.64,40.78 121.72,25 137.48,21.6 C153.24,18.2 168.72,28.51 172.05,44.6 Z"
                              id="Path"></path>
                    </g>
                    <g id="cloud80" opacity="0.8"
                       transform="translate(168.000000, 47.500000) scale(-1, 1) translate(-168.000000, -47.500000) translate(41.000000, 0.000000)">
                        <ellipse id="Oval" cx="106.89" cy="29.82" rx="19.16" ry="19.55"></ellipse>
                        <ellipse id="Oval" cx="165.49" cy="29.82" rx="17.16" ry="17.52"></ellipse>
                        <ellipse id="Oval" cx="137.18" cy="14.64" rx="13.42" ry="13.7"></ellipse>
                        <ellipse id="Oval" cx="243.73" cy="33.33" rx="9.35" ry="9.54"></ellipse>
                        <ellipse id="Oval" cx="230.56" cy="28.45" rx="6.39" ry="6.52"></ellipse>
                        <ellipse id="Oval" cx="125.2" cy="14.49" rx="11.32" ry="11.55"></ellipse>
                        <path d="M69.11,63.95 C66.45,83.27 48.92,96.73 30.02,94.05 C11.12,91.37 -2.09,73.47 0.57,54.15 C3.23,34.83 20.73,21.37 39.66,24.09 C58.59,26.81 71.77,44.63 69.11,63.95 Z"
                              id="Path"></path>
                        <path d="M102.32,37.69 C102.92,52.31 91.79,64.69 77.47,65.26 C63.15,65.83 51.06,54.51 50.47,39.9 C49.88,25.29 61,12.9 75.32,12.33 C89.64,11.76 101.72,23.05 102.32,37.69 Z"
                              id="Path"></path>
                        <ellipse id="Oval" cx="203.29" cy="56.82" rx="36.68" ry="37.44"></ellipse>
                        <ellipse id="Oval" cx="112.33" cy="48.04" rx="25.95" ry="26.49"></ellipse>
                        <path d="M172.05,38.6 C175.38,54.69 165.3,70.49 149.54,73.89 C133.78,77.29 118.3,67 114.97,50.89 C111.64,34.78 121.72,19 137.48,15.6 C153.24,12.2 168.72,22.51 172.05,38.6 Z"
                              id="Path"></path>
                    </g>
                </g>
                <g id="Asset-1"
                   transform="translate(100.533872, 101.000000) rotate(40.000000) translate(-100.533872, -101.000000) translate(29.033872, 30.000000)">
                    <ellipse id="Oval" fill="#FF7B96" cx="96.16" cy="3.71" rx="2.82" ry="2.92"></ellipse>
                    <ellipse id="Oval" fill="#FF7B96" cx="32.18" cy="64.8" rx="1.89" ry="1.96"></ellipse>
                    <path d="M109.61,54.51 L108.48,53.88 C108.407979,53.841109 108.348891,53.7820211 108.31,53.71 L107.7,52.54 C107.633165,52.4020039 107.493329,52.314356 107.34,52.314356 C107.186671,52.314356 107.046835,52.4020039 106.98,52.54 L106.37,53.71 C106.331109,53.7820211 106.272021,53.841109 106.2,53.88 L105.07,54.51 C104.939267,54.5874114 104.859089,54.7280668 104.859089,54.88 C104.859089,55.0319332 104.939267,55.1725886 105.07,55.25 L106.2,55.88 C106.272381,55.9184062 106.331594,55.977619 106.37,56.05 L106.98,57.22 C107.046835,57.3579961 107.186671,57.445644 107.34,57.445644 C107.493329,57.445644 107.633165,57.3579961 107.7,57.22 L108.31,56.05 C108.348406,55.977619 108.407619,55.9184062 108.48,55.88 L109.61,55.25 C109.740733,55.1725886 109.820911,55.0319332 109.820911,54.88 C109.820911,54.7280668 109.740733,54.5874114 109.61,54.51 Z"
                          id="Path" fill="#C4003E"></path>
                    <path d="M42.92,15.29 L41.49,14.5 C41.3996394,14.4492337 41.3265109,14.3726229 41.28,14.28 L40.51,12.8 C40.4213651,12.6338096 40.2483491,12.53 40.06,12.53 C39.8716509,12.53 39.6986349,12.6338096 39.61,12.8 L38.84,14.28 C38.7934891,14.3726229 38.7203606,14.4492337 38.63,14.5 L37.2,15.29 C37.030614,15.3858273 36.9258947,15.5653863 36.9258947,15.76 C36.9258947,15.9546137 37.030614,16.1341727 37.2,16.23 L38.63,17.02 C38.7203606,17.0707663 38.7934891,17.1473771 38.84,17.24 L39.61,18.72 C39.6986349,18.8861904 39.8716509,18.99 40.06,18.99 C40.2483491,18.99 40.4213651,18.8861904 40.51,18.72 L41.28,17.24 C41.3265109,17.1473771 41.3996394,17.0707663 41.49,17.02 L42.92,16.23 C43.089386,16.1341727 43.1941053,15.9546137 43.1941053,15.76 C43.1941053,15.5653863 43.089386,15.3858273 42.92,15.29 L42.92,15.29 Z"
                          id="Path" fill-opacity="0.1" fill="#FF7B96"></path>
                    <path d="M141.92,44.97 L140.19,43.97 C140.083108,43.9095508 139.996212,43.8191797 139.94,43.71 L139.01,41.92 C138.906434,41.7140004 138.695568,41.5839982 138.465,41.5839982 C138.234432,41.5839982 138.023566,41.7140004 137.92,41.92 L136.99,43.71 C136.933788,43.8191797 136.846892,43.9095508 136.74,43.97 L135.01,44.97 C134.806843,45.0855529 134.681364,45.3012796 134.681364,45.535 C134.681364,45.7687204 134.806843,45.9844471 135.01,46.1 L136.74,47.1 C136.846892,47.1604492 136.933788,47.2508203 136.99,47.36 L137.92,49.15 C138.023566,49.3559996 138.234432,49.4860018 138.465,49.4860018 C138.695568,49.4860018 138.906434,49.3559996 139.01,49.15 L139.94,47.36 C139.996212,47.2508203 140.083108,47.1604492 140.19,47.1 L141.92,46.1 C142.123157,45.9844471 142.248636,45.7687204 142.248636,45.535 C142.248636,45.3012796 142.123157,45.0855529 141.92,44.97 L141.92,44.97 Z"
                          id="Path" fill="#C4003E"></path>
                    <path d="M7.4,38.05 L5.82,37.17 C5.72155921,37.1141541 5.64160833,37.0307271 5.59,36.93 L4.74,35.29 C4.64479507,35.101244 4.45140677,34.9821904 4.24,34.9821904 C4.02859323,34.9821904 3.83520493,35.101244 3.74,35.29 L2.89,36.93 C2.83839167,37.0307271 2.75844079,37.1141541 2.66,37.17 L1.08,38.05 C0.912412886,38.1611647 0.811662479,38.3488955 0.811662479,38.55 C0.811662479,38.7511045 0.912412886,38.9388353 1.08,39.05 L2.66,39.93 C2.75844079,39.9858459 2.83839167,40.0692729 2.89,40.17 L3.74,41.81 C3.83520493,41.998756 4.02859323,42.1178096 4.24,42.1178096 C4.45140677,42.1178096 4.64479507,41.998756 4.74,41.81 L5.59,40.17 C5.64160833,40.0692729 5.72155921,39.9858459 5.82,39.93 L7.4,39.05 C7.56758711,38.9388353 7.66833752,38.7511045 7.66833752,38.55 C7.66833752,38.3488955 7.56758711,38.1611647 7.4,38.05 Z"
                          id="Path" fill="#FD4468"></path>
                    <path d="M112.92,27.89 L111.76,27.25 C111.686534,27.2084448 111.627293,27.1457188 111.59,27.07 L110.97,25.87 C110.899888,25.7329661 110.758929,25.6467485 110.605,25.6467485 C110.451071,25.6467485 110.310112,25.7329661 110.24,25.87 L109.62,27.07 C109.582707,27.1457188 109.523466,27.2084448 109.45,27.25 L108.29,27.89 C108.154885,27.9688684 108.071811,28.1135509 108.071811,28.27 C108.071811,28.4264491 108.154885,28.5711316 108.29,28.65 L109.45,29.29 C109.523466,29.3315552 109.582707,29.3942812 109.62,29.47 L110.24,30.67 C110.310112,30.8070339 110.451071,30.8932515 110.605,30.8932515 C110.758929,30.8932515 110.899888,30.8070339 110.97,30.67 L111.59,29.47 C111.627293,29.3942812 111.686534,29.3315552 111.76,29.29 L112.92,28.65 C113.055115,28.5711316 113.138189,28.4264491 113.138189,28.27 C113.138189,28.1135509 113.055115,27.9688684 112.92,27.89 L112.92,27.89 Z"
                          id="Path" fill="#FD4468"></path>
                    <path d="M78.78,118.9 C78.78,115.586292 76.0937085,112.9 72.78,112.9 C69.4662915,112.9 66.78,115.586292 66.78,118.9 C66.78,118.9 66,133.64 72.78,141.49 C79.56,133.64 78.78,118.9 78.78,118.9 Z"
                          id="Path" fill-opacity="0.3" fill="#FF7B96"></path>
                    <path d="M51.73,85.15 C51.73,85.15 29.18,96.45 38.12,129.79 C38.12,129.79 42.89,113.03 58.19,108.69 L51.73,85.15 Z"
                          id="Path" fill="#FD4468"></path>
                    <path d="M93.99,85.15 C93.99,85.15 116.54,96.45 107.6,129.79 C107.6,129.79 102.83,113.03 87.53,108.69 L93.99,85.15 Z"
                          id="Path" fill="#FD4468"></path>
                    <path d="M80.18,115.64 L64.85,115.64 C64.2506972,115.634141 63.7317979,115.222316 63.59,114.64 L62.75,110.8 C62.6562861,110.409566 62.7439744,109.997692 62.9886,109.67929 C63.2332256,109.360889 63.608602,109.170043 64.01,109.16 L81.01,109.16 C81.411398,109.170043 81.7867744,109.360889 82.0314,109.67929 C82.2760256,109.997692 82.3637139,110.409566 82.27,110.8 L81.43,114.64 C81.2891358,115.218752 80.7755571,115.629615 80.18,115.64 Z"
                          id="Path" fill="#2B2B2B"></path>
                    <path d="M50.4,76.14 C50.4,76.14 52.75,98.5 60.02,112.67 C68.08105,109.243825 77.18895,109.243825 85.25,112.67 C85.25,112.67 93.59,100.67 95.25,74.37 C96.25,59.19 95.06,41.86 90.25,26.93 L56.34,26.93 C51.82,39.05 48.61,55.43 50.4,76.14 Z"
                          id="Path" fill="#FF7B96"></path>
                    <path d="M70.13,2.7 C64.1602544,9.91567107 59.4907006,18.1144601 56.33,26.93 L90.24,26.93 C87.13,17.37 82.52,8.8 76,2.41 C75.2032673,1.62844874 74.116242,1.21530332 73.0015347,1.27037405 C71.8868273,1.32544477 70.8458178,1.84372307 70.13,2.7 L70.13,2.7 Z"
                          id="Path" fill="#C4003E"></path>
                    <path d="M72.26,75.05 C72.26,75.05 61.86,99.52 72.26,128.620003 C72.26,128.63 83.82,104.35 72.26,75.05 Z"
                          id="Path" fill="#FD4468"></path>
                    <ellipse id="Oval" fill="url(#linearGradient-1)" cx="73.22" cy="52.35" rx="13.09"
                             ry="13.55"></ellipse>
                    <ellipse id="Oval" fill="#FFFFFF" cx="73.22" cy="52.35" rx="9.08" ry="9.41"></ellipse>
                </g>
            </g>
        </g>
    </g>
</svg>