<?xml version="1.0" encoding="UTF-8"?>
<svg width="285px" height="197px" viewBox="0 0 285 197" version="1.1" xmlns="http://www.w3.org/2000/svg">
    <!-- Generator: Sketch 56.2 (81672) - https://sketch.com -->
    <title>aAsset 1</title>
    <desc>Created with Sketch.</desc>
    <defs>
        <linearGradient x1="0%" y1="49.9881973%" x2="100.008572%" y2="49.9881973%" id="linearGradient-1">
            <stop stop-color="#FFA3B1" offset="0%"></stop>
            <stop stop-color="#F22C5A" offset="100%"></stop>
        </linearGradient>
        <linearGradient x1="9.71414248%" y1="79.5491592%" x2="84.8975577%" y2="29.5654785%" id="linearGradient-2">
            <stop stop-color="#FFA3B1" offset="0%"></stop>
            <stop stop-color="#F22C5A" offset="100%"></stop>
        </linearGradient>
        <linearGradient x1="48.9546524%" y1="20.0913824%" x2="56.3188303%" y2="143.271342%" id="linearGradient-3">
            <stop stop-color="#FFA3B1" offset="0%"></stop>
            <stop stop-color="#FFFFFF" offset="100%"></stop>
        </linearGradient>
        <linearGradient x1="49.2719307%" y1="-3.85872489%" x2="46.0360967%" y2="96.6021132%" id="linearGradient-4">
            <stop stop-color="#FFA3B1" offset="0%"></stop>
            <stop stop-color="#F22C5A" offset="100%"></stop>
        </linearGradient>
        <linearGradient x1="-8.33069568%" y1="46.5275472%" x2="92.8410664%" y2="56.9305653%" id="linearGradient-5">
            <stop stop-color="#FFA3B1" offset="0%"></stop>
            <stop stop-color="#F22C5A" offset="100%"></stop>
        </linearGradient>
        <linearGradient x1="56.4658385%" y1="6.80961831%" x2="29.1664234%" y2="106.836829%" id="linearGradient-6">
            <stop stop-color="#FFA3B1" offset="0%"></stop>
            <stop stop-color="#F22C5A" offset="100%"></stop>
        </linearGradient>
        <linearGradient x1="50.0028639%" y1="89.3848666%" x2="50.0028639%" y2="-86.6358193%" id="linearGradient-7">
            <stop stop-color="#121729" offset="0%"></stop>
            <stop stop-color="#5F638A" offset="100%"></stop>
        </linearGradient>
        <linearGradient x1="49.7252747%" y1="167.392488%" x2="49.7252747%" y2="-4.30048993%" id="linearGradient-8">
            <stop stop-color="#121729" offset="0%"></stop>
            <stop stop-color="#5F638A" offset="100%"></stop>
        </linearGradient>
        <linearGradient x1="50.2747253%" y1="167.392488%" x2="50.2747253%" y2="-4.30048993%" id="linearGradient-9">
            <stop stop-color="#121729" offset="0%"></stop>
            <stop stop-color="#5F638A" offset="100%"></stop>
        </linearGradient>
        <linearGradient x1="91.6384828%" y1="49.8531994%" x2="-5.48935949%" y2="50.1950498%" id="linearGradient-10">
            <stop stop-color="#FD4468" offset="0%"></stop>
            <stop stop-color="#F22C5A" offset="100%"></stop>
        </linearGradient>
        <linearGradient x1="0.00498802873%" y1="50.011274%" x2="100.004988%" y2="50.011274%" id="linearGradient-11">
            <stop stop-color="#121729" offset="0%"></stop>
            <stop stop-color="#5F638A" offset="100%"></stop>
        </linearGradient>
        <linearGradient x1="50.0025967%" y1="-18.1382326%" x2="50.0025967%" y2="110.243628%" id="linearGradient-12">
            <stop stop-color="#6EAFFF" offset="0%"></stop>
            <stop stop-color="#B2BAED" offset="100%"></stop>
        </linearGradient>
        <linearGradient x1="101.416101%" y1="52.1325125%" x2="7.77885548%" y2="48.584811%" id="linearGradient-13">
            <stop stop-color="#FFA3B1" offset="0%"></stop>
            <stop stop-color="#F22C5A" offset="100%"></stop>
        </linearGradient>
        <linearGradient x1="-16.2726926%" y1="19.2430447%" x2="65.1093142%" y2="73.0932245%" id="linearGradient-14">
            <stop stop-color="#D6D6FF" offset="0%"></stop>
            <stop stop-color="#B2BAED" offset="100%"></stop>
        </linearGradient>
        <linearGradient x1="47.3369572%" y1="82.8440419%" x2="52.3815109%" y2="-44.2936208%" id="linearGradient-15">
            <stop stop-color="#121729" offset="0%"></stop>
            <stop stop-color="#5F638A" offset="100%"></stop>
        </linearGradient>
        <linearGradient x1="19.5741132%" y1="84.8275621%" x2="105.190966%" y2="34.9139488%" id="linearGradient-16">
            <stop stop-color="#FFA3B1" offset="0%"></stop>
            <stop stop-color="#F22C5A" offset="100%"></stop>
        </linearGradient>
    </defs>
    <g id="Review" stroke="none" stroke-width="1" fill="none" fill-rule="evenodd">
        <g transform="translate(-45.000000, -208.000000)" fill-rule="nonzero" id="Group-2">
            <g transform="translate(42.000000, 208.000000)">
                <g id="aAsset-1" transform="translate(3.000000, 0.000000)">
                    <g id="Layer_5" transform="translate(0.000000, 73.000000)">
                        <path d="M136.019265,18.4270833 C136.019265,18.4270833 134.641871,8.54635417 136.114477,5.43916667 C137.587082,2.33197917 140.316481,-1.27083333 144.448664,0.698958333 C148.580846,2.66875 147.114588,7.1675 145.756236,10.0332292 C144.397884,12.8989583 136.019265,18.4270833 136.019265,18.4270833 Z"
                              id="Path" fill="#6EAFFF"></path>
                        <path d="M134.178508,26.3761458 C134.178508,26.3761458 139.656347,19.7614583 142.538085,18.6748958 C145.419822,17.5883333 149.374276,16.8639583 150.624722,20.1871875 C151.875167,23.5104167 148.085746,25.4357292 145.451559,26.4396875 C142.817372,27.4436458 134.178508,26.3761458 134.178508,26.3761458 Z"
                              id="Path" fill="url(#linearGradient-1)"></path>
                        <path d="M134.22294,27.9583333 C134.22294,27.9583333 126.460022,24.2792708 124.701782,21.7566667 C122.943541,19.2340625 121.255122,15.5740625 124.162249,13.534375 C127.069376,11.4946875 129.874944,14.6717708 131.493541,17.00375 C133.112138,19.3357292 134.22294,27.9583333 134.22294,27.9583333 Z"
                              id="Path" fill="#6EAFFF"></path>
                        <path d="M134.489532,38.8747917 C134.323223,38.9415784 134.134762,38.9224035 133.985276,38.8234865 C133.835791,38.7245694 133.744321,38.5585085 133.740535,38.3791667 C133.232739,20.1363542 137.466481,11.3866667 141.465367,4.61947917 C141.619614,4.35979027 141.954951,4.27444456 142.214365,4.42885417 C142.473779,4.58326378 142.559035,4.91895694 142.404788,5.17864583 C138.475724,11.81875 134.330846,20.4286458 134.832294,38.3473958 C134.840743,38.5780101 134.703567,38.7890791 134.489532,38.8747917 Z"
                              id="Path" fill="#606770"></path>
                        <path d="M134.426058,28.4666667 C134.169634,28.5674519 133.878379,28.4611808 133.746882,28.2188542 C131.843618,24.6786903 129.548321,21.3642467 126.904343,18.338125 C126.732625,18.1151069 126.758305,17.797979 126.963663,17.60556 C127.169022,17.4131409 127.486818,17.4084342 127.697773,17.5946875 C130.403373,20.6840889 132.746077,24.0739495 134.679955,27.6978125 C134.750085,27.8249918 134.766742,27.9748901 134.726247,28.1143883 C134.685752,28.2538866 134.591438,28.3715027 134.464143,28.44125 L134.426058,28.4666667 Z"
                              id="Path" fill="#606770"></path>
                        <path d="M268.921938,105.815938 C268.921938,105.815938 271.460913,96.1639583 273.999889,93.8701042 C276.538864,91.57625 280.461581,89.3078125 283.521047,92.7136458 C286.580512,96.1194792 283.48931,99.7032292 281.128062,101.825521 C278.766815,103.947813 268.921938,105.815938 268.921938,105.815938 Z"
                              id="Path" fill="#FFA3B1"></path>
                        <path d="M264.427951,113.815833 C264.427951,113.815833 270.496102,107.734896 273.460356,106.921563 C276.42461,106.108229 280.442539,105.746042 281.375612,109.177292 C282.308686,112.608542 278.385969,114.171667 275.662918,114.896042 C272.939866,115.620417 264.427951,113.815833 264.427951,113.815833 Z"
                              id="Path" fill="#6EAFFF"></path>
                        <path d="M263.602784,113.904792 C263.602784,113.904792 257.890089,107.5125 257.210913,104.506979 C256.531737,101.501458 256.411136,97.4665625 259.883185,96.7167708 C263.355234,95.9669792 264.707238,99.9701042 265.303898,102.753229 C265.900557,105.536354 263.602784,113.904792 263.602784,113.904792 Z"
                              id="Path" fill="#6EAFFF"></path>
                        <path d="M260.16882,120.760937 C261.165367,118.371771 262.17461,116.211354 263.1902,114.247917 C263.120299,114.16744 263.076083,114.067847 263.063252,113.961979 C262.671195,109.959672 261.830149,106.014291 260.556013,102.200417 C260.466875,101.92239 260.61183,101.623333 260.885153,101.521365 C261.158476,101.419398 261.463587,101.550551 261.577951,101.819167 C262.770352,105.351177 263.585264,108.999804 264.00902,112.703854 C269.169488,103.299688 274.501336,98.7246875 279.280958,95.1790625 C279.434789,95.0319372 279.659994,94.9876869 279.857967,95.0656863 C280.055939,95.1436857 280.190605,95.3297215 280.203001,95.5423392 C280.215398,95.7549568 280.103266,95.9554123 279.915702,96.0559375 C274.114143,100.376771 267.468374,106.222604 261.330401,120.767292 L260.16882,120.760937 Z"
                              id="Path" fill="#606770"></path>
                        <path d="M264.015367,114.463967 C264.106011,114.46448 264.195388,114.442658 264.275612,114.400417 C268.369747,112.351564 272.815776,111.100871 277.376726,110.715 C277.576286,110.703649 277.754637,110.586584 277.844597,110.407902 C277.934558,110.22922 277.922459,110.016067 277.81286,109.848736 C277.703261,109.681404 277.512811,109.585316 277.313252,109.596667 C272.587522,109.974645 267.980415,111.269541 263.748775,113.409167 C263.520524,113.528517 263.403359,113.788607 263.465106,114.038872 C263.526853,114.289138 263.751508,114.464713 264.00902,114.463967 L264.015367,114.463967 Z"
                              id="Path" fill="#606770"></path>
                        <path d="M218.421715,30.461875 C218.421715,30.461875 222.293653,20.0029167 225.403898,17.7535417 C228.514143,15.5041667 233.071604,13.34375 236.124722,17.4739583 C239.17784,21.6041667 235.299555,25.2514583 232.443207,27.3229167 C229.58686,29.394375 218.421715,30.461875 218.421715,30.461875 Z"
                              id="Path" fill="url(#linearGradient-2)"></path>
                        <path d="M210.92539,38.2965625 C210.92539,38.2965625 220.656013,34.4840625 224.362918,34.9923958 C228.069822,35.5007292 232.728842,37.0765625 232.106793,41.3465625 C231.484744,45.6165625 226.343318,45.4704167 222.915702,44.9747917 C219.488085,44.4791667 210.92539,38.2965625 210.92539,38.2965625 Z"
                              id="Path" fill="#FFA3B1"></path>
                        <path d="M210.842873,37.7564583 C210.842873,37.7564583 204.793764,29.96625 204.292316,26.4651042 C203.790869,22.9639583 203.955902,18.338125 207.992873,17.76625 C212.029844,17.194375 213.248552,21.8901042 213.705568,25.124375 C214.162584,28.3586458 210.842873,37.7564583 210.842873,37.7564583 Z"
                              id="Path" fill="#6EAFFF"></path>
                        <path d="M200.356904,49.7848958 C200.356904,49.7848958 208.983073,46.6840625 212.21392,47.2432292 C215.444766,47.8023958 219.481737,49.295625 218.827951,53.031875 C218.174165,56.768125 213.667483,56.4885417 210.684187,55.9611458 C207.700891,55.43375 200.356904,49.7848958 200.356904,49.7848958 Z"
                              id="Path" fill="#6EAFFF"></path>
                        <path d="M201.289978,49.2638542 C201.289978,49.2638542 196.719822,43.195625 196.37706,40.4951042 C196.034298,37.7945833 196.212027,34.23625 199.328619,33.8359375 C202.445212,33.435625 203.327506,37.0702083 203.644878,39.5546875 C203.962249,42.0391667 201.289978,49.2638542 201.289978,49.2638542 Z"
                              id="Path" fill="url(#linearGradient-3)"></path>
                        <path d="M209.973274,39.0971875 C209.756913,39.0100792 209.615164,38.8000654 209.615164,38.5666146 C209.615164,38.3331638 209.756913,38.1231499 209.973274,38.0360417 C216.022383,35.6595833 227.041537,39.1988542 227.5049,39.3513542 C227.806381,39.4496148 227.971208,39.7739286 227.873051,40.0757292 C227.774895,40.3775298 227.450924,40.5425315 227.149443,40.4442708 C227.041537,40.4061458 216.060468,36.8795833 210.392205,39.1035417 C210.256797,39.1546129 210.107074,39.152342 209.973274,39.0971875 L209.973274,39.0971875 Z"
                              id="Path" fill="#606770"></path>
                        <path d="M196.262806,56.0882292 L196.173942,56.04375 C196.047494,55.9596438 195.959689,55.8286114 195.929916,55.6795862 C195.900142,55.5305609 195.930849,55.375801 196.015256,55.2494792 C205.72049,40.7111458 212.880401,34.5857292 218.104343,30.1123958 C219.012027,29.3371875 219.868931,28.6001042 220.643318,27.8947917 C226.000557,23.0719792 229.307572,20.3651042 232.506682,18.9544792 C232.797646,18.8263894 233.137246,18.9586753 233.2652,19.2499479 C233.393155,19.5412206 233.261009,19.881181 232.970045,20.0092708 C229.910579,21.3627083 226.673385,24.0123958 221.411359,28.7526042 C220.617929,29.470625 219.754677,30.2077083 218.840646,30.9892708 C213.667483,35.4371875 206.577394,41.48 196.961024,55.89125 C196.805132,56.1153908 196.512673,56.1978985 196.262806,56.0882292 L196.262806,56.0882292 Z"
                              id="Path" fill="#606770"></path>
                        <path d="M209.757461,38.9955208 C209.527778,38.8939585 209.391268,38.654168 209.421047,38.4045833 C209.897953,33.1916464 209.374404,27.9355051 207.878619,22.9194792 C207.77871,22.6176786 207.942116,22.2919424 208.243597,22.1919271 C208.545078,22.0919118 208.870469,22.2554911 208.970379,22.5572917 C210.536029,27.7294986 211.077234,33.1580774 210.563586,38.5380208 C210.540977,38.7193438 210.434082,38.8792989 210.275289,38.9694186 C210.116496,39.0595383 209.924494,39.0692166 209.757461,38.9955208 L209.757461,38.9955208 Z"
                              id="Path" fill="#606770"></path>
                        <path d="M199.728508,51.1891667 C199.512147,51.1020584 199.370398,50.8920446 199.370398,50.6585938 C199.370398,50.4251429 199.512147,50.2151291 199.728508,50.1280208 C204.032071,48.5140625 214.727506,51.049375 215.178174,51.1573958 C215.486666,51.2310914 215.67707,51.5411808 215.603452,51.85 C215.529835,52.1588192 215.220074,52.3494246 214.911581,52.2757292 C214.803675,52.2757292 204.120935,49.7340625 200.134744,51.2082292 C200.00158,51.2519741 199.857,51.2451897 199.728508,51.1891667 L199.728508,51.1891667 Z"
                              id="Path" fill="#606770"></path>
                        <path d="M25.389755,88.1132292 C25.389755,88.1132292 31.4007795,80.7296875 31.9593541,77.3619792 C32.5179287,73.9942708 32.4608018,69.5272917 28.5761693,68.8855208 C24.6915367,68.24375 23.4157016,72.7488542 22.901559,75.8751042 C22.3874165,79.0013542 25.389755,88.1132292 25.389755,88.1132292 Z"
                              id="Path" fill="url(#linearGradient-4)"></path>
                        <path d="M23.1427617,86.0671875 C23.1427617,86.0671875 18.242539,73.8290625 14.5165924,71.2365625 C10.7906459,68.6440625 5.30011136,66.3057292 1.82171492,71.2746875 C-1.65668151,76.2436458 3.00233853,80.44375 6.44899777,82.8329167 C9.89565702,85.2220833 23.1427617,86.0671875 23.1427617,86.0671875 Z"
                              id="Path" fill="#6EAFFF"></path>
                        <path d="M32.3719376,100.796146 C32.3719376,100.796146 24.5518931,92.5357292 20.6545657,91.3983333 C16.7572383,90.2609375 11.4698218,89.59375 10.1178174,94.1179167 C8.76581292,98.6420833 13.9262806,100.815208 17.4998886,101.889063 C21.0734967,102.962917 32.3719376,100.796146 32.3719376,100.796146 Z"
                              id="Path" fill="url(#linearGradient-5)"></path>
                        <path d="M32.797216,100.929583 C32.797216,100.929583 41.0488864,93.139375 42.2422049,89.2442708 C43.4355234,85.3491667 44.0575724,80.0625 39.5699332,78.6963542 C35.082294,77.3302083 32.8606904,82.4580208 31.7371938,86.0544792 C30.6136971,89.6509375 32.797216,100.929583 32.797216,100.929583 Z"
                              id="Path" fill="#6EAFFF"></path>
                        <path d="M39.7603563,117.062812 C39.7603563,117.062812 31.508686,108.802396 27.4336303,107.690417 C23.3585746,106.578437 17.9124722,106.108229 16.6429844,110.784896 C15.3734967,115.461562 20.730735,117.583854 24.463029,118.600521 C28.1953229,119.617188 39.7603563,117.062812 39.7603563,117.062812 Z"
                              id="Path" fill="#6EAFFF"></path>
                        <path d="M40.0523385,117.418646 C40.0523385,117.418646 48.3801782,111.331354 49.8908686,107.957292 C51.401559,104.583229 52.5694878,99.8875 48.6785078,98.1401042 C44.7875278,96.3927083 42.2104677,100.770729 40.8140312,103.858854 C39.4175947,106.946979 40.0523385,117.418646 40.0523385,117.418646 Z"
                              id="Path" fill="url(#linearGradient-6)"></path>
                        <path d="M40.4585746,120.373439 L40.5855234,120.373439 C40.8549167,120.290524 41.0134194,120.012155 40.9473274,119.737917 C34.4665924,97.6508333 24.1202673,86.1625 23.5870824,85.590625 C18.185412,78.5311458 6.53786192,74.1086458 6.04276169,73.924375 C5.8618913,73.8441226 5.65150145,73.8707231 5.49624328,73.9934737 C5.34098511,74.1162243 5.26638689,74.3149419 5.30246348,74.5096716 C5.33854007,74.7044013 5.4793596,74.8631248 5.66826281,74.9219792 C5.78886414,74.9664583 17.5443207,79.4334375 22.7555679,86.2514583 L22.7936526,86.2959375 C22.901559,86.4103125 33.3875278,97.7334375 39.9317372,119.973021 C39.993466,120.212549 40.211514,120.378231 40.4585746,120.373439 L40.4585746,120.373439 Z"
                              id="Path" fill="#606770"></path>
                        <path d="M32.8226058,101.463333 C33.0671886,101.450241 33.2714017,101.27202 33.317706,101.03125 C34.2717257,95.791819 35.8111256,90.6763616 37.9069042,85.78125 C37.9997098,85.6070385 37.9888686,85.3957717 37.8787192,85.231997 C37.7685698,85.0682223 37.5771062,84.9786938 37.3809505,84.9992402 C37.1847949,85.0197866 37.0159913,85.1470513 36.9420935,85.3301042 C34.8081397,90.3105184 33.2410341,95.5155841 32.2703786,100.846979 C32.2406036,100.987893 32.268982,101.134872 32.3490675,101.254529 C32.429153,101.374187 32.5541471,101.456364 32.695657,101.482396 L32.8226058,101.463333 Z"
                              id="Path" fill="#606770"></path>
                        <path d="M32.3719376,101.329896 C32.592449,101.319147 32.7835353,101.173466 32.8525047,100.963521 C32.9214741,100.753575 32.8540594,100.522795 32.6829621,100.383125 C26.9004454,95.731875 15.9955457,95.0265625 15.5448775,95.0011458 C15.3450422,94.9706693 15.145175,95.0559398 15.0287353,95.2213505 C14.9122956,95.3867612 14.8993092,95.6038641 14.9951989,95.7820026 C15.0910886,95.9601412 15.2793628,96.0686783 15.4814031,96.0622917 C15.5893096,96.0622917 26.5069042,96.7739583 32.0228285,101.209167 C32.1211128,101.289762 32.2449159,101.332576 32.3719376,101.329896 Z"
                              id="Path" fill="#606770"></path>
                        <path d="M39.7667038,117.609271 C39.9893547,117.599046 40.1821591,117.451262 40.2500891,117.238756 C40.318019,117.02625 40.2467389,116.793868 40.0713808,116.656146 C35.9391982,113.434583 22.5270601,111.572813 21.9557906,111.509271 C21.6764776,111.490385 21.4301402,111.69096 21.3917191,111.968554 C21.353298,112.246148 21.5358791,112.506215 21.8097996,112.564063 C21.9494432,112.564063 35.5075724,114.470313 39.4112472,117.50125 C39.512967,117.578747 39.639114,117.617083 39.7667038,117.609271 L39.7667038,117.609271 Z"
                              id="Path" fill="#606770"></path>
                        <path d="M40.058686,117.876146 C40.3178823,117.862485 40.5295932,117.663963 40.5601336,117.405938 C40.5601336,117.304271 41.7915367,107.455313 46.4188196,104.062188 C46.5718908,103.948681 46.6528437,103.762048 46.6311841,103.572591 C46.6095245,103.383134 46.488543,103.219636 46.3138121,103.143685 C46.1390813,103.067734 45.9371469,103.090869 45.7840757,103.204375 C40.7886414,106.889792 39.5508909,116.872188 39.5001114,117.297917 C39.4665032,117.588782 39.6732492,117.85245 39.9634744,117.888854 L40.058686,117.876146 Z"
                              id="Path" fill="#606770"></path>
                        <path d="M27.6494432,121.599688 L48.3040089,121.599688 C48.6125011,121.599688 48.8625835,121.34934 48.8625835,121.040521 C48.8625835,120.731702 48.6125011,120.481354 48.3040089,120.481354 L27.6494432,120.481354 C27.340951,120.481354 27.0908686,120.731702 27.0908686,121.040521 C27.0908686,121.34934 27.340951,121.599688 27.6494432,121.599688 Z"
                              id="Path" fill="#606770"></path>
                    </g>
                    <g id="Layer_3" transform="translate(78.000000, 99.000000)">
                        <rect id="Rectangle" fill="url(#linearGradient-7)"
                              transform="translate(65.523960, 11.918954) rotate(180.000000) translate(-65.523960, -11.918954) "
                              x="10.2083168" y="0.272614379" width="110.631287" height="23.2926797" rx="3.49"></rect>
                        <rect id="Rectangle" fill="url(#linearGradient-8)"
                              transform="translate(106.005545, 11.918954) rotate(180.000000) translate(-106.005545, -11.918954) "
                              x="104.852277" y="0.272614379" width="2.30653465" height="23.2926797"></rect>
                        <rect id="Rectangle" fill="url(#linearGradient-9)"
                              transform="translate(99.098614, 11.918954) rotate(180.000000) translate(-99.098614, -11.918954) "
                              x="97.9453465" y="0.272614379" width="2.30653465" height="23.2926797"></rect>
                        <rect id="Rectangle" fill="#4A277D"
                              transform="translate(64.896634, 58.060523) rotate(180.000000) translate(-64.896634, -58.060523) "
                              x="9.43524752" y="47.580719" width="110.922772" height="20.9596078" rx="3.32"></rect>
                        <path d="M39.5469307,47.5490196 L39.5469307,68.5086275 L56.7382178,68.5086275 L56.7382178,47.5490196 L39.5469307,47.5490196 Z M45.2118812,58.0288235 C45.2118812,56.8415814 45.9266936,55.7712429 47.0230024,55.316905 C48.1193113,54.8625671 49.3812174,55.113704 50.2202959,55.9532109 C51.0593743,56.7927179 51.3103831,58.0552683 50.8562771,59.152137 C50.4021711,60.2490056 49.3323787,60.9641904 48.1457426,60.9641904 C46.53524,60.9677571 45.2229327,59.6717579 45.2055446,58.0605229 L45.2118812,58.0288235 Z"
                              id="Shape" fill="#7446B8"></path>
                        <rect id="Rectangle" fill="url(#linearGradient-10)"
                              transform="translate(66.632871, 35.573007) rotate(180.000000) translate(-66.632871, -35.573007) "
                              x="5.7409901" y="23.5652941" width="121.783762" height="24.0154248" rx="3.72"></rect>
                        <rect id="Rectangle" fill="#FFFFFF"
                              transform="translate(65.191287, 35.569837) rotate(180.000000) translate(-65.191287, -35.569837) "
                              x="5.7409901" y="25.8856863" width="118.900594" height="19.3683007" rx="1.13"></rect>
                        <rect id="Rectangle" fill="#4A277D"
                              transform="translate(123.922376, 35.569837) rotate(180.000000) translate(-123.922376, -35.569837) "
                              x="123.203168" y="25.8856863" width="1.43841584" height="19.3683007"
                              rx="0.719207921"></rect>
                        <polygon id="Path" fill="#000000"
                                 points="76.2740594 57.280719 80.9568317 52.6335948 85.639604 57.280719 85.639604 34.9136601 76.2740594 34.9136601"></polygon>
                        <rect id="Rectangle" fill="url(#linearGradient-11)"
                              transform="translate(63.854257, 82.598987) rotate(180.000000) translate(-63.854257, -82.598987) "
                              x="0.335841584" y="68.5403268" width="127.036832" height="28.1173203" rx="4.11"></rect>
                        <rect id="Rectangle" fill="#FFFFFF"
                              transform="translate(61.927921, 82.598987) rotate(180.000000) translate(-61.927921, -82.598987) "
                              x="0.335841584" y="70.7022222" width="123.184158" height="23.7935294" rx="1.89"></rect>
                        <rect id="Rectangle" fill="#FD4468"
                              transform="translate(121.980198, 82.598987) rotate(180.000000) translate(-121.980198, -82.598987) "
                              x="120.440396" y="70.7022222" width="3.07960396" height="23.7935294" rx="1.47"></rect>
                        <polygon id="Path" fill="#FD4468"
                                 points="51.7322772 92.1880392 56.7318812 87.8642484 61.7378218 92.1880392 61.7378218 76.3256863 51.7322772 76.3256863"></polygon>
                    </g>
                    <g id="Layer_7" transform="translate(222.000000, 54.000000)" fill="url(#linearGradient-12)">
                        <path d="M0.207307692,14.3375 C0.145102135,11.5142727 1.24368904,8.78807194 3.24895228,6.78950026 C5.25421552,4.79092857 7.99244519,3.69311615 10.8302564,3.75 C12.5290208,3.75660513 14.2011731,4.17036652 15.7051282,4.95625 C18.0506335,1.4522819 22.2636172,-0.331380981 26.4277801,0.416570324 C30.5919431,1.16452163 33.9120566,4.30125114 34.8779487,8.4 C36.3253728,7.39996227 38.0471619,6.86751247 39.809359,6.875 C44.5774359,6.875 48.4408974,9.95625 48.4408974,16.11875 C48.4408974,22.28125 45.0988462,24.46875 41.0217949,24.46875 C41.0217949,24.46875 8.71320513,24.7625 7.72692308,24.46875 C3.92,24.26875 0.207307692,20.5 0.207307692,14.3375 Z"
                              id="Path"></path>
                    </g>
                    <g id="Layer_10" transform="translate(27.000000, 0.000000)">
                        <path d="M138.755725,78.5332061 C133.826412,77.9376336 129.511679,75.1371756 124.753435,69.4475573 C124.55573,69.2113607 124.586933,68.8596137 124.82313,68.6619084 C125.059326,68.4642031 125.411073,68.4954065 125.608779,68.7316031 C130.164275,74.1867939 134.263588,76.8668702 138.914122,77.4244275 C139.199483,77.4667444 139.405442,77.7197501 139.388984,78.007762 C139.372526,78.295774 139.139088,78.5236712 138.850763,78.5332061 L138.755725,78.5332061 Z M143.824427,77.8616031 C143.73318,77.5695476 143.894348,77.2585217 144.185573,77.1646565 C145.157494,76.7868168 146.046344,76.2229461 146.80229,75.5046565 C143.893237,73.4613174 141.581518,70.6793817 140.105267,67.4454198 C140.027173,67.262069 140.052828,67.0509831 140.172568,66.8916764 C140.292307,66.7323696 140.48794,66.6490444 140.685774,66.6730886 C140.883607,66.6971327 141.053586,66.8248934 141.131679,67.0082443 C142.548336,70.1373866 144.794184,72.8192582 147.625954,74.7633588 C150.331374,72.0706107 153.04313,67.7938931 153.252214,64.8730534 L153.252214,64.6259542 C153.272497,64.3210093 153.529587,64.0862751 153.835115,64.0937405 C153.983042,64.1003113 154.122279,64.1654549 154.22212,64.2748047 C154.321962,64.3841544 154.374205,64.528728 154.367328,64.6766412 C154.367328,64.7653435 154.367328,64.8603817 154.367328,64.949084 C154.145573,68.1170229 151.414809,72.4634351 148.576336,75.3525954 C149.544345,75.9140469 150.584631,76.3403937 151.668244,76.619771 C152.143435,76.6958015 152.624962,76.7591603 153.100153,76.8035115 C153.399049,76.843204 153.612237,77.1133263 153.581386,77.4132643 C153.550535,77.7132023 153.286825,77.9342721 152.986107,77.9122901 C152.491908,77.8616031 151.991374,77.7982443 151.446489,77.709542 C150.14479,77.3728656 148.900049,76.845505 147.752672,76.1445802 C146.831703,77.0590585 145.734518,77.7768628 144.52771,78.2544275 C144.235654,78.3456752 143.924629,78.1845072 143.830763,77.8932824 L143.824427,77.8616031 Z M158.035802,77.3357252 C158.014117,77.1885864 158.052118,77.0388824 158.141355,76.9198999 C158.230592,76.8009174 158.363667,76.7225193 158.510992,76.7021374 C163.579695,76.0051908 168.141527,73.4391603 172.449924,68.8646565 C172.580856,68.7008562 172.792623,68.6243733 172.998005,68.6667085 C173.203386,68.7090437 173.367645,68.8630365 173.423129,69.0652627 C173.478613,69.2674889 173.415937,69.4837447 173.260916,69.6249618 C168.787786,74.3958779 164.01687,77.0696183 158.688397,77.8045832 L158.612366,77.8045832 C158.340416,77.8054694 158.107499,77.610033 158.061145,77.3420611 L158.035802,77.3357252 Z M176.061374,65.4052672 C175.815003,65.2213661 175.763984,64.8727404 175.947328,64.6259542 C178.386641,61.3439695 180.572519,57.7325191 182.682366,54.2414504 C183.436336,52.9742748 184.183969,51.7577863 184.931603,50.5603053 C185.102934,50.3212352 185.430506,50.2563692 185.680017,50.412104 C185.929527,50.5678389 186.015153,50.8906068 185.875649,51.149542 C185.134351,52.340687 184.386718,53.5761832 183.632748,54.8180153 C181.510229,58.3280916 179.311679,61.9648855 176.834351,65.2848855 C176.65045,65.5312567 176.301824,65.5822751 176.055038,65.3989313 L176.061374,65.4052672 Z M121.325725,64.9934351 C119.944504,63.0926718 118.588626,61.0905344 117.144046,58.9743511 C115.427023,56.44 113.652977,53.8549618 111.75855,51.2762595 C111.639536,51.0304688 111.716066,50.7346494 111.939344,50.5774109 C112.162623,50.4201724 112.46693,50.447797 112.658244,50.6426718 C114.559008,53.2403817 116.345725,55.8507634 118.062748,58.3724427 C119.500992,60.4759542 120.85687,62.4717557 122.22542,64.3661832 C122.37165,64.526033 122.412105,64.7561469 122.329061,64.9562724 C122.246016,65.1563979 122.054551,65.2902897 121.83808,65.2996156 C121.621609,65.3089416 121.419338,65.1920128 121.319389,64.999771 L121.325725,64.9934351 Z M139.769466,62.3450382 C139.477939,62.284456 139.285459,62.0054995 139.33229,61.7114504 C140.048244,58.1316794 143.133817,55.4325954 146.580534,55.4325954 C149.196375,55.443169 151.623089,56.7977252 153.005115,59.0187023 C153.111503,59.1873398 153.119844,59.3999251 153.026994,59.5763792 C152.934144,59.7528334 152.754209,59.8663489 152.554971,59.8741655 C152.355732,59.8819821 152.167457,59.7829123 152.061069,59.6142748 C150.896561,57.7028112 148.818784,56.5378149 146.580534,56.541374 C143.685038,56.541374 141.036641,58.8539695 140.422061,61.9205344 C140.370756,62.1811217 140.142763,62.3693481 139.877176,62.3703817 L139.769466,62.3450382 Z M217.371298,50.4652672 C216.401921,45.0424415 212.457471,40.6297572 207.17687,39.060687 C206.882937,38.967958 206.719828,38.654506 206.812557,38.3605725 C206.905286,38.066639 207.218738,37.9035305 207.512672,37.9962595 C213.171953,39.7544434 217.393433,44.5002549 218.480076,50.3258779 C218.501677,50.4739816 218.462825,50.624551 218.372262,50.7437131 C218.281699,50.8628752 218.147029,50.9406229 217.99855,50.9594656 L217.922519,50.9594656 C217.640144,50.9580855 217.403383,50.7458172 217.371298,50.4652672 L217.371298,50.4652672 Z M3.32633588,49.9520611 C3.03690209,49.8529406 2.88139995,49.539109 2.9778626,49.2487786 C4.79959075,43.8886564 7.56546794,38.8976321 11.1448092,34.5115267 C11.2715703,34.3576025 11.4708199,34.2829969 11.6675028,34.3158132 C11.8641856,34.3486294 12.0284208,34.4838819 12.0983425,34.6706223 C12.1682642,34.8573628 12.1332497,35.0672208 12.0064885,35.221145 C8.51362905,39.5018946 5.81430955,44.3726857 4.0359542,49.6035878 C3.96004698,49.8297643 3.7486479,49.9825829 3.51007634,49.9837405 C3.44747497,49.9837405 3.38533946,49.9729778 3.32633588,49.9520611 L3.32633588,49.9520611 Z M108.400534,46.8854962 C106.161254,44.102918 103.708152,41.4994098 101.063588,39.0987023 C99.5049618,37.6984733 98.041374,36.4312977 96.6284733,35.2338168 C96.4756809,35.1059239 96.4027249,34.9062322 96.4370872,34.7099636 C96.4714495,34.5136951 96.6079096,34.3506675 96.7950643,34.2822919 C96.982219,34.2139162 97.1916351,34.2505804 97.3444275,34.3784733 C98.7953435,35.588626 100.265267,36.8621374 101.836565,38.2687023 C104.513945,40.7115566 106.996692,43.3595375 109.262214,46.1885496 C109.4144,46.3390145 109.467033,46.5633099 109.397664,46.7657651 C109.328294,46.9682203 109.149165,47.1131043 108.936681,47.1386184 C108.724198,47.1641326 108.515861,47.0657739 108.400534,46.8854962 L108.400534,46.8854962 Z M188.175573,46.6574046 C188.055262,46.5709891 187.974284,46.4402502 187.950511,46.2940413 C187.926737,46.1478324 187.962121,45.9981728 188.048855,45.8780916 C190.931679,41.8484733 194.967634,37.1979389 200.638244,37.0078626 C201.060636,37.0078626 201.483028,37.0078626 201.90542,37.0078626 C202.053347,37.0144334 202.192585,37.0795771 202.292426,37.1889268 C202.392267,37.2982766 202.44451,37.4428501 202.437634,37.5907634 C202.420579,37.8972519 202.161505,38.1337983 201.854733,38.1229771 C201.461908,38.1229771 201.062748,38.1229771 200.669924,38.1229771 C196.640305,38.2560305 193.028855,40.8410687 188.967557,46.5243511 C188.881142,46.6446616 188.750403,46.7256393 188.604194,46.7494131 C188.457985,46.7731869 188.308326,46.7378024 188.188244,46.6510687 L188.175573,46.6574046 Z M92.2630534,31.7870992 C87.8855183,28.3980427 83.1394778,25.5138613 78.1150382,23.189313 C77.9123247,23.1236037 77.7647941,22.9480963 77.7349139,22.7371043 C77.7050337,22.5261123 77.7980306,22.3165419 77.9745276,22.1971298 C78.1510246,22.0777176 78.3801493,22.069351 78.5648855,22.1755725 C83.6656269,24.5342027 88.4839225,27.4608869 92.9283206,30.9000763 C93.1497861,31.0924965 93.1842482,31.4236238 93.0071521,31.6575242 C92.830056,31.8914247 92.5019947,31.94807 92.2567176,31.7870992 L92.2630534,31.7870992 Z M14.9653435,31.1535115 C14.7495011,30.9361025 14.7495011,30.5852715 14.9653435,30.3678626 C19.0858876,26.4844997 23.9149726,23.4300227 29.1893893,21.370916 C29.3750038,21.2973493 29.585766,21.328395 29.7422839,21.4523585 C29.8988018,21.576322 29.9772965,21.7743703 29.9481999,21.9719005 C29.9191033,22.1694307 29.7868358,22.3364333 29.6012214,22.41 C24.4642481,24.4222843 19.7621376,27.4035858 15.7509924,31.1915267 C15.5335834,31.4073691 15.1827524,31.4073691 14.9653435,31.1915267 L14.9653435,31.1535115 Z M72.989313,21.1554962 C67.7473529,19.4029882 62.2754463,18.4337156 56.750458,18.2790076 C56.4425276,18.26851 56.2014108,18.0103731 56.2119084,17.7024427 C56.222406,17.3945124 56.4805429,17.1533955 56.7884733,17.1638931 C62.4212808,17.3220079 67.9999227,18.3104929 73.3441221,20.0974046 C73.533132,20.1607851 73.6739712,20.3201867 73.713587,20.5155644 C73.7532028,20.710942 73.6855765,20.9126131 73.5361824,21.0446102 C73.3867883,21.1766072 73.1783228,21.2188767 72.989313,21.1554962 L72.989313,21.1554962 Z M34.1377099,20.2748092 C34.0880398,19.9923916 34.2606857,19.7183504 34.5368702,19.6412214 C35.9561069,19.2610687 37.4323664,18.9316031 38.9212977,18.6654962 C42.9698799,17.9215087 47.0634279,17.4473853 51.1748855,17.2462595 C51.4804131,17.2387942 51.7375029,17.4735283 51.7577863,17.7784733 C51.7646627,17.9263865 51.7124196,18.0709601 51.6125785,18.1803098 C51.5127374,18.2896596 51.3734996,18.3548032 51.2255725,18.361374 C47.1629153,18.5614866 43.1180481,19.031377 39.1177099,19.7679389 C37.660458,20.0277099 36.2158779,20.3508397 34.8283206,20.7246565 C34.676518,20.764133 34.5151087,20.7378425 34.3836802,20.6522331 C34.2522517,20.5666238 34.1629618,20.4296147 34.1377099,20.2748092 Z"
                              id="Shape" fill="#DCDDDD"></path>
                        <path d="M17.4743511,107.431145 C13.8557301,104.425577 10.6759102,100.927989 8.02755725,97.0403053 C7.91437767,96.876195 7.89734726,96.6641702 7.98288122,96.4840986 C8.06841518,96.304027 8.24351886,96.1832659 8.4422324,96.1673047 C8.64094593,96.1513435 8.83307999,96.2426072 8.94625954,96.4067176 C11.5377983,100.200017 14.6471552,103.612205 18.1839695,106.544122 C18.3914605,106.747093 18.4085199,107.075304 18.2231899,107.298693 C18.0378599,107.522081 17.7121426,107.565914 17.4743511,107.399466 L17.4743511,107.431145 Z M5.11305344,92.2250382 C2.89809772,88.0738722 1.2873083,83.6276667 0.329465649,79.0210687 C0.275946086,78.8215094 0.337168691,78.6087154 0.48855655,78.4681097 C0.63994441,78.3275039 0.856674167,78.2821419 1.05174285,78.3502335 C1.24681154,78.418325 1.38823337,78.5887051 1.41923664,78.7929771 C2.35577509,83.2956236 3.93028295,87.6415213 6.0951145,91.6991603 C6.19995311,91.8755005 6.19948458,92.0951687 6.09389469,92.2710601 C5.98830481,92.4469515 5.7946527,92.5506491 5.58972696,92.5410338 C5.38480122,92.5314185 5.2017097,92.4100438 5.11305344,92.2250382 L5.11305344,92.2250382 Z"
                              id="Shape" fill="#DCDDDD"></path>
                        <path d="M225.519237,132.267786 C226.666031,131.874962 227.844504,131.507481 229.086336,131.114656 C232.329851,130.170607 235.505166,129.006325 238.590153,127.629924 C238.868358,127.499079 239.199977,127.618122 239.33145,127.896031 C239.396474,128.0286 239.405591,128.181715 239.356759,128.321064 C239.307927,128.460413 239.20523,128.574344 239.071679,128.637328 C235.940011,130.035606 232.715891,131.216866 229.422137,132.172748 C228.154962,132.565573 227.014504,132.933053 225.874046,133.319542 C225.815532,133.331666 225.755155,133.331666 225.696641,133.319542 C225.426423,133.315806 225.197788,133.118826 225.154119,132.852134 C225.11045,132.585442 225.264322,132.325829 225.519237,132.236107 L225.519237,132.267786 Z"
                              id="Path" fill="#DCDDDD"></path>
                        <path d="M235.986107,97.211374 C236.169973,96.9660897 236.516111,96.9126214 236.76542,97.0909924 C239.755954,99.2768702 244.013664,102.70458 246.484656,107.228397 C246.556746,107.358486 246.573873,107.511985 246.532229,107.654764 C246.490585,107.797543 246.393622,107.917766 246.262901,107.988702 C246.180743,108.031343 246.089352,108.053103 245.996794,108.052097 C245.792376,108.05412 245.604004,107.941586 245.508931,107.760611 C243.703206,104.446947 240.719008,101.336031 236.106489,97.9653435 C235.873583,97.7852265 235.820867,97.4550606 235.986107,97.211374 L235.986107,97.211374 Z"
                              id="Path" fill="#DCDDDD"></path>
                        <path d="M247.561756,115.674122 C247.560793,115.111029 247.529067,114.54841 247.466718,113.988779 C247.422366,113.608626 247.371679,113.222137 247.301985,112.841985 C247.254968,112.641203 247.322611,112.430866 247.477849,112.295128 C247.633088,112.15939 247.850571,112.120419 248.043283,112.193807 C248.235995,112.267196 248.372465,112.440958 248.398092,112.645573 C248.474122,113.051069 248.531145,113.462901 248.575496,113.874733 C248.638077,114.472497 248.669799,115.073091 248.670534,115.674122 C248.755753,119.558766 246.998227,123.254738 243.931298,125.640458 C243.829638,125.723986 243.701715,125.768871 243.570153,125.767222 C243.405263,125.767222 243.249184,125.692759 243.145649,125.564427 C243.051024,125.452063 243.005165,125.306577 243.01825,125.160261 C243.031335,125.013945 243.102282,124.878905 243.215344,124.785115 C246.024759,122.607411 247.636945,119.227931 247.561756,115.674122 L247.561756,115.674122 Z"
                              id="Path" fill="#DCDDDD"></path>
                        <path d="M211.459924,151.541527 C211.46944,151.393274 211.539076,151.255334 211.65271,151.159642 C211.766344,151.06395 211.914122,151.018805 212.061832,151.034656 C212.2149,151.047113 212.356052,151.122153 212.451988,151.242073 C212.547925,151.361994 212.59015,151.516176 212.568702,151.668244 C212.486336,152.637634 212.448321,153.626031 212.448321,154.601756 C212.448321,158.751756 213.20229,162.534275 214.513817,164.973588 C214.658702,165.244809 214.556656,165.582129 214.285725,165.727557 C214.207376,165.77467 214.117364,165.798819 214.025954,165.797324 C213.820416,165.797324 213.631061,165.685759 213.531756,165.505802 C212.131527,162.908092 211.333206,158.92916 211.333206,154.601756 C211.333206,153.562672 211.377557,152.548931 211.459924,151.541527 Z"
                              id="Path" fill="#DCDDDD"></path>
                        <path d="M212.936183,146.650229 C212.889926,146.656414 212.843051,146.656414 212.796794,146.650229 C212.499814,146.572647 212.321395,146.269618 212.397634,145.97229 C213.386031,142.170763 215.483206,137.102061 219.880305,134.64374 L220.279466,134.428321 C220.40955,134.359491 220.561756,134.345539 220.702186,134.389572 C220.842615,134.433605 220.959605,134.531966 221.027099,134.662748 C221.171985,134.93397 221.069939,135.271289 220.799008,135.416718 L220.425191,135.61313 C216.370229,137.900382 214.406107,142.658626 213.455725,146.251069 C213.388985,146.483773 213.178226,146.645697 212.936183,146.650229 L212.936183,146.650229 Z"
                              id="Path" fill="#DCDDDD"></path>
                        <path d="M220.799008,85.1985496 C220.925609,85.1226683 221.077354,85.1007304 221.220263,85.1376485 C221.363172,85.1745667 221.485305,85.2672563 221.559313,85.3949618 C223.079924,87.9863359 226.742061,90.3876336 230.993435,93.169084 L232.140229,93.9230534 C232.265199,94.0033357 232.35248,94.1306553 232.382298,94.2761669 C232.412116,94.4216785 232.381947,94.5730657 232.298626,94.6960305 C232.194458,94.8494332 232.02153,94.9418194 231.836107,94.9431298 C231.726087,94.9452133 231.617961,94.9143203 231.525649,94.8544275 L230.378855,94.100458 C226.013435,91.2429771 222.249924,88.7719847 220.59626,85.958855 C220.442975,85.692825 220.533613,85.352932 220.799008,85.1985496 L220.799008,85.1985496 Z"
                              id="Path" fill="#DCDDDD"></path>
                        <path d="M218.587786,72.4000763 C218.763938,75.2696519 219.16432,78.1210487 219.785267,80.9281679 C219.852655,81.2286645 219.666495,81.5276492 219.367099,81.599771 L219.240382,81.599771 C218.982921,81.5977294 218.76034,81.419664 218.701832,81.1689313 C218.067234,78.303535 217.658372,75.392776 217.479008,72.4634351 C216.461469,72.2675703 215.712877,71.3966622 215.672065,70.3612481 C215.631253,69.325834 216.308974,68.3987063 217.307939,68.1233588 C217.496998,68.0667758 217.693505,68.0390085 217.89084,68.0408931 C218.070216,68.0394011 218.249064,68.0606925 218.423053,68.1043511 C219.388087,68.3425421 220.079002,69.1906259 220.117205,70.1838861 C220.155407,71.1771464 219.531674,72.0757935 218.587786,72.3874046 L218.587786,72.4000763 Z"
                              id="Path" fill="#DCDDDD"></path>
                        <path d="M160.576515,29.5822137 C160.546801,23.6501608 156.765895,18.386794 151.153733,16.464875 C145.541572,14.5429561 139.327853,16.3836032 135.667933,21.0521276 C132.008013,25.7206519 131.703829,32.1941167 134.909847,37.1852672 C137.01169,40.3264399 138.152213,44.0122226 138.191832,47.7915267 L138.191832,49.1093893 L155.032595,49.1093893 L155.032595,47.8105344 C155.009181,44.1200818 156.097632,40.5081011 158.156183,37.4450382 C159.738167,35.128505 160.581929,32.3873818 160.576515,29.5822137 Z"
                              id="Path" fill="#FD4468"></path>
                        <path d="M147.435878,49.3881679 C147.279804,49.3878564 147.132808,49.3147598 147.03837,49.1904995 C146.943933,49.0662393 146.912863,48.9050389 146.954351,48.7545802 L152.82771,29.1450382 L146.783282,31.3245802 C146.672777,31.3647678 146.55165,31.3647678 146.441145,31.3245802 L140.384046,29.1450382 L145.997634,48.7355725 C146.047433,48.9076055 146.00167,49.0931379 145.877585,49.2222816 C145.7535,49.3514253 145.569943,49.4045602 145.396058,49.3616709 C145.222174,49.3187816 145.084379,49.1863841 145.03458,49.0143511 L139.14855,28.5114504 C139.088254,28.3314309 139.134995,28.1327943 139.269238,27.9985509 C139.403481,27.8643076 139.602118,27.8175672 139.782137,27.8778626 L146.593206,30.3361832 L153.423282,27.8778626 C153.603302,27.8175672 153.801939,27.8643076 153.936182,27.9985509 C154.070425,28.1327943 154.117166,28.3314309 154.05687,28.5114504 L147.898397,49.0460305 C147.831712,49.2461375 147.646739,49.3829669 147.435878,49.3881679 L147.435878,49.3881679 Z"
                              id="Path" fill="#FFFFFF"></path>
                        <path d="M138.198168,48.0639695 L155.032595,48.0639695 L155.032595,50.1421374 C155.032595,52.850525 152.837014,55.0461069 150.128626,55.0461069 L143.102137,55.0461069 C140.39375,55.0461069 138.198168,52.850525 138.198168,50.1421374 L138.198168,48.0639695 Z"
                              id="Path" fill="#DCDDDD"></path>
                        <path d="M141.581527,52.7651908 L151.649237,52.7651908 L151.649237,55.9331298 C151.649237,58.032655 149.947235,59.7346565 147.84771,59.7346565 L145.364046,59.7346565 C143.264521,59.7346565 141.562519,58.032655 141.562519,55.9331298 L141.562519,52.7651908 L141.581527,52.7651908 Z"
                              id="Path" fill="#DCDDDD"></path>
                        <path d="M126.305725,28.3974046 L126.274046,28.3974046 L117.929695,27.9158779 C117.730499,27.9045599 117.552472,27.7878319 117.462676,27.6096641 C117.372879,27.4314963 117.384955,27.2189567 117.494355,27.0521068 C117.603755,26.885257 117.793857,26.7894454 117.993053,26.8007634 L126.337405,27.2822901 C126.645335,27.2822901 126.894962,27.531917 126.894962,27.8398473 C126.894962,28.1477777 126.645335,28.3974046 126.337405,28.3974046 L126.305725,28.3974046 Z"
                              id="Path" fill="#FF7B96"></path>
                        <path d="M129.308931,19.970687 C129.215764,19.9703175 129.124211,19.9463393 129.042824,19.9009924 L121.680534,15.9410687 C121.495529,15.8524124 121.374154,15.6693209 121.364539,15.4643952 C121.354923,15.2594694 121.458621,15.0658173 121.634512,14.9602274 C121.810404,14.8546376 122.030072,14.854169 122.206412,14.9590076 L129.568702,18.9189313 C129.790559,19.041667 129.901671,19.2986362 129.839127,19.5443446 C129.776583,19.7900531 129.556133,19.9626249 129.302595,19.9643511 L129.308931,19.970687 Z"
                              id="Path" fill="#FF7B96"></path>
                        <path d="M134.764122,13.2229771 C134.587514,13.2244784 134.420638,13.1422157 134.314275,13.0012214 L129.321603,6.2978626 C129.15539,6.05097329 129.212394,5.717064 129.451103,5.53930211 C129.689812,5.36154022 130.026053,5.40260682 130.214962,5.63259542 L135.213969,12.3359542 C135.341164,12.5045435 135.362189,12.7305269 135.268279,12.9196874 C135.17437,13.1088479 134.981646,13.2287147 134.770458,13.229313 L134.764122,13.2229771 Z"
                              id="Path" fill="#FF7B96"></path>
                        <path d="M142.557252,9.40877863 C142.293609,9.40836086 142.066293,9.22333666 142.012366,8.96526718 L140.320687,0.779312977 C140.27629,0.48679172 140.468112,0.210529494 140.757708,0.149916375 C141.047304,0.089303256 141.333817,0.265448808 141.410458,0.551221374 L143.108473,8.73717557 C143.155699,9.02922846 142.966597,9.30731912 142.677634,9.37076336 L142.557252,9.40877863 Z"
                              id="Path" fill="#FF7B96"></path>
                        <path d="M151.237405,9.25040459 L151.110687,9.25040459 C150.811675,9.17841312 150.627408,8.87791543 150.698855,8.57877863 L152.599618,0.44351145 C152.685231,0.162627038 152.974023,-0.00371495475 153.259947,0.0631677422 C153.54587,0.130050439 153.730914,0.407231394 153.683053,0.696946565 L151.78229,8.83221374 C151.718269,9.0802104 151.493521,9.25269102 151.237405,9.25040459 L151.237405,9.25040459 Z"
                              id="Path" fill="#FF7B96"></path>
                        <path d="M159.169924,12.7731331 C158.957565,12.7719647 158.764308,12.6502673 158.671495,12.4592615 C158.578682,12.2682557 158.602432,12.0411109 158.732748,11.8734351 L163.915496,5.31580153 C164.110277,5.08877997 164.449501,5.05591548 164.684239,5.24132455 C164.918977,5.42673362 164.965579,5.76434423 164.789847,6.00641221 L159.607099,12.5640458 C159.500864,12.6967362 159.339901,12.7737181 159.169924,12.7731331 Z"
                              id="Path" fill="#FF7B96"></path>
                        <path d="M164.872214,19.3180916 C164.611378,19.3217957 164.38284,19.1441503 164.322076,18.8904637 C164.261313,18.6367771 164.384569,18.3748696 164.618779,18.26 L172.088779,14.5028244 C172.360305,14.3836865 172.677581,14.497909 172.810861,14.7627807 C172.94414,15.0276524 172.846794,15.3505066 172.589313,15.4975573 L165.119313,19.2547328 C165.04295,19.2946639 164.95837,19.316351 164.872214,19.3180916 L164.872214,19.3180916 Z"
                              id="Path" fill="#FF7B96"></path>
                        <path d="M168.185878,27.6561069 C167.877948,27.6561069 167.628321,27.40648 167.628321,27.0985496 C167.628321,26.7906193 167.877948,26.5409924 168.185878,26.5409924 L176.542901,26.2938931 C176.848304,26.2900291 177.102522,26.5274853 177.119466,26.8324427 C177.124594,26.9803395 177.070715,27.124208 176.969699,27.2323541 C176.868684,27.3405003 176.728819,27.4040515 176.580916,27.4090076 L168.223893,27.6561069 L168.185878,27.6561069 Z"
                              id="Path" fill="#FF7B96"></path>
                    </g>
                    <g id="Layer_8" transform="translate(6.000000, 56.000000)">
                        <path d="M223.472861,97.0181166 C224.005863,95.367441 223.753238,93.5651245 222.786643,92.1223937 C221.820048,90.6796629 220.244929,89.7539058 218.508068,89.607713 C216.171792,89.3076278 213.819169,90.0269195 212.055746,91.5804484 C210.46947,90.4185626 208.365851,90.2285717 206.59511,91.0872646 C203.613692,92.5668161 204.611736,97.0117937 204.611736,97.0117937 C202.775303,97.6958744 201.326401,99.1370046 200.638631,100.963587 C199.646944,103.929013 201.630318,106.888117 201.630318,106.888117 C201.630318,106.888117 199.144743,108.860852 200.638631,112.319462 C202.132518,115.778072 209.576528,114.791704 209.576528,114.791704 C209.576528,114.791704 217.522738,119.217713 220.001956,116.764439 C222.481174,114.311166 219.506112,111.333094 219.506112,111.333094 C220.727693,110.644293 221.336439,109.228917 220.993643,107.874484 C220.655408,106.398246 219.496425,105.245479 218.012225,104.909058 L219.003912,100.483049 C221.09467,100.423246 222.904293,99.0201822 223.472861,97.0181166 L223.472861,97.0181166 Z"
                              id="Path" fill="#06062D"></path>
                        <path d="M207.586797,108.867175 C208.082641,108.373991 210.816137,100.716996 210.816137,100.716996 C210.816137,100.716996 209.544743,98.990852 210.816137,97.7515695 C212.087531,96.512287 213.047433,99.477713 213.047433,99.477713 L220.745721,98.7379372 C220.745721,98.7379372 219.754034,104.169283 216.772616,107.134709 C215.583863,108.317085 214.229829,107.925067 213.05379,107.033543 C212.532518,108.215919 211.699756,110.074843 211.064059,111.333094 C210.072372,113.312152 207.090954,109.38565 207.586797,108.867175 Z"
                              id="Path" fill="#FFCFBA"></path>
                        <path d="M231.393643,134.54435 C231.393643,134.54435 236.358435,133.064798 238.341809,134.54435 C240.325183,136.023901 238.837653,138.00296 237.350122,138.970359 C235.862592,139.937758 229.651834,138.723767 229.651834,138.723767 L231.393643,134.54435 Z"
                              id="Path" fill="#121729"></path>
                        <polygon id="Path" fill="#B2BAED"
                                 points="248.296822 132.571614 250.534474 135.290448 247.305134 138.496143 244.577995 134.297758"></polygon>
                        <path d="M249.790709,133.064798 L244.825917,136.523408 L234.896333,126.153901 L226.454279,134.550673 C226.454279,134.550673 218.012225,134.057489 215.011736,132.577937 C212.011247,131.098386 218.984841,125.167534 223.949633,122.20843 C228.914425,119.249327 231.4,116.777085 235.862592,117.782422 C240.325183,118.787758 249.790709,133.064798 249.790709,133.064798 Z"
                              id="Path" fill="#F22C5A"></path>
                        <path d="M210.568215,130.099372 C213.549633,130.099372 216.028851,129.606188 222.010758,130.099372 C227.992665,130.592556 232.932029,131.08574 232.932029,134.525381 C232.932029,137.965022 230.948655,138.95139 226.97555,139.463543 C223.002445,139.975695 214.064548,140.44991 208.603912,138.970359 C203.143276,137.490807 200.161858,134.54435 200.161858,131.066771 C200.161858,127.589193 207.586797,130.099372 210.568215,130.099372 Z"
                              id="Path" fill="url(#linearGradient-13)"></path>
                        <path d="M258.728606,139.482511 L245.817604,139.482511 C245.817604,139.482511 244.825917,138.496143 245.817604,136.270493 C247.642054,138.205291 250.267482,135.005919 250.267482,135.005919 C250.267482,135.005919 255.728117,135.005919 258.213692,136.485471 C260.699267,137.965022 259.472372,139.482511 258.728606,139.482511 Z"
                              id="Path" fill="#121729"></path>
                        <path d="M210.320293,111.092825 C211.687042,111.092825 214.369682,113.761076 215.285086,116.030987 C216.200489,118.300897 217.516381,122.202108 217.516381,122.202108 L227.198044,125.907309 L227.445966,128.151928 C227.445966,128.151928 217.567237,128.069731 214.827384,126.255067 C213.028362,125.060045 210.263081,119.445336 209.805379,116.726502 C209.347677,114.007668 208.947188,111.092825 210.320293,111.092825 Z"
                              id="Path" fill="#4A277D"></path>
                        <path d="M208.095355,107.836547 C205.825103,108.936287 203.923962,110.666907 202.622005,112.818969 C200.638631,116.277578 199.443521,126.223453 200.276284,130.383901 C201.109046,134.54435 214.318826,129.953946 214.318826,129.953946 C214.318826,129.953946 216.524694,123.681659 215.533007,120.229372 C214.54132,116.777085 211.400978,110.650224 211.400978,110.650224 L208.095355,107.836547 Z"
                              id="Path" fill="#43529E"></path>
                        <path d="M226.454279,126.647085 C226.454279,126.647085 228.666504,125.660717 230.332029,126.153901 C231.997555,126.647085 233.656724,128.626143 233.656724,128.626143 L226.454279,128.626143 L226.454279,126.647085 Z"
                              id="Path" fill="#FFCFBA"></path>
                        <rect id="Rectangle" fill="#121729"
                              transform="translate(225.704156, 129.365919) rotate(180.000000) translate(-225.704156, -129.365919) "
                              x="215.774572" y="128.379552" width="19.8591687" height="1.97273543"></rect>
                        <polygon id="Path" fill="#121729"
                                 points="232.912958 129.030807 235.633741 130.244798 242.588264 115.038296 239.111002 115.038296"></polygon>
                        <path d="M207.586797,112.818969 C209.074328,112.818969 211.064059,114.791704 212.036675,117.244978 C213.009291,119.698251 215.018093,123.662691 215.018093,123.662691 L226.943765,126.153901 L226.943765,129.119327 C226.943765,129.119327 214.032763,130.105695 211.051345,128.13296 C209.093399,126.836771 206.086553,120.722556 205.590709,117.763453 C205.094866,114.80435 206.099267,112.818969 207.586797,112.818969 Z"
                              id="Path" fill="url(#linearGradient-14)"></path>
                        <path d="M64.7012225,43.6783857 C63.0611247,43.3432735 60.6518337,41.0923318 61.6371638,39.9984753 C62.6224939,38.9046188 64.6122249,38.79713 65.8581907,38.4430493 C67.1041565,38.0889686 67.8542787,37.0267265 72.1198044,37.5578475 C76.3853301,38.0889686 78.3559902,41.3515695 77.993643,44.3612556 C77.6312958,47.3709417 75.6479218,50.9939462 75.6479218,50.9939462 C75.6479218,50.9939462 66.3476773,44.0134978 64.7012225,43.6783857 Z"
                              id="Path" fill="#121729"></path>
                        <path d="M76.7667482,56.6465919 C76.3090465,56.0143049 74.6371638,47.162287 74.6371638,47.162287 C74.6371638,47.162287 76.2899756,45.4804036 75.1457213,43.9249776 C74.001467,42.3695516 72.7491443,45.3539462 72.7491443,45.3539462 C72.7491443,45.3539462 73.0161369,48.136009 72.4821516,48.0917489 C71.9481663,48.0474888 71.1662592,45.4740807 70.4669927,44.8354709 C69.7677262,44.196861 64.1100244,43.3116592 64.1100244,43.3116592 C64.1100244,43.3116592 64.2625917,49.4195516 67.0151589,53.1626906 C68.1085575,54.6548879 69.6469438,54.4272646 71.1026895,53.6811659 C71.4713936,55.0658744 72.0625917,57.2346188 72.5393643,58.7394619 C73.2894866,61.0852466 77.2244499,57.2725561 76.7667482,56.6465919 Z"
                              id="Path" fill="#FFCFBA"></path>
                        <path d="M85.8190709,133.033184 C88.4826406,131.76861 82.2909535,112.07287 77.1799511,108.513094 C77.1799511,108.513094 76.1564792,94.3308969 73.8933985,89.9554709 C71.6303178,85.5800448 66.8308068,90.2210314 66.8308068,90.2210314 C66.8308068,90.2210314 67.4347188,108.645874 71.1408313,113.811659 C74.8469438,118.977444 82.4180929,134.620224 85.8190709,133.033184 Z"
                              id="Path" fill="#121729"></path>
                        <path d="M62.9721271,86.5095067 C62.9721271,86.5095067 61.0650367,98.9655605 61.408313,110.100135 C61.7515892,121.234709 61.9041565,135.176637 65.9026895,135.49278 C69.9012225,135.808924 70.9183374,95.7092825 72.3804401,94.3941256 C74.1603912,94.3941256 75.9594132,91.4982511 76.0293399,89.8163677 C76.0219631,88.6654144 75.7478706,87.5316515 75.2283619,86.5031839 L62.9721271,86.5095067 Z"
                              id="Path" fill="url(#linearGradient-15)"></path>
                        <path d="M73.9887531,56.0269507 C70.7022005,56.4758744 67.1486553,60.6236771 65.4577017,64.6829596 C63.7667482,68.7422422 62.1520782,83.240583 62.3364303,86.7750673 C62.5207824,90.3095516 76.798533,88.6276682 76.798533,88.6276682 C76.9125963,84.5985041 77.3247948,80.5831631 78.0317848,76.6142152 C79.1124694,71.22713 81.3183374,68.7738565 80.9369193,63.7218834 C80.5555012,58.6699103 78.5149144,55.4136323 73.9887531,56.0269507 Z"
                              id="Path" fill="#FD4468"></path>
                        <path d="M64.0464548,133.804574 L63.5061125,136.011256 L64.1418093,138.217937 L67.199511,138.217937 C67.199511,138.217937 67.0914425,135.296771 66.9706601,134.164978 C66.8498778,133.033184 64.3198044,132.704395 64.0464548,133.804574 Z"
                              id="Path" fill="#B2BAED"></path>
                        <path d="M53.7227384,140.53843 L67.2757946,140.026278 C67.2757946,140.026278 68.2801956,138.95139 67.1486553,136.656188 C65.3114914,138.761704 63.5760391,135.593946 63.5760391,135.593946 C63.5760391,135.593946 56.6787286,136.283139 54.1295844,137.933408 C51.5804401,139.583677 52.9408313,140.563722 53.7227384,140.53843 Z"
                              id="Path" fill="#121729"></path>
                        <path d="M83.4924205,131.692735 L83.9056235,133.924709 L85.3804401,135.682466 L88.1711491,134.417892 C88.1711491,134.417892 86.8997555,131.793901 86.2640587,130.813857 C85.6283619,129.833812 83.2762836,130.586233 83.4924205,131.692735 Z"
                              id="Path" fill="#B2BAED"></path>
                        <path d="M48.7261614,73.269417 L48.7261614,73.269417 C48.4909921,73.4045134 48.2114819,73.4411061 47.9491758,73.3711377 C47.6868698,73.3011693 47.4632763,73.1303771 47.3276284,72.8963677 L41.1295844,62.2170404 C40.9937594,61.9831325 40.9569694,61.7051216 41.0273152,61.4442225 C41.0976609,61.1833234 41.2693741,60.9609293 41.5046455,60.826009 L41.5046455,60.826009 C41.7398147,60.6909126 42.0193249,60.6543199 42.281631,60.7242883 C42.5439371,60.7942567 42.7675305,60.9650489 42.9031785,61.1990583 L49.1012225,71.8783857 C49.2370474,72.1122935 49.2738374,72.3903044 49.2034917,72.6512035 C49.133146,72.9121026 48.9614327,73.1344967 48.7261614,73.269417 L48.7261614,73.269417 Z"
                              id="Path" fill="#121729"></path>
                        <path d="M44.9628362,69.3049776 C45.5031785,68.7612108 47.6518337,69.0520628 49.806846,70.1016592 C51.9618582,71.1512556 52.1271394,72.3336323 52.1271394,72.3336323 L54.5809291,72.738296 L54.0469438,75.943991 L50.9002445,75.4255157 C49.6947007,75.564228 48.4742446,75.3626401 47.3784841,74.8438117 C45.4713936,73.9712556 46.0625917,71.1069955 46.0625917,71.1069955 C46.0625917,71.1069955 44.4161369,69.8550673 44.9628362,69.3049776 Z"
                              id="Path" fill="#FFCFBA"></path>
                        <path d="M76.2836186,139.849238 L81.3246944,139.849238 C82.4308068,139.849238 89.0166259,136.586637 89.0166259,136.586637 C89.2239803,135.216306 88.6452036,133.845425 87.5163814,133.033184 C86.4166259,135.1387 83.8166259,133.520045 83.8166259,133.520045 C82.7751419,134.234573 81.6972604,134.895139 80.5872861,135.499103 C79.3158924,136.13139 76.4997555,136.940717 75.5017115,137.832242 C74.5036675,138.723767 74.9295844,139.849238 76.2836186,139.849238 Z"
                              id="Path" fill="#121729"></path>
                        <path d="M75.5843521,59.5045291 C79.3222494,59.9787444 75.2283619,74.9892377 72.8317848,78.1000897 C70.4352078,81.2109417 53.1251834,76.3486547 53.1251834,76.3486547 L54.4601467,72.491704 L68.7124694,72.9026906 C68.7124694,72.9026906 68.9349633,67.338565 70.0919315,64.1581614 C71.2488998,60.9777578 73.00978,59.1757399 75.5843521,59.5045291 Z"
                              id="Path" fill="url(#linearGradient-16)"></path>
                        <rect id="Rectangle" fill="#DCDDDD" x="0.00635696822" y="0.461569507" width="59.2469438"
                              height="17.6218386" rx="6.16"></rect>
                        <polygon id="Path" fill="#DCDDDD"
                                 points="49.4889976 15.6301345 47.6581907 24.747713 38.4914425 15.6427803"></polygon>
                        <path d="M53.398533,6.65165919 L21.6136919,6.65165919 C21.3424613,6.57297459 21.1559902,6.32568012 21.1559902,6.04466368 C21.1559902,5.76364723 21.3424613,5.51635277 21.6136919,5.43766816 L53.398533,5.43766816 C53.6697637,5.51635277 53.8562347,5.76364723 53.8562347,6.04466368 C53.8562347,6.32568012 53.6697637,6.57297459 53.398533,6.65165919 Z"
                              id="Path" fill="#9B9B9B"></path>
                        <path d="M53.398533,10.2936323 L21.6136919,10.2936323 C21.3538527,10.3690122 21.0745206,10.2724784 20.9176517,10.0530892 C20.7607828,9.8337 20.7607828,9.53957354 20.9176517,9.32018432 C21.0745206,9.1007951 21.3538527,9.00426132 21.6136919,9.07964126 L53.398533,9.07964126 C53.6697637,9.15832586 53.8562347,9.40562033 53.8562347,9.68663677 C53.8562347,9.96765321 53.6697637,10.2149477 53.398533,10.2936323 L53.398533,10.2936323 Z"
                              id="Path" fill="#9B9B9B"></path>
                        <path d="M35.7833741,13.9103139 L21.6136919,13.9103139 C21.3538527,13.9856938 21.0745206,13.8891601 20.9176517,13.6697708 C20.7607828,13.4503816 20.7607828,13.1562552 20.9176517,12.9368659 C21.0745206,12.7174767 21.3538527,12.6209429 21.6136919,12.6963229 L35.796088,12.6963229 C36.0559273,12.6209429 36.3352594,12.7174767 36.4921283,12.9368659 C36.6489972,13.1562552 36.6489972,13.4503816 36.4921283,13.6697708 C36.3352594,13.8891601 36.0559273,13.9856938 35.796088,13.9103139 L35.7833741,13.9103139 Z"
                              id="Path" fill="#9B9B9B"></path>
                        <path d="M13.5594132,12.6014798 L9.46552567,12.6014798 L8.70268949,14.4983408 L5.90562347,14.4983408 L10.1711491,4.83699552 L12.8728606,4.83699552 L17.1638142,14.4793722 L14.3222494,14.4793722 L13.5594132,12.6014798 Z M12.7584352,10.5908072 L11.4870416,7.50524664 L10.2156479,10.5908072 L12.7584352,10.5908072 Z"
                              id="Shape" fill="#FD4468"></path>
                    </g>
                </g>
            </g>
        </g>
    </g>
</svg>