<?xml version="1.0" encoding="UTF-8"?>
<svg width="290px" height="197px" viewBox="0 0 290 197" version="1.1" xmlns="http://www.w3.org/2000/svg"
     xmlns:xlink="http://www.w3.org/1999/xlink">
    <!-- Generator: Sketch 56.2 (81672) - https://sketch.com -->
    <title>Asset 1</title>
    <desc>Created with Sketch.</desc>
    <defs>
        <linearGradient x1="0%" y1="0%" x2="101.999998%" y2="100.999999%" id="linearGradient-1">
            <stop stop-color="#FD4468" offset="0%"></stop>
            <stop stop-color="#C86DD7" offset="100%"></stop>
        </linearGradient>
        <circle id="path-2" cx="31.8914956" cy="31.8914956" r="31.8914956"></circle>
        <circle id="path-4" cx="31.8914956" cy="31.8914956" r="31.8914956"></circle>
    </defs>
    <g id="More" stroke="none" stroke-width="1" fill="none" fill-rule="evenodd">
        <g id="Comunicate" transform="translate(-43.000000, -170.000000)">
            <g id="Asset-1" transform="translate(43.000000, 170.000000)">
                <path d="M272.140762,65.2969246 L272.140762,65.2052644 C271.952056,64.2911826 271.523364,63.444243 270.899005,62.752005 L269.823891,61.8354026 C269.057989,61.3448067 268.17807,61.0623838 267.270494,61.0158522 C265.897836,61.005721 264.565518,61.4810743 263.507594,62.3584051 C263.214679,62.6031145 262.957696,62.8880997 262.744263,63.2049144 C262.537415,62.5464667 262.192875,61.9398664 261.733656,61.4256274 L260.728424,60.557551 C260.021997,60.1056878 259.210683,59.8455818 258.373923,59.802702 C257.327996,59.8058766 256.301838,60.0887815 255.401232,60.6222524 L255.352852,59.9051458 C255.174733,59.0431462 254.770146,58.244564 254.180977,57.5920727 L253.17037,56.729388 C252.447768,56.2674581 251.617905,56.00177 250.762114,55.9583637 C248.749229,55.8225479 246.867713,56.967802 246.058488,58.8213982 C245.736417,59.378747 245.564154,60.0104273 245.55856,60.654603 L245.60694,61.3016165 C245.224643,61.173268 244.826866,61.0970997 244.424315,61.0751618 C242.609923,60.9510868 240.913867,61.9851733 240.188364,63.6578238 C240.100153,63.8150592 240.024653,63.9791355 239.96259,64.1484757 C239.454391,63.9170197 238.907325,63.7834989 238.349919,63.7548759 C237.173705,63.7403657 236.030609,64.1454774 235.124576,64.897933 C234.979346,65.021397 234.844501,65.1566487 234.721408,65.3023164 L272.140762,65.2969246 Z"
                      id="Path" fill-opacity="0.1" fill="#2B2B2B" fill-rule="nonzero" opacity="0.7"></path>
                <path d="M71.4369501,71.2553956 L71.4369501,71.1637439 C71.2481621,70.2497472 70.8192851,69.4028865 70.1946577,68.7107129 L69.1190798,67.7941958 C68.3528474,67.3036456 67.4725492,67.021249 66.5645823,66.9747217 C65.1913323,66.9645914 63.85844,67.4399005 62.8000597,68.3171497 C62.5070178,68.5618362 62.2499245,68.8467949 62.0363994,69.1635801 C61.8294619,68.5051937 61.4847738,67.8986499 61.0253562,67.3844588 L60.0089351,66.5164632 C59.3022035,66.0646421 58.4905395,65.8045603 57.6534195,65.7616844 C57.0281433,65.7022905 56.3981832,65.8063069 55.8249371,66.0635959 C55.4163283,66.1749585 55.0304213,66.3574433 54.6848245,66.6027236 L54.6310456,65.86951 C54.4528496,65.0075907 54.0480886,64.2090828 53.4586657,63.5566522 L52.4476225,62.6940479 C51.7189823,62.226694 50.8808504,61.9590138 50.0168164,61.917704 C49.3769605,61.8559035 48.7320644,61.961796 48.1453109,62.2250068 C46.8670754,62.6124859 45.8279186,63.5514389 45.3111632,64.7858633 C44.9889532,65.3431602 44.8166152,65.9747817 44.8110194,66.6188974 L44.8594205,67.2658507 C44.4769583,67.1375141 44.0790093,67.0613529 43.6762848,67.039417 C43.1009186,66.9837275 42.5209759,67.0784581 41.9930054,67.3143722 C40.841113,67.6635946 39.9045659,68.5095736 39.4385079,69.6218387 C39.3502587,69.7790594 39.2747262,69.9431205 39.2126365,70.1124449 C38.7042187,69.8810104 38.1569164,69.747502 37.5992697,69.7188817 C37.0239035,69.6631921 36.4439608,69.7579228 35.9159903,69.9938368 C35.354053,70.1383743 34.8389999,70.4262591 34.420937,70.8294847 C34.2756446,70.9529372 34.1407413,71.0881763 34.0175953,71.2338305 L71.4369501,71.2553956 Z"
                      id="Path" fill-opacity="0.1" fill="#2B2B2B" fill-rule="nonzero" opacity="0.7"></path>
                <path d="M115.659824,10.023724 C115.555364,9.8937957 115.445406,9.76386738 115.324452,9.6391362 L114.015949,8.59970967 C113.084167,8.03713333 112.013778,7.71298952 110.90963,7.65902867 C110.084401,7.58416581 109.252747,7.71310258 108.496047,8.03322222 C107.764925,8.2105505 107.088577,8.54892336 106.522297,9.02067742 L106.522297,8.81279211 C106.349929,8.01542274 105.955099,7.27614082 105.378732,6.67157347 L104.372615,5.86601792 C103.665377,5.43791705 102.852647,5.19078209 102.014011,5.14881362 C101.388345,5.09133876 100.757597,5.18802653 100.183207,5.42945878 C99.9522777,5.48484277 99.7276279,5.56143152 99.5124621,5.65813261 C99.2045791,3.0595663 96.8734652,0.668885301 94.014552,0.668885301 C90.8532537,0.668885301 88.0273279,2.81530107 87.8568927,5.91279211 C87.8286151,6.50096709 87.9048084,7.08946333 88.082307,7.65383154 C87.9723488,7.65383154 87.8678885,7.62264874 87.7524324,7.61745161 C87.1434473,7.56201343 86.5296661,7.65692313 85.9711095,7.89289964 C85.3491493,8.03478822 84.7792858,8.33286202 84.3217365,8.75562365 C83.8941095,9.09928788 83.5587348,9.53386439 83.3431085,10.023724 L115.659824,10.023724 Z"
                      id="Path" fill-opacity="0.1" fill="#2B2B2B" fill-rule="nonzero"></path>
                <path d="M126.715543,17.677683 L145.42522,17.677683 C145.217932,16.8641616 144.82255,16.1129236 144.272073,15.486668 L143.207205,14.5653181 C142.446999,14.0732992 141.574363,13.790671 140.674694,13.7450919 C140.003309,13.6792185 139.326612,13.7914759 138.710482,14.0709352 C138.60565,14.0709352 138.506336,14.138351 138.407022,14.172059 C138.263568,12.0540778 136.503501,10.0259844 134.324108,10.0259844 C131.959395,9.95025338 129.95656,11.7863932 129.783245,14.1889129 C129.757,14.7627793 129.845215,15.336111 130.042566,15.8743091 L130.042566,15.8743091 C128.696773,15.8269924 127.428455,16.514469 126.715543,17.677683 L126.715543,17.677683 Z"
                      id="Path" fill-opacity="0.1" fill="#2B2B2B" fill-rule="nonzero" opacity="0.5"></path>
                <g id="Group" opacity="0.7" transform="translate(223.665689, 4.921085)" fill="#2B2B2B"
                   fill-opacity="0.1" fill-rule="nonzero">
                    <path d="M0.333939394,9.19892473 C0.425503421,9.07419355 0.522453568,8.9546595 0.630175953,8.84032258 L1.59967742,8.04516129 C2.29128428,7.61931376 3.08560457,7.37397832 3.90493646,7.33315412 C4.51611619,7.27611305 5.13218731,7.37280144 5.69312805,7.61379928 C6.25706031,7.75355096 6.77678555,8.02481917 7.20662757,8.40376344 C7.34782259,8.19563332 7.50442832,7.99762608 7.67521994,7.81129032 L8.75244379,6.94336918 C9.51023105,6.47667268 10.3807175,6.20803417 11.2785337,6.16379928 C11.9485392,6.100541 12.6240882,6.20619728 13.2390811,6.47043011 C13.709358,6.59213625 14.1515864,6.79843899 14.542522,7.07849462 C14.5987897,6.6583995 14.7867129,6.2649147 15.0811339,5.95071685 C15.4972394,5.50574524 16.0770991,5.23531361 16.6969697,5.19713262 C17.0195518,5.19482868 17.3401639,5.2458032 17.6449267,5.34784946 C17.5898596,4.87994778 17.6098432,4.40665233 17.704174,3.94462366 C17.8733573,3.15457779 18.2582789,2.42251239 18.8191007,1.82419355 L18.921437,1.73584229 L19.9286413,0.956272401 L21.0058651,0.43655914 L22.174653,0.228673835 C22.7747766,0.172607151 23.379718,0.267505659 23.9305279,0.504121864 C24.3308174,0.582665691 24.702458,0.761965955 25.0077517,1.02383513 C25.3836538,1.20600572 25.7017956,1.4824663 25.9287781,1.82419355 C26.237035,2.090353 26.4657908,2.43131698 26.5912708,2.81164875 C26.8934188,3.31587941 27.0548724,3.88710409 27.0598631,4.46953405 L27.0598631,4.59426523 C27.0916777,5.21933001 26.9889799,5.84397843 26.7582405,6.42885305 C27.1048829,6.30840139 27.4676653,6.23664049 27.8354643,6.21577061 C28.3290244,6.17020802 28.8263914,6.24900013 29.2789443,6.44444444 C29.7752919,6.566555 30.2289355,6.81412154 30.5931574,7.16164875 C30.988533,7.47641948 31.289737,7.88725593 31.4657087,8.35179211 C31.6160979,8.60566277 31.7233832,8.88113385 31.7834897,9.16774194 L0.333939394,9.19892473 Z"
                          id="Path"></path>
                </g>
                <g id="Group" opacity="0.7" transform="translate(222.815249, 159.701143)" fill-rule="nonzero">
                    <path d="M0.439695514,25.9007013 C0.352842079,22.8420757 1.43851001,19.5773726 3.94097461,17.8094437 C6.24259063,16.1825152 9.28246085,16.0957457 12.0834841,16.3885928 C14.8845074,16.6814399 17.7126724,17.2834035 20.4919823,16.8278635 C23.2712922,16.3723235 26.0831721,14.5067789 26.5337243,11.7301543 C26.832283,9.91884058 26.0940288,8.11837307 25.6760467,6.30705937 C25.2580645,4.49574568 25.2743495,2.35904628 26.6694328,1.1659654 C28.2979347,-0.211500701 30.7189742,0.450116877 32.7708866,0.987003273 C38.758251,2.55897624 45.0688186,2.40479593 50.9721096,0.54230949 C49.4123666,6.58363721 47.6029201,12.5490416 45.5437699,18.4385227 C44.6372372,21.0470313 43.1824421,24.0622721 40.4357023,24.4039271 C37.3198353,24.7726975 34.8336557,21.3290323 31.6960754,21.3453015 C29.1501841,21.3453015 27.1959818,23.65554 26.1863106,25.9928939 C25.1766394,28.3302478 24.7098022,30.9333333 23.2332938,33.0103787 C21.0619579,36.0418887 17.1046983,37.3488546 13.3808573,37.2458158 C10.6666875,37.1644694 5.3631996,36.5408135 3.19186373,34.7511921 C1.17794971,33.0808789 0.51026393,28.5092099 0.439695514,25.9007013 Z"
                          id="Path" fill="#FFD3C6"></path>
                    <path d="M45.5600549,18.4385227 C47.420166,13.0805049 49.077619,7.65741 50.5324141,2.16923796 C48.2525114,4.88078541 44.9466525,6.37213651 41.4616585,7.59233287 C39.0189056,8.44375877 36.4621576,9.18129967 34.2528234,10.5641889 C31.8534972,12.0663862 30.3769888,14.512202 28.5042116,16.572978 C24.1615399,21.3236092 18.8309103,23.5958859 13.2342921,26.4647031 C9.19017907,28.5363254 5.68889998,31.1285647 3.03987022,34.5993455 C3.09958196,34.6535764 3.15386535,34.7132305 3.21357709,34.7620383 C5.38491296,36.5516597 10.6884008,37.1753156 13.4025707,37.256662 C17.1264117,37.3651239 21.0999563,36.0527349 23.2550072,33.0212249 C24.7315156,30.9441795 25.1983528,28.341094 26.208024,26.0037401 C27.2176951,23.6663862 29.1718974,21.3669939 31.7177887,21.3561477 C34.8553691,21.3561477 37.3415486,24.7835437 40.4574156,24.4147733 C43.1932988,24.0514259 44.6535222,21.0361851 45.5600549,18.4385227 Z"
                          id="Path" fill="#FFC4B4"></path>
                </g>
                <g id="Group" transform="translate(228.768328, 127.384428)" fill-rule="nonzero">
                    <path d="M9.70959363,48.9324621 C13.192145,50.3832016 17.4291579,50.5686345 20.561814,48.4797877 C23.4429828,46.5545582 24.8863008,43.1076884 25.7883745,39.753535 C26.6904483,36.3993816 27.2426267,32.9034266 28.9866359,29.9365007 C30.7306452,26.9695748 34.1202556,24.5480397 37.5153331,25.2461399 C39.7349811,25.7042681 41.4789904,27.3404405 43.3542103,28.6112011 C45.2294302,29.8819616 47.7279011,30.7927642 49.7069962,29.7347061 C52.0031839,28.4912151 52.3148094,25.4043032 52.6045664,22.8136969 C53.4604523,15.2651165 56.4399948,8.11220088 61.1988689,2.18156318 C53.5449099,1.31257385 45.8800168,0.752639296 38.2041894,0.501759531 C34.7981776,0.392681372 30.6869083,0.736277572 29.1069124,3.74138085 C27.3082321,7.15552722 30.2003351,11.5186536 28.7734185,15.1127789 C27.6362589,18.0306197 24.1318391,19.2577489 20.9991831,19.3886427 C17.866527,19.5195365 14.6627985,18.9086988 11.6230834,19.6831538 C7.18378718,20.8230205 3.9199204,24.7989194 2.40552995,29.1129606 C1.31210725,32.2598655 -0.328026812,38.6191221 0.765395894,41.8969208 C1.80961458,44.9347475 6.7464181,47.6998789 9.70959363,48.9324621 Z"
                          id="Path" fill="#C9E1FF"></path>
                    <path d="M38.2041894,0.479943899 C45.1875157,0.705372094 52.1562631,1.19258787 59.1104315,1.94159123 C54.9772937,3.35960729 51.8118349,6.50105827 48.8814621,9.9588359 C46.8203603,12.3858249 44.8521994,14.9927929 42.2881232,16.9234763 C39.5053624,19.017777 36.0392124,19.6504303 32.840951,20.8721057 C25.4658148,23.7299535 20.4962086,28.8784426 14.7284039,34.0323856 C10.5569962,37.7574047 6.03569334,40.6370681 0.896606619,42.1478006 C0.858336824,42.0605381 0.814599916,41.9678216 0.781797235,41.8805591 C-0.311625471,38.6082143 1.29570591,32.2435038 2.42193129,29.0965989 C3.93632174,24.7771038 7.20018852,20.8012049 11.6394847,19.666792 C14.6791998,18.8868832 17.8774612,19.4977209 21.0155844,19.372281 C24.1537076,19.2468411 27.6581274,18.0142579 28.7898199,15.0964172 C30.1894009,11.5022919 27.3246334,7.1391655 29.1233138,3.72501913 C30.6869083,0.714461941 34.7981776,0.37086574 38.2041894,0.479943899 Z"
                          id="Path" fill="#A8CFFF"></path>
                </g>
                <path d="M247.457778,112.563377 C254.177882,109.85542 261.52311,109.254253 268.739003,108.67475 C266.044495,113.267446 263.312264,117.881806 259.82557,121.90583 C256.338877,125.929855 251.99533,129.352713 246.935044,130.950408 C243.205845,132.125662 232.98827,132.434369 233.020528,126.471447 C233.04755,120.243145 242.634609,114.496859 247.457778,112.563377 Z"
                      id="Path" fill="#FFDAA1" fill-rule="nonzero"></path>
                <path d="M233.022017,126.519546 C233.006473,127.10657 233.11275,127.690483 233.334219,128.234868 C238.521151,127.265575 243.483517,124.53195 248.122727,122.288418 C255.59914,118.667182 262.363513,113.967744 268.739003,108.67475 C261.61861,109.219297 254.339378,109.894535 247.690026,112.541032 C242.798864,114.485064 233.05488,120.262704 233.022017,126.519546 Z"
                      id="Path" fill="#FFEEBB" fill-rule="nonzero"></path>
                <g id="Group" opacity="0.7" transform="translate(0.000000, 155.448944)" fill-rule="nonzero">
                    <path d="M50.5324141,25.9007013 C50.6192675,22.8420757 49.5335996,19.5773726 47.031135,17.8094437 C44.7295189,16.1825152 41.6896487,16.0957457 38.8886254,16.3885928 C36.0876022,16.6814399 33.2594372,17.2834035 30.4801273,16.8278635 C27.7008174,16.3723235 24.8889374,14.5067789 24.4383852,11.7301543 C24.1398265,9.91884058 24.8780807,8.11837307 25.2960629,6.30705937 C25.714045,4.49574568 25.69776,2.35904628 24.3026767,1.1659654 C22.6741748,-0.211500701 20.2531353,0.450116877 18.2012229,0.987003273 C12.2138586,2.55897624 5.90329095,2.40479593 3.35176331e-15,0.54230949 C1.55974293,6.58363721 3.36918949,12.5490416 5.42833968,18.4385227 C6.3348724,21.0470313 7.78966744,24.0622721 10.5364073,24.4039271 C13.6522743,24.7726975 16.1384539,21.3290323 19.2760342,21.3453015 C21.8219255,21.3453015 23.7761278,23.65554 24.785799,25.9928939 C25.7954701,28.3302478 26.2623074,30.9333333 27.7388157,33.0103787 C29.9101516,36.0418887 33.8674112,37.3488546 37.5912523,37.2458158 C40.3054221,37.1644694 45.60891,36.5408135 47.7802458,34.7511921 C49.7941599,33.0808789 50.483559,28.5092099 50.5324141,25.9007013 Z"
                          id="Path" fill="#FFD3C6"></path>
                    <path d="M5.42833968,18.4385227 C3.55737193,13.0732741 1.89629999,7.65017921 0.445123853,2.16923796 C2.72502652,4.88078541 6.03088538,6.37213651 9.51587945,7.59233287 C11.9586323,8.44375877 14.5153803,9.18129967 16.7247145,10.5641889 C19.1240407,12.0663862 20.6005491,14.512202 22.4733263,16.572978 C26.815998,21.3236092 32.1466276,23.5958859 37.7432458,26.4647031 C41.7873588,28.5363254 45.2886379,31.1285647 47.9376677,34.5993455 C47.8779559,34.6535764 47.8236726,34.7132305 47.7639608,34.7620383 C45.5926249,36.5516597 40.2891371,37.1753156 37.5749672,37.256662 C33.8511262,37.3651239 29.8775816,36.0527349 27.7225307,33.0212249 C26.2460223,30.9441795 25.7791851,28.341094 24.7695139,26.0037401 C23.7598428,23.6663862 21.8056405,21.3669939 19.2597492,21.3561477 C16.1221688,21.3561477 13.6359893,24.7835437 10.5201223,24.4147733 C7.77338242,24.0514259 6.31858738,21.0361851 5.42833968,18.4385227 Z"
                          id="Path" fill="#FFC4B4"></path>
                </g>
                <g id="Group" opacity="0.7" transform="translate(12.756598, 102.721671)" fill-rule="nonzero">
                    <path d="M37.4756079,65.8273657 C33.3794996,66.1563407 28.9267381,64.9267291 26.3923387,61.7016952 C24.0578812,58.7355268 23.733651,54.6907517 23.9281891,50.9156284 C24.1227273,47.140505 24.7387647,43.3330234 23.9281891,39.6441885 C23.1176136,35.9553537 20.4481183,32.3582004 16.6978556,31.9159717 C14.2445137,31.640927 11.8884409,32.7518919 9.51615652,33.4368071 C7.14387219,34.1217223 4.25281953,34.2457621 2.56141862,32.460668 C0.605229717,30.3951363 1.32394,27.0999928 1.90215054,24.3171876 C3.58456524,16.1950056 2.92500992,7.76321744 3.55271368e-15,0 C8.20662675,1.67184035 16.3339972,3.67445342 24.3821114,6.00783921 C27.9432399,7.03790859 32.0879826,8.77985838 32.7094239,12.430942 C33.4173265,16.5727916 28.9699688,20.1321937 29.2077377,24.3225806 C29.3968719,27.7255847 32.6121548,30.184808 35.81663,31.3712753 C39.0211052,32.5577427 42.5390029,32.9891853 45.4246518,34.8336027 C49.6396444,37.5301194 51.671487,42.7290036 51.7795638,47.7121665 C51.8606213,51.341678 51.3850837,58.4982333 49.1370876,61.5021529 C47.0133798,64.3442815 40.9664864,65.546928 37.4756079,65.8273657 Z"
                          id="Path" fill="#C9E1FF"></path>
                    <path d="M24.3604961,6.02941134 C17.0509062,3.91174689 9.66566268,2.06912715 2.2047654,0.501552106 C5.98745112,3.35985981 8.2192357,7.67967957 10.0889632,12.2529719 C11.4020956,15.4887919 12.5585166,18.8270796 14.5633401,21.6853873 C16.7248748,24.7917746 20.1184842,26.5984407 23.0095369,28.9605894 C29.6778715,34.4075531 33.0876924,41.4131035 37.3134928,48.6936986 C40.3720644,53.9572992 44.0845002,58.4604821 48.893915,61.7610185 C48.9641648,61.680123 49.0398185,61.6046206 49.0992608,61.518332 C51.3472568,58.4982333 51.8011791,51.3578571 51.7417369,47.7283456 C51.6336602,42.7451827 49.5802022,37.5247264 45.3868249,34.8497818 C42.5065799,33.0215435 38.9832783,32.5739218 35.7788032,31.3874544 C32.574328,30.2009871 29.3752566,27.7471569 29.1807185,24.3441528 C28.9483535,20.1483728 33.3903073,16.5943638 32.6824047,12.4525141 C32.0663673,8.80143051 27.9216245,7.06487376 24.3604961,6.02941134 Z"
                          id="Path" fill="#A8CFFF"></path>
                </g>
                <path d="M52.5338705,161.361635 C47.2560463,156.240388 40.5792146,152.829868 34.0175953,149.495865 C34.7856778,154.824804 35.5592467,160.186536 37.3093776,165.291386 C39.0595085,170.396236 41.7752288,175.282463 45.9228745,178.714847 C48.9732593,181.250875 58.4755375,185.497629 60.7358946,179.92274 C63.1224367,174.101899 56.3194201,165.034504 52.5338705,161.361635 Z"
                      id="Path" fill="#FFDAA1" fill-rule="nonzero"></path>
                <path d="M60.7462573,179.51529 C60.5320497,180.057534 60.2094749,180.549945 59.7984363,180.96214 C55.4276273,178.101075 51.9288137,173.695253 48.5491547,169.871434 C43.0842895,163.697843 38.6755677,156.784509 34.8680352,149.495865 C41.1832313,152.732241 47.5634208,156.077402 52.6383254,161.043471 C56.3754483,164.698672 63.0914373,173.722449 60.7462573,179.51529 Z"
                      id="Path" fill="#FFEEBB" fill-rule="nonzero"></path>
                <path d="M48.4421111,179.297695 C41.118521,179.67856 34.1007631,182.267338 27.2140762,184.817478 C31.6377213,187.908557 36.094134,191.016195 41.0038339,193.240667 C45.9135337,195.46514 51.3529787,196.778848 56.6886592,196.083356 C60.6153269,195.570016 70.1507395,191.474337 67.6112395,185.971113 C64.94613,180.225019 53.6958722,179.021706 48.4421111,179.297695 Z"
                      id="Path" fill="#FFDAA1" fill-rule="nonzero"></path>
                <path d="M67.6231777,185.984958 C67.8741548,186.521253 68.0143908,187.10439 68.0351906,187.698212 C62.9717687,188.99697 57.3716457,188.57142 52.2702752,188.460887 C44.0408592,188.284035 36.0066073,186.802899 28.0645161,184.630934 C34.7271987,182.138424 41.5145695,179.656968 48.5946862,179.297737 C53.8153236,179.021405 64.9830423,180.22621 67.6231777,185.984958 Z"
                      id="Path" fill="#FFEEBB" fill-rule="nonzero"></path>
                <path d="M61.4106642,135.479982 C57.5724725,129.304343 52.0284178,124.468393 46.5909796,119.730469 C46.1165365,125.072887 45.6420933,130.44798 46.1271981,135.790398 C46.6123029,141.132816 48.1209254,146.491571 51.2661103,150.788378 C53.579687,153.946994 61.6025737,160.236997 65.0089689,155.35748 C68.5486345,150.254681 64.1826915,139.90749 61.4106642,135.479982 Z"
                      id="Path" fill="#FFDAA1" fill-rule="nonzero"></path>
                <path d="M64.9829612,155.102643 C64.6509105,155.584131 64.2247592,155.991456 63.7309061,156.299384 C60.1474379,152.474184 57.7674537,147.364809 55.3658824,142.834679 C51.4855908,135.523082 48.7925928,127.741531 46.7741935,119.730469 C52.170983,124.364426 57.5677725,129.124068 61.3455251,135.156955 C64.1626492,139.599652 68.5826198,149.982339 64.9829612,155.102643 Z"
                      id="Path" fill="#FFEEBB" fill-rule="nonzero"></path>
                <path d="M240.484323,95.5093076 C244.321321,89.3336686 249.858322,84.4977185 255.315386,79.7597944 C255.789682,85.1022123 256.263977,90.4773055 255.779024,95.8197233 C255.29407,101.162141 253.785916,106.520897 250.641709,110.817704 C248.328852,113.97632 240.308461,120.266323 236.903125,115.386805 C233.348572,110.284007 237.734474,99.936816 240.484323,95.5093076 Z"
                      id="Path" fill="#FFDAA1" fill-rule="nonzero"></path>
                <path d="M236.069607,115.982408 C236.401715,116.463896 236.82794,116.871221 237.321879,117.179149 C240.905967,113.353949 243.286363,108.244574 245.68835,103.714444 C249.569313,96.402847 252.262776,88.6212966 254.281525,80.6102343 C248.883802,85.2441912 243.486079,90.0038333 239.707672,96.0367207 C236.911652,100.479418 232.469326,110.862104 236.069607,115.982408 Z"
                      id="Path" fill="#FFEEBB" fill-rule="nonzero"></path>
                <rect id="Rectangle" fill="#2B2B2B" fill-rule="nonzero" x="153.929619" y="27.8829615" width="90.1466276"
                      height="162.434018" rx="15.71"></rect>
                <rect id="Rectangle" fill="#FFFFFF" fill-rule="nonzero" x="158.181818" y="40.6395598" width="81.6422287"
                      height="127.565982"></rect>
                <circle id="Oval" fill="#FFFFFF" fill-rule="nonzero" cx="199.428152" cy="178.836041"
                        r="7.228739"></circle>
                <path d="M204.973711,35.5367883 L193.074632,35.5367883 C192.618923,35.5424553 192.179921,35.3657679 191.855672,35.0461871 C191.531423,34.7266064 191.348974,34.2907546 191.348974,33.8359746 L191.348974,33.8359746 C191.348974,32.8966412 192.112068,32.135161 193.053393,32.135161 L204.952472,32.135161 C205.893797,32.135161 206.656891,32.8966412 206.656891,33.8359746 L206.656891,33.8359746 C206.656891,34.7670932 205.906731,35.5251855 204.973711,35.5367883 L204.973711,35.5367883 Z"
                      id="Path" fill="#FFFFFF" fill-rule="nonzero"></path>
                <g id="Group" transform="translate(167.536657, 78.909355)">
                    <mask id="mask-3" fill="white">
                        <use xlink:href="#path-2"></use>
                    </mask>
                    <circle stroke="url(#linearGradient-1)" stroke-width="2" cx="31.8914956" cy="31.8914956"
                            r="32.8914956"></circle>
                    <g mask="url(#mask-3)">
                        <g transform="translate(0.850440, 5.953079)">
                            <g id="Group" opacity="0.7" stroke-width="1" fill="none" fill-rule="evenodd"
                               transform="translate(0.000000, 18.426197)">
                                <path d="M22.9437966,30.3490311 C23.9852172,28.6906733 24.4462627,26.5554022 23.638077,24.7615577 C22.89498,23.1357168 21.2514882,22.0897591 19.6134205,21.3418722 C17.9753527,20.5939854 16.2233796,20.0141021 14.8402429,18.8651745 C13.4571062,17.7162469 12.5133189,15.7814962 13.1642067,14.1014605 C13.5872838,13.0175666 14.5798878,12.2534213 15.3880735,11.3917256 C16.1962593,10.5300299 16.8905396,9.34858548 16.505431,8.23759416 C16.0606576,6.95317981 14.5093749,6.53046116 13.2021752,6.16193721 C9.39883298,5.07941615 5.97998828,2.94303938 3.34122428,0 C2.2564112,3.83337167 1.31443185,7.70648611 0.515286212,11.6193433 C0.168146027,13.3535737 -0.027120327,15.4834253 1.39940887,16.5510609 C2.9940841,17.7650221 5.48373011,16.6702892 7.20858291,17.694569 C8.60799178,18.5237479 8.93885977,20.404304 8.73816935,22.0301449 C8.53747893,23.6559859 7.95167987,25.2276321 8.0872815,26.8480536 C8.29339599,29.2163619 10.0562172,31.2269852 12.1390584,32.3704934 C13.6577967,33.2050917 16.7874824,34.5762176 18.5611518,34.2944052 C20.2154917,34.0722069 22.059674,31.7851906 22.9437966,30.3490311 Z"
                                      id="Path" fill="#C9E1FF" fill-rule="nonzero"></path>
                                <path d="M0.515286212,11.6518602 C1.23849493,8.09668794 2.08464913,4.57403255 3.05374882,1.08389397 C3.42800933,3.32213501 4.76775348,5.20811052 6.30818805,7.00195503 C7.39300113,8.26469151 8.54832706,9.49491116 9.31854435,10.969007 C10.1538504,12.5948479 10.1755467,14.3995314 10.5389591,16.1391812 C11.3742651,20.1550083 13.5927079,23.1411362 15.7460618,26.5283049 C17.3107849,28.8627113 18.3303264,31.5186817 18.7292978,34.2998246 L18.582848,34.3323414 C16.8091787,34.6141539 13.7011892,33.2484475 12.1607546,32.4084296 C10.0724894,31.2649215 8.30966818,29.2542982 8.10897776,26.8859899 C7.96795206,25.2601489 8.55375113,23.6776637 8.75986561,22.0680812 C8.9659801,20.4584986 8.62968804,18.5562647 7.23027917,17.7325053 C5.50542637,16.7082255 3.02120442,17.8029584 1.42110513,16.5889972 C2.77555756e-16,15.5159422 0.168146027,13.3860905 0.515286212,11.6518602 Z"
                                      id="Path" fill="#A8CFFF" fill-rule="nonzero"></path>
                            </g>
                            <g id="Group" opacity="0.7" stroke-width="1" fill="none" fill-rule="evenodd"
                               transform="translate(41.222897, 0.000000)">
                                <path d="M3.36834461,47.1981628 C1.42110513,45.3826404 0.0650887847,42.7162613 0.504438082,40.0878184 C0.911242986,37.6761543 2.7120327,35.7522425 4.60503152,34.1914352 C6.49803034,32.6306279 8.60256771,31.2649215 10.0290969,29.2705566 C11.4556261,27.2761917 12.0143048,24.3930338 10.5715035,22.4203467 C9.63314014,21.1250934 8.06558524,20.485596 6.70414483,19.6455782 C5.34270441,18.8055603 3.99211213,17.4777902 4.13313783,15.8898856 C4.26873946,14.0472658 6.16716235,12.9525329 7.75641351,12.0095452 C12.380247,9.259367 16.1301054,5.25714464 18.5719999,0.466074406 C21.3527374,5.12320549 23.9418246,9.88872597 26.3392616,14.7626358 C27.4240746,16.9304238 28.3732861,19.6401587 26.8816681,21.558651 C25.2056319,23.726439 21.5552359,23.1357168 19.6459649,25.0813064 C18.0946822,26.6583721 18.3224929,29.2759761 19.1523749,31.3245357 C19.9822569,33.3730953 21.3220011,35.2590708 21.6854134,37.4376977 C22.22782,40.6243459 20.6006004,43.8814473 18.2845244,46.1088494 C16.5759438,47.7346904 12.94182,50.6286873 10.5118387,50.8725634 C8.2445794,51.1164395 5.02810862,48.7481312 3.36834461,47.1981628 Z"
                                      id="Path" fill="#C9E1FF" fill-rule="nonzero"></path>
                                <path d="M26.3392616,14.7680553 C24.1696354,10.3421549 21.8282472,6.00657907 19.3150969,1.7613277 C19.6025723,4.8341671 18.496063,7.78235869 17.1454707,10.6763556 C16.1799871,12.7086568 15.0680537,14.7355385 14.5744637,16.9466822 C14.0320572,19.3475073 14.6449766,21.7537519 14.7751541,24.1708355 C15.0734777,29.7420505 13.2021752,34.4407308 11.5532593,39.6488414 C10.3599649,43.4153729 9.82298243,47.1602266 10.3382686,50.9050802 L10.5443831,50.9050802 C12.9797885,50.6612041 16.6084882,47.7672072 18.3170688,46.1413662 C20.6114485,43.8977057 22.2386681,40.6460238 21.6962616,37.4485366 C21.316577,35.2807487 19.993105,33.3893537 19.163223,31.3353746 C18.333341,29.2813955 18.1055303,26.6692111 19.656813,25.0921454 C21.566084,23.1465557 25.21648,23.7156 26.8925162,21.56949 C28.3732861,19.6672561 27.3969543,16.9250043 26.3392616,14.7680553 Z"
                                      id="Path" fill="#A8CFFF" fill-rule="nonzero"></path>
                            </g>
                            <path d="M41.3964671,37.4431171 C34.5675688,37.2371773 35.1859122,31.4383445 35.1859122,31.4383445 L30.6188491,31.2974383 L26.0355139,31.4329251 C26.0355139,31.4329251 26.6484333,37.2317578 19.824959,37.4376977 C16.5705198,37.5352481 31.3239776,44.7052067 31.3239776,44.7052067 C31.3239776,44.7052067 45.1119519,37.5515065 41.3964671,37.4431171 Z"
                                  id="Path" fill="#FFC0A9" fill-rule="nonzero"></path>
                            <path d="M25.8348235,33.243028 C25.6929097,33.8453539 25.4645424,34.4240025 25.1568153,34.9609999 C27.2938971,39.5946467 33.2169765,40.1799494 35.8801926,34.6412512 C35.6570482,34.2014471 35.5033562,33.729793 35.4245711,33.243028 L25.8348235,33.243028 Z"
                                  id="Path" fill="#FFAF96" fill-rule="nonzero"></path>
                            <path d="M20.0093772,17.0550716 C20.6385688,10.3457679 25.5527721,6.49794434 30.3856143,6.57381692 C35.2184566,6.64968949 40.0350267,10.6600972 40.5014963,17.3856592 C40.7726996,21.3256138 39.9156972,25.5690587 39.2973538,28.0132396 C38.948193,29.4235704 38.2571051,30.7264049 37.2850255,31.8068685 C35.1153994,34.1968547 32.2569169,36.0990886 30.022202,36.0665718 C27.787487,36.034055 24.9940933,34.0342706 22.8678597,31.5792508 C21.9215571,30.4617657 21.2641081,29.1293728 20.9531646,27.6989104 C20.3944859,25.2547295 19.6405408,20.9841872 20.0093772,17.0550716 Z"
                                  id="Path" fill="#FFC0A9" fill-rule="nonzero"></path>
                            <path d="M52.1795091,60.3000262 C52.1795091,60.3000262 51.8323689,44.2013245 48.6592906,40.4813058 C45.4862124,36.7612871 40.2574134,37.3599108 40.2574134,37.3599108 C40.2574134,37.3599108 35.999522,41.9564857 30.6188491,41.9564857 C25.2381763,41.9564857 21.153855,37.3314049 21.153855,37.3314049 C21.153855,37.3314049 15.7297896,36.7612871 12.5838317,40.4813058 C9.43787378,44.2013245 9.06361327,60.3000262 9.06361327,60.3000262 L52.1795091,60.3000262 Z"
                                  id="Path" fill="#FF9800" fill-rule="nonzero"></path>
                            <ellipse id="Oval" fill="#193441" fill-rule="nonzero" cx="24.7771307" cy="22.5449945" rx="1"
                                     ry="1"></ellipse>
                            <ellipse id="Oval" fill="#193441" fill-rule="nonzero" cx="35.6903503" cy="22.5449945" rx="1"
                                     ry="1"></ellipse>
                            <path d="M27.6139169,29.2272009 C27.4327341,29.2402189 27.2701017,29.3429918 27.1806833,29.5009758 C27.0912648,29.6589599 27.0869329,29.8511786 27.1691436,30.013024 C27.8568524,31.0109192 28.9880926,31.6113926 30.2006565,31.622181 C31.4132204,31.6329694 32.5549836,31.0527193 33.260369,30.0672187 C33.3668592,29.9067835 33.3801749,29.701946 33.2953504,29.5290952 C33.2105259,29.3562444 33.0402946,29.2413278 32.84814,29.2272009 L27.6139169,29.2272009 Z"
                                  id="Path" fill="#FFFFFF" fill-rule="nonzero"></path>
                            <ellipse id="Oval" fill="#FFAF8A" fill-rule="nonzero" cx="24.8639158" cy="25.8942269"
                                     rx="1.68146027" ry="1.30067276"></ellipse>
                            <ellipse id="Oval" fill="#FFAF8A" fill-rule="nonzero" cx="35.6035652" cy="25.8942269"
                                     rx="1.68146027" ry="1.30067276"></ellipse>
                            <path d="M42.0798993,11.7548301 C41.2445933,9.32148813 40.3279262,6.73640101 38.2233888,5.25146628 C37.5428523,4.77834682 36.7704109,4.45338389 35.9561295,4.29763958 C35.337367,3.61266947 34.5864818,3.05966042 33.7485349,2.67179863 C30.8195396,1.35486746 27.1908398,2.12985165 24.7879788,4.29763958 C23.9680684,4.45136147 23.1899047,4.77639894 22.5044473,5.25146628 C21.2606924,6.2060958 20.2990987,7.4796431 19.7219018,8.93670577 C17.9753527,9.77130412 16.0172651,10.2861538 14.8402429,11.7981858 C13.8635885,13.0621114 13.6898592,14.7704563 14.3921117,16.2048282 C15.0943641,17.6392001 16.5507858,18.5507932 18.1489228,18.5562647 C18.74557,21.7591714 20.318549,23.7914726 20.4921191,23.3308177 C21.1430069,21.7049767 21.229792,18.6917515 22.0054333,17.1201052 C22.0379777,17.0604911 22.0759462,17.0062964 22.1084905,16.9466822 C22.9102302,16.3472866 23.8578334,15.9730572 24.8530676,15.8627882 C26.4802873,15.8031741 27.9176646,16.9087459 29.5177639,16.9087459 C31.2805851,16.9087459 32.7450828,15.5809758 33.8570162,14.2369473 C33.9492253,14.1285579 34.0414344,14.0255879 34.1390676,13.9171986 L34.589265,14.1448163 C36.1351237,14.8818642 37.908793,15.5592979 38.6681622,17.0930079 C39.4275313,18.6267178 39.5305886,21.6778794 40.1814764,23.3037203 C40.5231926,24.0787045 44.3580068,18.3882612 42.0798993,11.7548301 Z"
                                  id="Path" fill="#4B78FF" fill-rule="nonzero"></path>
                        </g>
                    </g>
                </g>
                <g id="Group" transform="translate(210.058651, 143.542786)" fill-rule="nonzero">
                    <path d="M4.16805063,10.9531797 C3.13259521,9.4979977 1.88326562,8.20596329 0.461923136,7.12036866 C0.302721842,8.41659467 0.263167771,9.72461013 0.343756753,11.0280184 C0.428388233,12.3372721 0.872418327,13.5983034 1.62747338,14.6737327 C2.2075629,15.4435023 4.21102022,16.9723502 5.0596697,15.7856221 C5.90831919,14.598894 4.83407933,12.0276498 4.16805063,10.9531797 Z"
                          id="Path" fill="#FFDAA1"></path>
                    <path d="M5.0596697,15.7856221 C4.97621189,15.9015601 4.87028978,15.9997077 4.74814015,16.0742857 C3.92149679,15.0867553 3.22810892,13.9959162 2.68559963,12.8294931 C1.75361616,11.0548123 1.04293591,9.17347662 0.569347121,7.22728111 C1.95038039,8.28825383 3.16347758,9.54963349 4.16805063,10.9692166 C4.83407933,12.0276498 5.95128878,14.5454378 5.0596697,15.7856221 Z"
                          id="Path" fill="#FFEEBB"></path>
                    <path d="M15.1199259,12.7546544 C16.6535133,11.8335276 18.3174666,11.146969 20.056058,10.7179724 C19.6794395,11.9680878 19.1886119,13.1812617 18.5897206,14.3423041 C17.9861525,15.5097232 17.0720347,16.4897544 15.9470906,17.1754839 C15.1091835,17.6512442 12.6599167,18.2446083 12.3537583,16.8280184 C12.0475999,15.4114286 14.0564285,13.4709677 15.1199259,12.7546544 Z"
                          id="Path" fill="#FFDAA1"></path>
                    <path d="M12.3537583,16.8333641 C12.3816678,16.9734645 12.4383545,17.106317 12.5202655,17.2235945 C13.6856853,16.6442732 14.7692642,15.9145431 15.742985,15.0532719 C17.3106145,13.802624 18.7192959,12.3665437 19.9378916,10.7767742 C18.2460245,11.1984843 16.6273649,11.8706151 15.1360395,12.7706912 C14.0564285,13.4709677 12.0422287,15.3419355 12.3537583,16.8333641 Z"
                          id="Path" fill="#FFEEBB"></path>
                    <path d="M4.83407933,3.25013825 C4.22176262,4.20165899 5.0811545,5.64497696 4.3775274,6.52700461 C4.02302825,6.97069124 3.37311313,7.11502304 3.08306837,7.59612903 C2.8713243,7.99060005 2.90039483,8.4700462 3.15826516,8.83631336 C3.42069667,9.19431924 3.80074439,9.44962987 4.23250502,9.55797235 C5.37657046,9.88940092 6.57971909,9.45640553 7.70767094,9.0875576 C8.83562278,8.71870968 10.1139682,8.40331797 11.1774657,8.93253456 C11.4071955,9.08513625 11.6643354,9.19222146 11.9348048,9.24792627 C12.3913567,9.28534562 12.7727118,8.91115207 13.2024078,8.75612903 C13.8147245,8.54230415 14.475382,8.78285714 15.0984411,8.94857143 C15.7215002,9.11428571 16.4842105,9.16774194 16.9246489,8.69732719 C17.3650872,8.22691244 17.2146936,7.32884793 16.8172249,6.74617512 C16.3520326,6.21806313 15.9333274,5.65112106 15.5657355,5.0516129 C15.3540992,4.37712346 15.2172151,3.68162176 15.1575243,2.97751152 C15.0178731,2.28792627 14.6204044,1.55023041 13.8899213,1.43797235 C13.1594382,1.32571429 12.4235839,1.97253456 11.7038432,1.75336406 C11.1667233,1.61437788 10.8820497,1.10654378 10.4684674,0.775115207 C9.83095605,0.279150045 8.96384986,0.191812602 8.23941966,0.550599078 C7.88642902,0.736717798 7.59534011,1.02084936 7.40151258,1.36847926 C7.2403766,1.65714286 7.251119,2.27723502 7.00941503,2.48571429 C6.76771107,2.69419355 6.17687915,2.54986175 5.87072079,2.61400922 C5.45318383,2.67842527 5.07942338,2.90778121 4.83407933,3.25013825 L4.83407933,3.25013825 Z"
                          id="Path" fill="#193441"></path>
                    <path d="M10.001173,16.0368664 C10.001173,16.0368664 15.2219787,12.7920737 13.9114061,12.7546544 C11.51048,12.6851613 11.725328,10.6538249 11.725328,10.6538249 L10.1139682,10.6057143 L8.50260843,10.6538249 C8.50260843,10.6538249 8.7174564,12.6851613 6.31653033,12.7546544 C5.19394968,12.7813825 10.001173,16.0368664 10.001173,16.0368664 Z"
                          id="Path" fill="#FFC0A9"></path>
                    <path d="M8.44352524,11.2792627 C8.39452284,11.4909322 8.31491571,11.6944043 8.20719247,11.883318 C8.95916036,13.4870046 11.0431857,13.7115207 11.9670319,11.7710599 C11.8881091,11.6163988 11.8337518,11.4504968 11.805896,11.2792627 L8.44352524,11.2792627 Z"
                          id="Path" fill="#FFAF96"></path>
                    <path d="M6.39172712,5.6075576 C6.61194629,3.25548387 8.34147245,1.9083871 10.0387714,1.93511521 C11.7360704,1.96184332 13.4333693,3.36774194 13.5945053,5.71981567 C13.6419613,6.98123068 13.4989267,8.24259106 13.1701806,9.46175115 C13.0482216,9.95860159 12.8046537,10.4177079 12.4611823,10.7981567 C11.6931008,11.6374194 10.6940577,12.3002765 9.90986263,12.2895853 C9.12566754,12.278894 8.14273808,11.5786175 7.39614138,10.7179724 C7.06420808,10.3267869 6.83368167,9.86058788 6.72474147,9.36018433 C6.42620628,8.13285515 6.31395768,6.86796341 6.39172712,5.6075576 L6.39172712,5.6075576 Z"
                          id="Path" fill="#FFC0A9"></path>
                    <path d="M17.7249576,18.6348387 C17.7249576,18.6348387 17.60142,14.5347465 16.4895817,13.5458065 C15.3777435,12.5568664 13.5354221,12.717235 13.5354221,12.717235 C13.5354221,12.717235 12.8962494,13.9894931 10.0226578,14.9837788 C7.55727736,14.0536406 6.79993826,12.7118894 6.79993826,12.7118894 C6.79993826,12.7118894 4.90390492,12.562212 3.78669548,13.5511521 C2.66948603,14.5400922 2.35795647,18.6401843 2.35795647,18.6401843 L17.7249576,18.6348387 Z"
                          id="Path" fill="#4B78FF"></path>
                    <ellipse id="Oval" fill="#193441" cx="8.07291249" cy="7.53198157" rx="1" ry="1"></ellipse>
                    <ellipse id="Oval" fill="#193441" cx="11.9079488" cy="7.53198157" rx="1" ry="1"></ellipse>
                    <path d="M9.06658435,9.68092166 C9.00007015,9.68061829 8.93865036,9.7163306 8.90625306,9.77414568 C8.87385576,9.83196075 8.87560511,9.90273424 8.91081957,9.95889401 C9.15599985,10.3080542 9.55704585,10.5160616 9.98505942,10.5160616 C10.413073,10.5160616 10.814119,10.3080542 11.0592993,9.95889401 C11.1026345,9.90398185 11.1105301,9.82921682 11.0796132,9.76653772 C11.0486962,9.70385862 10.9844333,9.66434816 10.9142769,9.66487939 L9.06658435,9.68092166 Z"
                          id="Path" fill="#FFFFFF"></path>
                    <ellipse id="Oval" fill="#FFAF8A" cx="8.09976848" cy="8.70267281" rx="1" ry="1"></ellipse>
                    <ellipse id="Oval" fill="#FFAF8A" cx="11.8757216" cy="8.70267281" rx="1" ry="1"></ellipse>
                    <path d="M6.59046149,3.69917051 C6.35949992,4.03059908 7.37465658,3.47465438 7.66470134,3.76866359 C7.9161966,4.0841772 8.09909983,4.44824172 8.20182127,4.83778802 C8.2986879,5.23312392 8.56602879,5.56570872 8.93230437,5.74654378 C9.81855225,6.05658986 10.6403457,4.73087558 11.5480784,4.97677419 C12.2785615,5.17456221 12.4772959,6.24903226 13.2024078,6.4521659 C13.8362093,6.62857143 14.448526,5.96036866 14.4646396,5.30820276 C14.4131087,4.65151549 14.1362269,4.03244166 13.6804445,3.55483871 C13.6804445,3.55483871 9.60370428,-0.662857143 6.59046149,3.69917051 Z"
                          id="Path" fill="#193441"></path>
                    <path d="M5.93517518,4.45290323 C5.51318195,5.10095415 5.35564757,5.88487523 5.49473684,6.64460829 C5.49473684,6.76221198 5.56993363,6.90119816 5.68810002,6.91723502 C5.75662297,6.92002682 5.82370559,6.89713659 5.87609199,6.85308756 C6.46155271,6.43612903 6.57971909,5.56479263 7.16517981,5.14248848 C7.58950455,4.83778802 8.23941966,4.78967742 8.48112363,4.32995392 C8.83562278,3.67778802 8.10513968,3.14857143 7.51430776,3.26082949 C6.85920407,3.45269986 6.29742743,3.87678025 5.93517518,4.45290323 Z"
                          id="Path" fill="#193441"></path>
                </g>
                <rect id="Rectangle" fill="#FD4468" fill-rule="nonzero" x="57.829912" y="27.8829615" width="90.1466276"
                      height="162.434018" rx="15.71"></rect>
                <rect id="Rectangle" fill="#FFFFFF" fill-rule="nonzero" x="62.0821114" y="40.6395598" width="81.6422287"
                      height="127.565982"></rect>
                <circle id="Oval" fill="#FFFFFF" fill-rule="nonzero" cx="102.478006" cy="178.836041"
                        r="7.228739"></circle>
                <path d="M108.874004,35.5367883 L96.9749253,35.5367883 C96.5192165,35.5424553 96.0802144,35.3657679 95.7559653,35.0461871 C95.4317163,34.7266064 95.2492669,34.2907546 95.2492669,33.8359746 L95.2492669,33.8359746 C95.2492669,32.8966412 96.0123615,32.135161 96.9536864,32.135161 L108.852765,32.135161 C109.79409,32.135161 110.557185,32.8966412 110.557185,33.8359746 L110.557185,33.8359746 C110.557185,34.7670932 109.807024,35.5251855 108.874004,35.5367883 L108.874004,35.5367883 Z"
                      id="Path" fill="#FFFFFF" fill-rule="nonzero"></path>
                <g id="Group" transform="translate(70.586510, 76.358035)">
                    <mask id="mask-5" fill="white">
                        <use xlink:href="#path-4"></use>
                    </mask>
                    <circle stroke="url(#linearGradient-1)" stroke-width="2" cx="31.8914956" cy="31.8914956"
                            r="32.8914956"></circle>
                    <g mask="url(#mask-5)" fill-rule="nonzero">
                        <g transform="translate(3.401760, 7.653959)">
                            <path d="M11.5332485,31.2445538 C8.76723289,26.870863 4.76823992,23.4539171 0.834714768,20.1080436 C0.491008687,23.885819 0.147302606,27.69093 0.501919991,31.4687055 C0.856537376,35.2464809 1.94221214,39.0351906 4.20630775,42.0749057 C5.87573729,44.3109552 11.6587285,48.7611856 14.1137719,45.3059698 C16.6833841,41.6922078 13.5191058,34.3772099 11.5332485,31.2445538 Z"
                                  id="Path" fill="#FFDAA1"></path>
                            <path d="M14.1192276,45.3005027 C13.8817038,45.6396183 13.5771605,45.9261927 13.2245006,46.1424382 C10.6712555,43.4526183 8.97454767,39.8443234 7.26692857,36.6515291 C4.57308675,31.4923799 2.51748389,26.0231235 1.14568694,20.3649979 C4.96464339,23.645266 8.83815637,26.9856724 11.5114259,31.2390867 C13.5191058,34.3772099 16.6833841,41.6922078 14.1192276,45.3005027 Z"
                                  id="Path" fill="#FFEEBB"></path>
                            <path d="M43.1651192,36.4875157 C47.4423505,33.5954127 52.4724617,32.0591537 57.4152825,30.5666318 C56.2204947,34.1694596 55.0147956,37.7886887 53.1871521,41.1126938 C51.3595087,44.4366988 48.8226304,47.4709468 45.5492392,49.3461667 C43.1269297,50.7238793 36.0509489,52.4842899 35.1835002,48.3347507 C34.2724064,44.0047968 40.0935871,38.5650189 43.1651192,36.4875157 Z"
                                  id="Path" fill="#FFDAA1"></path>
                            <path d="M35.1835002,48.3402178 C35.2644773,48.7464241 35.4278895,49.1316217 35.6635976,49.4719103 C39.0788358,48.0285924 42.0685332,45.4043779 44.9382062,43.1628613 C49.466456,39.515093 53.5336858,35.3273267 57.0497538,30.6923754 C52.232413,32.1520947 47.35506,33.6774194 43.1869418,36.4929828 C40.0935871,38.5650189 34.2724064,44.0047968 35.1835002,48.3402178 Z"
                                  id="Path" fill="#FFEEBB"></path>
                            <path d="M13.9828363,8.77471722 C12.2370276,11.508274 14.692071,15.6687474 12.6734798,18.2164223 C11.6641841,19.4902597 9.80380678,19.9166946 8.96363636,21.3053414 C8.35427751,22.4416292 8.43660921,23.8251692 9.17640679,24.8808337 C9.92427162,25.9091522 11.0066508,26.6438549 12.2370276,26.9583368 C15.5104189,27.9096146 18.9529353,26.6740469 22.1772257,25.5970256 C25.4015161,24.5200042 29.0513473,23.6179305 32.0956012,25.1432551 C32.7993803,25.4986175 33.4813368,25.9851906 34.277862,26.0453289 C35.5872185,26.149204 36.6674376,25.0721827 37.9113263,24.6348136 C39.657135,24.0224969 41.5502462,24.7168203 43.3669784,25.1815249 C45.1837105,25.6462296 47.3332374,25.810243 48.5880374,24.4489317 C49.9628617,22.9618768 49.4172965,20.51261 48.2879765,18.8342061 C47.1586566,17.1558023 45.5274166,15.7999581 44.7036131,13.9520737 C43.8798097,12.1041894 43.9507331,9.97201508 43.5415592,7.98198576 C43.1323853,5.99195643 41.9048636,3.86524927 39.9244619,3.54268957 C37.8185802,3.20919564 35.7345211,5.00787599 33.6777403,4.4447633 C32.2101699,4.0401969 31.3263542,2.5859447 30.1424777,1.62919983 C28.3199385,0.197348474 25.8378948,-0.0558454608 23.7648205,0.978613322 C22.7533837,1.51391294 21.9192969,2.33265534 21.3643335,3.33493925 C20.8951475,4.17140762 20.9278814,5.95368664 20.2350136,6.5441349 C19.5421457,7.13458316 17.8563493,6.72454964 16.9616223,6.91589862 C15.7577352,7.10372412 14.6821525,7.77490796 13.9828363,8.77471722 L13.9828363,8.77471722 Z"
                                  id="Path" fill="#193441"></path>
                            <path d="M28.8112986,45.5902597 C28.8112986,45.5902597 43.7379627,36.2469627 40.000841,36.1321533 C33.1321751,35.924403 33.7541194,30.0745915 33.7541194,30.0745915 L29.1604604,29.9324466 L24.5504343,30.0691244 C24.5504343,30.0691244 25.166923,35.9189359 18.3037127,36.1266862 C15.0630554,36.2305614 28.8112986,45.5902597 28.8112986,45.5902597 Z"
                                  id="Path" fill="#FFC0A9"></path>
                            <path d="M24.3485752,31.8951403 C24.205835,32.5027614 23.9761379,33.086497 23.6666187,33.6282153 C25.8161456,38.3025974 31.7737177,38.8930457 34.4524429,33.3056556 C34.227999,32.8619851 34.073412,32.3861846 33.9941681,31.8951403 L24.3485752,31.8951403 Z"
                                  id="Path" fill="#FFAF96"></path>
                            <path d="M18.4892049,15.5648722 C19.1220605,8.79658567 24.0648813,4.91493506 28.9258673,4.99147465 C33.7868533,5.06801424 38.6314724,9.11367826 39.1006584,15.8983661 C39.373441,19.8729577 38.511448,24.1537076 37.8895037,26.6193758 C37.5383096,28.0421051 36.8431972,29.3563931 35.8654568,30.4463553 C33.6831959,32.8573523 30.8080673,34.7763092 28.5603386,34.7435065 C26.31261,34.7107038 23.5029492,32.6933389 21.3643335,30.2167365 C20.4125202,29.0894273 19.7512426,27.7453211 19.4384884,26.3022832 C18.8765562,23.836615 18.1182205,19.5285295 18.4892049,15.5648722 Z"
                                  id="Path" fill="#FFC0A9"></path>
                            <path d="M50.8466774,53.0856724 C50.8466774,53.0856724 50.4975156,41.2821743 47.3059592,38.428341 C44.1144027,35.5745078 38.8551541,36.0337453 38.8551541,36.0337453 C38.8551541,36.0337453 37.022055,39.6967114 28.805843,42.5614788 C21.7462292,39.8771261 19.6294362,36.0009426 19.6294362,36.0009426 C19.6294362,36.0009426 14.1737841,35.5635735 11.0095059,38.4174068 C7.84522769,41.2712401 6.92322249,53.0747382 6.92322249,53.0747382 L50.8466774,53.0856724 Z"
                                  id="Path" fill="#FFC0A9"></path>
                            <ellipse id="Oval" fill="#193441" cx="23.2847231" cy="21.1030582" rx="1" ry="1"></ellipse>
                            <ellipse id="Oval" fill="#193441" cx="34.261495" cy="21.1030582" rx="1" ry="1"></ellipse>
                            <path d="M26.1380291,27.2972979 C25.9557912,27.3104303 25.7922117,27.4141068 25.7022725,27.5734797 C25.6123334,27.7328525 25.6079762,27.9267611 25.6906656,28.0900293 C26.3823793,29.0966972 27.5202072,29.7024496 28.7398324,29.7133328 C29.9594576,29.7242161 31.1078697,29.1388648 31.8173629,28.1447005 C31.9244733,27.9828548 31.9378665,27.7762165 31.852548,27.6018462 C31.7672296,27.4274758 31.5960069,27.311549 31.4027334,27.2972979 L26.1380291,27.2972979 Z"
                                  id="Path" fill="#FFFFFF"></path>
                            <ellipse id="Oval" fill="#FFAF8A" cx="23.3720135" cy="24.4817344" rx="1.69125214"
                                     ry="1.31210725"></ellipse>
                            <ellipse id="Oval" fill="#FFAF8A" cx="34.1742046" cy="24.4817344" rx="1.69125214"
                                     ry="1.31210725"></ellipse>
                            <path d="M19.0565927,10.0594889 C18.4019145,11.0107667 21.2988657,9.41983661 22.0953909,10.256305 C22.8919161,11.0927734 23.1865213,12.279137 23.5629613,13.3670926 C23.9394013,14.4550482 24.572257,15.5976749 25.6579317,15.9803729 C28.1948099,16.8769795 30.5352847,13.0609342 33.1321751,13.7935274 C35.2216898,14.3402388 35.783622,17.4564935 37.8676811,18.0414747 C39.6735019,18.5499162 41.4356775,16.6309594 41.4738671,14.7612065 C41.5120567,12.8914537 40.3827367,11.1911814 39.2261384,9.71506075 C39.2261384,9.67679095 27.6710673,-2.49300377 19.0565927,10.0594889 Z"
                                  id="Path" fill="#193441"></path>
                            <path d="M17.1798484,12.2354001 C15.972398,14.1045479 15.5216917,16.3647691 15.9195928,18.5553833 C15.9850606,18.8943444 16.1323632,19.2879765 16.465158,19.3371806 C16.6647537,19.3457497 16.8600244,19.2772614 17.0107232,19.1458316 C18.691064,17.9375995 19.0293144,15.4336615 20.7041996,14.2254294 C21.92081,13.339757 23.7593648,13.2085463 24.4740552,11.8800377 C25.4888065,10.0048178 23.3829248,8.47402597 21.702584,8.75284876 C20.0222431,9.03167155 18.1127649,10.8030163 17.1798484,12.2354001 Z"
                                  id="Path" fill="#193441"></path>
                            <path d="M42.3249488,36.2041555 C41.1813927,35.9690888 40.0177128,35.9037268 38.8606097,36.0095692 L28.8112986,50.2792303 L19.6348918,36.0095692 C18.4167094,35.897911 17.1917126,35.9566893 15.9850606,36.1846969 C17.076191,38.9283635 14.1737841,55.9546637 14.1737841,55.9546637 L44.2780723,55.9546637 C44.2780723,55.9546637 41.2501854,38.9413359 42.3249488,36.2041555 Z"
                                  id="Path" fill="#4B78FF"></path>
                        </g>
                    </g>
                </g>
                <g id="Group" transform="translate(112.258065, 142.692346)" fill-rule="nonzero">
                    <g opacity="0.7" transform="translate(0.000000, 6.619640)" id="Path">
                        <path d="M8.37592812,11.3140683 C8.78629028,10.7092896 8.87954976,9.93875371 8.62563175,9.25094713 C8.30253094,8.66652603 7.78470174,8.21854889 7.16540837,7.98769914 C6.54922201,7.76154637 5.96514384,7.45364246 5.42833968,7.07198225 C4.88875878,6.66835411 4.64750902,5.97008042 4.82036563,5.31226123 C5.02356409,4.92919079 5.29829483,4.5900456 5.62918824,4.31379884 C5.96259949,4.02957514 6.11839867,3.58415232 6.03631372,3.14984545 C5.87346353,2.6754379 5.3089162,2.52097963 4.83665065,2.38307046 C3.45446318,1.98316808 2.21218486,1.19319709 1.25394647,0.104810969 C0.855868222,1.52067845 0.513882823,2.95125624 0.227990266,4.39654434 C0.103138454,5.03644289 0.0379983777,5.82528335 0.548262307,6.21694539 C1.05852624,6.60860743 2.03019904,6.26107633 2.65988644,6.64170564 C3.12940284,7.02629157 3.34042731,7.65033084 3.20272041,8.24696838 C3.06388148,8.83098088 2.98564806,9.42817084 2.9693018,10.0287549 C3.10558827,10.9110039 3.65378137,11.6715966 4.44038186,12.0698106 C4.98321582,12.3787271 6.1285955,12.8862329 6.77456792,12.7814219 C7.42054034,12.6766109 8.05565608,11.8381232 8.37592812,11.3140683 Z"
                              fill="#C9E1FF"></path>
                        <path d="M0.227990266,4.41309345 C0.488550571,3.10019815 0.796156486,1.79833558 1.15080801,0.507505746 C1.33829284,1.33834762 1.74561018,2.10133838 2.32875772,2.71405247 C2.74308571,3.16073328 3.10721558,3.65287939 3.41442566,4.18140604 C3.6488562,4.79367482 3.7986558,5.43600602 3.85954951,6.09006895 C4.16353653,7.57397163 4.94521745,8.67724499 5.74861172,9.95152572 C6.31800822,10.8146776 6.68905559,11.7969303 6.83427965,12.8255528 L6.77999626,12.8255528 C6.13402383,12.9303638 4.99950084,12.422858 4.4458102,12.1139415 C3.65920971,11.7157275 3.11101661,10.9551348 2.97473014,10.0728858 C2.9910366,9.47229853 3.06927057,8.87510436 3.20814875,8.29109931 C3.34585565,7.69446178 3.13483118,7.0704225 2.66531478,6.68583657 C2.04105572,6.30520726 1.13452299,6.68583657 0.553690647,6.26107633 C-0.0271416984,5.83631608 0.103138454,5.04195926 0.227990266,4.41309345 Z"
                              fill="#A8CFFF"></path>
                    </g>
                    <g opacity="0.7" transform="translate(14.656517, 0.000000)" id="Path">
                        <path d="M1.58507519,17.3434572 C0.834790828,16.6949607 0.445298764,15.7136864 0.542833968,14.7176666 C0.761451224,13.8243537 1.28948691,13.0409984 2.03019904,12.5111199 C2.76116672,11.9948043 3.42189006,11.3827201 3.995258,10.6907189 C4.57054188,9.96946134 4.64827532,8.96228799 4.19067823,8.15870651 C3.79205857,7.72714071 3.31451532,7.3786333 2.78473825,7.13266228 C2.24756937,6.87671435 1.88987429,6.34415111 1.85106383,5.74253785 C1.89991889,5.06402473 2.58931803,4.63926448 3.16472203,4.30828248 C4.8446785,3.29250818 6.20727379,1.81410144 7.09483996,0.0441309345 C8.10451114,1.76523738 9.04542335,3.52679718 9.91757659,5.32881034 C10.3029887,6.12316716 10.6558308,7.13817865 10.1184252,7.83875723 C9.51045111,8.63311405 8.18050789,8.42349211 7.49110875,9.1406198 C6.94827479,9.72535468 7.00798652,10.6907189 7.31197354,11.4464611 C7.69622107,12.1637362 8.00551298,12.9199229 8.23479129,13.7026551 C8.36317312,14.9124361 7.90090949,16.1094995 6.99712984,16.9076643 C6.37829912,17.5089482 5.05921258,18.5625743 4.17439321,18.6673853 C3.28957384,18.7721962 2.17133587,17.9171594 1.58507519,17.3434572 Z"
                              fill="#C9E1FF"></path>
                        <path d="M9.92843327,5.36190854 C9.13951457,3.72538638 8.28907469,2.12196243 7.37711362,0.551636681 C7.41205007,1.70810136 7.13617654,2.85237545 6.57914769,3.86145676 C6.18425375,4.59613185 5.871099,5.37321228 5.64547326,6.17833082 C5.45005304,7.06646588 5.64547326,7.95460094 5.71604168,8.84825236 C5.82460847,10.9058572 5.14606601,12.6435127 4.54352031,14.5687247 C4.09210618,15.9041732 3.94183765,17.3256524 4.1038248,18.7280653 L4.17982155,18.7280653 C5.06464092,18.6398034 6.38372746,17.5696283 7.00255818,16.9683443 C7.90633783,16.1701795 8.36860146,14.9731162 8.24021963,13.7633352 C8.01094132,12.980603 7.70164941,12.2244162 7.31740188,11.5071412 C7.0188432,10.7513989 6.93198977,9.78603472 7.49653709,9.20129983 C8.19136457,8.48417215 9.51587945,8.69379409 10.1238535,7.89943727 C10.6666875,7.17127685 10.3138454,6.16178172 9.92843327,5.36190854 Z"
                              fill="#A8CFFF"></path>
                    </g>
                    <path d="M15.0799276,13.7412697 C12.5991764,13.6640406 12.8217383,11.534723 12.8217383,11.534723 L11.1606664,11.4850757 L9.49959443,11.534723 C9.49959443,11.534723 9.72215636,13.6750733 7.24140513,13.7412697 C6.06345542,13.7798843 11.4212267,16.4277404 11.4212267,16.4277404 C11.4212267,16.4277404 16.4315842,13.790917 15.0799276,13.7412697 Z"
                          id="Path" fill="#FFC0A9"></path>
                    <path d="M9.42902602,12.1911706 C9.37806064,12.4134736 9.29578731,12.6271372 9.18475073,12.8255528 C9.96100331,14.5356265 12.1160542,14.7562812 13.0822986,12.7097091 C13.0000809,12.5467782 12.9433091,12.3718398 12.9140201,12.1911706 L9.42902602,12.1911706 Z"
                          id="Path" fill="#FFAF96"></path>
                    <path d="M7.31197354,6.20591266 C7.53996381,3.72906396 9.32588756,2.30584133 11.0792413,2.34445589 C12.832595,2.38307046 14.5859487,3.8559404 14.7542272,6.33830546 C14.8008433,7.66246512 14.6526444,8.98627702 14.3145317,10.2659586 C14.1887777,10.7909699 13.9370043,11.276149 13.5817059,11.6781485 C12.7891683,12.5607672 11.7523554,13.2668622 10.9435328,13.2503131 C10.1347102,13.233764 9.11961066,12.5000872 8.34335808,11.595403 C7.9999063,11.1821941 7.76133872,10.6897455 7.6485306,10.1611477 C7.342983,8.86715162 7.22954322,7.53400173 7.31197354,6.20591266 L7.31197354,6.20591266 Z"
                          id="Path" fill="#FFC0A9"></path>
                    <path d="M18.9991889,19.9526987 C18.9991889,19.9526987 18.8743371,15.6278672 17.723529,14.5852738 C16.572721,13.5426805 14.6728021,13.7081715 14.6728021,13.7081715 C13.664877,14.495538 12.4417822,14.946461 11.1715231,14.9990013 C9.91643739,14.9523409 8.7095782,14.4958149 7.7299557,13.6971388 C7.7299557,13.6971388 5.77032508,13.5371641 4.61408873,14.5852738 C3.45785237,15.6333835 3.3384289,19.9526987 3.3384289,19.9526987 L18.9991889,19.9526987 Z"
                          id="Path" fill="#E25A1E"></path>
                    <ellipse id="Oval" fill="#193441" cx="9.0436139" cy="8.23593564" rx="1" ry="1"></ellipse>
                    <ellipse id="Oval" fill="#193441" cx="13.0063019" cy="8.23593564" rx="1" ry="1"></ellipse>
                    <path d="M10.0749984,10.7017516 C10.0050169,10.6979019 9.93892774,10.7346637 9.90440446,10.7966439 C9.86988119,10.8586241 9.87288118,10.9351271 9.91214825,10.994119 C10.1650751,11.361364 10.5784277,11.5800893 11.0195295,11.5800893 C11.4606314,11.5800893 11.873984,11.361364 12.1269108,10.994119 C12.1695477,10.9364082 12.1769544,10.8593513 12.1461131,10.7943468 C12.1152717,10.7293423 12.0513313,10.6872427 11.9803457,10.6852025 L10.0749984,10.7017516 Z"
                          id="Path" fill="#FFFFFF"></path>
                    <ellipse id="Oval" fill="#FFAF8A" cx="9.07618394" cy="9.47160181" rx="1" ry="1"></ellipse>
                    <ellipse id="Oval" fill="#FFAF8A" cx="12.9737318" cy="9.47160181" rx="1" ry="1"></ellipse>
                    <path d="M15.3296312,4.24760244 C15.0256442,3.34843465 14.6945155,2.39410319 13.9291196,1.84798288 C13.6812027,1.67333293 13.4001947,1.55309509 13.104012,1.4949354 C12.8783337,1.24349803 12.6050931,1.04087286 12.3006177,0.899167789 C11.192451,0.445664973 9.92661113,0.677211031 9.0436139,1.4949354 C8.74553789,1.5523622 8.46261227,1.67262933 8.21307793,1.84798288 C7.76158997,2.20114768 7.41267635,2.67200361 7.20340675,3.21052548 C6.56829101,3.51944202 5.85717851,3.70699849 5.43376802,4.26966791 C5.07827457,4.73637151 5.0144203,5.36772849 5.26906556,5.89815796 C5.52371082,6.42858744 6.05266812,6.76604626 6.63343109,6.76858207 C6.85056467,7.95460094 7.415112,8.70482682 7.48568041,8.53381945 C7.72452736,7.93253547 7.75166906,6.81822937 8.02851438,6.23901086 L8.06651276,6.17281446 C8.35922646,5.95427145 8.70402643,5.8190661 9.06532726,5.78115241 C9.64615961,5.78115241 10.1509952,6.16729809 10.7589692,6.16729809 C11.4028148,6.08609413 11.9807123,5.72609028 12.3440444,5.17986843 L12.4471829,5.06402473 L12.6100331,5.14677023 C13.152867,5.4170722 13.8151245,5.67082508 14.0919698,6.25004359 C14.3688151,6.82926211 14.4068135,7.9435682 14.6348038,8.54485218 C14.7650839,8.82618689 16.1547389,6.70238567 15.3296312,4.24760244 Z"
                          id="Path" fill="#4B78FF"></path>
                </g>
            </g>
        </g>
    </g>
</svg>