<?xml version="1.0" encoding="UTF-8"?>
<svg width="28px" height="40px" viewBox="0 0 25 39" version="1.1" xmlns="http://www.w3.org/2000/svg">
    <!-- Generator: Sketch 59.1 (86144) - https://sketch.com -->
    <title>#1Asset 1</title>
    <desc>Created with Sketch.</desc>
    <g id="Home" stroke="none" stroke-width="1" fill="none" fill-rule="evenodd">
        <g id="Home2" transform="translate(-37.000000, -496.000000)" fill-rule="nonzero">
            <g id="section2" transform="translate(15.000000, 387.000000)">
                <g id="challenges" transform="translate(0.000000, 35.000000)">
                    <g id="row" transform="translate(16.000000, 64.000000)">
                        <g id="#1Asset-1" transform="translate(6.000000, 10.000000)">
                            <path d="M5.63,20.81 L5.63,38.81 C5.62651298,38.8731814 5.66304956,38.9317557 5.72132607,38.9564111 C5.77960258,38.9810665 5.84708352,38.9664997 5.89,38.92 L13,31.83 L20.07,39 C20.1129165,39.0464997 20.1803974,39.0610665 20.2386739,39.0364111 C20.2969504,39.0117557 20.333487,38.9531814 20.33,38.89 L20.33,20.89 L5.63,20.81 Z" id="Path" fill="#FF5C4D"></path>
                            <polygon id="Path" fill="#FF7366" points="7.37 22.54 18.59 22.54 18.59 35.02 12.98 29.38 7.37 35.02"></polygon>
                            <path d="M23.88,13.64 C24.102146,13.1980823 24.0475162,12.6673936 23.74,12.28 L23,11.33 C22.8066234,11.090026 22.7071067,10.7879218 22.72,10.48 L22.77,9.28 C22.7933272,8.78232911 22.5235063,8.3169859 22.08,8.09 L21,7.54 C20.725539,7.39659733 20.5123701,7.1585587 20.4,6.87 L19.96,5.75 C19.7770619,5.28430902 19.3395559,4.96789844 18.84,4.94 L17.63,4.87 C17.3222354,4.85265204 17.0310684,4.72482263 16.81,4.51 L15.95,3.67 C15.5939661,3.32036196 15.0682136,3.20742253 14.6,3.38 L13.47,3.8 C13.179728,3.90804467 12.860272,3.90804467 12.57,3.8 L11.42,3.38 C10.9517864,3.20742253 10.4260339,3.32036196 10.07,3.67 L9.21,4.51 C8.98893159,4.72482263 8.69776461,4.85265204 8.39,4.87 L7.18,4.94 C6.68044408,4.96789844 6.2429381,5.28430902 6.06,5.75 L5.63,6.87 C5.51762991,7.1585587 5.30446099,7.39659733 5.03,7.54 L3.96,8.09 C3.51649366,8.3169859 3.24667281,8.78232911 3.27,9.28 L3.32,10.48 C3.33289332,10.7879218 3.23337664,11.090026 3.04,11.33 L2.29,12.27 C1.98248376,12.6573936 1.92785404,13.1880823 2.15,13.63 L2.69,14.71 C2.82694513,14.9859337 2.85893078,15.3022362 2.78,15.6 L2.48,16.76 C2.35745487,17.240113 2.52533469,17.7476566 2.91,18.06 L3.84,18.82 C4.08023619,19.0163083 4.2403064,19.2937633 4.29,19.6 L4.49,20.79 C4.5798195,21.2720308 4.93711198,21.6603922 5.41,21.79 L6.58,22.11 C6.87958812,22.1922242 7.13904735,22.3805987 7.31,22.64 L7.98,23.64 C8.25497995,24.0562621 8.74675706,24.2748297 9.24,24.2 L10.42,24 C10.7266321,23.9555998 11.0390017,24.0230433 11.3,24.19 L12.3,24.84 C12.7213349,25.1067278 13.2586651,25.1067278 13.68,24.84 L14.68,24.19 C14.9518867,24.0132872 15.2803529,23.9454518 15.6,24 L16.8,24.18 C17.2932429,24.2548297 17.7850201,24.0362621 18.06,23.62 L18.73,22.62 C18.9009527,22.3605987 19.1604119,22.1722242 19.46,22.09 L20.63,21.77 C21.102888,21.6403922 21.4601805,21.2520308 21.55,20.77 L21.75,19.58 C21.7996936,19.2737633 21.9597638,18.9963083 22.2,18.8 L23.13,18.04 C23.5146653,17.7276566 23.6825451,17.220113 23.56,16.74 L23.26,15.58 C23.1810692,15.2822362 23.2130549,14.9659337 23.35,14.69 L23.88,13.64 Z" id="Path" fill="#E7B700"></path>
                            <path d="M22.13,13.73 C22.3182183,13.3547453 22.2672383,12.9037683 22,12.58 L21.37,11.79 C21.2097974,11.5890411 21.1280606,11.3367232 21.14,11.08 L21.14,10.08 C21.1588641,9.66192429 20.9322584,9.27122466 20.56,9.08 L19.66,8.62 C19.4274077,8.50175927 19.2460352,8.30260521 19.15,8.06 L18.78,7.12 C18.6274081,6.728393 18.2596895,6.46238379 17.84,6.44 L16.84,6.38 C16.5801497,6.36322601 16.3351084,6.253135 16.15,6.07 L15.43,5.36 C15.1313652,5.06834686 14.6913961,4.97490209 14.3,5.12 L13.35,5.47 C13.1050338,5.56207979 12.8349662,5.56207979 12.59,5.47 L11.64,5.12 C11.2486039,4.97490209 10.8086348,5.06834686 10.51,5.36 L9.79,6.07 C9.6048916,6.253135 9.3598503,6.36322601 9.1,6.38 L8.1,6.44 C7.68031049,6.46238379 7.31259187,6.728393 7.16,7.12 L6.79,8.06 C6.69396476,8.30260521 6.51259232,8.50175927 6.28,8.62 L5.38,9.08 C5.00774164,9.27122466 4.78113585,9.66192429 4.8,10.08 L4.8,11.08 C4.81193938,11.3367232 4.73020262,11.5890411 4.57,11.79 L4,12.58 C3.74026116,12.9037347 3.69336183,13.3492783 3.88,13.72 L4.33,14.62 C4.44771815,14.8517362 4.47618864,15.1186471 4.41,15.37 L4.15,16.37 C4.04585976,16.7724925 4.18662705,17.1987045 4.51,17.46 L5.29,18.1 C5.49123203,18.2634737 5.62626498,18.4944511 5.67,18.75 L5.84,19.75 C5.90676621,20.1624056 6.20745184,20.4982363 6.61,20.61 L7.61,20.88 C7.85987985,20.9480151 8.07661291,21.1043472 8.22,21.32 L8.78,22.16 C9.01214791,22.5091405 9.4253897,22.6923704 9.84,22.63 L10.84,22.48 C11.0978922,22.4422949 11.3607202,22.4991226 11.58,22.64 L12.43,23.18 C12.7838548,23.4052755 13.2361452,23.4052755 13.59,23.18 L14.44,22.64 C14.6592798,22.4991226 14.9221078,22.4422949 15.18,22.48 L16.18,22.63 C16.5946103,22.6923704 17.0078521,22.5091405 17.24,22.16 L17.8,21.32 C17.9433871,21.1043472 18.1601201,20.9480151 18.41,20.88 L19.41,20.61 C19.8125482,20.4982363 20.1132338,20.1624056 20.18,19.75 L20.35,18.75 C20.393735,18.4944511 20.528768,18.2634737 20.73,18.1 L21.51,17.46 C21.833373,17.1987045 21.9741402,16.7724925 21.87,16.37 L21.61,15.37 C21.5438114,15.1186471 21.5722819,14.8517362 21.69,14.62 L22.13,13.73 Z" id="Path" fill="#FFF64D"></path>
                            <polygon id="Path" fill="#FF5C4D" points="14 18.68 12.29 18.68 12.29 11.95 10.71 12 10.71 10.79 14 10.21"></polygon>
                            <path d="M3.43,2 C3.57238467,2.68158075 4.10738702,3.21264926 4.79,3.35 C4.08704735,3.49728761 3.5468213,4.06134716 3.43,4.77 C3.27771587,4.06795155 2.70964396,3.53165989 2,3.42 C2.70295265,3.27271239 3.2431787,2.70865284 3.36,2 L3.43,2 Z" id="Path" fill="#FFF64D"></path>
                            <path d="M7.41,-3.66373598e-14 C7.54442754,0.697289596 8.08473175,1.24548146 8.78,1.39 C8.07006273,1.54153195 7.52599539,2.11339834 7.41,2.83 C7.26262622,2.12892862 6.70502125,1.58714224 6,1.46 C6.7042475,1.29493218 7.23579085,0.715787944 7.34,-3.66373598e-14 L7.41,-3.66373598e-14 Z" id="Path" fill="#FFD400"></path>
                            <path d="M23.18,22.57 C23.3209043,23.2487429 23.8512571,23.7790957 24.53,23.92 C23.8512571,24.0609043 23.3209043,24.5912571 23.18,25.27 C23.0010402,24.6021334 22.4436226,24.1035979 21.76,24 C22.4387429,23.8590957 22.9690957,23.3287429 23.11,22.65 L23.18,22.57 Z" id="Path" fill="#FFF64D"></path>
                            <circle id="Oval" fill="#FF7366" cx="0.81" cy="6.81" r="1"></circle>
                            <circle id="Oval" fill="#FF7366" cx="24.36" cy="21.37" r="1"></circle>
                        </g>
                    </g>
                </g>
            </g>
        </g>
    </g>
</svg>