<?xml version="1.0" encoding="UTF-8"?>
<svg width="28px" height="40px" viewBox="0 0 30 41" version="1.1" xmlns="http://www.w3.org/2000/svg">
    <!-- Generator: Sketch 59.1 (86144) - https://sketch.com -->
    <title>Asset 2</title>
    <desc>Created with Sketch.</desc>
    <g id="Home" stroke="none" stroke-width="1" fill="none" fill-rule="evenodd">
        <g id="Home2" transform="translate(-35.000000, -555.000000)" fill-rule="nonzero">
            <g id="section2" transform="translate(15.000000, 387.000000)">
                <g id="challenges" transform="translate(0.000000, 35.000000)">
                    <g id="row2" transform="translate(16.000000, 124.000000)">
                        <g id="Asset-2" transform="translate(4.000000, 9.000000)">
                            <path d="M6.62,21.23 L6.62,39.85 C6.59071762,39.9253891 6.62229826,40.0107755 6.6935891,40.048967 C6.76487994,40.0871585 6.85346085,40.0661444 6.9,40 L14.59,32.64 L22.27,40 C22.3145104,40.0505239 22.3858894,40.0679457 22.4485604,40.0431537 C22.5112314,40.018533 22.5517816,39.9573102 22.5500564,39.89 L22.5500564,21.23 L6.62,21.23 Z" id="Path" fill="#3081F2"></path>
                            <polygon id="Path" fill="#4D97FF" points="8.5 23 20.67 23 20.67 35.89 14.59 30.07 8.5 35.89"></polygon>
                            <path d="M26.41,13.82 C26.6515604,13.3617919 26.588087,12.8024325 26.25,12.41 L25.43,11.41 C25.2223645,11.1651305 25.1151751,10.8507083 25.13,10.53 L25.19,9.29 C25.2108034,8.76629952 24.9150886,8.2813273 24.44,8.06 L23.28,7.49 C22.9864996,7.34687973 22.7553586,7.1015147 22.63,6.8 L22.15,5.64 C21.9393556,5.15406432 21.4691881,4.83155275 20.94,4.81 L19.63,4.74 C19.2981865,4.72061533 18.9834889,4.58625008 18.74,4.36 L17.81,3.49 C17.4138689,3.13185143 16.8529375,3.02043354 16.35,3.2 L15.12,3.64 C14.7970592,3.75771433 14.4429408,3.75771433 14.12,3.64 L12.9,3.23 C12.3970625,3.05043354 11.8361311,3.16185143 11.44,3.52 L10.51,4.39 C10.2665111,4.61625008 9.9518135,4.75061533 9.62,4.77 L8.3,4.85 C7.77081191,4.87155275 7.30064443,5.19406432 7.09,5.68 L6.61,6.83 C6.49457433,7.12484611 6.27846874,7.36929341 6,7.52 L4.84,8.09 C4.32959552,8.28306079 3.99409118,8.774335 4,9.32 L4.06,10.56 C4.07482487,10.8807083 3.96763547,11.1951305 3.76,11.44 L2.94,12.44 C2.60191303,12.8324325 2.53843963,13.3917919 2.78,13.85 L3.37,14.96 C3.51980421,15.2425802 3.55559258,15.5718332 3.47,15.88 L3.14,17.08 C3.00232677,17.5817424 3.18461146,18.1167083 3.6,18.43 L4.6,19.22 C4.85721308,19.4163831 5.03193292,19.70164 5.09,20.02 L5.3,21.25 C5.39882227,21.7656955 5.78973545,22.1761543 6.3,22.3 L7.56,22.63 C7.87894543,22.7108262 8.15887818,22.9021726 8.35,23.17 L9.07,24.17 C9.38074255,24.6062274 9.91049586,24.8305026 10.44,24.75 L11.74,24.56 C12.0853412,24.5004093 12.4405791,24.5679045 12.74,24.75 L13.85,25.42 C14.3117784,25.6964837 14.8882216,25.6964837 15.35,25.42 L16.46,24.75 C16.7594209,24.5679045 17.1146588,24.5004093 17.46,24.56 L18.76,24.75 C19.2895041,24.8305026 19.8192575,24.6062274 20.13,24.17 L20.85,23.17 C21.0411218,22.9021726 21.3210546,22.7108262 21.64,22.63 L22.9,22.3 C23.4102646,22.1761543 23.8011777,21.7656955 23.9,21.25 L24.09,20 C24.1480671,19.68164 24.3227869,19.3963831 24.58,19.2 L25.58,18.41 C25.9953885,18.0967083 26.1776732,17.5617424 26.04,17.06 L25.71,15.86 C25.6244074,15.5518332 25.6601958,15.2225802 25.81,14.94 L26.41,13.82 Z" id="Path" fill="#8C8C8C"></path>
                            <path d="M24.51,13.91 C24.7145153,13.5275641 24.6628654,13.0587414 24.38,12.73 L23.69,11.92 C23.5155101,11.7141484 23.4261007,11.4494966 23.44,11.18 L23.44,10.18 C23.4446313,9.75186281 23.1981781,9.36066727 22.81,9.18 L21.81,8.7 C21.5621279,8.58012951 21.3665496,8.37388321 21.26,8.12 L20.86,7.12 C20.6863096,6.71597054 20.2990761,6.44490709 19.86,6.42 L18.76,6.36 C18.496393,6.31998743 18.2536191,6.19332277 18.07,6 L17.29,5.27 C16.962823,4.95693226 16.4882221,4.85275158 16.06,5 L15,5.4 C14.7347128,5.49379317 14.4452872,5.49379317 14.18,5.4 L13.18,5.03 C12.770206,4.89737227 12.3208019,4.992585 12,5.28 L11.17,6 C10.9650153,6.19093956 10.6996878,6.30414595 10.42,6.32 L9.32,6.38 C8.88092392,6.40490709 8.49369042,6.67597054 8.32,7.08 L7.92,8.08 C7.81345045,8.33388321 7.61787206,8.54012951 7.37,8.66 L6.37,9.14 C5.9818219,9.32066727 5.73536871,9.71186281 5.74,10.14 L5.74,11.14 C5.75389929,11.4094966 5.66448993,11.6741484 5.49,11.88 L4.8,12.69 C4.51713464,13.0187414 4.46548468,13.4875641 4.67,13.87 L5.16,14.8 C5.29231626,15.0341236 5.32475711,15.3116731 5.25,15.57 L4.97,16.57 C4.85785614,16.9909375 5.01209675,17.4378398 5.36,17.7 L6.21,18.36 C6.42518478,18.5246172 6.57135044,18.7634732 6.62,19.03 L6.8,20.03 C6.85952851,20.5135396 7.22226407,20.9044879 7.7,21 L8.76,21.28 C9.02782881,21.349694 9.26191614,21.5128458 9.42,21.74 L10.03,22.61 C10.2922212,22.9739652 10.736836,23.1595436 11.18,23.09 L12.27,22.93 C12.5471263,22.8899479 12.8295958,22.9464418 13.07,23.09 L14,23.65 C14.3874995,23.8836683 14.8725005,23.8836683 15.26,23.65 L16.19,23.09 C16.4304042,22.9464418 16.7128737,22.8899479 16.99,22.93 L18.08,23.09 C18.523164,23.1595436 18.9677788,22.9739652 19.23,22.61 L19.84,21.74 C19.9980839,21.5128458 20.2321712,21.349694 20.5,21.28 L21.54,21 C21.9674817,20.895282 22.2952674,20.5518875 22.38,20.12 L22.56,19.12 C22.6086496,18.8534732 22.7548152,18.6146172 22.97,18.45 L23.82,17.79 C24.1679032,17.5278398 24.3221439,17.0809375 24.21,16.66 L23.93,15.66 C23.8552429,15.4016731 23.8876837,15.1241236 24.02,14.89 L24.51,13.91 Z" id="Path" fill="#CCCCCC"></path>
                            <path d="M17.33,19.14 L11.82,19.14 L11.82,18 L14.37,14.95 C14.6563304,14.581369 14.9011429,14.1822911 15.1,13.76 C15.23601,13.4717922 15.3109136,13.1585591 15.32,12.84 C15.3348131,12.5206162 15.2547868,12.2039905 15.09,11.93 C14.9358398,11.6963456 14.6695416,11.5617191 14.3899835,11.5761081 C14.1104254,11.5904971 13.8593565,11.7517528 13.73,12 C13.5563767,12.3397982 13.4736936,12.7187626 13.49,13.1 L11.71,13.1 L11.71,13.1 C11.6831026,12.3654286 11.9410633,11.6488711 12.43,11.1 C12.9402617,10.5399589 13.6731351,10.2358164 14.43,10.27 C15.1635643,10.2256791 15.8841844,10.4778961 16.43,10.97 C16.927033,11.4817264 17.1879992,12.1776365 17.15,12.89 C17.150585,13.4164353 17.0126328,13.9337562 16.75,14.39 C16.3528791,15.0284851 15.9047505,15.6337932 15.41,16.2 L14.19,17.85 L17.34,17.85 L17.33,19.14 Z" id="Path" fill="#3081F2"></path>
                            <path d="M1.58,7.36 C1.74321516,8.05978939 2.2968855,8.60176246 3,8.75 C2.27761556,8.88063867 1.70081591,9.42604786 1.53,10.14 C1.32324303,9.4396385 0.723847885,8.92643089 4.4408921e-16,8.83 C0.756633457,8.69881073 1.35355353,8.11382906 1.5,7.36 L1.58,7.36 Z" id="Path" fill="#8C8C8C"></path>
                            <path d="M28.5,8.34 C28.6751957,9.06269369 29.2660799,9.61024635 30,9.73 C29.2433665,9.86118927 28.6464465,10.4461709 28.5,11.2 C28.3248043,10.4773063 27.7339201,9.92975365 27,9.81 C27.7223844,9.67936133 28.2991841,9.13395214 28.47,8.42 L28.5,8.34 Z" id="Path" fill="#CCCCCC"></path>
                            <path d="M4.66,1.72 C4.88623514,2.65528764 5.64305946,3.36897689 6.59,3.54 C5.6120011,3.72714143 4.84714143,4.4920011 4.66,5.47 C4.66,5.49761424 4.63761424,5.51999999 4.61,5.51999999 C4.58238576,5.51999999 4.56,5.49761424 4.56,5.47 C4.33574269,4.52793388 3.57353895,3.80894788 2.62,3.64 C3.59897294,3.45793433 4.36779958,2.69703374 4.56,1.72 C4.56,1.69238576 4.58238576,1.67 4.61,1.67 C4.63761424,1.67 4.66,1.69238576 4.66,1.72 Z" id="Path" fill="#CCCCCC"></path>
                            <ellipse id="Oval" fill="#4D97FF" cx="28.13" cy="14.94" rx="1" ry="1"></ellipse>
                            <ellipse id="Oval" fill="#4D97FF" cx="16.33" cy="0.84" rx="1" ry="1"></ellipse>
                            <ellipse id="Oval" fill="#CCCCCC" cx="13.83" cy="1.8" rx="1" ry="1"></ellipse>
                        </g>
                    </g>
                </g>
            </g>
        </g>
    </g>
</svg>