<?xml version="1.0" encoding="UTF-8"?>
<svg width="28px" height="40px" viewBox="0 0 28 41" version="1.1" xmlns="http://www.w3.org/2000/svg">
    <!-- Generator: Sketch 59.1 (86144) - https://sketch.com -->
    <title>#3Asset 3</title>
    <desc>Created with Sketch.</desc>
    <g id="Home" stroke="none" stroke-width="1" fill="none" fill-rule="evenodd">
        <g id="Home2" transform="translate(-36.000000, -615.000000)" fill-rule="nonzero">
            <g id="section2" transform="translate(15.000000, 387.000000)">
                <g id="challenges" transform="translate(0.000000, 35.000000)">
                    <g id="row3" transform="translate(16.000000, 184.000000)">
                        <g id="#3Asset-3" transform="translate(5.000000, 9.000000)">
                            <path d="M7.05,19.93 L7.05,39.84 C7.04349763,39.9091868 7.08239802,39.9746604 7.14627094,40.0020345 C7.21014385,40.0294086 7.28438362,40.0124236 7.33,39.96 L15.05,32.09 L22.78,40 C22.8256164,40.0524236 22.8998561,40.0694086 22.9637291,40.0420345 C23.027602,40.0146604 23.0665024,39.9491868 23.06,39.88 L23.06,19.93 L7.05,19.93 Z" id="Path" fill="#1E995C"></path>
                            <polygon id="Path" fill="#36B375" points="8.94 21.83 21.16 21.83 21.16 35.6 15.05 29.38 8.94 35.6"></polygon>
                            <path d="M26.93,12 C27.1753884,11.5084773 27.1129466,10.9191826 26.77,10.49 L25.95,9.49 C25.7400509,9.22302487 25.6335234,8.88923864 25.65,8.55 L25.71,7.22 C25.7501212,6.67673697 25.473714,6.15896005 25,5.89 L23.83,5.28 C23.5289062,5.12455705 23.2944072,4.86518699 23.17,4.55 L22.65,3.3 C22.4519113,2.79063412 21.9755243,2.44310587 21.43,2.41 L20.11,2.33 C19.771235,2.31098036 19.4511252,2.16870933 19.21,1.93 L18.28,1 C17.8928543,0.617960487 17.3184489,0.496827385 16.81,0.69 L15.58,1.16 C15.2582091,1.28405603 14.9017909,1.28405603 14.58,1.16 L13.36,0.69 C12.8515511,0.496827385 12.2771457,0.617960487 11.89,1 L11,1.93 C10.7588748,2.16870933 10.438765,2.31098036 10.1,2.33 L8.78,2.41 C8.23447573,2.44310587 7.75808869,2.79063412 7.56,3.3 L7,4.54 C6.87559277,4.85518699 6.64109382,5.11455705 6.34,5.27 L5.17,5.88 C4.69970525,6.1473623 4.42384505,6.66022915 4.46,7.2 L4.52,8.53 C4.53647661,8.86923864 4.42994909,9.20302487 4.22,9.47 L3.4,10.47 C3.04864882,10.9034236 2.98592048,11.5032634 3.24,12 L3.83,13.19 C3.98502699,13.4997363 4.02062322,13.8556987 3.93,14.19 L3.6,15.46 C3.46132852,15.9885842 3.64057296,16.5496972 4.06,16.9 L5.06,17.74 C5.32189051,17.9580356 5.4959568,18.2635397 5.55,18.6 L5.77,19.91 C5.87337551,20.4420903 6.27460822,20.8666958 6.8,21 L8.07,21.35 C8.39461285,21.4418368 8.67514796,21.6477993 8.86,21.93 L9.59,23.04 C9.88115544,23.5272566 10.439328,23.7885288 11,23.7 L12.3,23.5 C12.6479059,23.440498 13.0054186,23.5155757 13.3,23.71 L14.41,24.43 C14.8670947,24.7229345 15.4529053,24.7229345 15.91,24.43 L17.02,23.71 C17.3145814,23.5155757 17.6720941,23.440498 18.02,23.5 L19.32,23.7 C19.8586864,23.7795179 20.3941947,23.537171 20.69,23.08 L21.31,22 C21.494852,21.7177993 21.7753871,21.5118368 22.1,21.42 L23.37,21 C23.8951692,20.8505669 24.2855433,20.4094442 24.37,19.87 L24.59,18.56 C24.6440432,18.2235397 24.8181095,17.9180356 25.08,17.7 L26.08,16.86 C26.499427,16.5096972 26.6786715,15.9485842 26.54,15.42 L26.21,14.14 C26.1193768,13.8056987 26.154973,13.4497363 26.31,13.14 L26.93,12 Z" id="Path" fill="#BF7225"></path>
                            <path d="M25,12.11 C25.2023682,11.6999101 25.1518356,11.2101323 24.87,10.85 L24.2,10 C24.0239084,9.77554575 23.9350952,9.49489614 23.95,9.21 L24,8.07 C24.0078919,7.62054401 23.7597284,7.20564567 23.36,7 L22.36,6.49 C22.1077319,6.3566331 21.9123373,6.1363701 21.81,5.87 L21.41,4.87 C21.2493364,4.44796538 20.860139,4.15606737 20.41,4.12 L19.3,4 C19.0170591,3.98129529 18.7505393,3.86047296 18.55,3.66 L17.76,2.88 C17.4365779,2.55941224 16.9554919,2.45771927 16.53,2.62 L15.5,3 C15.2357821,3.09983104 14.9442179,3.09983104 14.68,3 L13.68,2.61 C13.2545081,2.44771927 12.7734221,2.54941224 12.45,2.87 L11.66,3.65 C11.4594607,3.85047296 11.1929409,3.97129529 10.91,3.99 L9.81,4.06 C9.35986096,4.09606737 8.97066361,4.38796538 8.81,4.81 L8.41,5.81 C8.30766274,6.0763701 8.11226814,6.2966331 7.86,6.43 L6.81,7 C6.40415892,7.21316463 6.1585032,7.64208732 6.18,8.1 L6.23,9.21 C6.25059964,9.49239947 6.16896674,9.77279075 6,10 L5.31,10.87 C5.02816439,11.2301323 4.97763176,11.7199101 5.18,12.13 L5.67,13.13 C5.79680996,13.3838596 5.82872912,13.6746787 5.76,13.95 L5.46,15 C5.34304621,15.4448724 5.49527041,15.9171578 5.85,16.21 L6.7,16.92 C6.91920347,17.1025518 7.06485566,17.3583312 7.11,17.64 L7.29,18.74 C7.365143,19.1891784 7.69206446,19.5550191 8.13,19.68 L9.2,20 C9.47571347,20.0759593 9.71405825,20.2502712 9.87,20.49 L10.48,21.42 C10.7289655,21.8029531 11.1780265,22.0060068 11.63,21.94 L12.72,21.77 C13.0017183,21.7251413 13.2900881,21.7856633 13.53,21.94 L14.46,22.54 C14.8433953,22.7879836 15.3366047,22.7879836 15.72,22.54 L16.65,21.94 C16.8899119,21.7856633 17.1782817,21.7251413 17.46,21.77 L18.55,21.94 C19.0019735,22.0060068 19.4510345,21.8029531 19.7,21.42 L20.31,20.49 C20.4708024,20.2462925 20.7169165,20.0715158 21,20 L22.07,19.7 C22.5079355,19.5750191 22.834857,19.2091784 22.91,18.76 L23.09,17.66 C23.1351443,17.3783312 23.2807965,17.1225518 23.5,16.94 L24.35,16.23 C24.7052216,15.928919 24.8501618,15.4470906 24.72,15 L24.44,13.92 C24.3712709,13.6446787 24.40319,13.3538596 24.53,13.1 L25,12.11 Z" id="Path" fill="#D98D42"></path>
                            <path d="M13.94,12.21 L14.84,12.21 C15.1249107,12.2283765 15.3984547,12.0954037 15.56,11.86 C15.7401107,11.5589429 15.8238549,11.2100088 15.8,10.86 C15.8133948,10.5457153 15.7295904,10.2349404 15.56,9.97 C15.408988,9.74486639 15.1507141,9.61572947 14.88,9.63 C14.6414936,9.63147654 14.4167714,9.74199567 14.27,9.93 C14.090329,10.1530522 13.9979181,10.4338393 14.01,10.72 L12.26,10.72 L12.26,10.72 C12.219378,10.0356587 12.4915786,9.36987053 13,8.91 C13.5045852,8.44237976 14.1723103,8.19108539 14.86,8.21 C15.592008,8.1765778 16.3086045,8.4273866 16.86,8.91 C17.3906235,9.4347953 17.6647139,10.1657032 17.61,10.91 C17.6031226,11.7505943 17.1342655,12.5192124 16.39,12.91 C16.807937,13.0702133 17.1600521,13.3659901 17.39,13.75 C17.6258641,14.1599525 17.7435494,14.6272322 17.73,15.1 C17.7665005,15.8532168 17.4703483,16.5844569 16.92,17.1 C16.3444289,17.5984748 15.6008498,17.8594425 14.84,17.83 C14.1366266,17.8457594 13.4524405,17.59988 12.92,17.14 C12.3607183,16.6331461 12.0750106,15.8910482 12.15,15.14 L12.15,15.14 L13.91,15.14 C13.8980068,15.4600658 13.9969152,15.7744531 14.19,16.03 C14.3504957,16.2506477 14.6071565,16.380838 14.88,16.38 C15.1737887,16.3896788 15.4537906,16.2552779 15.63,16.02 C15.8386231,15.7302525 15.9378269,15.3759535 15.91,15.02 C15.9264323,14.6603885 15.8321964,14.3043863 15.64,14 C15.4391117,13.7706321 15.1445553,13.6454456 14.84,13.66 L13.94,13.66 L13.94,12.21 Z" id="Path" fill="#1E995C"></path>
                            <path d="M3,18.4 C3.14860067,19.2069422 3.7749907,19.8412613 4.58,20 C3.76612925,20.1628457 3.13741863,20.8114522 3,21.63 C2.84333835,20.8404131 2.22856976,20.2217037 1.44,20.06 C2.22777142,19.8607328 2.81667252,19.2046416 2.93,18.4 L3,18.4 Z" id="Path" fill="#D98D42"></path>
                            <path d="M1.37,16.26 C1.50215398,16.9007042 2.00035199,17.402825 2.64,17.54 C1.97703958,17.6886253 1.47295699,18.2284303 1.37,18.9 C1.22731763,18.2262167 0.681140114,17.7119328 2.22044605e-16,17.61 C0.671650066,17.4736567 1.18909005,16.9363152 1.3,16.26 L1.37,16.26 Z" id="Path" fill="#BF7225"></path>
                            <path d="M25.37,0.6 C25.5329825,1.43524086 26.1711936,2.09694434 27,2.29 C26.1585214,2.46760337 25.5025765,3.12747613 25.33,3.97 C25.1574235,3.12747613 24.5014786,2.46760337 23.66,2.29 C24.4849252,2.09350817 25.1185593,1.43249473 25.28,0.6 L25.37,0.6 Z" id="Path" fill="#D98D42"></path>
                            <ellipse id="Oval" fill="#36B375" cx="23.41" cy="0.65" rx="1" ry="1"></ellipse>
                            <ellipse id="Oval" fill="#36B375" cx="4.83" cy="3.68" rx="1" ry="1"></ellipse>
                            <circle id="Oval" fill="#D98D42" cx="6.19" cy="1.4" r="1"></circle>
                            <path d="M26.7,18.7 C26.829411,19.3569712 27.3430288,19.870589 28,20 C27.360352,20.137175 26.862154,20.6392958 26.73,21.28 C26.597846,20.6392958 26.099648,20.137175 25.46,20 C26.099648,19.862825 26.597846,19.3607042 26.73,18.72 L26.7,18.7 Z" id="Path" fill="#36B375"></path>
                        </g>
                    </g>
                </g>
            </g>
        </g>
    </g>
</svg>