<?xml version="1.0" encoding="UTF-8"?>
<svg width="71px" height="32px" viewBox="0 0 71 32" version="1.1" xmlns="http://www.w3.org/2000/svg">
    <!-- Generator: Sketch 56.2 (81672) - https://sketch.com -->
    <title>app_logo</title>
    <desc>Created with Sketch.</desc>
    <g id="Home" stroke="none" stroke-width="1" fill="none" fill-rule="evenodd">
        <g transform="translate(-15.000000, -32.000000)" fill="#FFFFFF" fill-rule="nonzero" id="logo-app">
            <g transform="translate(15.000000, 32.000000)">
                <path d="M9.26785016,2.3209191 L8.92234855,2.468578 L8.50100514,2.64998752 L7.94061839,2.93264886 C6.74652725,3.55965954 5.68376488,4.41038453 4.81003678,5.43863146 C3.51735172,7.02309227 2.64750249,8.91017732 2.28197626,10.9231052 C1.82920013,13.5128089 1.98792399,16.1726685 2.74545402,18.6899637 C3.55021995,21.4111064 5.11761747,24.1997504 7.54876901,26.1024409 C8.15999763,26.5693257 8.81469517,26.9762097 9.50380247,27.3174628 C10.2045973,27.6572348 10.9427792,27.9135219 11.7032151,28.0810702 C12.4814871,28.2579555 13.2773145,28.3457076 14.0753786,28.3426375 C14.496722,28.3426375 14.8885714,28.3173245 15.3014879,28.2920115 C15.7144045,28.2666986 16.1441748,28.2034162 16.5402376,28.1063832 C18.2616367,27.7659107 19.926754,27.1850721 21.4868093,26.3808834 C23.1424689,25.5331792 24.7226522,24.545183 26.2100691,23.4277052 C29.3044079,21.0421204 32.1566195,18.3572433 34.7254196,15.411936 C36.0526514,13.9311281 37.3419622,12.3912566 38.6523403,10.8345098 C39.9627183,9.27776306 41.3194441,7.71257864 42.8067864,6.21911426 C44.3072779,4.66345498 46.0075249,3.31428504 47.8629074,2.2070108 C49.7607057,1.09060861 51.8675198,0.376907775 54.0524423,0.110254308 C55.0991092,-0.00159404533 56.1531027,-0.028400866 57.204091,0.0300966152 C57.4611105,0.0300966152 57.7139166,0.0722848746 57.9667226,0.0933790042 L58.3459317,0.127129612 L58.484975,0.127129612 L58.5271094,0.127129612 L58.6113781,0.127129612 L58.7841289,0.156661393 C59.2775068,0.230101772 59.7658141,0.334369711 60.2461905,0.468854512 L61.0593833,0.700889939 L61.7925209,0.991988928 C62.2773389,1.19069429 62.7475954,1.4233039 63.1998079,1.68809521 C63.4276354,1.80520594 63.6472411,1.93770178 63.8571036,2.08466484 L64.4891188,2.50654744 C64.889395,2.81030291 65.277031,3.12671485 65.6435997,3.45578327 C67.0269761,4.73914188 68.1687108,6.2610212 69.0143471,7.94883289 C69.7802158,9.47982631 70.3303911,11.1097477 70.6491596,12.7920451 C71.2317858,15.6931579 71.08702,18.6936447 70.2278162,21.5250147 C69.8763113,22.6947063 69.365924,23.810478 68.7109798,24.8410119 C68.5711014,25.0794132 68.414827,25.3077812 68.2432886,25.5244617 C68.0789647,25.7396219 67.9272811,25.9463443 67.7629571,26.1530668 L67.257345,26.7099518 L66.9918987,27.0010508 L66.7306658,27.2373051 C66.417362,27.5426306 66.0822046,27.8246359 65.7278684,28.0810702 C65.4198636,28.3088416 65.0944232,28.5119731 64.7545651,28.6885812 C64.4753112,28.8576518 64.1869551,29.011169 63.8908111,29.1484332 L63.1450333,29.469064 C62.6984092,29.6546923 62.3318405,29.7264124 62.1001016,29.8107889 L61.7419597,29.9162595 L62.0790344,29.7475065 C62.298133,29.6293794 62.6352077,29.4901581 63.0396974,29.249685 C64.207027,28.5710486 65.2454437,27.6912639 66.1070775,26.6508883 L66.3177492,26.4061964 L66.5073538,26.1319727 L66.9034166,25.56665 C67.0298196,25.3683652 67.1393689,25.1447674 67.2615585,24.9380449 C67.3915219,24.7230885 67.5055897,24.4988912 67.6028466,24.2672516 C68.0729977,23.2705593 68.4169492,22.2189599 68.6267112,21.1368828 C68.8743102,19.9130828 68.9649287,18.6626487 68.8963709,17.4158783 C68.8401525,16.0428152 68.6252389,14.6808977 68.2559289,13.3573677 C67.4932974,10.6277874 65.9638207,7.80961164 63.5748036,5.87738936 C63.2714363,5.64535393 62.9554287,5.43019381 62.6436346,5.21081486 L62.1464494,4.9239347 C61.9854775,4.8203976 61.8163861,4.73010011 61.6408373,4.65392984 C61.2975636,4.48777784 60.9427038,4.34678024 60.5790518,4.23204724 L60.0313054,4.0464189 L59.513053,3.9325106 C59.0971289,3.83550403 58.674648,3.76923065 58.2490227,3.73422578 L58.0762719,3.71313166 L57.9877898,3.71313166 L57.9456555,3.71313166 C58.1184063,3.73422578 57.9709361,3.71313166 58.0004301,3.71313166 L57.6844225,3.71313166 L57.0524074,3.6878187 C56.2136047,3.67773523 55.3753211,3.73416254 54.5454141,3.85657174 C52.8827496,4.12918686 51.2903905,4.72851944 49.8600752,5.62004098 C48.3403415,6.61002591 46.9466717,7.78163991 45.7098425,9.10901002 C43.0975133,11.8132774 40.6368678,15.0997428 37.8644281,18.2090176 C37.514713,18.5929307 37.1439308,19.0063757 36.8026426,19.3691947 L36.2759634,19.9218609 L35.7155766,20.4956212 C34.9908659,21.2507911 34.2324478,21.9764291 33.4740296,22.7020672 C31.9396397,24.1367603 30.3171072,25.4739274 28.61594,26.705733 C26.9080264,27.950087 25.0851368,29.0279853 23.172183,29.9246972 C22.2134417,30.3721271 21.2285019,30.7609717 20.2227791,31.0890931 C19.209614,31.4087637 18.1726434,31.6471771 17.1216915,31.8020747 C16.5992257,31.8948889 16.0641195,31.915983 15.5374402,31.9666089 C15.010761,32.0172348 14.4756548,32.0045784 13.9405487,31.9666089 C12.8818708,31.9244983 11.8321471,31.7545144 10.8141805,31.4603498 C8.84220606,30.9059508 7.02229736,29.9089863 5.49261312,28.5451411 C4.10811089,27.2798584 2.96083888,25.7767806 2.10501202,24.1069362 C1.31058626,22.5885983 0.730614375,20.9671424 0.381717434,19.289037 C0.0706770973,17.762957 -0.0510283379,16.2042676 0.0193620925,14.6483285 C0.0901263251,13.2582655 0.326345014,11.8816285 0.723005604,10.5476297 C1.35208478,8.3702727 2.55754629,6.40378899 4.21172912,4.85643348 C5.26311772,3.89747929 6.50106425,3.16640037 7.84792283,2.70905108 C8.07966172,2.63311222 8.26926625,2.56139218 8.45465736,2.51498509 L8.90128138,2.40951444 L9.26785016,2.3209191 Z"
                      id="Path"></path>
                <path d="M27,3 L27.2994059,3.22795093 C27.4865347,3.38129973 27.7776238,3.59681698 28.1310891,3.8910809 C28.8338614,4.46717507 29.7944554,5.30852122 30.929703,6.3778183 C32.0649505,7.44711538 33.3207921,8.69462865 34.6348515,10.1079244 C35.2918812,10.8042109 35.9613861,11.5336538 36.6267327,12.2838196 C37.2920792,13.0339854 37.9574257,13.8090186 38.6186139,14.5840517 C39.279802,15.3590849 39.9243564,16.1506963 40.5439604,16.9381631 C41.1635644,17.72563 41.7914851,18.5048077 42.3487129,19.2715517 C43.4964356,20.8008952 44.5235644,22.2680703 45.3677228,23.5570292 C46.2118812,24.8459881 46.8772277,25.9484416 47.3221782,26.7400531 C47.5508911,27.1296419 47.7130693,27.4529178 47.829505,27.6642905 L48,28 L47.7005941,27.7720491 C47.5093069,27.6187003 47.2223762,27.403183 46.8689109,27.1130637 C46.1661386,26.5369695 45.2055446,25.6956233 44.0661386,24.6263263 C42.9267327,23.5570292 41.6708911,22.3095159 40.3609901,20.8962202 C39.7039604,20.1999337 39.0344554,19.4746353 38.3732673,18.7203249 C37.7120792,17.9660146 37.0467327,17.195126 36.3813861,16.4200928 C35.7160396,15.6450597 35.0673267,14.8410146 34.4435644,14.0535477 C33.819802,13.2660809 33.1960396,12.4869032 32.6429703,11.7201592 C31.4952475,10.1908156 30.4681188,8.72364058 29.6239604,7.4346817 C28.779802,6.14572281 28.1144554,5.04326923 27.669505,4.25580239 C27.4407921,3.86621353 27.2786139,3.54293767 27.1621782,3.33156499 L27,3 Z"
                      id="Path"></path>
                <path d="M23,5 L23.2994059,5.22795093 C23.4865347,5.38129973 23.7776238,5.59681698 24.1310891,5.8910809 C24.8338614,6.46717507 25.7944554,7.30852122 26.929703,8.3778183 C28.0649505,9.44711538 29.3207921,10.6946286 30.6348515,12.1079244 C31.2918812,12.8042109 31.9613861,13.5336538 32.6267327,14.2838196 C33.2920792,15.0339854 33.9574257,15.8090186 34.6186139,16.5840517 C35.279802,17.3590849 35.9243564,18.1506963 36.5439604,18.9381631 C37.1635644,19.72563 37.7914851,20.5048077 38.3487129,21.2715517 C39.4964356,22.8008952 40.5235644,24.2680703 41.3677228,25.5570292 C42.2118812,26.8459881 42.8772277,27.9484416 43.3221782,28.7400531 C43.5508911,29.1296419 43.7130693,29.4529178 43.829505,29.6642905 L44,30 L43.7005941,29.7720491 C43.5093069,29.6187003 43.2223762,29.403183 42.8689109,29.1130637 C42.1661386,28.5369695 41.2055446,27.6956233 40.0661386,26.6263263 C38.9267327,25.5570292 37.6708911,24.3095159 36.3609901,22.8962202 C35.7039604,22.1999337 35.0344554,21.4746353 34.3732673,20.7203249 C33.7120792,19.9660146 33.0467327,19.195126 32.3813861,18.4200928 C31.7160396,17.6450597 31.0673267,16.8410146 30.4435644,16.0535477 C29.819802,15.2660809 29.1960396,14.4869032 28.6429703,13.7201592 C27.4952475,12.1908156 26.4681188,10.7236406 25.6239604,9.4346817 C24.779802,8.14572281 24.1144554,7.04326923 23.669505,6.25580239 C23.4407921,5.86621353 23.2786139,5.54293767 23.1621782,5.33156499 L23,5 Z"
                      id="Path"></path>
            </g>
        </g>
    </g>
</svg>