<?xml version="1.0" encoding="UTF-8"?>
<svg width="28px" height="28px" viewBox="0 0 28 28" version="1.1" xmlns="http://www.w3.org/2000/svg">
    <!-- Generator: Sketch 56.2 (81672) - https://sketch.com -->
    <title>IC_Bar/Community/Normal</title>
    <desc>Created with Sketch.</desc>
    <g id="IC_Bar/Community/Normal" stroke="none" stroke-width="1" fill="none" fill-rule="evenodd">
        <g id="ic_community_inactive" transform="translate(2.000000, 4.000000)" stroke="#7B7C7D">
            <path d="M21.6571307,10.5828737 L19.0519142,10.0617609 C18.3834309,9.92748459 17.7015956,10.2120869 17.3392369,10.7545044 L17.0957557,11.1189732 L16.7025486,10.9253012 C16.2757675,10.7150925 15.8164617,10.5338621 15.3278962,10.3833062 L14.9751429,10.2746021 L14.9751429,9.90547945 L14.9751431,8.4196709 C14.9759277,7.57791883 14.2460208,6.87730594 13.3489048,6.87730594 L10.6854286,6.87730594 C9.78398626,6.87730594 9.05609524,7.57622106 9.05609524,8.42013699 L9.05609524,10.2834153 L8.70215571,10.391524 C8.22661789,10.5367742 7.77243628,10.7166695 7.33546531,10.9313956 L6.94166377,11.1249084 L6.698645,10.7595747 C6.33589991,10.2142546 5.65310386,9.9276025 4.9839472,10.0618555 L2.37727432,10.5828402 C1.50222089,10.7583408 0.940938451,11.5819627 1.11982812,12.405046 L1.7743891,15.4033544 C1.95294624,16.2297627 2.82404993,16.7763041 3.70597951,16.5995863 L4.849955,16.3700733 L5.03765467,16.6360358 C5.4192236,17.1767028 5.9466366,17.665168 6.61059034,18.0818751 C8.05123117,18.9873294 9.97167,19.4905479 12.0155714,19.4905479 C15.0572874,19.4905479 17.7607068,18.3423781 18.9873525,16.630178 L19.1755339,16.3675071 L19.4923227,16.4311708 L20.3299081,16.599497 C21.2116258,16.7755601 22.0824436,16.2292808 22.2611582,15.4021507 L22.9162628,12.405942 C23.09457,11.5819331 22.5328341,10.7583512 21.6570463,10.5828568 L21.6571307,10.5828737 Z M12.0145238,19.4671689 C9.99163147,19.4671689 8.0924692,18.9757289 6.66349808,18.072984 C6.16959261,17.7635555 5.74782995,17.4124258 5.40312225,17.0254528 L4.82335065,16.3745941 L5.67786997,16.2026963 L6.31045058,16.0754452 C7.18654,15.9008185 7.74825692,15.0779614 7.56929453,14.2560127 L6.90116331,11.1861674 L7.24225747,11.0103575 C7.61015165,10.8207341 7.99195784,10.657349 8.39177641,10.5192644 L9.055,10.2902082 L9.055,11.483379 C9.055,12.3248028 9.78440872,13.0242466 10.6843333,13.0242466 L13.3478095,13.0242466 C14.2446755,13.0242466 14.9740952,12.3238741 14.9740952,11.483379 L14.9740952,10.2671081 L15.635712,10.4930961 C16.0505711,10.6347992 16.4377003,10.7970353 16.7956726,10.9800693 L17.138691,11.1554573 L17.056551,11.5318555 L16.4620281,14.2561881 C16.2843859,15.0791139 16.8460517,15.9019125 17.7223541,16.0765822 L19.2096966,16.3751352 L18.6370192,17.0253212 C17.3119225,18.5297622 14.7879364,19.4671689 12.0145238,19.4671689 Z"
                  id="Shape" fill-rule="nonzero"></path>
            <ellipse id="Oval" cx="11.971381" cy="2.71913242" rx="2.29495238" ry="2.18009132"></ellipse>
            <ellipse id="Oval" cx="21.1882857" cy="6.24237443" rx="2.29495238" ry="2.18009132"></ellipse>
            <path d="M3.3177862,8.37604218 C4.55842377,8.12703129 5.34549644,6.97186296 5.09295574,5.80013545 C4.83367334,4.6211744 3.6173983,3.85832249 2.3688446,4.10866818 C1.12837597,4.35707733 0.340211695,5.51229456 0.596003225,6.68372297 C0.852385392,7.86235794 2.06902063,8.62573155 3.3177862,8.37604218 Z M3.3177862,8.37604218 C3.31783602,8.37603221 3.31788584,8.37602225 3.31793567,8.37601228 L3.31763674,8.37607217 C3.31768656,8.37606217 3.31773638,8.37605218 3.3177862,8.37604218 Z"
                  id="Path"></path>
        </g>
    </g>
</svg>