<?xml version="1.0" encoding="UTF-8"?>
<svg width="16px" height="16px" viewBox="0 0 16 16" version="1.1" xmlns="http://www.w3.org/2000/svg">
    <!-- Generator: Sketch 59.1 (86144) - https://sketch.com -->
    <title></title>
    <desc>Created with Sketch.</desc>
    <g id="Home" stroke="none" stroke-width="1" fill="none" fill-rule="evenodd">
        <g id="Home2" transform="translate(-275.000000, -444.000000)" fill="#2B2B2B" fill-rule="nonzero">
            <g id="section2" transform="translate(15.000000, 387.000000)">
                <g id="challenges" transform="translate(0.000000, 35.000000)">
                    <g id="Switch-btn" transform="translate(246.000000, 12.000000)">
                        <g id="List-View" transform="translate(2.000000, 2.000000)">
                            <g id="icon" transform="translate(12.000000, 8.000000)">
                                <path d="M16.015625,8 C16.015625,6.93749469 15.8203145,5.93490055 15.4296875,4.9921875 C15.0390605,4.04947445 14.5026076,3.22135773 13.8203125,2.5078125 C13.1380174,1.79426727 12.3385463,1.21614805 11.421875,0.7734375 C10.5052037,0.330726953 9.52604688,0.0781253125 8.484375,0.015625 L8.41992188,0.0136718848 L8.41992188,0.0136718848 L8.28320312,0.00195311523 L8.28320312,0.00195311523 L8,0 C6.89582781,0 5.8567757,0.210935391 4.8828125,0.6328125 C3.9088493,1.05468961 3.05989945,1.62760055 2.3359375,2.3515625 C1.61197555,3.07552445 1.03906461,3.92187016 0.6171875,4.890625 C0.195310391,5.85937984 -0.015625,6.89582781 -0.015625,8 C-0.015625,9.10417219 0.195310391,10.1406202 0.6171875,11.109375 C1.03906461,12.0781298 1.61197555,12.9244755 2.3359375,13.6484375 C3.05989945,14.3723995 3.9088493,14.9453104 4.8828125,15.3671875 C5.74855757,15.7421894 6.66573091,15.9505212 7.63435442,15.9921876 L8.21875,16 L8.28320312,15.9980469 L8.28320312,15.9980469 L8.3515625,15.9921875 C8.39843773,15.9869791 8.44270812,15.984375 8.484375,15.984375 C9.52604688,15.9218747 10.5052037,15.669273 11.421875,15.2265625 C12.3385463,14.783852 13.1380174,14.2057327 13.8203125,13.4921875 C14.5026076,12.7786423 15.0390605,11.9505255 15.4296875,11.0078125 C15.8203145,10.0650995 16.015625,9.06250531 16.015625,8 Z M14.53125,10.578125 L14.2343754,10.5019532 C14.1093757,10.4720054 13.9583342,10.4375002 13.78125,10.3984375 L13.4470661,10.3321109 C13.1430701,10.2773703 12.7752998,10.2239586 12.34375,10.171875 C12.3854169,9.82812328 12.4218748,9.47396016 12.453125,9.109375 C12.4843752,8.74478984 12.5,8.37500187 12.5,8 C12.5,7.69791516 12.4895834,7.40364727 12.46875,7.1171875 C12.4479166,6.83072773 12.4218752,6.54687641 12.390625,6.265625 L12.8740368,6.20312486 C13.3269693,6.14062488 13.6884639,6.07812524 13.9585259,6.01562511 L14.0859375,5.984375 C14.4453143,5.89062453 14.6406248,5.83854172 14.671875,5.828125 L14.484375,5.3125 C14.6510425,5.71875203 14.7812495,6.14843523 14.875,6.6015625 C14.9687505,7.05468977 15.015625,7.52083094 15.015625,8 C15.015625,8.45833563 14.9739587,8.90364367 14.890625,9.3359375 C14.8072913,9.76823133 14.6875008,10.1822897 14.53125,10.578125 Z M4.453125,8 C4.453125,7.71874859 4.46354156,7.44270969 4.484375,7.171875 C4.50520844,6.90104031 4.53124984,6.63541797 4.5625,6.375 C4.96875203,6.40625016 5.41406008,6.43229156 5.8984375,6.453125 C6.38281492,6.47395844 6.91145547,6.484375 7.484375,6.484375 L7.484375,9.953125 C7.07031043,9.96093754 6.67822295,9.97167965 6.30810608,9.98535153 L5.9453125,10 C5.4713518,10.0208334 5.03125203,10.0468748 4.625,10.078125 C4.57291641,9.74479 4.53125016,9.40625172 4.5,9.0625 C4.46874984,8.71874828 4.453125,8.36458516 4.453125,8 Z M8.484375,1.0625 C8.78645984,1.15625047 9.07812359,1.32812375 9.359375,1.578125 C9.64062641,1.82812625 9.90104047,2.14062313 10.140625,2.515625 C10.3802095,2.89062687 10.5911449,3.32031008 10.7734375,3.8046875 C10.9557301,4.28906492 11.1093744,4.81249719 11.234375,5.375 L10.6308595,5.41796877 C10.4212246,5.43098957 10.2031261,5.44270828 9.9765625,5.453125 L9.26367204,5.48046877 C9.01497475,5.48828125 8.75520969,5.49479164 8.484375,5.5 L8.484375,1.0625 Z M7.484375,1.078125 L7.484375,5.5 L6.71484361,5.48046877 C6.4674484,5.47265629 6.22916781,5.46354172 6,5.453125 L5.33984361,5.41796877 C5.12890664,5.40494797 4.9270843,5.39062508 4.734375,5.375 C4.85937563,4.82291391 5.01562406,4.30468992 5.203125,3.8203125 C5.39062594,3.33593508 5.60156133,2.90885602 5.8359375,2.5390625 C6.07031367,2.16926898 6.32812359,1.85677211 6.609375,1.6015625 C6.89062641,1.34635289 7.18229016,1.17187547 7.484375,1.078125 Z M7.484375,10.953125 L7.484375,14.921875 C7.20312359,14.8281245 6.93229297,14.669272 6.671875,14.4453125 C6.41145703,14.221353 6.16666781,13.94271 5.9375,13.609375 C5.70833219,13.27604 5.50000094,12.8932313 5.3125,12.4609375 C5.12499906,12.0286437 4.96875063,11.5625025 4.84375,11.0625 C5.12500141,11.0390624 5.4238276,11.0200195 5.74023372,11.0053711 L6.0625,10.9921875 C6.50000219,10.9765624 6.97395578,10.9635417 7.484375,10.953125 Z M8.484375,14.9375 L8.484375,10.953125 L9.57568302,10.980957 L9.57568302,10.980957 L9.9140625,10.9921875 C10.356773,11.0078126 10.7604148,11.0312498 11.125,11.0625 C10.9999994,11.5729192 10.8463551,12.0468728 10.6640625,12.484375 C10.4817699,12.9218772 10.2760428,13.30729 10.046875,13.640625 C9.81770719,13.97396 9.57031383,14.252603 9.3046875,14.4765625 C9.03906117,14.700522 8.76562641,14.8541663 8.484375,14.9375 Z M8.484375,9.953125 L8.484375,6.484375 C9.05729453,6.484375 9.58593508,6.47395844 10.0703125,6.453125 C10.5546899,6.43229156 10.9947897,6.40104188 11.390625,6.359375 C11.4218752,6.63020969 11.4479166,6.90104031 11.46875,7.171875 C11.4895834,7.44270969 11.5,7.71874859 11.5,8 C11.5,8.36458516 11.484375,8.71874828 11.453125,9.0625 C11.4218748,9.40625172 11.3802086,9.74479 11.328125,10.078125 C11.0312485,10.0546874 10.7124029,10.0341797 10.3715828,10.0166016 L10.0234375,10 C9.5494768,9.97916656 9.03646109,9.96354172 8.484375,9.953125 Z M14.296875,4.90625 L14.0443246,4.97002538 L14.0443246,4.97002538 L13.6875,5.0546875 C13.354165,5.13281289 12.8750031,5.20833297 12.25,5.28125 C12.1041659,4.53124625 11.9062513,3.84114898 11.65625,3.2109375 C11.4062487,2.58072602 11.1197933,2.03646063 10.796875,1.578125 C11.5572955,1.91146 12.2395803,2.36458047 12.84375,2.9375 C13.4479197,3.51041953 13.9322898,4.16666297 14.296875,4.90625 Z M5.609375,1.421875 C5.20312297,1.89062734 4.83854328,2.45312172 4.515625,3.109375 C4.19270672,3.76562828 3.94270922,4.49478766 3.765625,5.296875 L3.23090189,5.23437493 C2.89988375,5.19270833 2.61979281,5.15104187 2.390625,5.109375 L2.08159661,5.05034713 C1.89872639,5.01331014 1.76215323,4.98090292 1.671875,4.953125 C1.86979266,4.54687297 2.10676945,4.1640643 2.3828125,3.8046875 C2.65885555,3.4453107 2.96354,3.11458484 3.296875,2.8125 C3.63021,2.51041516 3.98958141,2.24218867 4.375,2.0078125 C4.76041859,1.77343633 5.171875,1.57812578 5.609375,1.421875 Z M1.3125,5.890625 L1.42665804,5.92315051 C1.54995697,5.95503819 1.74367427,5.99888365 2.0078125,6.0546875 L2.31396515,6.11279308 C2.64892555,6.17041024 3.07030996,6.22656223 3.578125,6.28125 C3.53645813,6.55208469 3.50781258,6.83333188 3.4921875,7.125 C3.47656242,7.41666812 3.46875,7.70833187 3.46875,8 C3.46875,8.37500187 3.484375,8.74478984 3.515625,9.109375 C3.54687516,9.47396016 3.59374969,9.82812328 3.65625,10.171875 L3.10937411,10.2352431 C2.85416608,10.2673611 2.62630253,10.3001301 2.42578168,10.3335503 L1.453125,10.515625 L1.453125,10.515625 C1.29687422,10.1302064 1.17968789,9.72656461 1.1015625,9.3046875 C1.02343711,8.88281039 0.984375,8.44791891 0.984375,8 C0.984375,7.63541484 1.01302055,7.27604344 1.0703125,6.921875 C1.12760445,6.56770656 1.20833281,6.22396 1.3125,5.890625 Z M1.890625,11.4375 L2.65625,11.3046875 C2.97916828,11.2473955 3.38541422,11.1927086 3.875,11.140625 C4.06250094,11.8489619 4.30468602,12.4947887 4.6015625,13.078125 C4.89843898,13.6614613 5.23437312,14.1614563 5.609375,14.578125 C5.21353969,14.4427077 4.8359393,14.2682302 4.4765625,14.0546875 C4.1171857,13.8411448 3.78125156,13.6015638 3.46875,13.3359375 C3.15624844,13.0703112 2.86718883,12.7786474 2.6015625,12.4609375 C2.33593617,12.1432276 2.09895937,11.8020852 1.890625,11.4375 Z M10.796875,14.421875 C11.0885431,14.0052063 11.3515613,13.5208361 11.5859375,12.96875 C11.8203137,12.4166639 12.0104159,11.8125033 12.15625,11.15625 L12.6250008,11.217882 C12.9166671,11.2583912 13.1666656,11.2977429 13.375,11.3359375 L13.7125005,11.4009376 C13.8625002,11.4315625 13.9843745,11.4593749 14.078125,11.484375 C13.7031231,12.1406283 13.2343778,12.7187475 12.671875,13.21875 C12.1093722,13.7187525 11.4843784,14.1197902 10.796875,14.421875 Z" id=""></path>
                            </g>
                        </g>
                    </g>
                </g>
            </g>
        </g>
    </g>
</svg>