<?xml version="1.0" encoding="UTF-8"?>
<svg width="24px" height="20px" viewBox="0 0 24 20" version="1.1" xmlns="http://www.w3.org/2000/svg">
    <!-- Generator: Sketch 59.1 (86144) - https://sketch.com -->
    <title>Combined Shape</title>
    <desc>Created with Sketch.</desc>
    <g id="Home" stroke="none" stroke-width="1" fill="none" fill-rule="evenodd">
        <g id="Home2" transform="translate(-313.000000, -442.000000)" fill-rule="nonzero" stroke="#7B7C7D">
            <g id="section2" transform="translate(15.000000, 387.000000)">
                <g id="challenges" transform="translate(0.000000, 35.000000)">
                    <g id="Switch-btn" transform="translate(246.000000, 12.000000)">
                        <g id="List-View-Copy" transform="translate(44.000000, 2.000000)">
                            <g id="icon" transform="translate(8.000000, 6.000000)">
                                <path d="M13.3013189,6.83826484 L10.6378427,6.83826484 C9.73640039,6.83826484 9.00850936,7.53717997 9.00850936,8.38109589 L9.00850936,10.2443742 L8.65456984,10.3524829 C8.17903202,10.4977331 7.72485041,10.6776284 7.28787943,10.8923545 L6.8940779,11.0858673 L6.65105913,10.7205336 C6.28831403,10.1752135 5.60551798,9.8885614 4.93636132,10.0228144 L2.32968844,10.5437991 C1.45463502,10.7192997 0.893352578,11.5429216 1.07224225,12.3660049 L1.72680323,15.3643133 C1.90536037,16.1907216 2.77646406,16.737263 3.65839363,16.5605452 L4.80236912,16.3310322 L4.9900688,16.5969947 C5.37163773,17.1376617 5.89905072,17.6261269 6.56300446,18.042834 C8.0036453,18.9482883 9.92408413,19.4515068 11.9679856,19.4515068 C15.0097015,19.4515068 17.7131209,18.303337 18.9397666,16.5911369 L19.127948,16.328466 L19.4447368,16.3921297 L20.2823222,16.5604559 C21.1640399,16.736519 22.0348577,16.1902397 22.2135724,15.3631096 L22.868677,12.366901 C23.0469841,11.542892 22.4852482,10.7193101 21.6096292,10.5438495 L19.0043283,10.0227198 C18.3358451,9.88844349 17.6540097,10.1730458 17.291651,10.7154633 L17.0481698,11.0799321 L16.6549628,10.8862601 C16.2281816,10.6760514 15.7688758,10.494821 15.2803104,10.3442651 L14.927557,10.235561 L14.927557,9.86643836 L14.9275572,8.3806298 C14.9283419,7.53887773 14.1984349,6.83826484 13.3013189,6.83826484 Z M14.9265094,11.4443379 L14.9265094,10.228067 L15.5881261,10.454055 C16.0029852,10.5957581 16.3901145,10.7579942 16.7480867,10.9410282 L17.0911052,11.1164162 L17.0089651,11.4928144 L16.4144422,14.217147 C16.2368,15.0400728 16.7984658,15.8628714 17.6747683,16.0375411 L19.1621107,16.3360941 L18.5894334,16.9862801 C17.2643367,18.4907211 14.7403505,19.4281279 11.9669379,19.4281279 C9.9440456,19.4281279 8.04488332,18.9366878 6.61591221,18.0339429 C6.12200674,17.7245144 5.70024408,17.3733847 5.35553638,16.9864117 L4.77576478,16.335553 L5.63028409,16.1636552 L6.26286471,16.0364041 C7.13895413,15.8617774 7.70067105,15.0389203 7.52170866,14.2169716 L6.85357744,11.1471263 L7.1946716,10.9713164 C7.56256577,10.781693 7.94437197,10.6183079 8.34419054,10.4802233 L9.00741413,10.2511671 L9.00741413,11.4443379 C9.00741413,12.2857617 9.73682284,12.9852055 10.6367475,12.9852055 L13.3002237,12.9852055 C14.1970896,12.9852055 14.9265094,12.284833 14.9265094,11.4443379 Z M21.1406998,4.02324201 C19.8686476,4.02324201 18.8457475,5.00410514 18.8457475,6.20333333 C18.8457475,7.40256152 19.8686476,8.38342466 21.1406998,8.38342466 C22.4127521,8.38342466 23.4356522,7.40256152 23.4356522,6.20333333 C23.4356522,5.00410514 22.4127521,4.02324201 21.1406998,4.02324201 Z M2.32137858,4.06960306 L2.32125873,4.06962708 C1.0807901,4.31803623 0.292625822,5.47325347 0.548417352,6.64468187 C0.804809748,7.82336387 2.02153185,8.58675137 3.27005087,8.33703107 C4.51077468,8.08808296 5.2979207,6.93286891 5.04536987,5.76109435 C4.78608746,4.58213331 3.56981243,3.81928139 2.32137858,4.06960306 Z M11.9237951,0.5 C10.6517428,0.5 9.6288427,1.48086314 9.6288427,2.68009132 C9.6288427,3.87931951 10.6517428,4.86018265 11.9237951,4.86018265 C13.1958473,4.86018265 14.2187475,3.87931951 14.2187475,2.68009132 C14.2187475,1.48086314 13.1958473,0.5 11.9237951,0.5 Z" id="Combined-Shape"></path>
                            </g>
                        </g>
                    </g>
                </g>
            </g>
        </g>
    </g>
</svg>