<?xml version="1.0" encoding="UTF-8"?>
<svg width="28px" height="28px" viewBox="0 0 28 28" version="1.1" xmlns="http://www.w3.org/2000/svg">
    <!-- Generator: Sketch 56.2 (81672) - https://sketch.com -->
    <title>IC_Bar/Home/Nomarl</title>
    <desc>Created with Sketch.</desc>
    <g id="IC_Bar/Home/Nomarl" stroke="none" stroke-width="1" fill="none" fill-rule="evenodd">
        <g id="Group" transform="translate(1.858479, 1.500000)" fill="#7B7C7D" fill-rule="nonzero">
            <g id="op2">
                <path d="M21.6415208,11.6517426 C21.6415208,11.3753428 21.8653785,11.1512766 22.1415208,11.1512766 C22.4176632,11.1512766 22.6415208,11.3753428 22.6415208,11.6517426 L22.6415208,21.5097747 C22.6415208,23.444573 21.0745174,25.0130369 19.1415208,25.0130369 L5.14152083,25.0130369 C3.2085242,25.0130369 1.64152083,23.444573 1.64152083,21.5097747 L1.64152083,11.513503 C1.64152083,11.2371032 1.86537845,11.0130369 2.14152083,11.0130369 C2.4176632,11.0130369 2.64152083,11.2371032 2.64152083,11.513503 L2.64152083,21.5097747 C2.64152083,22.8917735 3.76080895,24.0121049 5.14152083,24.0121049 L19.1415208,24.0121049 C20.5222327,24.0121049 21.6415208,22.8917735 21.6415208,21.5097747 L21.6415208,11.6517426 Z"
                      id="Rectangle"></path>
                <path d="M12.1415208,20 C10.2085242,20 8.64152083,18.4329966 8.64152083,16.5 C8.64152083,14.5670034 10.2085242,13 12.1415208,13 C14.0745174,13 15.6415208,14.5670034 15.6415208,16.5 C15.6415208,18.4329966 14.0745174,20 12.1415208,20 Z M12.1415208,19 C13.5222327,19 14.6415208,17.8807119 14.6415208,16.5 C14.6415208,15.1192881 13.5222327,14 12.1415208,14 C10.760809,14 9.64152083,15.1192881 9.64152083,16.5 C9.64152083,17.8807119 10.760809,19 12.1415208,19 Z"
                      id="Oval"></path>
                <path d="M0.828171177,11.0917978 C0.61982834,11.2730376 0.304009194,11.2510663 0.122769371,11.0427234 C-0.0584704522,10.8343806 -0.036499118,10.5185614 0.171843719,10.3373216 L11.9139118,0.122761932 C12.1012069,-0.0401682145 12.3796804,-0.0410088479 12.5679558,0.120787557 L24.2904016,10.1945949 C24.4998348,10.3745736 24.5237125,10.6902543 24.3437338,10.8996876 C24.1637552,11.1091208 23.8480744,11.1329985 23.6386412,10.9530198 L12.2440709,1.16097574 L0.828171177,11.0917978 Z"
                      id="Rectangle-11"></path>
            </g>
        </g>
    </g>
</svg>