<?xml version="1.0" encoding="UTF-8"?>
<svg width="14px" height="15px" viewBox="0 0 14 15" version="1.1" xmlns="http://www.w3.org/2000/svg">
    <!-- Generator: Sketch 59.1 (86144) - https://sketch.com -->
    <title>IC-top</title>
    <desc>Created with Sketch.</desc>
    <g id="IC-top" stroke="none" stroke-width="1" fill="none" fill-rule="evenodd">
        <g id="Group-4" transform="translate(0.000000, 1.000000)" fill="#7B7C7D" fill-rule="nonzero">
            <path d="M10.0625,12.5625 L3.91015625,12.5625 C3.79166607,12.5625 3.68912804,12.6057938 3.60253906,12.6923828 C3.51595009,12.7789718 3.47265625,12.8815098 3.47265625,13 C3.47265625,13.1184902 3.51595009,13.2210282 3.60253906,13.3076172 C3.68912804,13.3942062 3.79166607,13.4375 3.91015625,13.4375 L10.0625,13.4375 C10.1809902,13.4375 10.2835282,13.3942062 10.3701172,13.3076172 C10.4567062,13.2210282 10.5,13.1184902 10.5,13 C10.5,12.8815098 10.4567062,12.7789718 10.3701172,12.6923828 C10.2835282,12.6057938 10.1809902,12.5625 10.0625,12.5625 Z M13.9073047,1.55978511 L13.9042969,1.54296875 C13.8860676,1.4335932 13.8359379,1.34700553 13.7539062,1.28320312 C13.6718746,1.21940072 13.5807297,1.1875 13.4804688,1.1875 L11.3339844,1.1875 L11.3339844,0.75 C11.3339844,0.631509824 11.2929692,0.528971787 11.2109375,0.442382812 C11.1289058,0.355793838 11.0240892,0.3125 10.8964844,0.3125 L3.03515625,0.3125 C2.91666607,0.3125 2.81412804,0.355793838 2.72753906,0.442382812 C2.64095009,0.528971787 2.59765625,0.631509824 2.59765625,0.75 L2.59765625,1.1875 L0.51953125,1.1875 C0.419270332,1.1875 0.32812541,1.21940072 0.24609375,1.28320312 C0.184570005,1.33105493 0.140991108,1.39172344 0.115356426,1.46520978 L0.095703125,1.54296875 C0.0865884961,1.57031264 0.0683595117,1.88476262 0.041015625,2.48632812 C0.0136717383,3.08789363 0.214190566,3.65299215 0.642578125,4.18164062 C0.879558477,4.48242338 1.18489396,4.71028568 1.55859375,4.86523438 C1.93229354,5.02018307 2.36523191,5.10677074 2.85742188,5.125 C2.99414131,5.5351583 3.18326702,5.91796697 3.42480469,6.2734375 C3.66634235,6.62890803 3.94661299,6.94107938 4.265625,7.20996094 C4.58463701,7.47884249 4.93554496,7.6975903 5.31835938,7.86621094 C5.70117379,8.03483157 6.10221145,8.14192686 6.52148438,8.1875 L6.52148438,11.2363281 L5.22265625,11.2363281 C5.09505145,11.2363281 4.99023479,11.279622 4.90820312,11.3662109 C4.82617146,11.4527999 4.78515625,11.5553379 4.78515625,11.6738281 C4.78515625,11.7923183 4.82617146,11.8948563 4.90820312,11.9814453 C4.99023479,12.0680343 5.09505145,12.1113281 5.22265625,12.1113281 L8.75,12.1113281 C8.86849018,12.1113281 8.97102821,12.0680343 9.05761719,11.9814453 C9.14420616,11.8948563 9.1875,11.7923183 9.1875,11.6738281 C9.1875,11.5553379 9.14420616,11.4527999 9.05761719,11.3662109 C8.97102821,11.279622 8.86849018,11.2363281 8.75,11.2363281 L7.39648438,11.2363281 L7.39648438,8.1875 C7.82487193,8.14192686 8.23046684,8.03483157 8.61328125,7.86621094 C8.99609566,7.6975903 9.34700361,7.47884249 9.66601562,7.20996094 C9.98502764,6.94107938 10.2652983,6.62890803 10.5068359,6.2734375 C10.7483736,5.91796697 10.9374993,5.5351583 11.0742188,5.125 C11.584638,5.11588537 12.0312481,5.03157632 12.4140625,4.87207031 C12.7968769,4.71256431 13.1113269,4.48242338 13.3574219,4.18164062 C13.7858094,3.65299215 13.9863283,3.08789363 13.9589844,2.48632812 L13.9196094,1.71359294 C13.9146875,1.63648386 13.9105859,1.58521467 13.9073047,1.55978511 Z M1.3125,3.63476562 C1.12109279,3.39778527 1.00488302,3.12662913 0.963867187,2.82128906 C0.922851357,2.51594899 0.906900996,2.26302184 0.916015625,2.0625 L2.59765625,2.0625 L2.59765625,3.5390625 C2.59765625,3.65755268 2.6022135,3.77376245 2.61132812,3.88769531 C2.62044275,4.00162817 2.63411449,4.11783795 2.65234375,4.23632812 C2.351561,4.20898424 2.08951935,4.14518279 1.86621094,4.04492188 C1.64290253,3.94466096 1.45833406,3.80794357 1.3125,3.63476562 Z M10.4589844,3.5390625 C10.4589844,4.06771098 10.3678395,4.56217218 10.1855469,5.02246094 C10.0032543,5.4827497 9.75488438,5.88378735 9.44042969,6.22558594 C9.12597499,6.56738452 8.75683806,6.83854066 8.33300781,7.0390625 C7.90917757,7.23958434 7.45573158,7.33984375 6.97265625,7.33984375 C6.48958092,7.33984375 6.03613493,7.23958434 5.61230469,7.0390625 C5.18847444,6.83854066 4.81705889,6.56738452 4.49804688,6.22558594 C4.17903486,5.88378735 3.92838633,5.4827497 3.74609375,5.02246094 C3.56380117,4.56217218 3.47265625,4.06771098 3.47265625,3.5390625 L3.47265625,1.1875 L10.4589844,1.1875 L10.4589844,3.5390625 Z M12.6875,3.63476562 C12.5325513,3.80794357 12.3388683,3.94693958 12.1064453,4.05175781 C11.8740223,4.15657604 11.5983089,4.21809887 11.2792969,4.23632812 C11.2975261,4.12695258 11.3111979,4.01302143 11.3203125,3.89453125 C11.3294271,3.77604107 11.3339844,3.65755268 11.3339844,3.5390625 L11.3339844,2.0625 L13.0839844,2.0625 C13.093099,2.26302184 13.0771486,2.51594899 13.0361328,2.82128906 C12.995117,3.12662913 12.8789072,3.39778527 12.6875,3.63476562 Z" id=""></path>
        </g>
    </g>
</svg>