<?xml version="1.0" encoding="UTF-8"?>
<svg width="9px" height="18px" viewBox="0 0 9 18" version="1.1" xmlns="http://www.w3.org/2000/svg">
    <!-- Generator: Sketch 59.1 (86144) - https://sketch.com -->
    <title> 2</title>
    <desc>Created with Sketch.</desc>
    <g id="Signin/-Signup" stroke="none" stroke-width="1" fill="none" fill-rule="evenodd">
        <g id="Register1" transform="translate(-86.000000, -576.000000)" fill="#FFFFFF" fill-rule="nonzero">
            <g id="Group" transform="translate(26.000000, 562.000000)">
                <g id="Group-2" transform="translate(60.000000, 14.000000)">
                    <g id="-2">
                        <path d="M6,6 L9,6 L8.625,9 L6,9 L6,18 L2.109375,18 L2.109375,9 L0,9 L0,6 L2.109375,6 L2.109375,3.984375 C2.109375,2.67186844 2.43749672,1.67969086 3.09375,1.0078125 C3.75000328,0.335934141 4.84374234,0 6.375,0 L9,0 L9,3 L7.40625,3 C6.81249703,3 6.42968836,3.09374906 6.2578125,3.28125 C6.08593664,3.46875094 6,3.78124781 6,4.21875 L6,6 Z" id=""></path>
                    </g>
                </g>
            </g>
        </g>
    </g>
</svg>