<?xml version="1.0" encoding="UTF-8"?>
<svg width="24px" height="24px" viewBox="0 0 24 24" version="1.1" xmlns="http://www.w3.org/2000/svg">
    <!-- Generator: Sketch 56.2 (81672) - https://sketch.com -->
    <title>Component/Text/Space_InActive Copy</title>
    <desc>Created with Sketch.</desc>
    <g id="Component/Text/Space_InActive-Copy" stroke="none" stroke-width="1" fill="none" fill-rule="evenodd">
        <path d="M5.652,4.36 L8.332,4.36 L13.352,18 L10.412,18 L9.352,14.9 L4.312,14.9 L3.232,18 L0.352,18 L5.652,4.36 Z M4.992,12.86 L8.652,12.86 L7.532,9.6 C7.398666,9.2133314 7.2820005,8.8566683 7.182,8.53 C7.0819995,8.2033317 6.9853338,7.8666684 6.892,7.52 L6.792,7.52 C6.6053324,8.2266702 6.3853346,8.9266632 6.132,9.62 L4.992,12.86 Z M17.3,8.452 L19.176,8.452 L22.69,18 L20.632,18 L19.89,15.83 L16.362,15.83 L15.606,18 L13.59,18 L17.3,8.452 Z M16.838,14.402 L19.4,14.402 L18.616,12.12 C18.5226662,11.849332 18.4410004,11.5996678 18.371,11.371 C18.3009997,11.1423322 18.2333337,10.9066679 18.168,10.664 L18.098,10.664 C17.9673327,11.1586691 17.8133342,11.6486642 17.636,12.134 L16.838,14.402 Z"
              id="AA" fill="#7B7C7D" fill-rule="nonzero"></path>
    </g>
</svg>