<?xml version="1.0" encoding="UTF-8"?>
<svg width="30px" height="30px" viewBox="0 0 30 30" version="1.1" xmlns="http://www.w3.org/2000/svg">
    <!-- Generator: Sketch 56.2 (81672) - https://sketch.com -->
    <title>IC/DontView_Black</title>
    <desc>Created with Sketch.</desc>
    <g id="IC/DontView_Black" stroke="none" stroke-width="1" fill="none" fill-rule="evenodd">
        <g id="Group-3" transform="translate(1.000000, 3.000000)">
            <path d="M23.0409962,5.83499677 C23.6663396,6.28109202 24.2568852,6.77609243 24.8126362,7.32 C26.2055262,8.68320682 27.2679702,10.2479912 28,12.0144 C27.2679702,13.7808088 26.2055262,15.3407932 24.8126362,16.6944 C23.4197461,18.0480068 21.808288,19.0991963 19.9782135,19.848 C18.0871365,20.6160038 16.0944186,21 14,21 C12.1636449,21 10.4054723,20.7048021 8.72544218,20.1143985"
                  id="Path" stroke="#2B2B2B" fill-rule="nonzero"></path>
            <path d="M4.95734484,18.1690271 C4.33261592,17.7255413 3.74262327,17.2339996 3.18736383,16.6944 C1.79447379,15.3407932 0.732029804,13.7808088 0,12.0144 C0.732029804,10.2479912 1.79447379,8.68320682 3.18736383,7.32 C4.58025388,5.95679318 6.19171198,4.90080374 8.02178649,4.152 C9.91286349,3.38399616 11.9055814,3 14,3 C15.8530785,3 17.6265439,3.300599 19.3204375,3.90180499"
                  id="Path" stroke="#2B2B2B" fill-rule="nonzero"></path>
            <rect id="Rectangle-Copy" fill="#2B2B2B"
                  transform="translate(14.000000, 12.000000) rotate(45.000000) translate(-14.000000, -12.000000) "
                  x="13" y="-3" width="2" height="30" rx="1"></rect>
            <path d="M9.34942627,13.8295441 L14.0297241,9.14093018 C14.0824617,8.7347245 14.23174,8.36571065 14.4775588,8.03388863 C14.7233776,7.70206662 15.0521267,7.43100987 15.4638062,7.22071838 C13.2550852,6.64675775 11.4238301,7.23985162 9.97004081,9 C8.911737,10.564591 8.70486548,12.174439 9.34942627,13.8295441 Z"
                  id="Path-10" fill="#2B2B2B"></path>
            <path d="M12.7039916,17.1778422 L17.3842894,12.4892284 C17.437027,12.0830227 17.5863052,11.7140088 17.832124,11.3821868 C18.0779428,11.0503648 18.406692,10.779308 18.8183714,10.5690166 C16.6096505,9.99505593 14.7783954,10.5881498 13.3246061,12.3482982 C12.2663023,13.9128892 12.0594308,15.5227372 12.7039916,17.1778422 Z"
                  id="Path-10-Copy" fill="#2B2B2B"
                  transform="translate(15.578199, 13.767576) scale(1, -1) rotate(90.000000) translate(-15.578199, -13.767576) "></path>
        </g>
    </g>
</svg>