<?xml version="1.0" encoding="UTF-8"?>
<svg width="16px" height="13px" viewBox="0 0 16 13" version="1.1" xmlns="http://www.w3.org/2000/svg">
    <!-- Generator: Sketch 56.2 (81672) - https://sketch.com -->
    <title></title>
    <desc>Created with Sketch.</desc>
    <g id="Review" stroke="none" stroke-width="1" fill="none" fill-rule="evenodd">
        <g id="Review5" transform="translate(-17.000000, -616.000000)" fill="#2B2B2B" fill-rule="nonzero">
            <g id="Group-10" transform="translate(0.000000, 476.000000)">
                <g id="Group-8" transform="translate(15.000000, 121.000000)">
                    <path d="M9.344,28.056 L9.344,26.056 L2.656,26.056 L2.656,24.744 L9.344,24.744 L9.344,22.744 L12,25.4 L9.344,28.056 Z M16,19.4 C16.3626685,19.4 16.677332,19.5306654 16.944,19.792 C17.210668,20.0533346 17.344,20.3706648 17.344,20.744 L17.344,30.088 C17.344,30.4506685 17.210668,30.7599987 16.944,31.016 C16.677332,31.2720013 16.3626685,31.4 16,31.4 L4,31.4 C3.63733152,31.4 3.322668,31.2720013 3.056,31.016 C2.789332,30.7599987 2.656,30.4506685 2.656,30.088 L2.656,27.4 L4,27.4 L4,30.088 L16,30.088 L16,20.712 L4,20.712 L4,23.4 L2.656,23.4 L2.656,20.744 C2.656,20.3813315 2.789332,20.066668 3.056,19.8 C3.322668,19.533332 3.63733152,19.4 4,19.4 L16,19.4 Z"
                          id=""></path>
                </g>
            </g>
        </g>
    </g>
</svg>