<?xml version="1.0" encoding="UTF-8"?>
<svg width="34px" height="34px" viewBox="0 0 34 34" version="1.1" xmlns="http://www.w3.org/2000/svg">
    <!-- Generator: Sketch 58 (84663) - https://sketch.com -->
    <title>Component/Voice_Primary color CopyChatVoice</title>
    <desc>Created with Sketch.</desc>
    <g id="Component/Voice_Primary-color-Copy" stroke="none" stroke-width="1" fill="none" fill-rule="evenodd">
        <g id="-2" transform="translate(10.000000, 7.000000)" fill="#FD4468" fill-rule="nonzero">
            <path d="M1,18.4 L13,18.4 C13.5522847,18.4 14,18.8477153 14,19.4 C14,19.9522847 13.5522847,20.4 13,20.4 L1,20.4 C0.44771525,20.4 1.16139548e-14,19.9522847 1.15463195e-14,19.4 C1.14786841e-14,18.8477153 0.44771525,18.4 1,18.4 Z M12.3754286,11 C12.3754286,10.0239951 14.0554286,9.8799944 14.0554286,11 C14.0554286,12.1200056 13.7834313,13.175995 13.2394286,14.168 C12.7114259,15.1120047 11.9874332,15.8999968 11.0674286,16.532 C10.147424,17.1640032 9.14343401,17.5519993 8.05542857,17.696 L6.08742857,17.696 C4.99942313,17.5519993 3.99543317,17.1640032 3.07542857,16.532 C2.15542397,15.8999968 1.43143121,15.1120047 0.903428571,14.168 C0.359425851,13.175995 0.0874285714,12.1200056 0.0874285714,11 C0.0874285714,9.8799944 1.76742857,10.0239951 1.76742857,11 C1.76742857,11.9760049 2.02342601,12.863996 2.53542857,13.664 C3.01543097,14.4160038 3.65942453,15.0119978 4.46742857,15.452 C5.27543261,15.8920022 6.14342393,16.112 7.07142857,16.112 C7.99943321,16.112 8.86742453,15.8920022 9.67542857,15.452 C10.4834326,15.0119978 11.1274262,14.4160038 11.6074286,13.664 C12.1194311,12.863996 12.3754286,11.9760049 12.3754286,11 Z M7.07142857,14 C6.36742505,14 5.70609833,13.8413349 5.08742857,13.524 C4.46875881,13.2066651 3.97809705,12.777336 3.61542857,12.236 C3.25276009,11.694664 3.07142857,11.1160031 3.07142857,10.5 L3.07142857,3.5 C3.07142857,2.88399692 3.25276009,2.30533604 3.61542857,1.764 C3.97809705,1.22266396 4.46875881,0.79333492 5.08742857,0.476 C5.70609833,0.15866508 6.36742505,-1.77635684e-15 7.07142857,-1.77635684e-15 C7.77543209,-1.77635684e-15 8.43675881,0.15866508 9.05542857,0.476 C9.67409833,0.79333492 10.1647601,1.22266396 10.5274286,1.764 C10.8900971,2.30533604 11.0714286,2.88399692 11.0714286,3.5 L11.0714286,10.5 C11.0714286,11.1160031 10.8900971,11.694664 10.5274286,12.236 C10.1647601,12.777336 9.67409833,13.2066651 9.05542857,13.524 C8.43675881,13.8413349 7.77543209,14 7.07142857,14 Z"
                  id=""></path>
        </g>
    </g>
</svg>