<?xml version="1.0" encoding="UTF-8"?>
<svg width="24px" height="24px" viewBox="0 0 24 24" version="1.1" xmlns="http://www.w3.org/2000/svg">
    <!-- Generator: Sketch 56.2 (81672) - https://sketch.com -->
    <title>Component/Text/Space_InActive</title>
    <desc>Created with Sketch.</desc>
    <g id="Component/Text/Space_InActive" stroke="none" stroke-width="1" fill="none" fill-rule="evenodd">
        <g id="Group-4" transform="translate(0.000000, 4.000000)" fill="#7B7C7D">
            <path d="M18.2597467,14.7597467 L5.78429202,14.7597467 L5.78429202,17.2597467 L0.784292016,14.2597467 L5.78429202,11.2597467 L5.78429202,13.7597467 L18.2597467,13.7597467 L18.2597467,11.215708 L23.2597467,14.215708 L18.2597467,17.215708 L18.2597467,14.7597467 Z M7.388,0.088 L9.532,0.088 L13.548,11 L11.196,11 L10.348,8.52 L6.316,8.52 L5.452,11 L3.148,11 L7.388,0.088 Z M6.86,6.888 L9.788,6.888 L8.892,4.28 C8.7853328,3.97066512 8.6920004,3.68533464 8.612,3.424 C8.5319996,3.16266536 8.45466704,2.89333472 8.38,2.616 L8.3,2.616 C8.15066592,3.18133616 7.97466768,3.74133056 7.772,4.296 L6.86,6.888 Z M16.652,3.498 L18.126,3.498 L20.887,11 L19.27,11 L18.687,9.295 L15.915,9.295 L15.321,11 L13.737,11 L16.652,3.498 Z M16.289,8.173 L18.302,8.173 L17.686,6.38 C17.6126663,6.16733227 17.5485003,5.97116756 17.4935,5.7915 C17.4384997,5.61183243 17.3853336,5.42666762 17.334,5.236 L17.279,5.236 C17.1763328,5.62466861 17.055334,6.00966476 16.916,6.391 L16.289,8.173 Z"
                  id="Combined-Shape"></path>
        </g>
    </g>
</svg>