<?xml version="1.0" encoding="UTF-8"?>
<svg width="24px" height="24px" viewBox="0 0 24 24" version="1.1" xmlns="http://www.w3.org/2000/svg">
    <!-- Generator: Sketch 56.2 (81672) - https://sketch.com -->
    <title>Component/Text/LineHeight_InActive</title>
    <desc>Created with Sketch.</desc>
    <g id="Component/Text/LineHeight_InActive" stroke="none" stroke-width="1" fill="none" fill-rule="evenodd">
        <g id="Group-4" transform="translate(0.000000, 1.000000)" fill="#7B7C7D">
            <path d="M3.54403871,5 L3.54403871,17.4754547 L6.04403871,17.4754547 L3.04403871,22.4754547 L0.0440387068,17.4754547 L2.54403871,17.4754547 L2.54403871,5 L7.10542736e-15,5 L3,0 L6,5 L3.54403871,5 Z M10.388,7.088 L12.532,7.088 L16.548,18 L14.196,18 L13.348,15.52 L9.316,15.52 L8.452,18 L6.148,18 L10.388,7.088 Z M9.86,13.888 L12.788,13.888 L11.892,11.28 C11.7853328,10.9706651 11.6920004,10.6853346 11.612,10.424 C11.5319996,10.1626654 11.454667,9.89333472 11.38,9.616 L11.3,9.616 C11.1506659,10.1813362 10.9746677,10.7413306 10.772,11.296 L9.86,13.888 Z M19.652,10.498 L21.126,10.498 L23.887,18 L22.27,18 L21.687,16.295 L18.915,16.295 L18.321,18 L16.737,18 L19.652,10.498 Z M19.289,15.173 L21.302,15.173 L20.686,13.38 C20.6126663,13.1673323 20.5485003,12.9711676 20.4935,12.7915 C20.4384997,12.6118324 20.3853336,12.4266676 20.334,12.236 L20.279,12.236 C20.1763328,12.6246686 20.055334,13.0096648 19.916,13.391 L19.289,15.173 Z"
                  id="Combined-Shape"></path>
        </g>
    </g>
</svg>