<?xml version="1.0" encoding="UTF-8"?>
<svg width="30px" height="30px" viewBox="0 0 30 30" version="1.1" xmlns="http://www.w3.org/2000/svg">
    <!-- Generator: Sketch 55.1 (78136) - https://sketchapp.com -->
    <title>IC/Introduce_Gray</title>
    <desc>Created with Sketch.</desc>
    <g id="IC/Introduce_Gray" stroke="none" stroke-width="1" fill="none" fill-rule="evenodd">
        <path d="M7,1 L24,1 C25.1045695,1 26,1.8954305 26,3 L26,27 C26,28.1045695 25.1045695,29 24,29 L7,29 C5.8954305,29 5,28.1045695 5,27 L5,3 C5,1.8954305 5.8954305,1 7,1 Z M8,22 L8,24 L23,24 L23,22 L8,22 Z M8,25 L8,27 L23,27 L23,25 L8,25 Z M14.828,18.1129808 C13.6989559,18.1129808 12.6451972,17.8244516 11.6666923,17.2473846 C10.7132773,16.6954075 9.9605925,15.9427227 9.40861538,14.9893077 C8.8315484,14.0108028 8.54301923,12.9570441 8.54301923,11.828 C8.54301923,10.6989559 8.8315484,9.6451972 9.40861538,8.66669231 C9.9605925,7.71327728 10.7132773,6.9605925 11.6666923,6.40861538 C12.6451972,5.8315484 13.6989559,5.54301923 14.828,5.54301923 C15.9570441,5.54301923 17.0108028,5.8315484 17.9893077,6.40861538 C18.9427227,6.9605925 19.6954075,7.71327728 20.2473846,8.66669231 C20.8244516,9.6451972 21.1129808,10.6989559 21.1129808,11.828 C21.1129808,12.9570441 20.8244516,14.0108028 20.2473846,14.9893077 C19.6954075,15.9427227 18.9427227,16.6954075 17.9893077,17.2473846 C17.0108028,17.8244516 15.9570441,18.1129808 14.828,18.1129808 Z M14.828,4 C13.4104224,4 12.093224,4.35752527 10.8763654,5.07258654 C9.69714154,5.76255794 8.76255794,6.69714154 8.07258654,7.87636538 C7.35752527,9.09322403 7,10.4104224 7,11.828 C7,13.2455776 7.35752527,14.562776 8.07258654,15.7796346 C8.750013,16.9588585 9.67832423,17.8934421 10.8575481,18.5834135 C12.0744067,19.2984747 13.3978775,19.656 14.828,19.656 C16.2581225,19.656 17.5815933,19.2984747 18.7984519,18.5834135 C19.9776758,17.905987 20.905987,16.9776758 21.5834135,15.7984519 C22.2984747,14.5815933 22.656,13.2581225 22.656,11.828 C22.656,10.3978775 22.2984747,9.07440673 21.5834135,7.85754808 C20.905987,6.67832423 19.9776758,5.750013 18.7984519,5.07258654 C17.5815933,4.35752527 16.2581225,4 14.828,4 Z M13.2473462,15.3468365 L17.9516731,11.828 L13.2473462,8.29034615 L13.2473462,15.3468365 Z"
              id="Combined-Shape" fill="#7B7C7D"></path>
    </g>
</svg>