<?xml version="1.0" encoding="UTF-8"?>
<svg width="113px" height="130px" viewBox="0 0 113 130" version="1.1" xmlns="http://www.w3.org/2000/svg">
    <!-- Generator: Sketch 59.1 (86144) - https://sketch.com -->
    <title>kikiAsset 1</title>
    <desc>Created with Sketch.</desc>
    <g id="Bot_Config" stroke="none" stroke-width="1" fill="none" fill-rule="evenodd">
        <g id="3" transform="translate(-131.000000, -94.000000)" fill-rule="nonzero">
            <g id="img-kiki" transform="translate(131.000000, 94.000000)">
                <g id="kikiAsset-1">
                    <ellipse id="Oval" fill-opacity="0.1" fill="#121212" cx="51.2121212" cy="120.151515" rx="50.2272727"
                             ry="9.84848485"></ellipse>
                    <path d="M82.7272727,98.6718999 C82.7272727,98.6718999 92.1263976,106.778366 100.654927,99.1611844 C107.949771,92.6439144 99.0045104,84.4591627 93.9913688,82.9404235 C88.9782271,81.4216843 98.6991833,88.4204103 96.5041287,91.2269464 C94.3090741,94.0334825 85.6980233,92.6908857 85.6980233,92.6908857 L82.7272727,98.6718999 Z"
                          id="Path" fill="#CA926F"></path>
                    <path d="M85.9674621,94.070161 C85.9674621,94.070161 94.1244037,95.4373791 96.2037008,92.5577515 C98.2829978,89.6781239 89.0942246,82.4750218 93.8234528,84.019696 C94.7540776,84.349846 95.6394965,84.8026066 96.4577502,85.3667487 C95.260048,84.3196719 93.8916998,83.5003388 92.4164097,82.9468935 C87.6871814,81.3820539 96.8759547,88.5932222 94.7966577,91.4849491 C92.7173606,94.376676 84.5565105,93.0134909 84.5565105,93.0134909 L81.7424242,99.1720222 C82.2679894,99.6405485 82.8257518,100.069178 83.4113337,100.454545 C83.2432702,100.309354 83.1533758,100.228692 83.1533758,100.228692 L85.9674621,94.070161 Z"
                          id="Path" fill="#E3BE9A"></path>
                    <path d="M15.7913681,59.0909091 C15.7913681,59.0909091 4.23108223,77.5735037 7.46475664,94.7066007 C10.698431,111.839698 28.9624806,120.354949 55.232579,119.033073 C81.5026774,117.711196 92.1894304,106.181277 90.4183225,89.9596832 C89.2420866,79.8838757 86.4717647,70.0514185 82.2079149,60.8192132 L15.7913681,59.0909091 Z"
                          id="Path" fill="#E3BE9A"></path>
                    <path d="M83.1869619,68.8435061 C87.1919938,77.6281045 89.882325,86.9513537 91.1719346,96.5151515 C91.6430978,93.8302548 91.7173385,91.0910138 91.3922926,88.3846579 C90.2162101,78.1826347 87.4462494,68.2270102 83.1829554,58.8791567 L16.775067,57.1212121 C16.775067,57.1212121 5.90140132,74.7006577 8.19713103,91.6048927 C9.79973468,78.4203086 17.6204404,64.3647428 17.6204404,64.3647428 L83.1869619,68.8435061 Z"
                          id="Path" fill="#D5AB87"></path>
                    <path d="M15.3012132,59.0909091 L13.7878788,62.4566374 C13.7878788,62.4566374 26.760473,81.6899647 49.3957481,82.6801295 C72.0310231,83.6702943 86.6666667,68.7346151 86.6666667,68.7346151 L85.3880205,64.5368155 C85.3880205,64.5368155 74.6449644,78.8193188 50.4194743,77.3007888 C26.1939841,75.7822587 15.3012132,59.0909091 15.3012132,59.0909091 Z"
                          id="Path" fill="#6B8C7D"></path>
                    <path d="M50.6327855,79.7457708 C71.3379167,80.3299106 82.8870303,71.2658095 86.6666667,67.5702313 L85.9511633,65.2773833 C85.9511633,65.2773833 75.2024433,78.9271803 50.9966008,77.4688177 C26.7907583,76.0104551 15.9126818,60.0757576 15.9126818,60.0757576 L14.7727273,62.5076865 C18.762568,67.0655663 30.2348762,79.1656047 50.6327855,79.7457708 Z"
                          id="Path" fill="#668577"></path>
                    <polygon id="Path" fill="#482F28"
                             points="31.5151515 8.42767099 28.9054329 3.93939394 17.7272727 12.5178927 20.0946026 18.7121212"></polygon>
                    <polygon id="Path" fill="#482F28"
                             points="91.5054776 24.6212121 98.4848485 20.2365115 83.6125335 3.93939394 73.8636364 8.1067997"></polygon>
                    <ellipse id="Oval" fill="#D5AB87" cx="53.1818182" cy="40.3787879" rx="43.3333333"
                             ry="37.4242424"></ellipse>
                    <path d="M53.9628892,74.2086895 C29.963075,74.2086895 10.5087717,57.7196011 10.5087717,37.3837265 C10.5088592,36.0803991 10.5895344,34.7783122 10.75034,33.4848485 C10.1511092,35.9379559 9.84848485,38.453504 9.84848485,40.9780673 C9.84848485,61.3179489 29.3027882,77.8030303 53.3026024,77.8030303 C75.7483269,77.8030303 94.2162262,63.3775823 96.5151515,44.8769453 C92.4326466,61.6184791 74.9310207,74.2086895 53.9628892,74.2086895 Z"
                          id="Path" fill="#CEA37F"></path>
                    <ellipse id="Oval" fill="#623D34" cx="34.9621212" cy="40.8712121" rx="11.3257576"
                             ry="12.3106061"></ellipse>
                    <ellipse id="Oval" fill="#623D34" cx="66.969697" cy="42.3484848" rx="11.8181818"
                             ry="12.8030303"></ellipse>
                    <ellipse id="Oval" fill="#FFFFFF" cx="35.4545455" cy="40.8712121" rx="9.84848485"
                             ry="10.3409091"></ellipse>
                    <ellipse id="Oval" fill="#FFFFFF" cx="66.969697" cy="43.8257576" rx="10.8333333"
                             ry="11.3257576"></ellipse>
                    <path d="M59.8415629,46.4837814 C57.5396376,46.4837814 53.073745,48.4188199 51.0832103,49.054504 C49.1123839,48.4188199 43.5112952,46.2878788 41.2290782,46.2878788 C32.1080936,46.2878788 28.5606061,50.8136299 28.5606061,57.6182486 C28.5606061,64.0510521 38.450213,72.5868106 51.3473011,72.8706695 C66.3255818,73.1985066 72.6322263,63.5193163 73.6964726,57.9700738 C74.9578015,51.2893935 68.9586059,46.4837814 59.8415629,46.4837814 Z"
                          id="Path" fill="#623D34"></path>
                    <path d="M41.2185594,47.0189546 C43.522157,47.0189546 49.1075923,49.1214549 51.0798505,49.7486548 C53.0718313,49.1214549 57.544913,47.2122426 59.8445661,47.2122426 C67.733599,47.2122426 73.2795891,50.7624307 73.8199879,55.9654287 C74.4313879,49.8275478 68.5619474,45.4963183 59.8445661,45.4963183 C57.5409685,45.4963183 53.0718313,47.4055306 51.0798505,48.0327305 C49.1075923,47.4055306 43.5024344,45.3030303 41.2185594,45.3030303 C32.1106709,45.3030303 28.5606061,49.7723227 28.5606061,56.4861229 C28.5606061,56.6951895 28.5606061,56.9082008 28.5921622,57.1212121 C28.9550577,51.0109439 32.5958464,47.0189546 41.2185594,47.0189546 Z"
                          id="Path" fill="#5C3931"></path>
                    <path d="M50.9002488,52.1969697 C50.9002488,52.1969697 48.0954292,56.1222317 43.9044596,57.2186736 C39.7134901,58.3151155 34.469697,56.7983709 34.469697,56.7983709 C34.469697,56.7983709 38.9777331,66.969697 51.4246281,66.969697 C63.9487572,66.969697 69.9242424,56.8568478 69.9242424,56.8568478 C69.9242424,56.8568478 64.1357452,58.8596817 58.8756923,57.2771505 C55.7220654,56.3210742 52.9492836,54.5548736 50.9002488,52.1969697 Z"
                          id="Path" fill="#914F4C"></path>
                    <path d="M43.903378,58.3990388 C48.0938671,57.2835588 50.8983652,53.2864219 50.8983652,53.2864219 C52.9465593,55.6899772 55.7206897,57.490888 58.8769589,58.4659676 C62.843901,59.6818409 67.1116154,58.8377943 68.9690873,58.3246735 C69.3144573,57.8809571 69.6333092,57.4204572 69.9242424,56.9451965 C69.9242424,56.9451965 64.1364088,58.9828067 58.8769589,57.3727972 C55.7211976,56.3987324 52.9471247,54.5991517 50.8983652,52.1969697 C50.8983652,52.1969697 48.0979316,56.1829518 43.903378,57.3095866 C39.7088245,58.4362215 34.469697,56.8819859 34.469697,56.8819859 C34.6670565,57.3158076 34.8909577,57.7391204 35.1403378,58.1499149 C36.7132954,58.5254599 40.6273992,59.2802681 43.903378,58.3990388 Z"
                          id="Path" fill="#864946"></path>
                    <circle id="Oval" fill="#6F3F2D" cx="37.9166667" cy="40.8712121" r="3.4469697"></circle>
                    <path d="M51.2121212,52.1969697 C51.2121212,52.1969697 51.1717255,52.2674928 51.0909339,52.3974037 C51.0101424,52.5273146 50.8889552,52.7166134 50.7152534,52.950453 C50.5415517,53.1842927 50.3112959,53.4626732 50.0648818,53.7707477 C49.8184677,54.0788221 49.4872225,54.4165905 49.1196211,54.7692059 C48.284394,55.578125 47.3330708,56.2786681 46.2919184,56.8514923 C46.0010689,57.0110972 45.6981008,57.155855 45.3830139,57.2931894 C45.064716,57.4331004 44.7383754,57.5570079 44.4054366,57.6643635 C43.7222899,57.8865726 43.0132665,58.0348065 42.2927387,58.1060606 L42.1553931,58.1060606 L42.0867204,58.1060606 L42.014008,58.1060606 L41.7554752,58.1060606 C41.585813,58.1060606 41.4040321,58.1060606 41.2222512,58.1060606 C40.8586894,58.1060606 40.511286,58.1060606 40.1598429,58.0875019 C39.8083998,58.0689432 39.4650359,58.0392493 39.1257116,58.0021319 L38.6207647,57.9390323 L38.1279365,57.8647975 C36.944717,57.6667973 35.7833464,57.3711346 34.6579412,56.9814032 C34.165113,56.8106632 33.7207597,56.6399231 33.337,56.4766065 C32.9532404,56.3132899 32.6179556,56.1573968 32.347304,56.0274859 C32.0766525,55.897575 31.8706342,55.782511 31.729249,55.7082762 L31.5151515,55.5857888 L31.7534865,55.6600236 L32.424056,55.8604576 C32.7108658,55.9458276 33.0663485,56.0386211 33.4662664,56.1462616 C33.8661844,56.2539021 34.326696,56.3652543 34.8276034,56.4766065 C35.9584522,56.7354994 37.1050097,56.9325673 38.2612424,57.0667733 C38.5763293,57.1001789 38.8954558,57.1298728 39.2226614,57.155855 C39.549867,57.1818372 39.8770726,57.1929724 40.2083178,57.2041077 C40.539563,57.2152429 40.8748477,57.2041077 41.2020533,57.2041077 C41.3676759,57.2041077 41.5252194,57.2041077 41.7029607,57.1818372 L41.9614935,57.1818372 L42.014008,57.1818372 L42.0746016,57.1818372 L42.1957889,57.1818372 C42.8449751,57.1192988 43.4853246,56.9949053 44.1065081,56.8106632 C44.4135158,56.7178697 44.716484,56.6139409 45.011373,56.5025887 C45.306262,56.3912365 45.5930718,56.2613256 45.8718025,56.1314146 C46.408793,55.8750757 46.928179,55.5887348 47.4270391,55.2740026 C47.9077485,54.9733516 48.3440227,54.6652771 48.7399011,54.3683379 C49.1357795,54.0713987 49.4872225,53.7818829 49.7942302,53.5220611 C50.101238,53.2622392 50.3638104,53.0246878 50.5738683,52.8242538 C50.7839262,52.6238199 50.9495488,52.4530798 51.0586173,52.3528628 L51.2121212,52.1969697 Z"
                          id="Path" fill="#53332D"></path>
                    <path d="M51.2121212,51.2121212 L51.401787,51.3874254 L51.9419222,51.8725696 C52.1769429,52.0804885 52.4655647,52.325099 52.7954183,52.6064011 C53.1252719,52.8877032 53.5046035,53.1934663 53.9251667,53.5155368 C54.34573,53.8376073 54.807525,54.180062 55.3064285,54.5184399 C55.805332,54.8568177 56.3413441,55.1992724 56.9103415,55.5172661 C57.4956851,55.8533511 58.1031524,56.150267 58.7286592,56.4060176 C58.8853396,56.4671702 59.0420201,56.5323997 59.2028237,56.5853986 L59.4419675,56.6710123 L59.6852345,56.7443955 L59.8089296,56.781087 L59.8625308,56.781087 L59.9285015,56.781087 L60.1800149,56.8463165 C60.3366953,56.8870849 60.5098684,56.9196997 60.6747952,56.9523144 C61.3554572,57.0740591 62.0448146,57.1422203 62.7363799,57.1561565 C63.4208261,57.1561565 64.1052722,57.1561565 64.7649793,57.1113112 C65.4246865,57.066466 66.0637777,57.0053133 66.6698836,56.9278533 C67.2759896,56.8503933 67.8491101,56.7688565 68.3768758,56.6832428 C68.9046415,56.5976292 69.3911755,56.5079386 69.8199851,56.4304786 C70.2487948,56.3530187 70.6240032,56.2755587 70.9291177,56.2103292 L71.6424261,56.059486 L71.8939394,56.0024103 L71.6589187,56.1084082 C71.5022383,56.1736376 71.275464,56.2714818 70.9785958,56.3856334 C70.6817276,56.499785 70.3230118,56.6343207 69.9065717,56.7933176 C69.4901316,56.9523144 69.0159671,57.0827733 68.4923246,57.2295396 C67.968682,57.3763059 67.3955615,57.5189954 66.7853324,57.6372238 C66.1751033,57.7554522 65.5236425,57.8777575 64.8433196,57.9633711 C64.1403017,58.0517567 63.4326565,58.0994013 62.7240104,58.1060606 C62.3611715,58.1060606 61.9900863,58.1060606 61.6231242,58.069369 C61.249875,58.0442166 60.878257,57.999307 60.5098684,57.9348333 C59.7564704,57.8086426 59.0203901,57.5965927 58.3163423,57.3029228 C57.6573021,57.0239515 57.0228922,56.6912195 56.4196843,56.3081734 C55.860292,55.9565006 55.3232693,55.5711933 54.8116482,55.1544272 C54.3251142,54.746743 53.8880582,54.3635199 53.5004803,53.9802968 C53.1129023,53.5970736 52.7748025,53.2342347 52.4861806,52.8999337 C52.1975587,52.5656327 51.9584149,52.2680232 51.7687491,52.015259 C51.5790833,51.7624948 51.4347724,51.5627296 51.3564321,51.424117 C51.2780919,51.2855044 51.2121212,51.2121212 51.2121212,51.2121212 Z"
                          id="Path" fill="#53332D"></path>
                    <path d="M31.3369049,8.11875401 C31.3369049,8.11875401 32.8412156,1.08366868 27.1095506,0.985333186 C21.3778857,0.88699769 5.87222365,15.7766308 2.31658027,22.5167096 C-1.23906311,29.2567885 -1.33559641,35.3249081 6.56404566,39.639378 C14.4636877,43.9538479 19.2058863,43.4171 19.5035307,35.8329748 C19.801175,28.2488496 18.5019976,23.5205512 19.801175,18.4398838 C21.1003524,13.3592165 24.350307,5.90210802 27.753106,6.66011081 C30.0739275,7.18046948 29.9532609,8.86036754 29.9532609,8.86036754 L31.3369049,8.11875401 Z"
                          id="Path" fill="#5D3B32"></path>
                    <path d="M29.6683506,6.24678902 C29.1457641,5.77812371 28.5318032,5.42411707 27.8656165,5.20734197 C27.0603253,4.90475586 26.1851322,4.84318582 25.3457949,5.03007193 C24.4324096,5.28389039 23.7954436,6.02520147 23.2185687,6.73428163 C22.3968458,7.73069924 21.6811929,8.81096024 21.0833304,9.95737325 C20.5416749,10.9535246 20.0509592,11.976846 19.6131006,13.0233392 C19.212493,14.0265264 18.9200495,15.0619446 18.6115816,16.0893051 C18.575527,16.2061421 18.5354662,16.3189504 18.5074237,16.4357874 C17.2294855,21.4315795 18.5074237,26.084918 18.2109741,33.5383174 C17.9145245,40.9917168 13.1953673,41.5315846 5.32342849,37.3012769 C3.68841201,36.4676914 2.21818671,35.3413426 0.984848485,33.9774636 C1.89422767,36.1006752 3.7530468,38.0063282 6.83371903,39.6863647 C14.7056578,43.9247302 19.424815,43.4009778 19.7212646,35.9435495 C20.0177142,28.4861213 18.7237518,23.8368116 20.0177142,18.8410196 C21.3116767,13.8452275 24.5525919,6.51269408 27.9377259,7.25803402 C30.2492316,7.76969981 30.1290493,9.42153427 30.1290493,9.42153427 L31.5151515,8.69230979 C31.0487808,7.77334674 30.4234189,6.94524689 29.6683506,6.24678902 Z"
                          id="Path" fill="#55362E"></path>
                    <path d="M76.8297139,9.26130065 L72.8787879,7.3707331 C72.8787879,7.3707331 80.186395,-2.34479403 90.8185619,0.532848783 C99.6519332,2.92093411 115.817003,28.5331492 111.576984,35.6536236 C107.336966,42.774098 94.5165323,47.9562432 91.9548547,43.8487364 C89.393177,39.7412297 92.8743283,29.7669933 91.4569737,22.8057246 C90.0396192,15.8444559 85.3418717,7.39063381 81.4993552,6.88515575 C77.6568387,6.37967769 76.8297139,9.26130065 76.8297139,9.26130065 Z"
                          id="Path" fill="#5D3B32"></path>
                    <path d="M93.5844284,42.6103199 C90.8673049,38.3165075 94.5574803,27.8823417 93.0607946,20.6050352 C91.5641089,13.3277287 86.5792798,4.48207197 82.5015329,3.96600813 C79.3226221,3.69991271 77.2445792,5.49807265 76.2509118,6.28829541 C75.3864115,7.06192333 74.5879969,7.90332615 73.8636364,8.80410663 L75.8922021,9.76366284 C75.8922021,9.76366284 76.7415609,6.87693073 80.6914916,7.37283583 C84.6414224,7.86874092 89.4695736,16.4321753 90.9167821,23.4998308 C92.3639905,30.5674864 88.789262,40.6589535 91.4239235,44.8156865 C93.691629,48.3999112 103.793226,44.9971152 109.318182,39.3687939 C103.496363,43.6626064 95.5882555,45.7752427 93.5844284,42.6103199 Z"
                          id="Path" fill="#55362E"></path>
                    <path d="M28.5606061,115.108554 C28.5606061,115.108554 39.2130854,94.125545 51.424759,94.5518639 C63.6364325,94.9781828 72.8787879,117.422856 72.8787879,117.422856 C72.8787879,117.422856 63.1892218,120.179718 49.8172176,120.151515 C36.5459366,120.122876 28.5606061,115.108554 28.5606061,115.108554 Z"
                          id="Path" fill="#D5AB87"></path>
                    <path d="M23.4078416,104.074794 C23.4078416,104.074794 11.0797587,93.0472763 6.00713702,96.047768 C0.93451538,99.0482597 2.86930505,105.682635 6.83397021,111.415645 C10.7986354,117.148655 17.3140809,123.364829 22.0931768,120.348097 C26.8722726,117.331364 23.4078416,104.074794 23.4078416,104.074794 Z"
                          id="Path" fill="#D5AB87"></path>
                    <ellipse id="Oval" fill="#E3BE9A"
                             transform="translate(15.933329, 114.511130) rotate(-43.050000) translate(-15.933329, -114.511130) "
                             cx="15.9333295" cy="114.51113" rx="5.41712546" ry="8.19637452"></ellipse>
                    <path d="M20.3465862,116.175835 C21.4217738,117.513151 19.6656341,117.184489 18.5259352,118.189365 C17.3862364,119.194242 17.3969883,121.071774 16.3468884,119.621125 C15.5010741,118.453806 15.594257,116.38361 16.4436552,115.635619 C17.1891187,114.978294 19.4756843,115.084071 20.3465862,116.175835 Z"
                          id="Path" fill="#CA926F"></path>
                    <ellipse id="Oval" fill="#CA926F"
                             transform="translate(15.969057, 112.171851) rotate(-30.350000) translate(-15.969057, -112.171851) "
                             cx="15.9690568" cy="112.171851" rx="1.19427081" ry="1.57401785"></ellipse>
                    <ellipse id="Oval" fill="#CA926F"
                             transform="translate(18.964737, 112.768933) rotate(-24.310000) translate(-18.964737, -112.768933) "
                             cx="18.9647373" cy="112.768933" rx="1.12619424" ry="1.48129191"></ellipse>
                    <ellipse id="Oval" fill="#CA926F"
                             transform="translate(13.781868, 114.071665) rotate(-49.490000) translate(-13.781868, -114.071665) "
                             cx="13.781868" cy="114.071665" rx="1.19314346" ry="1.57550666"></ellipse>
                    <ellipse id="Oval" fill="#CA926F"
                             transform="translate(13.849004, 117.100943) rotate(-55.540000) translate(-13.849004, -117.100943) "
                             cx="13.8490043" cy="117.100943" rx="1.12451347" ry="1.48350808"></ellipse>
                    <path d="M80.0012494,104.074794 C80.0012494,104.074794 92.3293323,93.0472763 97.4019539,96.047768 C102.474576,99.0482597 100.539786,105.682635 96.5751207,111.415645 C92.6104555,117.148655 86.09501,123.364829 81.3159141,120.348097 C76.5368183,117.331364 80.0012494,104.074794 80.0012494,104.074794 Z"
                          id="Path" fill="#D5AB87"></path>
                    <ellipse id="Oval" fill="#E3BE9A"
                             transform="translate(87.041526, 114.523669) rotate(-46.950000) translate(-87.041526, -114.523669) "
                             cx="87.0415262" cy="114.523669" rx="8.19637452" ry="5.41712546"></ellipse>
                    <path d="M82.0776562,116.175835 C81.0024686,117.513151 82.7586083,117.184489 83.8983072,118.189365 C85.038006,119.194242 85.0272542,121.071774 86.0773541,119.621125 C86.9231683,118.453806 86.8299854,116.38361 85.9805872,115.635619 C85.2351238,114.978294 82.9557261,115.084071 82.0776562,116.175835 Z"
                          id="Path" fill="#CA926F"></path>
                    <ellipse id="Oval" fill="#CA926F"
                             transform="translate(87.000515, 112.173357) rotate(-59.650000) translate(-87.000515, -112.173357) "
                             cx="87.0005145" cy="112.173357" rx="1.57401785" ry="1.19427081"></ellipse>
                    <ellipse id="Oval" fill="#CA926F"
                             transform="translate(84.012947, 112.777515) rotate(-65.690000) translate(-84.012947, -112.777515) "
                             cx="84.0129474" cy="112.777515" rx="1.48129191" ry="1.12619424"></ellipse>
                    <ellipse id="Oval" fill="#CA926F"
                             transform="translate(89.184529, 114.060354) rotate(-40.510000) translate(-89.184529, -114.060354) "
                             cx="89.1845288" cy="114.060354" rx="1.57550666" ry="1.19314346"></ellipse>
                    <ellipse id="Oval" fill="#CA926F"
                             transform="translate(89.114717, 117.118742) rotate(-34.460000) translate(-89.114717, -117.118742) "
                             cx="89.1147168" cy="117.118742" rx="1.48350808" ry="1.12451347"></ellipse>
                    <path d="M19.6969697,87.6515152 C19.6969697,87.6515152 19.8453654,102.773705 21.1247772,106.573031 C22.1476491,109.390596 23.36576,112.135531 24.7704991,114.788433 L33.6822638,115.227273 C33.6822638,115.227273 36.2932264,106.636288 36.5860071,99.9825242 C36.8787879,93.3287607 37.4242424,91.245259 37.4242424,91.245259"
                          id="Path" fill="#E3BE9A"></path>
                    <path d="M19.7962548,86.6666667 L20.0515595,90.311349 L20.1832009,92.1316264 L20.3188315,93.9519038 L20.4624404,95.7680535 L20.6140275,97.5842033 C20.667216,98.1895866 20.7230639,98.7935939 20.7815712,99.3962255 C20.8414082,99.998857 20.9012452,100.601488 20.9690605,101.199992 C21.0368758,101.798496 21.1126694,102.397 21.1924521,102.995504 C21.2722348,103.594008 21.3639849,104.184257 21.4796698,104.762122 C21.5036046,104.910717 21.5395068,105.051055 21.5674308,105.174884 L21.6113113,105.38952 L21.66317,105.5959 L21.7150288,105.802281 C21.7150288,105.868323 21.7549201,105.934365 21.7748658,106.000406 L21.8307137,106.186149 L21.9065073,106.400785 L22.2176598,107.255201 L22.373236,107.667962 L22.5367906,108.080723 C22.756193,108.629696 22.9716063,109.178668 23.2149435,109.731769 L23.5699766,110.557291 L23.9409661,111.382814 C24.1843033,111.931786 24.4435971,112.472504 24.6989018,113.033859 C24.9542064,113.595215 25.2214784,114.115294 25.4967288,114.639501 L24.8903802,114.226739 L27.1083393,114.334057 L29.3262984,114.44963 L31.5442574,114.569331 L33.7582274,114.697287 L33.0441722,115.221494 C33.187781,114.730308 33.3274008,114.218484 33.4670205,113.714915 L33.6704664,112.955434 L33.865934,112.195954 C33.9935863,111.688257 34.1252278,111.180561 34.2648475,110.668737 L34.4483477,109.905128 L34.5959457,109.15803 C34.654453,108.902118 34.7116306,108.646206 34.7674785,108.390294 L34.9350222,107.622558 C35.0440585,107.110734 35.1491058,106.597534 35.2501638,106.082959 L35.3937727,105.311095 C35.4456315,105.055183 35.4935011,104.795143 35.5333924,104.539231 C35.6211534,104.02328 35.7129035,103.507328 35.7847079,102.987249 L35.9003929,102.211258 L35.9961321,101.431139 C36.0679365,100.911059 36.111817,100.39098 36.1596866,99.870901 L36.3072846,98.2858975 L36.4588718,96.7050217 L36.614448,95.1241459 L36.8418287,93.5432701 L36.9535245,92.754896 L37.0093724,92.3421347 L37.0891551,91.9500114 L37.2447313,91.1698926 C37.2726553,91.0419365 37.292601,90.9098529 37.324514,90.7818969 L37.4242424,90.3980289 L37.3723837,90.8107902 C37.3723837,90.9428738 37.3484489,91.0749575 37.3364815,91.2235515 L37.264677,92.0119256 L37.2287748,92.4246869 L37.2287748,92.8374482 L37.1888835,93.62995 L37.1091008,95.2066982 L37.0771877,96.7958292 L37.0293181,98.3436841 L36.9894267,99.9121771 L36.9654919,100.717062 C36.9654919,100.985356 36.9335788,101.249524 36.9176223,101.517819 L36.8617744,102.318576 L36.7859808,103.115205 C36.7381112,103.647667 36.6702959,104.176001 36.6064697,104.708464 C36.5426436,105.240926 36.4588718,105.765132 36.3870673,106.293467 C36.3152629,106.821801 36.2155345,107.346008 36.1277735,107.870215 C36.0400126,108.394422 35.9442733,108.918629 35.8365667,109.438708 L35.6809904,110.222955 L35.5174359,111.003073 C35.4097292,111.523153 35.2900552,112.043232 35.1703811,112.559184 L34.9948592,113.335175 L34.8033807,114.111166 C34.6717393,114.627118 34.544087,115.138942 34.4044672,115.663149 L34.2528801,116.212121 L33.6904121,116.187356 L31.4564965,116.09242 L29.2385374,115.985102 L27.0165892,115.869529 L24.7986301,115.749829 L24.3997166,115.72919 L24.2082382,115.34945 C24.0686184,115.068772 23.936977,114.800478 23.8093247,114.523927 L23.4104111,113.698405 C23.1590956,113.141177 22.8998019,112.588077 22.6604538,112.04736 L22.2934533,111.221837 L21.9384203,110.313762 C21.7030614,109.752407 21.4916372,109.166286 21.2722348,108.584292 L21.1086803,108.150893 L20.9650714,107.738132 L20.6818428,106.87546 L20.6100384,106.660825 L20.6100384,106.631931 L20.6100384,106.631931 L20.6100384,106.603038 L20.6100384,106.541124 L20.5781253,106.421423 C20.5581796,106.342998 20.5342448,106.260446 20.5142991,106.182021 L20.4624404,105.946747 L20.4105816,105.711473 L20.3667011,105.4762 C20.3387772,105.31935 20.3068641,105.166629 20.2869184,105.009779 C20.1871901,104.390637 20.1233639,103.771495 20.0595377,103.164736 C19.9957116,102.557977 19.947842,101.926452 19.9119398,101.327948 C19.8760375,100.729444 19.8401353,100.089664 19.8082222,99.4952882 C19.7763092,98.9009119 19.7603526,98.2570042 19.7404069,97.662628 C19.7204613,97.0682517 19.7084939,96.424344 19.7005156,95.8299677 C19.6925373,95.2355915 19.7005156,94.5916838 19.7005156,94.0014351 L19.7005156,92.1522645 L19.7005156,91.2359344 L19.7005156,90.3196043 C19.7005156,89.7087175 19.7244504,89.0813203 19.7443961,88.4910717 C19.7643418,87.900823 19.7643418,87.2734258 19.7962548,86.6666667 Z"
                          id="Path" fill="#CA926F"></path>
                    <path d="M62.0454545,25.0773475 L63.1832298,24.9366894 C63.542098,24.8898034 63.974371,24.8311958 64.4678148,24.7608668 C64.9612585,24.6905378 65.5077169,24.5967657 66.0990338,24.4756435 L66.3192484,24.4287575 L66.543541,24.3779643 L66.7719117,24.3271711 L67.0002823,24.2685635 L67.228653,24.209956 L67.4570237,24.1435341 L67.571209,24.1083696 L67.6283017,24.1083696 L67.656848,24.1083696 L67.7017065,24.1083696 L67.9545455,24.0341334 L68.0809649,23.9989689 L68.2155405,23.9638044 L68.5091599,23.8973825 C68.7089843,23.8465893 68.9169647,23.815332 69.1004768,23.7801675 C69.5049186,23.7110082 69.913553,23.6666369 70.3238911,23.6473237 C71.2154285,23.6028637 72.108693,23.6938539 72.9705439,23.9169184 C73.8727535,24.1552584 74.7262767,24.5383764 75.4948554,25.0499973 L76.0494699,25.4407141 C76.0963749,25.4734115 76.1413057,25.5086326 76.1840454,25.5462077 L76.3104649,25.6556084 L76.5633038,25.878317 L76.6897233,25.9916249 L76.8079867,26.10884 L77.0404354,26.3471773 L77.1546207,26.4682995 L77.2117134,26.526907 L77.2402597,26.5581644 L77.2402597,26.5581644 L77.2402597,26.5581644 L77.2688061,26.5894217 L77.4563963,26.8199447 L77.6439864,27.0504676 C77.7051572,27.128611 77.7663279,27.19894 77.8315766,27.2927121 L78.206757,27.8123655 L78.2964741,27.9413021 L78.378035,28.0663315 L78.5370789,28.3202975 C78.6431081,28.4883057 78.7532154,28.6524068 78.8470105,28.820415 C79.0386787,29.1564315 79.2303469,29.4846337 79.3975469,29.8167431 C79.4831859,29.9808441 79.5647468,30.141038 79.6463078,30.3051391 L79.8746785,30.7857209 C80.1723759,31.4186822 80.4170588,32.0282005 80.6331953,32.5908328 C80.7392245,32.8747537 80.8370977,33.1469531 80.9268147,33.4074311 C81.0124537,33.6692114 81.0980927,33.915363 81.1674195,34.1497931 C81.2367463,34.3842232 81.3060732,34.6030247 81.3590878,34.8101046 C81.4121024,35.0171845 81.465117,35.2008215 81.5099755,35.3727369 C81.5956145,35.7126606 81.6527072,35.9861624 81.6894096,36.1541706 C81.7261121,36.3221789 81.7424242,36.4393939 81.7424242,36.4393939 L81.5752243,36.2010567 L81.3754,35.9119262 L81.1103269,35.5212093 C81.0083757,35.3766441 80.9023464,35.212543 80.7840831,35.0367204 C80.6658197,34.8608978 80.5394002,34.6694465 80.4048246,34.4662738 L79.5035761,33.1065791 C79.1732543,32.6103686 78.8184641,32.0750865 78.4392057,31.5163614 L78.1496643,31.09048 L77.8723571,30.6685058 C77.7704059,30.5239406 77.6725328,30.3754682 77.5665035,30.2348101 L77.2484158,29.7972072 C77.1464646,29.6487348 77.0282013,29.5119839 76.918094,29.3635115 L76.750894,29.14471 L76.665255,29.0353093 L76.579616,28.9337229 L76.2452161,28.5430061 C76.1962796,28.4765842 76.1269528,28.402348 76.0576259,28.3281118 L75.8578016,28.1093103 C75.3836399,27.5872697 74.8470963,27.1204181 74.259207,26.7183583 C73.6797423,26.3322888 73.0451911,26.0283077 72.375149,25.8158023 C71.7147729,25.6105656 71.029359,25.4884205 70.3361252,25.4524357 C69.9894912,25.4524357 69.6469352,25.4328998 69.3043792,25.4524357 C69.1331012,25.4524357 68.9618232,25.4524357 68.8027793,25.483693 L68.5621745,25.5032288 L68.3011795,25.5344862 L68.0401845,25.5696507 L67.9871698,25.5696507 L67.917843,25.5696507 L67.7791894,25.5696507 L67.5059602,25.6009081 L67.2408871,25.6009081 L66.9798921,25.6009081 L66.7229751,25.6009081 L66.4742142,25.6009081 L66.2295313,25.6009081 C65.6487615,25.5957847 65.0687564,25.5592597 64.4922831,25.4915073 C63.9825271,25.4289926 63.542098,25.3586636 63.1791518,25.2844274 C62.8162055,25.2101912 62.5388983,25.1437693 62.3635423,25.0929761 L62.0454545,25.0773475 Z"
                          id="Path" fill="#BE936F"></path>
                    <path d="M40.3787879,24.139019 L39.352735,23.9962492 C39.0299319,23.9472995 38.6379566,23.8942707 38.1998666,23.8208463 C37.7617767,23.7474218 37.2622004,23.6576808 36.7357238,23.5353067 L36.5358933,23.4904361 L36.3360628,23.4414865 L36.1170178,23.3721412 L35.9248731,23.3231915 L35.7327283,23.2538462 L35.5290549,23.1845009 L35.4252968,23.1518678 L35.3753391,23.1518678 L35.3484389,23.1518678 L35.306167,23.1518678 L35.0794362,23.0784433 L34.9641494,23.0417311 L34.8450197,23.0050188 L34.5798599,22.9152778 C34.4030868,22.8663282 34.2263136,22.8336951 34.0495405,22.7969828 C33.6811735,22.7267264 33.308921,22.6817626 32.9351011,22.6623713 C32.1324973,22.6181885 31.3283613,22.7090524 30.5525064,22.9315944 C29.7407716,23.1693816 28.9728556,23.5514278 28.2813557,24.0615153 L27.7817794,24.4694291 C27.7408584,24.4931051 27.7010972,24.518973 27.6626497,24.5469327 L27.5473629,24.6570694 L27.3167892,24.8814219 L27.2015023,24.9915586 L27.0939013,25.1098536 L26.886385,25.3505227 L26.7826268,25.4688177 L26.7326692,25.5300047 L26.7057689,25.5585587 L26.7057689,25.5585587 L26.7057689,25.5585587 L26.6788687,25.5911918 L26.5097813,25.8196235 L26.340694,26.0480551 C26.2830505,26.1255588 26.22925,26.1949041 26.1716066,26.2887242 L25.8334319,26.8067747 L25.7527311,26.9373071 L25.6797161,27.0637603 L25.5336861,27.3166668 C25.4376137,27.4839114 25.3415414,27.6511561 25.2569977,27.8184007 C25.0840674,28.1528899 24.9111372,28.4833 24.7612643,28.809631 C24.6844064,28.9727965 24.6075485,29.135962 24.5383764,29.2950483 L24.334703,29.7723074 C24.0657004,30.4045736 23.8466554,30.9960485 23.6506677,31.575286 C23.5558763,31.8472285 23.4674898,32.119171 23.385508,32.3911134 C23.3086501,32.6521782 23.2317922,32.8969265 23.166463,33.1335164 C23.1011338,33.3701064 23.0434904,33.5863006 22.9935328,33.7902575 C22.9435751,33.9942143 22.8974604,34.1981712 22.8590315,34.3531784 C22.7821736,34.6958259 22.728373,34.965049 22.6976299,35.1690059 C22.6668867,35.3729627 22.6515152,35.4545455 22.6515152,35.4545455 L22.8052309,35.2138764 L22.985847,34.9242576 L23.2241064,34.5163439 C23.3163359,34.369495 23.4124083,34.2104086 23.5161664,34.0309266 C23.6199246,33.8514445 23.7352114,33.6638042 23.8581841,33.4598474 L24.6690348,32.1014947 C24.9649377,31.6079191 25.2877408,31.0735521 25.6297585,30.5147103 L25.8872324,30.1067966 L26.1600779,29.6988829 C26.2523074,29.5561131 26.340694,29.4092642 26.4367663,29.2664944 L26.7249834,28.8300267 C26.8172129,28.6790986 26.9248139,28.5444871 27.0208863,28.3976382 L27.1707592,28.1814439 L27.2476171,28.0713072 L27.324475,27.9693288 L27.6280636,27.561415 C27.6741784,27.4961488 27.7356647,27.4227244 27.797151,27.3492999 L27.977767,27.1290265 C28.4040894,26.6086396 28.8864689,26.1431542 29.4150096,25.7421199 C29.9372271,25.3561582 30.5093515,25.0525102 31.113569,24.8406305 C31.7109324,24.6349414 32.3310333,24.5128961 32.9581584,24.4775873 C33.2694329,24.4775873 33.5807074,24.4571917 33.8881389,24.4775873 C34.0418547,24.4775873 34.1955705,24.4775873 34.3377576,24.5061413 L34.5568026,24.5061413 L34.7912192,24.5387744 L35.0256357,24.5714075 L35.0755933,24.5714075 L35.1370797,24.5714075 L35.2600523,24.5714075 L35.5059975,24.6040406 L35.7480999,24.6040406 L35.9825165,24.6040406 L36.2130901,24.6040406 L36.4398209,24.6040406 L36.6588659,24.6040406 C37.1817553,24.5985865 37.7039381,24.5618158 38.222924,24.4939039 C38.6840714,24.4327168 39.0798895,24.3592924 39.4065355,24.289947 C39.7331816,24.2206017 39.9829697,24.1512564 40.1559,24.1023067 L40.3787879,24.139019 Z"
                          id="Path" fill="#BE936F"></path>
                    <path d="M65.9848485,87.6515152 C65.9848485,87.6515152 66.1332442,102.773705 67.412656,106.573031 C68.4355279,109.390596 69.6536387,112.135531 71.0583779,114.788433 L79.9701426,115.227273 C79.9701426,115.227273 82.5811052,106.636288 82.8738859,99.9825242 C83.1666667,93.3287607 83.7121212,91.245259 83.7121212,91.245259"
                          id="Path" fill="#E3BE9A"></path>
                    <path d="M66.0523573,87.6515152 L66.30818,91.2972162 L66.4400886,93.1180023 L66.5759944,94.9387884 L66.7198947,96.7554457 L66.8717895,98.5721031 C66.9250859,99.1776555 66.9810471,99.7818317 67.0396732,100.384632 C67.0996316,100.987432 67.1595901,101.590232 67.227543,102.188903 C67.2954959,102.787574 67.3714433,103.386245 67.4513879,103.984916 C67.5313325,104.583587 67.6232688,105.174001 67.7391885,105.752028 C67.7631719,105.900664 67.799147,106.041042 67.8271276,106.164905 L67.8710971,106.379601 L67.9230611,106.586039 L67.9750251,106.792478 C67.9750251,106.858538 68.0149974,106.924598 68.0349835,106.990658 L68.0909448,107.176453 L68.1668922,107.391149 L68.4786761,108.245803 L68.6345681,108.65868 L68.7984546,109.071557 C69.0183022,109.620683 69.2341527,110.169809 69.4779837,110.723064 L69.8337372,111.548817 L70.2054797,112.37457 C70.4493107,112.923696 70.7091307,113.464565 70.9649534,114.026077 C71.2207762,114.587589 71.4885906,115.107814 71.7643995,115.632167 L71.1568205,115.21929 L73.3792806,115.326638 L75.6017407,115.442244 L77.8242008,115.561978 L80.0426637,115.68997 L79.2911844,116.234967 C79.4350847,115.743644 79.5749877,115.231677 79.7148908,114.727967 L79.9187496,113.968274 L80.1186111,113.208581 C80.2465224,112.700743 80.3784311,112.192904 80.5183341,111.680937 L80.7022067,110.917116 L80.8780849,110.149165 C80.9367109,109.893181 80.9940045,109.637198 81.0499658,109.381214 L81.2178494,108.613264 C81.3271071,108.101297 81.4323675,107.587953 81.5336306,107.073234 L81.6775309,106.301154 C81.7294949,106.045171 81.7774617,105.785059 81.817434,105.529075 C81.9053731,105.012979 81.9973094,104.496883 82.0692595,103.976659 L82.1851792,103.200451 L82.2811127,102.420114 C82.3530629,101.899889 82.3970324,101.379664 82.4449992,100.85944 L82.5928967,99.2739934 L82.7447915,97.6926758 L82.9006834,96.1113581 L83.1285256,94.5300405 L83.240448,93.741446 L83.2964092,93.3285694 L83.3763539,92.9363365 L83.5322458,92.1559996 C83.5602265,92.0280079 83.5802126,91.8958873 83.6121905,91.7678956 L83.7121212,91.3839203 L83.6601572,91.7967969 C83.6601572,91.9289175 83.6361738,92.061038 83.6241821,92.2096736 L83.552232,92.998268 L83.5162569,93.4111447 L83.5162569,93.8240214 L83.4762846,94.6167446 L83.39634,96.1939335 L83.3643622,97.7835086 L83.3323843,99.3730838 L83.2884148,100.89247 L83.2644314,101.697579 C83.2644314,101.965949 83.2324536,102.23019 83.2164646,102.49856 L83.1605034,103.299541 L83.084556,104.096393 C83.0365893,104.629004 82.9646391,105.157486 82.9046807,105.690097 C82.8447222,106.222708 82.7567831,106.747061 82.684833,107.275543 C82.6128828,107.804025 82.5129521,108.328379 82.425013,108.852732 C82.337074,109.377086 82.2411404,109.901439 82.1332152,110.421664 L81.9773232,111.206129 L81.8134368,111.986466 C81.7055115,112.506691 81.5855946,113.026915 81.4656777,113.543011 L81.2818051,114.319219 L81.0899381,115.095427 C80.9580295,115.611523 80.8301181,116.12349 80.690215,116.647844 L80.5383203,117.19697 L79.9747108,117.172197 L77.7522507,117.073107 L75.5297906,116.965759 L73.3073305,116.854282 L71.0848704,116.734548 L70.6851473,116.713904 L70.4932802,116.334057 C70.3533772,116.053301 70.2214686,115.784931 70.0935572,115.508304 L69.6938342,114.682551 C69.4420087,114.125167 69.1821887,113.571913 68.9423549,113.031044 L68.5746097,112.205291 L68.2308478,111.354765 C67.9950112,110.793253 67.783158,110.206968 67.5633104,109.624812 L67.3994239,109.191291 L67.2555236,108.778414 L66.9717203,107.915502 L66.8997701,107.700806 L66.8997701,107.671905 L66.8997701,107.671905 L66.8997701,107.643004 L66.8997701,107.581072 L66.8677923,107.461338 C66.8478061,107.382891 66.8238227,107.300316 66.8038366,107.221869 L66.7518726,106.98653 L66.6999086,106.75119 L66.6559391,106.51585 C66.6279584,106.358957 66.5959806,106.206193 66.5759944,106.0493 C66.4760637,105.429985 66.412108,104.81067 66.3481523,104.203741 C66.2841966,103.596812 66.2362299,102.965111 66.2002548,102.36644 C66.1642797,101.767769 66.1283046,101.12781 66.0963268,100.533267 C66.064349,99.9387249 66.04836,99.2946373 66.0283739,98.7000949 C66.0083877,98.1055525 65.996396,97.4614648 65.9884016,96.8669224 C65.9804071,96.27238 65.9884016,95.6282924 65.9884016,95.0378788 L65.9884016,93.2088351 L65.9884016,92.2922489 L65.9884016,91.3756627 C65.9884016,90.7646052 66.012385,90.1370327 66.0323711,89.5466191 C66.0523573,88.9562054 66.0163822,88.2584439 66.0523573,87.6515152 Z"
                          id="Path" fill="#CA926F"></path>
                    <path d="M40.3787879,65.0111621 C40.3787879,65.0111621 44.7789286,63.3671256 47.86926,63.7132386 C50.9595914,64.0593515 51.0619203,64.3941782 51.0619203,64.3941782 C51.0619203,64.3941782 51.4712357,62.2121618 55.0813976,62.0503916 C58.6915596,61.8886214 63.030303,65.7560574 63.030303,65.7560574 C63.030303,65.7560574 57.4349613,69.303715 51.29523,68.9086948 C47.3222741,68.6096615 43.5295737,67.2555414 40.3787879,65.0111621 Z"
                          id="Path" fill="#DA9B9C"></path>
                    <path d="M48.5200715,63.1077897 C51.6104029,63.5611317 51.7127318,63.9996909 51.7127318,63.9996909 C51.7127318,63.9996909 52.1220472,61.1416649 55.7322092,60.9297767 C58.4500635,60.7720926 61.5649538,63.5857699 62.9525331,65 L63.030303,64.9359408 C63.030303,64.9359408 58.6997459,59.8703361 55.0813976,60.0822242 C51.4630494,60.2941123 51.0619203,63.1521384 51.0619203,63.1521384 C51.0619203,63.1521384 50.9595914,62.7135792 47.86926,62.2602371 C44.7789286,61.8068951 40.3787879,63.9602698 40.3787879,63.9602698 C40.3787879,63.9602698 40.673495,64.2608553 41.2219776,64.719125 C42.0897263,64.3199869 45.8104035,62.7086516 48.5200715,63.1077897 Z"
                          id="Path" fill="#CD898B"></path>
                    <circle id="Oval" fill="#3D2A26" cx="37.4621212" cy="40.4621212" r="2.46212121"></circle>
                    <circle id="Oval" fill="#FFFFFF" cx="35.9848485" cy="39.9848485" r="1"></circle>
                    <circle id="Oval" fill="#6F3F2D" cx="63.030303" cy="41.3636364" r="2.95454545"></circle>
                    <circle id="Oval" fill="#3D2A26" cx="63.969697" cy="40.969697" r="1.96969697"></circle>
                    <circle id="Oval" fill="#FFFFFF" cx="64.9848485" cy="40.9848485" r="1"></circle>
                    <path d="M52.1969697,82.218499 C52.1969697,83.0448406 51.5333333,83.7121212 50.719697,83.7121212 L50.719697,83.7121212 C49.9015152,83.7121212 49.2424242,83.0409611 49.2424242,82.218499 L49.2424242,78.311804 C49.2424242,77.4854624 49.9060606,76.8181818 50.719697,76.8181818 L50.719697,76.8181818 C51.5378788,76.8181818 52.1969697,77.4893419 52.1969697,78.311804 L52.1969697,82.218499 Z"
                          id="Path" fill="#E8C73A"></path>
                    <circle id="Oval" fill="#F5D23B" cx="50.719697" cy="86.1742424" r="3.4469697"></circle>
                    <path d="M54.8757285,67.9545455 C54.1741116,67.0441057 53.3959933,66.2198954 52.553315,65.4945634 C50.7897323,63.8816707 50.2309015,63.3554485 50.2272727,63.3554485 L50.4522565,63.030303 C50.4522565,63.030303 51.0147161,63.5736382 52.7710413,65.1694179 C53.6371238,65.9120896 54.4349543,66.7595097 55.1515152,67.6978517 L54.8757285,67.9545455 Z"
                          id="Path" fill="#D18C8E"></path>
                    <path d="M55.1515152,47.6456466 C55.1515152,45.3787879 52.946032,44.3181818 50.2272727,44.3181818 C47.5085135,44.3181818 45.3030303,45.3787879 45.3030303,47.6456466 C45.3390882,48.2548134 45.6403001,48.8239493 46.1371039,49.2216176 C46.3561466,48.7626323 46.8437123,48.465825 47.3830273,48.4631576 C47.9223423,48.4604902 48.4132654,48.7524578 48.6375303,49.2092506 C48.8617951,49.6660433 48.7777597,50.2028428 48.4227865,50.5809859 C49.0070008,50.8288818 49.6085289,51.0397403 50.2232628,51.2121212 C50.807104,51.0486111 51.3790387,50.8502711 51.9355197,50.6183312 C51.5595437,50.2399527 51.4646884,49.6881648 51.6950333,49.2193836 C51.9253781,48.7506025 52.4357532,48.4567544 52.988987,48.4743909 C53.5422208,48.4920273 54.029826,48.8176898 54.2252122,49.3000427 C54.7698445,48.894271 55.1060384,48.2938218 55.1515152,47.6456466 L55.1515152,47.6456466 Z"
                          id="Path" fill="#402E2B"></path>
                    <path d="M53.3748708,49.3478763 C52.7133828,49.1168001 51.9317606,49.2753144 51.5045489,49.7271807 C51.0773371,50.179047 51.1223847,50.7996153 51.612342,51.2121212 C52.5413163,50.9128829 53.403292,50.5031534 54.1666667,49.9979543 C54.0241658,49.7096437 53.7397016,49.4760936 53.3748708,49.3478763 Z"
                          id="Path" fill="#382927"></path>
                    <path d="M48.3412123,49.3519882 C47.5651048,49.0765934 46.6469727,49.3381777 46.2878788,49.9370018 C47.0515078,50.4699697 47.9246792,50.9009071 48.8715435,51.2121212 C49.1871233,50.9268662 49.3108904,50.5435739 49.2057335,50.1771738 C49.1005766,49.8107738 48.7787229,49.5038693 48.3366796,49.3484851 L48.3412123,49.3519882 Z"
                          id="Path" fill="#382927"></path>
                    <path d="M50.2292851,51.5505441 C50.2292851,51.5505441 45.6008594,50.0010238 45.3030303,47.2727273 C45.3030303,47.3963086 45.3030303,47.5246431 45.3030303,47.6577308 C45.3030303,50.5428805 50.245384,52.1969697 50.245384,52.1969697 C50.245384,52.1969697 55.1515152,50.5571399 55.1515152,47.6719902 C55.1515152,47.5389025 55.1515152,47.410568 55.1515152,47.2869867 C54.8577107,50.0010238 50.2292851,51.5505441 50.2292851,51.5505441 Z"
                          id="Path" fill="#382927"></path>
                    <path d="M29.1332516,112.27325 C25.2430823,112.217489 20.6212574,116.637481 21.8766666,118.592836 C23.1320758,120.54819 35.0704575,120.715473 36.2459043,118.80101 C37.4213511,116.886548 33.0154246,112.332728 29.1332516,112.27325 Z"
                          id="Path" fill="#E3BE9A"></path>
                    <path d="M33.6529627,120.151515 L33.6529627,119.911308 C33.6529627,119.757576 33.6529627,119.536585 33.6077977,119.272358 C33.5626327,119.00813 33.552596,118.705469 33.5024127,118.3932 C33.477321,118.239468 33.447211,118.080931 33.4120826,117.956024 L33.4120826,117.917591 L33.4120826,117.917591 L33.4120826,117.917591 L33.4120826,117.941611 L33.4120826,117.941611 L33.4120826,117.941611 L33.3468442,117.821508 L33.2816059,117.701404 C33.2816059,117.658167 33.2364408,117.629342 33.2163675,117.595713 C33.1260374,117.456393 33.0407257,117.317073 32.9353407,117.163341 C32.8299556,117.009608 32.7346072,116.870288 32.6292222,116.730968 C32.4284887,116.447524 32.2377919,116.188101 32.0721868,115.96711 L31.5151515,115.227273 L32.282957,115.774945 L33.0607991,116.351441 L33.4973943,116.682927 C33.6429261,116.793422 33.8035128,116.927938 33.9590813,117.062454 C34.1146497,117.19697 34.1096313,117.19697 34.1748697,117.259424 L34.2752364,117.355506 L34.2752364,117.355506 L34.2752364,117.355506 L34.2752364,117.384331 L34.2752364,117.384331 L34.3053465,117.422764 L34.3605482,117.49963 C34.4767427,117.671308 34.5823093,117.849367 34.6767033,118.03289 C34.8473268,118.364375 34.9828218,118.67184 35.0982436,118.936068 C35.2136653,119.200296 35.298977,119.416482 35.3591971,119.575018 L35.4545455,119.824834 L33.6529627,120.151515 Z"
                          id="Path" fill="#CA926F"></path>
                    <path d="M22.6515152,118.472974 L22.8076005,118.233601 C22.9083008,118.087046 23.0492812,117.876984 23.2255066,117.622956 C23.401732,117.368927 23.6132026,117.085588 23.8750232,116.772938 C23.9404784,116.694775 24.0109686,116.616613 24.0864938,116.533565 L24.2123691,116.406551 L24.2878943,116.338158 L24.3734895,116.259996 C24.5346099,116.147637 24.6957303,116.035278 24.8769908,115.92292 L25.380492,115.595614 L25.8839933,115.287849 L26.7500155,114.750481 L27.5757576,114.242424 L26.9161709,114.965428 L26.2364442,115.712858 L25.8588182,116.137867 L25.4811923,116.572646 C25.360352,116.714316 25.2344767,116.865756 25.1136364,117.017196 L25.1136364,117.017196 L25.1136364,117.017196 L25.1136364,117.017196 L25.1136364,117.017196 L25.1136364,117.056277 L25.0632862,117.15398 C25.0280411,117.227258 24.9978311,117.300535 24.967621,117.378698 C24.8417457,117.686463 24.7360104,117.999113 24.6504152,118.267797 C24.56482,118.536481 24.4993648,118.756313 24.4540497,118.922409 L24.3885945,119.166667 L22.6515152,118.472974 Z"
                          id="Path" fill="#CA926F"></path>
                    <line x1="27.8613636" y1="120.151515" x2="28.275" y2="115.227273" id="Path" fill="#E3BE9A"></line>
                    <polygon id="Path" fill="#CA926F"
                             points="27.5757576 120.094308 28.7854084 115.227273 29.5454545 120.151515"></polygon>
                    <path d="M74.4361462,112.27325 C70.5460477,112.217489 65.9243067,116.637481 67.1796931,118.592836 C68.4350795,120.54819 80.3732443,120.715473 81.5486697,118.80101 C82.7240952,116.886548 78.3262448,112.329011 74.4361462,112.27325 Z"
                          id="Path" fill="#E3BE9A"></path>
                    <path d="M77.9711446,120.151515 L77.9711446,119.911308 C77.9711446,119.757576 77.9711446,119.536585 77.9259795,119.272358 C77.8808145,119.00813 77.8707778,118.705469 77.8205945,118.3932 C77.7955028,118.239468 77.7653928,118.080931 77.7302644,117.956024 L77.7302644,117.917591 L77.7302644,117.917591 L77.7302644,117.917591 L77.7302644,117.941611 L77.7302644,117.941611 L77.7302644,117.941611 L77.6650261,117.821508 L77.5997877,117.701404 C77.5997877,117.658167 77.5546227,117.629342 77.5345493,117.595713 C77.4442193,117.456393 77.3589075,117.317073 77.2535225,117.163341 C77.1481374,117.009608 77.052789,116.870288 76.947404,116.730968 C76.7466705,116.447524 76.5559738,116.188101 76.3903687,115.96711 L75.8333333,115.227273 L76.6011388,115.774945 L77.3789809,116.351441 L77.8155761,116.682927 C77.9611079,116.793422 78.1216947,116.927938 78.2772631,117.062454 C78.4328315,117.19697 78.4278132,117.19697 78.4930515,117.259424 L78.5934183,117.355506 L78.5934183,117.355506 L78.5934183,117.355506 L78.5934183,117.384331 L78.5934183,117.384331 L78.6235283,117.422764 L78.67873,117.49963 C78.7949245,117.671308 78.9004912,117.849367 78.9948852,118.03289 C79.1655086,118.364375 79.3010037,118.67184 79.4164254,118.936068 C79.5318471,119.200296 79.6171588,119.416482 79.6773789,119.575018 L79.7727273,119.824834 L77.9711446,120.151515 Z"
                          id="Path" fill="#CA926F"></path>
                    <path d="M67.9545455,119.46339 L68.1099951,119.224254 C68.2102851,119.077845 68.3506912,118.867991 68.5261989,118.614214 C68.7017065,118.360438 68.9123156,118.077379 69.1730698,117.765039 C69.2382583,117.686954 69.3084614,117.608869 69.3836789,117.525903 L69.5090415,117.399015 L69.5842591,117.33069 L69.6695056,117.252605 C69.8299698,117.140358 69.9904339,117.028111 70.170956,116.915863 L70.6724063,116.588882 L71.1738567,116.281422 L72.0363513,115.744587 L72.8787879,115.227273 L72.2168734,115.95444 L71.5399154,116.701129 L71.1638277,117.125717 L70.7877399,117.560065 C70.6673918,117.701595 70.5420293,117.852885 70.4166667,118.004175 L70.4166667,118.004175 L70.4166667,118.004175 L70.4166667,118.004175 L70.4166667,118.004175 L70.4166667,118.043217 L70.3665216,118.140823 C70.3314201,118.214028 70.3013331,118.287233 70.2712461,118.365318 C70.1458835,118.672778 70.0405789,118.985119 69.9553323,119.253536 C69.8700858,119.521954 69.8048972,119.741568 69.7597667,119.907499 L69.6945782,120.151515 L67.9545455,119.46339 Z"
                          id="Path" fill="#CA926F"></path>
                    <line x1="74.1492424" y1="120.151515" x2="74.5628788" y2="115.227273" id="Path"
                          fill="#E3BE9A"></line>
                    <polygon id="Path" fill="#CA926F"
                             points="73.8636364 120.089962 75.0732872 115.227273 75.8333333 120.151515"></polygon>
                    <circle id="Oval" fill="#FFE266" cx="50.719697" cy="86.1742424" r="2.46212121"></circle>
                    <ellipse id="Oval" fill="#D5AB87" cx="20.1893939" cy="77.8030303" rx="3.4469697"
                             ry="2.95454545"></ellipse>
                    <ellipse id="Oval" fill="#D5AB87" cx="25.1136364" cy="84.6969697" rx="2.46212121"
                             ry="1.96969697"></ellipse>
                    <ellipse id="Oval" fill="#D5AB87" cx="72.3863636" cy="85.6818182" rx="3.4469697"
                             ry="2.95454545"></ellipse>
                    <circle id="Oval" fill="#D5AB87" cx="78.2954545" cy="90.1136364" r="1.47727273"></circle>
                    <circle id="Oval" fill="#D5AB87" cx="82.7272727" cy="84.6969697" r="1.96969697"></circle>
                    <path d="M47.2727273,8.86363636 L47.4226281,9.00474608 L47.846098,9.3891484 C48.0297265,9.55458738 48.2508302,9.74435561 48.5094092,9.96331896 C48.7679881,10.1822823 49.0602947,10.4158432 49.3825815,10.6640017 C50.0999469,11.2299197 50.8519935,11.7181555 51.631094,12.1237573 C51.8447027,12.2308061 52.0620589,12.3281231 52.2831627,12.4157085 C52.5042664,12.5032938 52.7328652,12.5762816 52.961464,12.6346718 L53.1338499,12.6784645 L53.3062359,12.7125255 L53.4786218,12.7368547 L53.6397652,12.7368547 L53.8271413,12.7368547 L54.0070223,12.7368547 C54.1194479,12.7368547 54.2318735,12.7368547 54.3555417,12.7368547 C54.8373872,12.6997417 55.3168454,12.6217213 55.7908422,12.5032938 L56.4991237,12.3135256 L56.8476431,12.2064768 L57.1886675,12.0945622 C58.09182,11.7928794 58.9312647,11.4571356 59.6507887,11.1651845 L60.6326392,10.7564529 L61.3821434,10.4304408 L62.0454545,10.1433555 L61.8918062,10.2747335 C61.7906231,10.357453 61.6444698,10.4790993 61.4495987,10.6250749 C61.2547276,10.7710504 61.0223813,10.9462211 60.7488123,11.1116601 C60.4752433,11.2770991 60.1641991,11.51066 59.8156796,11.7247575 C59.0250623,12.2126979 58.2114766,12.6352479 57.3797911,12.989879 L57.0312716,13.1309887 L56.6565195,13.2623668 L56.2817674,13.3888789 L55.9070154,13.5007935 C55.3965632,13.6499284 54.8777582,13.7459283 54.3555417,13.7878788 C54.2243785,13.7878788 54.0857202,13.7878788 53.9433144,13.7878788 L53.7446958,13.7878788 L53.5573198,13.7878788 L53.3924289,13.7878788 L53.1938102,13.748952 L52.9951916,13.7051593 L52.8003206,13.6516349 C52.3017212,13.5014003 51.8168207,13.2828331 51.3537775,12.9996107 C50.5514632,12.5086713 49.7967111,11.896181 49.105265,11.1749162 C48.8017158,10.8635016 48.5393893,10.5618188 48.3107906,10.2844652 C48.0821918,10.0071116 47.8910682,9.75895317 47.7374199,9.54972152 C47.5837715,9.34048988 47.4675984,9.1653192 47.3889004,9.0631363 L47.2727273,8.86363636 Z"
                          id="Path" fill="#BE936F"></path>
                    <path d="M46.2878788,14.7727273 L46.4530445,14.8276759 L46.9216541,14.9840681 L48.5886754,15.5462349 L49.6949014,15.9181948 L50.2979483,16.1126284 L50.9278826,16.3028352 L51.2505318,16.3958252 C51.3580816,16.4254129 51.4694724,16.4592275 51.5770222,16.4845884 C51.7959627,16.539537 52.0187444,16.6029393 52.2453671,16.6452074 L52.5833806,16.7170633 L52.9175531,16.7677851 L53.0865598,16.7931461 L53.2517255,16.7931461 L53.4168912,16.7931461 L53.4975535,16.7931461 L53.9277526,16.7931461 C54.0429844,16.7931461 54.1505342,16.7931461 54.261925,16.7635583 C54.4770245,16.7635583 54.7151704,16.7128365 54.9379521,16.6832488 C55.0531839,16.6832488 55.1645748,16.6452074 55.2798066,16.6283002 L55.6178202,16.5733515 L56.282324,16.446547 L56.9276226,16.3112889 L57.5460337,16.1760307 L58.6983525,15.9224216 L59.6624592,15.7068539 L60.4076254,15.5420081 L60.8877582,15.4405644 L61.0606061,15.4067499 L60.9031225,15.4912863 C60.7994138,15.5462349 60.6496123,15.6265444 60.4575592,15.7195344 C60.2655061,15.8125244 60.0312012,15.9308753 59.7546447,16.0492262 L59.3206046,16.2436598 L58.8327897,16.446547 L58.298882,16.6536611 L57.7227225,16.8607751 L57.1081525,17.0636624 C56.8968941,17.1312915 56.6817945,17.1904669 56.4590129,17.258096 C56.2362313,17.3257251 56.0096086,17.3764469 55.7829859,17.4356223 C55.5563632,17.4947978 55.3182173,17.5412928 55.0762303,17.5835609 C54.8342434,17.6258291 54.5999385,17.6723241 54.3387463,17.6934582 C54.2119912,17.6934582 54.077554,17.7230459 53.95464,17.7272727 L53.5935801,17.7272727 L53.4860304,17.7272727 L53.3900038,17.7272727 L53.1979506,17.7272727 L53.0058975,17.7272727 L52.8176854,17.697685 L52.4335792,17.6300559 L52.0725193,17.5412928 C51.6117192,17.4261725 51.1565944,17.2850928 50.708942,17.118611 L50.0751666,16.865002 L49.4721198,16.586032 L48.9151657,16.3197425 L48.4004633,16.0576798 C48.073973,15.8843803 47.7782111,15.7153076 47.5170189,15.5631422 C47.2558266,15.4109767 47.033045,15.2714917 46.8486739,15.1404604 C46.6643029,15.0094291 46.5221836,14.9248927 46.426157,14.8614904 L46.2878788,14.7727273 Z"
                          id="Path" fill="#BE936F"></path>
                </g>
            </g>
        </g>
    </g>
</svg>