<?xml version="1.0" encoding="UTF-8"?>
<svg width="1210px" height="320px" viewBox="0 0 1210 320" version="1.1" xmlns="http://www.w3.org/2000/svg">
    <!-- Generator: Sketch 59.1 (86144) - https://sketch.com -->
    <title>Artboard</title>
    <desc>Created with Sketch.</desc>
    <g id="Artboard" stroke="none" stroke-width="1" fill="none" fill-rule="evenodd">
        <g id="Group">
            <path d="M166,30.6896279 C166,30.6896279 100.351203,42.2197304 102.600282,108.51782 C104.849361,174.815909 92.2666747,226.578709 62.9678596,211.307456 C33.6690444,196.036204 14.7038363,184.138119 8.26052838,167.64026 C-9.73210499,121.949162 1.81722049,70.7996652 41.4496426,44.550283 C81.0820648,18.3009008 161.441056,-33.155248 166,30.6896279" id="Path" fill="#30333A" fill-rule="nonzero"></path>
            <path d="M276,30.7372496 C276,30.7372496 342.00694,42.1493642 339.745592,108.474611 C337.484243,174.799858 350.135573,226.583862 379.594226,211.306353 C409.052879,196.028845 428.121551,184.125887 434.60001,167.62127 C452.935271,121.911456 441.017351,70.7410062 401.168717,44.4808715 C361.320082,18.2207368 280.522698,-33.133779 276,30.7372496" id="Path" fill="#30333A" fill-rule="nonzero"></path>
            <path d="M226.24357,257.298993 C226.24357,256.566454 226.24357,245.090009 226.24357,241 L216.123454,241 C216.123454,246.127773 216.123454,255.89496 216.123454,256.566454 C218.822152,279.946657 147,283.059948 147,283.059948 C169.080252,307.477915 188.645808,315.902113 202.629967,318.404955 C210.112719,320.114213 254.886563,327.805872 295,283.731442 C295.30569,283.731442 223.544872,280.679196 226.24357,257.298993 Z" id="Path" fill="#30333A" fill-rule="nonzero"></path>
            <path d="M235.152344,199 C239.707054,199 243.445298,200.332018 246.367188,202.996094 C249.289077,205.66017 250.75,209.312477 250.75,213.953125 C250.75,218.679711 248.988299,223.191385 245.464844,227.488281 C242.183577,231.507833 238.11934,235.135818 233.27202,238.372335 L232.574219,238.832031 C230.511708,240.207038 228.578134,241.345699 226.773438,242.248047 L225.81268,242.721628 C224.503474,243.356593 223.534671,243.778808 222.90625,243.988281 L221.875,244.375 C219.468738,243.773434 215.902367,241.925797 211.175781,238.832031 C206.019505,235.480452 201.722673,231.69924 198.285156,227.488281 C194.761701,223.191385 193,218.679711 193,213.953125 C193,209.312477 194.460923,205.66017 197.382812,202.996094 C200.304702,200.332018 204.042946,199 208.597656,199 C211.261732,199 213.818347,199.601556 216.267578,200.804688 C218.716809,202.007819 220.585931,203.683583 221.875,205.832031 C223.164069,203.683583 225.033191,202.007819 227.482422,200.804688 C229.931653,199.601556 232.488268,199 235.152344,199 Z" id="-copy" fill="#30333A"></path>
            <path d="M178,305.990193 C186.311825,312.227643 195.941308,316.446165 206.137457,318.316761 C226.984591,322.486214 248.625283,318.848393 267,308.085709 C263.085223,293.78689 244.551203,283.001143 222.163574,283.001143 C200.876976,282.877877 183.138144,292.739132 178,305.990193 Z" id="Path" fill="#FF3366" fill-rule="nonzero"></path>
            <path d="M169,150 C172.768832,150 176.34288,150.833968 179.547672,152.32743 C178.734261,152.113777 177.880417,152 177,152 C171.477153,152 167,156.477153 167,162 C167,167.522847 171.477153,172 177,172 C182.522847,172 187,167.522847 187,162 C187,159.46241 186.054811,157.145581 184.497287,155.382366 C190.286129,159.960889 194,167.046734 194,175 C194,188.807119 182.807119,200 169,200 C155.192881,200 144,188.807119 144,175 C144,161.192881 155.192881,150 169,150 Z" id="Combined-Shape" fill="#30333A"></path>
            <path d="M276,150 C279.768832,150 283.34288,150.833968 286.547672,152.32743 C285.734261,152.113777 284.880417,152 284,152 C278.477153,152 274,156.477153 274,162 C274,167.522847 278.477153,172 284,172 C289.522847,172 294,167.522847 294,162 C294,159.46241 293.054811,157.145581 291.497287,155.382366 C297.286129,159.960889 301,167.046734 301,175 C301,188.807119 289.807119,200 276,200 C262.192881,200 251,188.807119 251,175 C251,161.192881 262.192881,150 276,150 Z" id="Combined-Shape-Copy" fill="#30333A"></path>
        </g>
        <path d="M561.513514,320 C583.810811,320 599.621622,305.835635 599.621622,281.553867 L599.621622,193.33011 L677.054054,286.814917 C701.783784,317.167127 712.72973,320 725.702703,320 C747.594595,320 763,305.835635 763,283.172652 C763,274.269337 758.945946,265.366022 751.648649,257.272099 L669.756757,164.596685 L735.837838,92.9654696 C745.162162,82.8480663 749.621622,73.5400552 749.621622,62.6132597 C749.621622,43.1878453 730.567568,27 713.135135,27 L712.273615,27.0043879 C699.058112,27.1416997 692.169275,30.561326 678.675676,45.6160221 L599.621622,138.696133 L599.621622,65.4461326 C599.621622,41.1643646 583.810811,27 561.513514,27 C538.810811,27 523,41.1643646 523,65.4461326 L523,281.553867 C523,305.835635 538.810811,320 561.513514,320 Z M812.40566,86 C836.745283,86 855,66.9339623 855,43 C855,18.6603774 837.150943,0 812.40566,0 C788.471698,0 769,19.0660377 769,43 C769,67.3396226 789.688679,86 812.40566,86 Z M812.701657,320 C833.270718,320 849,303.014706 849,283.602941 L849,136.397059 C849,116.985294 834.480663,100 812.701657,100 C791.729282,100 776,116.985294 776,136.397059 L776,283.602941 C776,303.014706 791.729282,320 812.701657,320 Z M915.513514,320 C937.810811,320 953.621622,305.835635 953.621622,281.553867 L953.621622,193.33011 L1031.05405,286.814917 C1055.78378,317.167127 1066.72973,320 1079.7027,320 C1101.59459,320 1117,305.835635 1117,283.172652 C1117,274.269337 1112.94595,265.366022 1105.64865,257.272099 L1023.75676,164.596685 L1089.83784,92.9654696 C1099.16216,82.8480663 1103.62162,73.5400552 1103.62162,62.6132597 C1103.62162,43.1878453 1084.56757,27 1067.13514,27 L1066.27362,27.0043879 C1053.05811,27.1416997 1046.16927,30.561326 1032.67568,45.6160221 L953.621622,138.696133 L953.621622,65.4461326 C953.621622,41.1643646 937.810811,27 915.513514,27 C892.810811,27 877,41.1643646 877,65.4461326 L877,281.553867 C877,305.835635 892.810811,320 915.513514,320 Z M1167.40566,86 C1191.74528,86 1210,66.9339623 1210,43 C1210,18.6603774 1192.15094,0 1167.40566,0 C1143.4717,0 1124,19.0660377 1124,43 C1124,67.3396226 1144.68868,86 1167.40566,86 Z M1167.70166,320 C1146.72928,320 1131,303.014706 1131,283.602941 L1131,136.397059 C1131,116.985294 1146.72928,100 1167.70166,100 C1189.48066,100 1204,116.985294 1204,136.397059 L1204,283.602941 C1204,303.014706 1188.27072,320 1167.70166,320 Z" id="KiKi" fill="#FF3366" fill-rule="nonzero"></path>
    </g>
</svg>