<?xml version="1.0" encoding="UTF-8"?>
<svg width="26px" height="26px" viewBox="0 0 26 26" version="1.1" xmlns="http://www.w3.org/2000/svg">
    <!-- Generator: Sketch 56.2 (81672) - https://sketch.com -->
    <title>IC/Notifycation</title>
    <desc>Created with Sketch.</desc>
    <g id="IC/Notifycation" stroke="none" stroke-width="1" fill="none" fill-rule="evenodd">
        <g id="-2" transform="translate(3.000000, 1.000000)" fill="#FFD900" fill-rule="nonzero">
            <path d="M15.956024,18 L15.956024,10.0091324 C15.956024,8.90105991 15.7159456,7.88889347 15.2357816,6.97260274 C14.7556176,6.05631201 14.0713941,5.34246831 13.1830907,4.83105023 C12.2707791,4.27701397 11.2024302,4 9.978012,4 C8.75359378,4 7.68524489,4.27701397 6.77293328,4.83105023 C5.88462986,5.34246831 5.20040642,6.05631201 4.72024241,6.97260274 C4.2400784,7.88889347 4,8.90105991 4,10.0091324 L4,18 L15.956024,18 Z M17.513006,16.3662791 L19.6041135,18.3933553 C19.8776211,18.6584878 20.032,19.0231477 20.032,19.4040698 C20.032,19.7331929 19.7651929,20 19.4360698,20 L0.595930233,20 C0.266807053,20 7.64236501e-14,19.7331929 7.63833441e-14,19.4040698 C7.63366946e-14,19.0231477 0.154378929,18.6584878 0.42788649,18.3933553 L2.51899401,16.3662791 L2.51899401,10.3488372 C2.51899401,8.44960291 3.00879351,6.81202238 3.98840719,5.43604651 C4.98801298,4.02131076 6.3774442,3.10077733 8.15674251,2.6744186 L8.15674251,1.83139535 C8.15674251,1.32751686 8.33666886,0.896319622 8.69652695,0.537790698 C9.05638503,0.179261773 9.49620499,-1.77635684e-15 10.016,-1.77635684e-15 C10.535795,-1.77635684e-15 10.9806129,0.179261773 11.3504671,0.537790698 C11.7203212,0.896319622 11.9052455,1.32751686 11.9052455,1.83139535 L11.9052455,2.6744186 C13.6645517,3.10077733 15.043987,4.03100058 16.0435928,5.46511628 C17.0232065,6.84109215 17.513006,8.46898285 17.513006,10.3488372 L17.513006,16.3662791 Z M10,23.459018 C9.19047214,23.459018 8.48809524,23.2191162 7.89285714,22.7393054 C7.29761607,22.2594946 7,21.6797319 7,21 L13,21 C13,21.6797319 12.7023839,22.2594946 12.1071429,22.7393054 C11.5119018,23.2191162 10.8095279,23.459018 10,23.459018 Z"
                  id=""></path>
        </g>
    </g>
</svg>