<?xml version="1.0" encoding="UTF-8"?>
<svg width="26px" height="26px" viewBox="0 0 26 26" version="1.1" xmlns="http://www.w3.org/2000/svg">
    <!-- Generator: Sketch 56.2 (81672) - https://sketch.com -->
    <title>IC/Profile</title>
    <desc>Created with Sketch.</desc>
    <g id="IC/Profile" stroke="none" stroke-width="1" fill="none" fill-rule="evenodd">
        <g id="Group" transform="translate(5.000000, 4.000000)" fill-rule="nonzero" stroke="#FD4468">
            <path d="M0,19 L0,16.312 C0,15.2239946 0.525942844,14.242671 1.57784431,13.368 C2.46008425,12.6213296 3.61376533,12.0240022 5.03892216,11.576 C6.29441746,11.1919981 7.44809853,11 8.5,11 C9.55190147,11 10.7055825,11.1919981 11.9610778,11.576 C13.3862347,12.0240022 14.5399157,12.6213296 15.4221557,13.368 C16.4740572,14.242671 17,15.2239946 17,16.312 L17,19"
                  id="Path" stroke-linecap="round"></path>
            <path d="M8.5,9 C7.68674292,9 6.93675042,8.79790621 6.25,8.39371257 C5.56324958,7.98951894 5.0165683,7.4461112 4.60993976,6.76347305 C4.20331122,6.08083491 4,5.33533338 4,4.52694611 C4,3.71855883 4.20331122,2.96407536 4.60993976,2.26347305 C5.0165683,1.56287075 5.56324958,1.01048106 6.25,0.606287425 C6.93675042,0.202093787 7.68674292,0 8.5,0 C9.31325708,0 10.0632496,0.202093787 10.75,0.606287425 C11.4367504,1.01048106 11.9834317,1.56287075 12.3900602,2.26347305 C12.7966888,2.96407536 13,3.71855883 13,4.52694611 C13,5.33533338 12.7966888,6.08083491 12.3900602,6.76347305 C11.9834317,7.4461112 11.4367504,7.98951894 10.75,8.39371257 C10.0632496,8.79790621 9.31325708,9 8.5,9 Z"
                  id="Path"></path>
        </g>
    </g>
</svg>