<?xml version="1.0" encoding="UTF-8"?>
<svg width="34px" height="34px" viewBox="0 0 34 34" version="1.1" xmlns="http://www.w3.org/2000/svg">
    <!-- Generator: Sketch 56.2 (81672) - https://sketch.com -->
    <title>Component/Reset_Black</title>
    <desc>Created with Sketch.</desc>
    <g id="Component/Reset_Black" stroke="none" stroke-width="1" fill="none" fill-rule="evenodd">
        <g id="Group-3">
            <circle id="Oval" stroke="#2B2B2B" cx="17" cy="17" r="16.5"></circle>
            <path d="M22.664,10.936 L25.016,8.584 L25.016,15.616 L17.984,15.616 L21.224,12.376 C20.6639972,11.8159972 20.0200036,11.3800016 19.292,11.068 C18.5639964,10.7559984 17.800004,10.6 17,10.6 C15.9119946,10.6 14.9080046,10.8679973 13.988,11.404 C13.0679954,11.9400027 12.3400027,12.6679954 11.804,13.588 C11.2679973,14.5080046 11,15.5119946 11,16.6 C11,17.6880054 11.2679973,18.6919954 11.804,19.612 C12.3400027,20.5320046 13.0679954,21.2599973 13.988,21.796 C14.9080046,22.3320027 15.9119946,22.6 17,22.6 C18.2960065,22.6 19.4639948,22.2320037 20.504,21.496 C21.5440052,20.7599963 22.263998,19.8000059 22.664,18.616 L24.728,18.616 C24.4399986,19.7680058 23.9200038,20.7959955 23.168,21.7 C22.4159962,22.6040045 21.5200052,23.3119974 20.48,23.824 C19.3919946,24.3520026 18.2320062,24.616 17,24.616 C15.5599928,24.616 14.2160062,24.2480037 12.968,23.512 C11.767994,22.8079965 10.8160035,21.8480061 10.112,20.632 C9.3919964,19.3999938 9.032,18.0560073 9.032,16.6 C9.032,15.1439927 9.3919964,13.8000062 10.112,12.568 C10.8160035,11.3519939 11.767994,10.3920035 12.968,9.688 C14.2160062,8.95199632 15.5599928,8.584 17,8.584 C18.0880054,8.584 19.1199951,8.79199792 20.096,9.208 C21.0720049,9.62400208 21.9279963,10.1999963 22.664,10.936 Z"
                  id="" fill="#2B2B2B" fill-rule="nonzero"></path>
        </g>
    </g>
</svg>