<?xml version="1.0" encoding="UTF-8"?>
<svg width="24px" height="24px" viewBox="0 0 24 24" version="1.1" xmlns="http://www.w3.org/2000/svg">
    <!-- Generator: Sketch 56.2 (81672) - https://sketch.com -->
    <title>Component/Img/Resize_InActive Copy</title>
    <desc>Created with Sketch.</desc>
    <g id="Component/Img/Resize_InActive-Copy" stroke="none" stroke-width="1" fill="none" fill-rule="evenodd">
        <g id="-2" transform="translate(0.984000, 0.584000)" fill="#7B7C7D" fill-rule="nonzero">
            <path d="M6,16.032 L22.032,16.032 L22.032,18 L18,18 L18,22.032 L16.032,22.032 L16.032,18 L6,18 C5.45599728,18 4.99200192,17.8080019 4.608,17.424 C4.22399808,17.0399981 4.032,16.5760027 4.032,16.032 L4.032,6 L-3.90798505e-14,6 L-3.90798505e-14,4.032 L4.032,4.032 L4.032,1.95399252e-14 L6,1.95399252e-14 L6,16.032 Z M16.032,14.016 L16.032,6 L8.016,6 L8.016,4.032 L16.032,4.032 C16.5760027,4.032 17.0399981,4.22399808 17.424,4.608 C17.8080019,4.99200192 18,5.45599728 18,6 L18,14.016 L16.032,14.016 Z"
                  id=""></path>
        </g>
    </g>
</svg>