<?xml version="1.0" encoding="UTF-8"?>
<svg width="34px" height="34px" viewBox="0 0 34 34" version="1.1" xmlns="http://www.w3.org/2000/svg">
    <!-- Generator: Sketch 56.2 (81672) - https://sketch.com -->
    <title>Component/TextAlign_Black Copy</title>
    <desc>Created with Sketch.</desc>
    <g id="Component/TextAlign_Black-Copy" stroke="none" stroke-width="1" fill="none" fill-rule="evenodd">
        <path d="M17.0350017,26.66 L17.0350017,8.57 L11.7550017,13.85 C11.0549982,14.5300034 10.5100037,15.3349953 10.1200017,16.265 C9.72999977,17.1950047 9.53500173,18.159995 9.53500173,19.16 C9.53500173,20.4800066 9.88499823,21.7299941 10.5850017,22.91 C11.2650051,24.0300056 12.179996,24.9349966 13.3300017,25.625 C14.4800075,26.3150034 15.7149951,26.66 17.0350017,26.66 Z M24.1150017,12.08 C25.3950081,13.3600064 26.2649994,14.8699913 26.7250017,16.61 C27.185004,18.2900084 27.185004,19.9799915 26.7250017,21.68 C26.2649994,23.4200087 25.3950081,24.9299936 24.1150017,26.21 C23.174997,27.1500047 22.0900079,27.8699975 20.8600017,28.37 C19.6299956,28.8700025 18.3550083,29.12 17.0350017,29.12 C15.7149951,29.12 14.4400079,28.8700025 13.2100017,28.37 C11.9799956,27.8699975 10.8950064,27.1500047 9.95500172,26.21 C8.67499533,24.9299936 7.80500402,23.4200087 7.34500172,21.68 C6.88499943,19.9799915 6.88499943,18.2900084 7.34500172,16.61 C7.80500402,14.8699913 8.67499533,13.3600064 9.95500172,12.08 L17.0350017,5 L24.1150017,12.08 Z"
              id="" fill="#2B2B2B" fill-rule="nonzero"></path>
    </g>
</svg>