<?xml version="1.0" encoding="UTF-8"?>
<svg width="66px" height="79px" viewBox="0 0 66 79" version="1.1" xmlns="http://www.w3.org/2000/svg">
    <!-- Generator: Sketch 56.2 (81672) - https://sketch.com -->
    <title>Group 2</title>
    <desc>Created with Sketch.</desc>
    <g id="Deck_Mine/Create" stroke="none" stroke-width="1" fill="none" fill-rule="evenodd" stroke-opacity="0.1">
        <g id="Deck_MyDeck1-Copy" transform="translate(-247.000000, -290.000000)" stroke="#2B2B2B">
            <g id="Group-2" transform="translate(247.000000, 288.852096)">
                <path d="M9.611358,17.0346579 L9.611358,11.1547053 C9.611358,8.39328155 11.8499343,6.1547053 14.611358,6.1547053 L14.611358,6.1547053 L54.611358,6.1547053 C57.3727818,6.1547053 59.611358,8.39328155 59.611358,11.1547053 L59.611358,63.7408702"
                      id="Path"
                      transform="translate(34.611358, 34.947788) rotate(15.000000) translate(-34.611358, -34.947788) "></path>
                <path d="M5,13.6479036 C2.51471863,13.6479036 0.5,15.6626222 0.5,18.1479036 L0.5,74.8145703 C0.5,77.2998516 2.51471863,79.3145703 5,79.3145703 L45,79.3145703 C47.4852814,79.3145703 49.5,77.2998516 49.5,74.8145703 L49.5,18.1479036 C49.5,15.6626222 47.4852814,13.6479036 45,13.6479036 L5,13.6479036 Z M27.396697,41.4953306 L35.9101194,41.5554578 L21.1454147,64.5973679 L21.1454147,49.2131639 L14.1077745,49.2131639 L27.4857802,27.354652 L27.396697,41.4953306 Z"
                      id="Combined-Shape"></path>
            </g>
        </g>
    </g>
</svg>