<?xml version="1.0" encoding="UTF-8"?>
<svg width="24px" height="23px" viewBox="0 0 24 23" version="1.1" xmlns="http://www.w3.org/2000/svg">
    <!-- Generator: Sketch 56.2 (81672) - https://sketch.com -->
    <title>IC/Del_Char_White</title>
    <desc>Created with Sketch.</desc>
    <g id="Review" stroke="none" stroke-width="1" fill="none" fill-rule="evenodd">
        <g id="Review18" transform="translate(-65.000000, -503.000000)">
            <g id="edit-text" transform="translate(0.000000, 492.000000)">
                <g id="heading" transform="translate(0.000000, 10.000000)">
                    <g id="IC/Tips_White" transform="translate(65.000000, 0.000000)">
                        <g>
                            <path d="M9.6,23.1872 L9.6,22.4 L14.4,22.4 L14.4,23.1872 C14.4,23.4048011 14.3232008,23.5903992 14.1696,23.744 C14.0159992,23.8976008 13.8304011,23.9744 13.6128,23.9744 L10.3872,23.9744 C10.1695989,23.9744 9.98400077,23.8976008 9.8304,23.744 C9.67679923,23.5903992 9.6,23.4048011 9.6,23.1872 Z"
                                  id="Path" fill="#FFFFFF" fill-rule="nonzero"></path>
                            <path d="M15.0391431,18.0977874 L14.4291866,18.583429 L14.4291866,21.3 L9.5708134,21.3 L9.5708134,18.5833703 L8.96653772,18.1020637 C8.24231213,17.5576257 7.6811701,16.8615958 7.2869401,16.0201244 C6.89581385,15.1852779 6.7,14.2936333 6.7,13.3504 C6.7,12.2978917 6.93339891,11.3222843 7.4000583,10.4305648 C7.86802153,9.53635395 8.50804062,8.822946 9.31595709,8.29762076 C10.1319121,7.76706867 11.0303937,7.5 12,7.5 C12.9696063,7.5 13.8680879,7.76706867 14.6840429,8.29762076 C15.4919594,8.822946 16.1319785,9.53635395 16.5999417,10.4305648 C17.0666011,11.3222843 17.3,12.2978917 17.3,13.3504 C17.3,14.2936333 17.1041861,15.1852779 16.7130599,16.0201244 C16.3198613,16.8593943 15.7606229,17.5539827 15.0391431,18.0977874 Z"
                                  id="Path" stroke="#FFFFFF" fill-rule="nonzero"></path>
                            <rect id="Rectangle" stroke="#FFFFFF" fill="#2B2B2B" x="12.5" y="2.1" width="1" height="3.8"
                                  rx="0.5"></rect>
                            <path d="M6,3.7 C5.94477153,3.7 5.9,3.65522847 5.9,3.6 L5.9,7.6 C5.9,7.54477153 5.94477153,7.5 6,7.5 C6.05522847,7.5 6.1,7.54477153 6.1,7.6 L6.1,3.6 C6.1,3.65522847 6.05522847,3.7 6,3.7 Z"
                                  id="Rectangle-Copy-2" stroke="#FFFFFF" fill="#2B2B2B"
                                  transform="translate(6.000000, 5.600000) rotate(-30.000000) translate(-6.000000, -5.600000) "></path>
                            <path d="M2.8,10.1 C2.74477153,10.1 2.7,10.0552285 2.7,10 L2.7,14 C2.7,13.9447715 2.74477153,13.9 2.8,13.9 C2.85522847,13.9 2.9,13.9447715 2.9,14 L2.9,10 C2.9,10.0552285 2.85522847,10.1 2.8,10.1 Z"
                                  id="Rectangle-Copy-4" stroke="#FFFFFF" fill="#2B2B2B"
                                  transform="translate(2.800000, 12.000000) rotate(-90.000000) translate(-2.800000, -12.000000) "></path>
                            <path d="M18.8,3.7 C18.7447715,3.7 18.7,3.65522847 18.7,3.6 L18.7,7.6 C18.7,7.54477153 18.7447715,7.5 18.8,7.5 C18.8552285,7.5 18.9,7.54477153 18.9,7.6 L18.9,3.6 C18.9,3.65522847 18.8552285,3.7 18.8,3.7 Z"
                                  id="Rectangle-Copy" stroke="#FFFFFF" fill="#2B2B2B"
                                  transform="translate(18.800000, 5.600000) rotate(30.000000) translate(-18.800000, -5.600000) "></path>
                            <path d="M21.2,10.1 C21.1447715,10.1 21.1,10.0552285 21.1,10 L21.1,14 C21.1,13.9447715 21.1447715,13.9 21.2,13.9 C21.2552285,13.9 21.3,13.9447715 21.3,14 L21.3,10 C21.3,10.0552285 21.2552285,10.1 21.2,10.1 Z"
                                  id="Rectangle-Copy-3" stroke="#FFFFFF" fill="#2B2B2B"
                                  transform="translate(21.200000, 12.000000) rotate(90.000000) translate(-21.200000, -12.000000) "></path>
                        </g>
                    </g>
                </g>
            </g>
        </g>
    </g>
</svg>