<?xml version="1.0" encoding="UTF-8"?>
<svg width="20px" height="20px" viewBox="0 0 20 20" version="1.1" xmlns="http://www.w3.org/2000/svg">
    <!-- Generator: Sketch 59.1 (86144) - https://sketch.com -->
    <title>bot/icon/translate</title>
    <desc>Created with Sketch.</desc>
    <g id="bot/icon/translate" stroke="none" stroke-width="1" fill="none" fill-rule="evenodd">
        <path d="M13.3203125,17.65625 L16.4453125,20 L16.4453125,17.65625 L20,17.65625 L20,7.0703125 L12.9296875,7.0703125 L12.9296875,0 L0,0 L0,10.5859375 L3.5546875,10.5859375 L3.5546875,12.9296875 L6.6796875,10.5859375 L7.0703125,10.5859375 L7.0703125,17.65625 L13.3203125,17.65625 Z M18.828125,16.484375 L15.2734375,16.484375 L15.2734375,17.65625 L13.7109375,16.484375 L8.2421875,16.484375 L8.2421875,8.2421875 L18.828125,8.2421875 L18.828125,16.484375 Z M6.2890625,9.4140625 L4.7265625,10.5859375 L4.7265625,9.4140625 L1.171875,9.4140625 L1.171875,1.171875 L11.7578125,1.171875 L11.7578125,7.0703125 L9.19021605,7.0703125 L6.484375,1.65863039 L3.61648559,7.3942566 L4.6646118,7.91839602 L5.3816223,6.484375 L7.5871277,6.484375 L7.88009645,7.0703125 L7.0703125,7.0703125 L7.0703125,9.4140625 L6.2890625,9.4140625 Z M7.0011902,5.3125 L5.9675598,5.3125 L6.484375,4.27886961 L7.0011902,5.3125 Z"
              id="Shape" fill="#E8E8E8" fill-rule="nonzero"></path>
        <path d="M13.1585938,12.97625 C12.5151562,13.518125 11.9076562,13.8 11.6,13.8 L11.6,15 C12.373125,15 13.301875,14.4342188 14,13.8346875 C14.698125,14.4342188 15.626875,15 16.4,15 L16.4,13.8 C16.0923438,13.8 15.4848438,13.518125 14.8414062,12.97625 C15.1898438,12.5526562 15.5564062,11.998125 15.7165625,11.4 L17,11.4 L17,10.2 L14.6,10.2 L14.6,9 L13.4,9 L13.4,10.2 L11,10.2 L11,11.4 L12.2834375,11.4 C12.4435938,11.998125 12.8101562,12.5526562 13.1585938,12.97625 L13.1585938,12.97625 Z M14,12.1085938 C13.8107812,11.8651562 13.6601562,11.62375 13.5571875,11.3995312 L14.4428125,11.3995312 C14.3398438,11.62375 14.1892188,11.8651562 14,12.1085938 Z"
              id="Shape" fill="#E8E8E8" fill-rule="nonzero"></path>
    </g>
</svg>