<?xml version="1.0" encoding="UTF-8"?>
<svg width="28px" height="28px" viewBox="0 0 28 28" version="1.1" xmlns="http://www.w3.org/2000/svg">
    <!-- Generator: Sketch 56.2 (81672) - https://sketch.com -->
    <title>IC_Bar/VideoCall/Active</title>
    <desc>Created with Sketch.</desc>
    <g id="IC_Bar/VideoCall/Active" stroke="none" stroke-width="1" fill="none" fill-rule="evenodd">
        <path d="M3.52119879,24.7979837 C6.2770577,23.860441 7.74149657,23.5683455 8.30256537,23.9553386 C10.0378267,25.1522223 11.3880287,25.5 14,25.5 C20.3512746,25.5 25.5,20.3512746 25.5,14 C25.5,7.64872538 20.3512746,2.5 14,2.5 C7.64872538,2.5 2.5,7.64872538 2.5,14 C2.5,16.6982081 2.83231102,18.0576584 4.01389657,19.7624847 C4.38133418,20.2926344 4.20210042,21.8404737 3.52119879,24.7979837 Z"
              id="Oval" stroke="#FD4468" fill="#FFFFFF"></path>
        <path d="M8,9.5 C7.17157288,9.5 6.5,10.1715729 6.5,11 L6.5,17 C6.5,17.8284271 7.17157288,18.5 8,18.5 L15,18.5 C15.8284271,18.5 16.5,17.8284271 16.5,17 L16.5,11 C16.5,10.1715729 15.8284271,9.5 15,9.5 L8,9.5 Z M18.7437209,12.1230227 C18.5925689,12.2132504 18.5,12.376315 18.5,12.552349 L18.5,15.4465518 C18.5,15.6225537 18.5925355,15.7855936 18.7436438,15.8758319 L21.7436438,17.6673628 C21.8211453,17.7136449 21.9097308,17.7380826 22,17.7380826 C22.2761424,17.7380826 22.5,17.514225 22.5,17.2380826 L22.5,10.7615489 C22.5,10.6713102 22.4755788,10.5827535 22.4293262,10.5052698 C22.2877872,10.2681595 21.9808312,10.1906836 21.7437209,10.3322227 L18.7437209,12.1230227 Z"
              id="Combined-Shape" stroke="#FD4468" fill="#FFFFFF"></path>
    </g>
</svg>