<?xml version="1.0" encoding="UTF-8"?>
<svg width="30px" height="30px" viewBox="0 0 30 30" version="1.1" xmlns="http://www.w3.org/2000/svg">
    <!-- Generator: Sketch 55.1 (78136) - https://sketchapp.com -->
    <title>IC/View_Gray</title>
    <desc>Created with Sketch.</desc>
    <g id="IC/View_Gray" stroke="none" stroke-width="1" fill="none" fill-rule="evenodd">
        <g id="Group-3" transform="translate(1.000000, 6.000000)" fill-rule="nonzero">
            <path d="M0.542933132,9.01438984 C1.24527368,10.6391116 2.24211281,12.0786007 3.53582469,13.3358264 C4.88261811,14.6446366 6.44000395,15.6605535 8.20992325,16.3847457 C10.0408435,17.1283187 11.9696545,17.5 14,17.5 C16.0303455,17.5 17.9591565,17.1283187 19.7888674,16.3852387 C21.5599961,15.6605535 23.1173819,14.6446366 24.4641753,13.3358264 C25.7578872,12.0786007 26.7547263,10.6391116 27.4570669,9.01438984 C26.7545114,7.38882395 25.7572462,5.94409285 24.4629108,4.67734044 C23.1163441,3.35946978 21.5593967,2.33920121 19.7900768,1.61525432 C17.9591565,0.871681316 16.0303455,0.5 14,0.5 C11.9696545,0.5 10.0408435,0.871681316 8.21113257,1.61476135 C6.44060333,2.33920121 4.88365588,3.35946978 3.53708916,4.67734044 C2.24275379,5.94409285 1.24548863,7.38882395 0.542933132,9.01438984 Z"
                  id="Path" stroke="#7B7C7D"></path>
            <path d="M15.4723476,4.22030463 C14.6041912,4.61226942 14,5.48557651 14,6.5 C14,7.88071187 15.1192881,9 16.5,9 C17.5144235,9 18.3877306,8.39580883 18.7796954,7.52765238 C18.9229103,7.99312005 19,8.4875574 19,9 C19,11.7614237 16.7614237,14 14,14 C11.2385763,14 9,11.7614237 9,9 C9,6.23857625 11.2385763,4 14,4 C14.5124426,4 15.0068799,4.07708968 15.4723476,4.22030463 Z"
                  id="Combined-Shape" fill="#7B7C7D"></path>
        </g>
    </g>
</svg>